<svg width="73" height="89" viewBox="0 0 73 89" fill="none" xmlns="http://www.w3.org/2000/svg">
<g clip-path="url(#clip0_308_2721)">
<path d="M60.449 47.2681C60.3487 36.0834 69.584 30.7138 70.0017 30.452C64.8048 22.8488 56.717 21.8072 53.8317 21.6847C46.9527 20.9884 40.4022 25.7341 36.9154 25.7341C33.4285 25.7341 28.0366 21.7849 22.3328 21.8963C14.8243 22.0077 7.91185 26.2577 4.0462 32.9753C-3.74637 46.4939 2.05768 66.5296 9.64415 77.5026C13.3594 82.8666 17.7821 88.9102 23.5972 88.6874C29.2008 88.4646 31.3174 85.0668 38.0795 85.0668C44.8416 85.0668 46.7466 88.6874 52.6676 88.5816C58.6889 88.4646 62.51 83.1006 66.1974 77.7198C70.4529 71.4925 72.2131 65.4656 72.3133 65.1482C72.1796 65.0925 60.5715 60.6419 60.449 47.2681" fill="white"/>
<path d="M49.3252 14.4251C52.411 10.6875 54.4942 5.49054 53.9204 0.310547C49.4751 0.488983 44.0947 3.2739 40.903 7.01144C38.0456 10.3147 35.539 15.6061 36.2183 20.6806C41.1758 21.065 46.2389 18.1571 49.3252 14.4251" fill="white"/>
</g>
<defs>
<clipPath id="clip0_308_2721">
<rect width="72" height="88.4513" fill="white" transform="translate(0.333008 0.274414)"/>
</clipPath>
</defs>
</svg>
