<svg width="19" height="19" viewBox="0 0 19 19" fill="none" xmlns="http://www.w3.org/2000/svg">
<g clip-path="url(#clip0_150_695)">
<path d="M9.7793 18.5C10.376 18.5 10.9483 18.263 11.3703 17.841C11.7922 17.419 12.0293 16.8467 12.0293 16.25H7.5293C7.5293 16.8467 7.76635 17.419 8.18831 17.841C8.61026 18.263 9.18256 18.5 9.7793 18.5ZM9.7793 2.65776L8.88267 2.83888C7.86563 3.04611 6.95142 3.59837 6.29478 4.40221C5.63814 5.20604 5.27941 6.21207 5.2793 7.25001C5.2793 7.95651 5.12855 9.72163 4.76292 11.4598C4.58292 12.3226 4.33992 13.2215 4.01705 14H15.5415C15.2187 13.2215 14.9768 12.3238 14.7957 11.4598C14.43 9.72163 14.2793 7.95651 14.2793 7.25001C14.2789 6.21226 13.9201 5.2065 13.2635 4.4029C12.6068 3.5993 11.6928 3.04719 10.6759 2.84001L9.7793 2.65663V2.65776ZM16.7768 14C17.0277 14.5029 17.3179 14.9011 17.6543 15.125H1.9043C2.24067 14.9011 2.53092 14.5029 2.7818 14C3.7943 11.975 4.1543 8.24001 4.1543 7.25001C4.1543 4.52751 6.0893 2.25501 8.65992 1.73638C8.64422 1.57996 8.66148 1.42197 8.71058 1.27263C8.75969 1.12328 8.83955 0.985884 8.94502 0.869298C9.05049 0.752712 9.17922 0.659527 9.32292 0.59575C9.46662 0.531974 9.62208 0.499023 9.7793 0.499023C9.93651 0.499023 10.092 0.531974 10.2357 0.59575C10.3794 0.659527 10.5081 0.752712 10.6136 0.869298C10.719 0.985884 10.7989 1.12328 10.848 1.27263C10.8971 1.42197 10.9144 1.57996 10.8987 1.73638C12.1702 1.99502 13.3133 2.68516 14.1344 3.68995C14.9555 4.69473 15.4041 5.9524 15.4043 7.25001C15.4043 8.24001 15.7643 11.975 16.7768 14Z" fill="white"/>
</g>
<defs>
<clipPath id="clip0_150_695">
<rect width="18" height="18" fill="white" transform="translate(0.779297 0.5)"/>
</clipPath>
</defs>
</svg>
