<svg width="37" height="37" viewBox="0 0 37 37" fill="none" xmlns="http://www.w3.org/2000/svg">
<g opacity="0.2" filter="url(#filter0_d_76_222)">
<path d="M31.1597 19.687C29.4234 26.6514 22.3692 30.8894 15.4041 29.153C8.44217 27.4167 4.20377 20.3626 5.94049 13.3987C7.67599 6.43352 14.7297 2.1947 21.6928 3.93102C28.6576 5.66733 32.8956 12.7223 31.1593 19.687H31.1597Z" fill="#F7931A"/>
</g>
<path fill-rule="evenodd" clip-rule="evenodd" d="M22.4651 15.0317C22.6404 13.8582 21.7469 13.2274 20.5252 12.8065L20.9215 11.2169L19.9536 10.9758L19.5678 12.5235C19.3137 12.4601 19.0524 12.4003 18.7928 12.3411L19.1814 10.7831L18.2143 10.542L17.8177 12.1311C17.6072 12.0831 17.4005 12.0357 17.1998 11.9858L17.2009 11.9809L15.8665 11.6477L15.6091 12.6812C15.6091 12.6812 16.327 12.8457 16.3119 12.8559C16.7038 12.9537 16.7749 13.2131 16.7628 13.4186L16.3113 15.2296C16.3383 15.2365 16.3733 15.2464 16.4119 15.2618L16.31 15.2365L15.6769 17.7733C15.629 17.8924 15.5074 18.0709 15.2335 18.0032C15.2431 18.0172 14.5302 17.8276 14.5302 17.8276L14.0498 18.9355L15.3093 19.2494C15.4515 19.285 15.5919 19.3217 15.7308 19.3579C15.8208 19.3814 15.9101 19.4047 15.9988 19.4274L15.5984 21.0355L16.5649 21.2767L16.9617 19.6859C17.2255 19.7576 17.4818 19.8237 17.7326 19.886L17.3374 21.4693L18.305 21.7104L18.7054 20.1057C20.3554 20.4179 21.5964 20.292 22.1181 18.7999C22.5389 17.5983 22.0974 16.9052 21.2293 16.4529C21.8615 16.3066 22.3377 15.8907 22.4648 15.0317H22.4651ZM20.254 18.1319C19.9793 19.2347 18.2527 18.7784 17.4634 18.5698C17.3927 18.5511 17.3296 18.5344 17.2756 18.521L17.807 16.3909C17.8729 16.4074 17.9534 16.4254 18.0446 16.4459L18.0447 16.4459C18.8612 16.6292 20.5346 17.0047 20.2543 18.1319H20.254ZM18.2088 15.4575C18.8674 15.6332 20.3029 16.0162 20.553 15.0143C20.8087 13.9894 19.4127 13.6805 18.731 13.5296C18.6544 13.5127 18.5867 13.4977 18.5315 13.484L18.0498 15.4159C18.0954 15.4272 18.1489 15.4415 18.2088 15.4575Z" fill="#F7931A"/>
<defs>
<filter id="filter0_d_76_222" x="0.55127" y="0.541992" width="35.9971" height="36" filterUnits="userSpaceOnUse" color-interpolation-filters="sRGB">
<feFlood flood-opacity="0" result="BackgroundImageFix"/>
<feColorMatrix in="SourceAlpha" type="matrix" values="0 0 0 0 0 0 0 0 0 0 0 0 0 0 0 0 0 0 127 0" result="hardAlpha"/>
<feOffset dy="2"/>
<feGaussianBlur stdDeviation="2.5"/>
<feComposite in2="hardAlpha" operator="out"/>
<feColorMatrix type="matrix" values="0 0 0 0 0.858333 0 0 0 0 0.791682 0 0 0 0 0.711701 0 0 0 1 0"/>
<feBlend mode="normal" in2="BackgroundImageFix" result="effect1_dropShadow_76_222"/>
<feBlend mode="normal" in="SourceGraphic" in2="effect1_dropShadow_76_222" result="shape"/>
</filter>
</defs>
</svg>
