<svg width="276" height="277" viewBox="0 0 276 277" fill="none" xmlns="http://www.w3.org/2000/svg">
<g clip-path="url(#clip0_88_815)">
<path d="M176.494 276.594H56.4461C43.4312 276.594 32.8428 266.006 32.8428 252.991V23.6033C32.8428 10.5885 43.4312 0 56.4461 0H176.494C189.509 0 200.097 10.5885 200.097 23.6033V252.991C200.097 266.006 189.509 276.594 176.494 276.594Z" fill="#F2F2F2"/>
<path d="M200.097 84.376C199.546 84.376 199.099 84.8238 199.099 85.3745V117.328C199.099 117.878 199.546 118.326 200.097 118.326C200.648 118.326 201.096 117.878 201.096 117.328V85.3745C201.096 84.8238 200.648 84.376 200.097 84.376Z" fill="#F2F2F2"/>
<path d="M197.851 23.6033V252.987C197.851 264.315 189.034 273.581 177.885 274.3H177.88C177.715 274.31 177.551 274.32 177.381 274.325C177.086 274.34 176.792 274.345 176.492 274.345C176.492 274.345 175.394 274.265 173.387 274.116C171.36 273.966 168.409 273.741 164.73 273.447C163.626 273.362 162.463 273.267 161.235 273.167C158.788 272.967 156.102 272.748 153.221 272.498C152.073 272.403 150.885 272.298 149.672 272.193C143.471 271.659 136.526 271.035 129.202 270.326C127.964 270.211 126.715 270.091 125.457 269.967C125.128 269.932 124.793 269.902 124.459 269.867C119.236 269.353 113.869 268.798 108.482 268.209C108.148 268.174 107.813 268.139 107.484 268.104C98.2022 267.081 88.8859 265.968 80.1687 264.769C73.4635 263.851 67.1129 262.882 61.4112 261.879C59.5539 261.549 57.7665 261.22 56.0591 260.885C55.7246 260.82 55.39 260.755 55.0605 260.685C42.9933 258.269 35.0898 255.663 35.0898 252.987V23.6033C35.0898 11.8056 44.6508 2.24463 56.4485 2.24463H69.1998C71.2368 2.24463 72.8744 3.83229 73.0491 5.86432C73.0641 5.99913 73.0791 6.13391 73.1041 6.26872C73.4735 8.31074 75.3458 9.73364 77.4227 9.73364H155.518C157.595 9.73364 159.467 8.31074 159.837 6.26872C159.862 6.13391 159.877 5.99913 159.892 5.86432C160.066 3.83229 161.704 2.24463 163.741 2.24463H176.492C188.29 2.24463 197.851 11.8056 197.851 23.6033Z" fill="white"/>
<path d="M32.3433 60.4111C31.7926 60.4111 31.3447 60.859 31.3447 61.4097V69.3979C31.3447 69.9486 31.7926 70.3965 32.3433 70.3965C32.894 70.3965 33.3418 69.9486 33.3418 69.3979V61.4097C33.3418 60.859 32.894 60.4111 32.3433 60.4111Z" fill="#F2F2F2"/>
<path d="M32.3433 84.376C31.7926 84.376 31.3447 84.8238 31.3447 85.3745V100.852C31.3447 101.402 31.7926 101.85 32.3433 101.85C32.894 101.85 33.3418 101.402 33.3418 100.852V85.3745C33.3418 84.8238 32.894 84.376 32.3433 84.376Z" fill="#F2F2F2"/>
<path d="M32.3433 106.344C31.7926 106.344 31.3447 106.792 31.3447 107.342V122.82C31.3447 123.37 31.7926 123.818 32.3433 123.818C32.894 123.818 33.3418 123.37 33.3418 122.82V107.342C33.3418 106.792 32.894 106.344 32.3433 106.344Z" fill="#F2F2F2"/>
<path d="M68.0412 5.7417H50.5669C50.0154 5.7417 49.5684 6.18876 49.5684 6.74023V7.2395C49.5684 7.79098 50.0154 8.23803 50.5669 8.23803H68.0412C68.5927 8.23803 69.0398 7.79098 69.0398 7.2395V6.74023C69.0398 6.18876 68.5927 5.7417 68.0412 5.7417Z" fill="#F2F2F2"/>
<path d="M166.896 8.23779C167.999 8.23779 168.894 7.34367 168.894 6.24072C168.894 5.13777 167.999 4.24365 166.896 4.24365C165.794 4.24365 164.899 5.13777 164.899 6.24072C164.899 7.34367 165.794 8.23779 166.896 8.23779Z" fill="#F2F2F2"/>
<path d="M172.388 8.23779C173.491 8.23779 174.385 7.34367 174.385 6.24072C174.385 5.13777 173.491 4.24365 172.388 4.24365C171.285 4.24365 170.391 5.13777 170.391 6.24072C170.391 7.34367 171.285 8.23779 172.388 8.23779Z" fill="#F2F2F2"/>
<path d="M177.88 8.23779C178.983 8.23779 179.877 7.34367 179.877 6.24072C179.877 5.13777 178.983 4.24365 177.88 4.24365C176.777 4.24365 175.883 5.13777 175.883 6.24072C175.883 7.34367 176.777 8.23779 177.88 8.23779Z" fill="#F2F2F2"/>
<path d="M59.2586 78.5972C64.6104 78.5972 68.9489 74.3501 68.9489 69.1111C68.9489 63.8721 64.6104 59.625 59.2586 59.625C53.9068 59.625 49.5684 63.8721 49.5684 69.1111C49.5684 74.3501 53.9068 78.5972 59.2586 78.5972Z" fill="#000362"/>
<path d="M136.941 65.866H84.7823C82.993 65.866 81.5371 64.4101 81.5371 62.6207C81.5371 60.8314 82.993 59.3755 84.7823 59.3755H136.941C138.73 59.3755 140.186 60.8314 140.186 62.6207C140.186 64.4101 138.73 65.866 136.941 65.866Z" fill="#E6E6E6"/>
<path d="M53.0908 175.681C52.2583 175.681 51.5811 176.358 51.5811 177.19C51.5811 178.023 52.2583 178.7 53.0908 178.7H107.722C108.554 178.7 109.232 178.023 109.232 177.19C109.232 176.358 108.554 175.681 107.722 175.681H53.0908Z" fill="#F2F2F2"/>
<path d="M177.646 76.8498H84.7823C82.993 76.8498 81.5371 75.394 81.5371 73.6046C81.5371 71.8152 82.993 70.3594 84.7823 70.3594H177.646C179.435 70.3594 180.891 71.8152 180.891 73.6046C180.891 75.394 179.435 76.8498 177.646 76.8498Z" fill="#E6E6E6"/>
<path d="M71.6608 30.9175H51.8147C50.4383 30.9175 49.3184 29.7975 49.3184 28.4211C49.3184 27.0447 50.4383 25.9248 51.8147 25.9248H71.6608C73.0372 25.9248 74.1569 27.0447 74.1569 28.4211C74.1569 29.7975 73.0372 30.9175 71.6608 30.9175Z" fill="#E6E6E6"/>
<path d="M177.396 26.1743H157.55C156.31 26.1743 155.304 27.1802 155.304 28.421C155.304 29.6618 156.31 30.6677 157.55 30.6677H177.396C178.637 30.6677 179.643 29.6618 179.643 28.421C179.643 27.1802 178.637 26.1743 177.396 26.1743Z" fill="#000362"/>
<path d="M148.938 30.9175H129.092C127.716 30.9175 126.596 29.7975 126.596 28.4211C126.596 27.0447 127.716 25.9248 129.092 25.9248H148.938C150.314 25.9248 151.434 27.0447 151.434 28.4211C151.434 29.7975 150.314 30.9175 148.938 30.9175Z" fill="#E6E6E6"/>
<path d="M74.5313 168.35H55.5592C52.118 168.35 49.3184 165.55 49.3184 162.109V155.91C49.3184 152.469 52.118 149.669 55.5592 149.669H74.5313C77.9726 149.669 80.7722 152.469 80.7722 155.91V162.109C80.7722 165.55 77.9726 168.35 74.5313 168.35Z" fill="#F2F2F2"/>
<path d="M174.65 132.621H55.5592C52.118 132.621 49.3184 129.821 49.3184 126.38V99.067C49.3184 95.6258 52.118 92.8262 55.5592 92.8262H174.65C178.091 92.8262 180.891 95.6258 180.891 99.067V126.38C180.891 129.821 178.091 132.621 174.65 132.621Z" fill="#000362"/>
<path d="M173.886 168.35H154.914C151.472 168.35 148.673 165.55 148.673 162.109V155.91C148.673 152.469 151.472 149.669 154.914 149.669H173.886C177.327 149.669 180.127 152.469 180.127 155.91V162.109C180.127 165.55 177.327 168.35 173.886 168.35Z" fill="#F2F2F2"/>
<path d="M123.725 168.35H104.753C101.311 168.35 98.5117 165.55 98.5117 162.109V155.91C98.5117 152.469 101.311 149.669 104.753 149.669H123.725C127.166 149.669 129.966 152.469 129.966 155.91V162.109C129.966 165.55 127.166 168.35 123.725 168.35Z" fill="#F2F2F2"/>
<path d="M81.2876 195.925H66.3096V209.905H81.2876V195.925Z" fill="#F2F2F2"/>
<path d="M81.2883 215.896H72.8008V229.875H81.2883V215.896Z" fill="#F2F2F2"/>
<path d="M100.759 215.896H85.7812V229.875H100.759V215.896Z" fill="#F2F2F2"/>
<path d="M100.759 235.867H85.7812V249.846H100.759V235.867Z" fill="#F2F2F2"/>
<path d="M120.231 215.896H105.253V229.875H120.231V215.896Z" fill="#F2F2F2"/>
<path d="M100.759 195.925H85.7812V209.905H100.759V195.925Z" fill="#F2F2F2"/>
<path d="M120.231 195.925H105.253V209.905H120.231V195.925Z" fill="#F2F2F2"/>
<path d="M159.173 195.925H144.195V209.905H159.173V195.925Z" fill="#F2F2F2"/>
<path d="M120.231 235.867H105.253V249.846H120.231V235.867Z" fill="#F2F2F2"/>
<path d="M139.703 195.925H124.725V209.905H139.703V195.925Z" fill="#F2F2F2"/>
<path d="M166.912 215.896H157.177V229.875H166.912C168.291 229.875 169.409 228.758 169.409 227.379V218.392C169.409 217.014 168.291 215.896 166.912 215.896Z" fill="#F2F2F2"/>
<path d="M81.2878 235.867H78.2922C76.9136 235.867 75.7959 236.984 75.7959 238.363V247.35C75.7959 248.729 76.9136 249.846 78.2922 249.846H81.2878V235.867Z" fill="#F2F2F2"/>
<path d="M139.703 235.867H124.725V249.846H139.703V235.867Z" fill="#F2F2F2"/>
<path d="M178.146 195.925H163.667V209.905H178.146C179.524 209.905 180.642 208.787 180.642 207.408V198.422C180.642 197.043 179.524 195.925 178.146 195.925Z" fill="#F2F2F2"/>
<path d="M152.683 236.077C152.377 235.943 152.04 235.867 151.684 235.867H144.195V249.846H151.684C152.04 249.846 152.377 249.769 152.683 249.635V236.077Z" fill="#F2F2F2"/>
<path d="M139.703 215.896H124.725V229.875H139.703V215.896Z" fill="#F2F2F2"/>
<path d="M152.683 215.896H144.195V229.875H152.683V215.896Z" fill="#F2F2F2"/>
<path d="M68.307 215.896H63.0647C61.686 215.896 60.5684 217.014 60.5684 218.392V227.379C60.5684 228.758 61.686 229.875 63.0647 229.875H68.307V215.896Z" fill="#F2F2F2"/>
<path d="M61.8166 195.925H51.8313C50.4526 195.925 49.335 197.043 49.335 198.422V207.408C49.335 208.787 50.4526 209.905 51.8313 209.905H61.8166V195.925Z" fill="#F2F2F2"/>
<path d="M158.18 271.092L153.732 271.092L151.616 253.935L158.181 253.936L158.18 271.092Z" fill="url(#paint0_linear_88_815)"/>
<path d="M158.337 275.733L144.658 275.732V275.559C144.658 272.619 147.042 270.236 149.982 270.235H149.983L152.481 268.34L157.143 270.236L158.337 270.236L158.337 275.733H158.337Z" fill="#000362"/>
<path d="M185.873 271.092L181.425 271.092L179.309 253.935L185.873 253.936L185.873 271.092Z" fill="url(#paint1_linear_88_815)"/>
<path d="M186.029 275.733L172.351 275.732V275.559C172.351 272.619 174.734 270.236 177.675 270.235H177.675L180.173 268.34L184.835 270.236L186.029 270.236L186.029 275.733Z" fill="#000362"/>
<path d="M194.857 139.707H156.655L152.018 154.033L150.898 214.955L151.095 262.493L159.795 262.526L167.457 211.427C167.457 211.427 166.604 206.4 168.105 207.099C169.607 207.798 167.07 201.631 168.837 202.218C170.605 202.805 172.325 178.956 172.325 178.956L176.541 214.955L179.248 262.493H187.094L193.675 189.171C193.675 189.171 191.608 184.733 194.337 181.787C197.066 178.84 196.787 154.494 196.787 154.494L194.857 139.707Z" fill="#000362"/>
<path d="M195.863 138.802C195.863 138.802 199.526 144.019 196.33 152.191C191.02 165.773 155.787 154.35 153.63 145.888C150.315 144.744 155.841 143.071 154.214 140.295C154.115 140.126 155.128 143.891 154.325 139.725C153.037 133.038 155.248 112.495 155.248 112.495L155.978 100.303C156.686 88.4938 161.487 77.3005 169.556 68.6489L169.556 68.6489H187.901L195.863 81.5719L196.688 113.962L195.863 138.802H195.863Z" fill="url(#paint2_linear_88_815)"/>
<path d="M139.945 140.035L145.633 131.411L150.594 134.275L144.283 143.159C144.303 143.502 144.278 143.853 144.202 144.205C143.788 146.117 142.034 147.301 140.284 146.849C138.534 146.396 137.452 144.479 137.866 142.567C138.13 141.347 138.939 140.426 139.945 140.035H139.945Z" fill="url(#paint3_linear_88_815)"/>
<path d="M166.869 71.4185H166.869C160.496 71.4185 155.253 76.4341 154.971 82.7999L153.754 110.224C153.754 110.224 153.745 111.747 153.181 111.296C152.618 110.845 152.57 112.44 152.57 112.44C152.57 112.44 152.545 114.88 152.013 113.483C151.482 112.087 151.409 114.614 151.409 114.614L143.67 127.93C144.71 130.08 143.902 132.739 143.645 134.905L149.209 140.027C149.209 140.027 149.161 138.489 150.36 138.515C157.713 138.674 165.242 118.812 165.115 111.466C164.971 103.084 166.869 71.4185 166.869 71.4185L166.869 71.4185Z" fill="url(#paint4_linear_88_815)"/>
<path d="M169.483 33.2633L175.171 41.8869L180.132 39.0226L173.821 30.1391C173.841 29.7963 173.816 29.4446 173.74 29.093C173.326 27.1806 171.572 25.997 169.822 26.4494C168.073 26.9019 166.99 28.819 167.404 30.7315C167.668 31.9511 168.478 32.8718 169.483 33.2633H169.483Z" fill="url(#paint5_linear_88_815)"/>
<path d="M196.407 101.88H196.407C190.035 101.88 184.791 96.8643 184.509 90.4985L183.292 63.0743C183.292 63.0743 183.283 61.5513 182.719 62.0024C182.156 62.4534 182.108 60.8582 182.108 60.8582C182.108 60.8582 182.083 58.4186 181.551 59.8151C181.02 61.2116 180.947 58.6846 180.947 58.6846L170.827 39.7367L171.402 37.2651L176.94 33.1113C176.94 33.1113 179.178 33.8238 179.898 34.7834C183.53 39.6248 194.519 54.8371 194.653 61.8325C194.814 70.2145 196.407 101.88 196.407 101.88Z" fill="url(#paint6_linear_88_815)"/>
<path d="M173.947 65.8775C174.218 65.9401 174.489 65.9943 174.761 66.0361C175.604 66.1738 176.447 66.2156 177.269 66.1655C179.765 66.0361 182.12 65.1136 184.023 63.5942C186.035 61.9914 187.537 59.7249 188.168 57.0285C189.65 50.663 185.688 44.2934 179.323 42.8116C173.049 41.3465 166.776 45.17 165.173 51.3726C165.148 51.4686 165.123 51.5605 165.102 51.6565C163.62 58.0261 167.577 64.3915 173.947 65.8775V65.8775Z" fill="url(#paint7_linear_88_815)"/>
<path d="M188.784 58.2276C187.131 62.5892 182.95 66.046 178.288 66.2537C177.495 66.286 176.668 66.226 175.967 65.8476C175.261 65.4737 174.716 64.7214 174.776 63.9276C174.901 62.363 177.028 61.763 177.628 60.3092C178.025 59.3492 177.568 58.1169 176.636 57.6507C175.704 57.1892 174.444 57.5584 173.913 58.4584C174.882 56.9815 174.315 54.9 173.092 53.6308C171.873 52.3569 170.161 51.7062 168.509 51.0877L168.472 50.46C167.304 50.9077 166.03 50.0077 165.522 48.84C166.113 48.1247 166.487 47.257 166.847 46.4031C166.362 46.7447 165.822 46.9939 165.25 47.1462C165.282 46.1308 163.759 45.6462 164.018 44.6493C164.378 43.2647 166.459 41.1924 165.776 39.937C167.05 40.2971 167.881 41.7832 167.521 43.057C167.978 41.8109 168.435 40.5647 168.892 39.314C169.247 40.1817 169.602 41.0494 169.962 41.9124C171.702 40.8278 173.502 39.7247 175.524 39.3786C177.545 39.0278 179.872 39.6186 181.002 41.3355C182.179 40.6201 183.758 40.8417 184.921 41.5847C186.084 42.3278 186.896 43.5047 187.547 44.7231C189.753 48.8308 190.436 53.8708 188.784 58.2276V58.2276Z" fill="#000362"/>
<path d="M248.911 267.92C249.942 267.984 250.512 266.703 249.732 265.956L249.654 265.647C249.664 265.623 249.675 265.598 249.685 265.573C250.728 263.086 254.263 263.103 255.297 265.594C256.215 267.805 257.384 270.02 257.672 272.357C257.801 273.389 257.743 274.44 257.514 275.453C259.665 270.755 260.797 265.624 260.797 260.465C260.797 259.168 260.726 257.872 260.58 256.579C260.461 255.521 260.297 254.47 260.084 253.428C258.933 247.798 256.44 242.435 252.844 237.956C251.116 237.011 249.675 235.534 248.804 233.764C248.491 233.126 248.246 232.439 248.13 231.739C248.327 231.765 248.872 228.769 248.723 228.585C248.997 228.169 249.488 227.962 249.787 227.557C251.276 225.538 253.328 225.89 254.399 228.634C256.686 229.788 256.709 231.703 255.305 233.545C254.412 234.716 254.289 236.302 253.505 237.556C253.586 237.659 253.67 237.759 253.751 237.863C255.229 239.759 256.508 241.797 257.585 243.938C257.281 241.558 257.731 238.692 258.497 236.844C259.37 234.738 261.006 232.965 262.447 231.145C264.177 228.958 267.726 229.912 268.031 232.684C268.033 232.711 268.036 232.738 268.039 232.764C267.825 232.885 267.616 233.013 267.411 233.149C266.243 233.921 266.646 235.732 268.03 235.946L268.062 235.95C267.984 236.721 267.852 237.485 267.659 238.237C269.507 245.384 265.517 247.987 259.819 248.104C259.694 248.169 259.571 248.233 259.445 248.295C260.023 249.92 260.484 251.587 260.826 253.277C261.132 254.77 261.345 256.279 261.464 257.795C261.612 259.707 261.599 261.629 261.438 263.538L261.448 263.47C261.857 261.368 262.999 259.404 264.656 258.043C267.126 256.014 270.614 255.268 273.278 253.637C274.56 252.852 276.203 253.867 275.98 255.353L275.969 255.424C275.572 255.586 275.185 255.773 274.811 255.982C274.597 256.103 274.387 256.231 274.183 256.367C273.015 257.139 273.418 258.95 274.802 259.163L274.834 259.168C274.856 259.171 274.876 259.175 274.898 259.178C274.218 260.793 273.27 262.293 272.083 263.586C270.927 269.825 265.964 270.417 260.655 268.601H260.651C260.071 271.129 259.223 273.599 258.133 275.953H249.136C249.104 275.853 249.075 275.75 249.046 275.65C249.878 275.701 250.716 275.653 251.535 275.501C250.868 274.682 250.2 273.857 249.533 273.038C249.517 273.022 249.504 273.005 249.491 272.989C249.152 272.57 248.81 272.154 248.472 271.735L248.472 271.734C248.45 270.448 248.605 269.165 248.91 267.92L248.911 267.92V267.92Z" fill="#F2F2F2"/>
<path d="M0 275.979C0 276.309 0.264627 276.574 0.594158 276.574H275.336C275.665 276.574 275.93 276.309 275.93 275.979C275.93 275.65 275.665 275.385 275.336 275.385H0.594158C0.264627 275.385 0 275.65 0 275.979Z" fill="#CCCCCC"/>
</g>
<defs>
<linearGradient id="paint0_linear_88_815" x1="156.943" y1="248.841" x2="150.678" y2="249.165" gradientUnits="userSpaceOnUse">
<stop offset="0.0675557" stop-color="#0647AF"/>
<stop offset="1" stop-color="#FFCA09"/>
</linearGradient>
<linearGradient id="paint1_linear_88_815" x1="184.636" y1="248.841" x2="178.37" y2="249.165" gradientUnits="userSpaceOnUse">
<stop offset="0.0675557" stop-color="#0647AF"/>
<stop offset="1" stop-color="#FFCA09"/>
</linearGradient>
<linearGradient id="paint2_linear_88_815" x1="189.138" y1="41.9822" x2="146.186" y2="44.8892" gradientUnits="userSpaceOnUse">
<stop offset="0.0675557" stop-color="#0647AF"/>
<stop offset="1" stop-color="#FFCA09"/>
</linearGradient>
<linearGradient id="paint3_linear_88_815" x1="148.177" y1="126.8" x2="136.063" y2="128.147" gradientUnits="userSpaceOnUse">
<stop offset="0.0675557" stop-color="#0647AF"/>
<stop offset="1" stop-color="#FFCA09"/>
</linearGradient>
<linearGradient id="paint4_linear_88_815" x1="162.49" y1="51.0504" x2="140.312" y2="52.0626" gradientUnits="userSpaceOnUse">
<stop offset="0.0675557" stop-color="#0647AF"/>
<stop offset="1" stop-color="#FFCA09"/>
</linearGradient>
<linearGradient id="paint5_linear_88_815" x1="177.715" y1="21.7414" x2="165.601" y2="23.0891" gradientUnits="userSpaceOnUse">
<stop offset="0.0675557" stop-color="#0647AF"/>
<stop offset="1" stop-color="#FFCA09"/>
</linearGradient>
<linearGradient id="paint6_linear_88_815" x1="191.584" y1="12.6957" x2="167.167" y2="13.9203" gradientUnits="userSpaceOnUse">
<stop offset="0.0675557" stop-color="#0647AF"/>
<stop offset="1" stop-color="#FFCA09"/>
</linearGradient>
<linearGradient id="paint7_linear_88_815" x1="184.012" y1="35.467" x2="161.749" y2="38.4689" gradientUnits="userSpaceOnUse">
<stop offset="0.0675557" stop-color="#0647AF"/>
<stop offset="1" stop-color="#FFCA09"/>
</linearGradient>
<clipPath id="clip0_88_815">
<rect width="276" height="276.594" fill="white"/>
</clipPath>
</defs>
</svg>
