<svg width="2479" height="2216" viewBox="0 0 2479 2216" fill="none" xmlns="http://www.w3.org/2000/svg">
<path d="M2350.98 1114.22C2350.98 1114.22 2350.98 1083.17 2307.52 1040.14C2264.05 997.107 2236.48 972.144 2236.48 972.144C2236.48 972.144 2214.87 1043.18 2255.1 1086.47C2284.64 1116.86 2316.67 1144.74 2350.86 1169.8L2350.98 1114.22Z" fill="url(#paint0_linear_635_1095)"/>
<path d="M2288.27 1307.1C2288.27 1307.1 2288.27 1276.05 2244.8 1233.02C2201.33 1189.98 2173.88 1165.02 2173.88 1165.02C2173.88 1165.02 2152.21 1236.06 2192.51 1279.34C2222.05 1309.74 2254.08 1337.62 2288.27 1362.68V1307.1Z" fill="url(#paint1_linear_635_1095)"/>
<path d="M2348.25 1166.82C2348.25 1166.82 2351.54 1136.14 2399.11 1097.7C2446.68 1059.27 2476.92 1037.66 2476.92 1037.66C2476.92 1037.66 2490.89 1110.56 2446.43 1149.43C2413.85 1176.55 2379.05 1200.89 2342.41 1222.21L2348.25 1166.82Z" fill="url(#paint2_linear_635_1095)"/>
<path d="M2272.49 1394.6C2272.49 1394.6 2278.7 1364.42 2330.31 1331.19C2381.91 1297.97 2413.95 1279.65 2413.95 1279.65C2413.95 1279.65 2420.16 1353.67 2371.91 1387.52C2336.66 1411.06 2299.5 1431.63 2260.82 1448.99L2272.49 1394.6Z" fill="url(#paint3_linear_635_1095)"/>
<path d="M2286.71 1642.99C2286.71 1642.99 2286.71 1611.94 2330.18 1568.84C2373.65 1525.75 2401.16 1500.91 2401.16 1500.91C2401.16 1500.91 2422.83 1571.95 2382.53 1615.17C2353 1645.6 2320.97 1673.49 2286.77 1698.56L2286.71 1642.99Z" fill="url(#paint4_linear_635_1095)"/>
<path d="M2286.03 1703.59C2286.03 1703.59 2290.38 1673.04 2253.74 1624.11C2217.1 1575.18 2193.07 1546.74 2193.07 1546.74C2193.07 1546.74 2161.59 1613.99 2195.18 1662.49C2220.08 1696.79 2247.81 1728.94 2278.08 1758.61L2286.03 1703.59Z" fill="url(#paint5_linear_635_1095)"/>
<path d="M2243.37 1883.25C2243.37 1883.25 2243.37 1852.2 2286.84 1809.16C2330.31 1766.13 2357.88 1741.17 2357.88 1741.17C2357.88 1741.17 2379.49 1812.2 2339.25 1855.49C2309.7 1885.9 2277.67 1913.79 2243.49 1938.88L2243.37 1883.25Z" fill="url(#paint6_linear_635_1095)"/>
<path d="M2272.24 2046.13C2272.24 2046.13 2264.42 2016.26 2295.28 1963.47C2326.14 1910.69 2346.82 1879.77 2346.82 1879.77C2346.82 1879.77 2385.7 1942.98 2357.81 1995.02C2336.96 2031.91 2313.05 2067 2286.34 2099.9L2272.24 2046.13Z" fill="url(#paint7_linear_635_1095)"/>
<path d="M2354.9 1106.34C2352.72 1138.49 2348.78 1170.5 2343.1 1202.22C2325.96 1290.52 2283.24 1347.53 2266.16 1427.26C2249.08 1506.99 2298.14 1609.77 2284.79 1712.23C2271.44 1814.69 2231.82 1871.63 2243.18 1940C2254.55 2008.37 2314.41 2193.55 2314.41 2193.55" stroke="#263238" stroke-width="0.746423" stroke-linecap="round" stroke-linejoin="round"/>
<path d="M2347.88 1187.37L2394.45 1151.61" stroke="#263238" stroke-width="0.746423" stroke-linecap="round" stroke-linejoin="round"/>
<path d="M2350.05 1146.2L2330.49 1111.49" stroke="#263238" stroke-width="0.746423" stroke-linecap="round" stroke-linejoin="round"/>
<path d="M2268.77 1423.6C2268.77 1423.6 2307.76 1394.35 2347.88 1365.1" stroke="#263238" stroke-width="0.746423" stroke-linecap="round" stroke-linejoin="round"/>
<path d="M2288.27 1362.68C2288.27 1362.68 2255.73 1298.96 2218.9 1256.74" stroke="#263238" stroke-width="0.746423" stroke-linecap="round" stroke-linejoin="round"/>
<path d="M2288.27 1686.95C2310.51 1645.84 2338.63 1608.19 2371.72 1575.18" stroke="#263238" stroke-width="0.746423" stroke-linecap="round" stroke-linejoin="round"/>
<path d="M2280.69 1730.3C2268.86 1702.42 2254.71 1675.58 2238.4 1650.07C2215.67 1616.47 2212.38 1612.12 2212.38 1612.12" stroke="#263238" stroke-width="0.746423" stroke-linecap="round" stroke-linejoin="round"/>
<path d="M2243.37 1940C2253.27 1915.53 2265.02 1891.84 2278.52 1869.15C2292.02 1848.06 2307.25 1828.12 2324.03 1809.53" stroke="#263238" stroke-width="0.746423" stroke-linecap="round" stroke-linejoin="round"/>
<path d="M2286.34 2099.9C2284.08 2076.5 2288.11 2052.92 2298.01 2031.6C2314.28 2000.18 2332.67 1959 2340.24 1942.73" stroke="#263238" stroke-width="0.746423" stroke-linecap="round" stroke-linejoin="round"/>
<path d="M1998.14 1526.87C1998.14 1526.87 1994.79 1507.49 2017.21 1475.63C2039.62 1443.78 2054.47 1425.33 2054.47 1425.33C2054.47 1425.33 2075.7 1467.56 2055.21 1498.98C2039.99 1521.27 2022.94 1542.25 2004.23 1561.7L1998.14 1526.87Z" fill="url(#paint8_linear_635_1095)"/>
<path d="M2058.44 1641C2058.44 1641 2055.09 1621.63 2077.5 1589.77C2099.92 1557.91 2114.76 1539.47 2114.76 1539.47C2114.76 1539.47 2136 1581.7 2115.51 1613.18C2100.28 1635.44 2083.23 1656.4 2064.53 1675.84L2058.44 1641Z" fill="url(#paint9_linear_635_1095)"/>
<path d="M2005.53 1559.53C2005.53 1559.53 2000.19 1540.9 1966.16 1521.71C1932.13 1502.52 1910.9 1492.46 1910.9 1492.46C1910.9 1492.46 1910.03 1539.72 1941.94 1559.22C1965.31 1572.67 1989.76 1584.16 2015.03 1593.56L2005.53 1559.53Z" fill="url(#paint10_linear_635_1095)"/>
<path d="M2077.82 1694.16C2077.82 1694.16 2070.49 1675.9 2034.72 1660.62C1998.95 1645.35 1976.6 1637.4 1976.6 1637.4C1976.6 1637.4 1980.69 1684.47 2014.72 1700.49C2039.38 1711.42 2064.91 1720.26 2091.04 1726.94L2077.82 1694.16Z" fill="url(#paint11_linear_635_1095)"/>
<path d="M2095.82 1851.45C2095.82 1851.45 2092.53 1832.08 2060.68 1809.66C2028.82 1787.24 2008.76 1774.76 2008.76 1774.76C2008.76 1774.76 2002.93 1821.64 2032.79 1844.37C2054.61 1860.26 2077.73 1874.28 2101.91 1886.29L2095.82 1851.45Z" fill="url(#paint12_linear_635_1095)"/>
<path d="M2102.9 1889.39C2102.9 1889.39 2096.69 1870.76 2114.52 1835.99C2132.34 1801.21 2144.14 1780.91 2144.14 1780.91C2144.14 1780.91 2171.15 1819.66 2155.38 1853.75C2143.49 1877.95 2129.6 1901.11 2113.83 1922.99L2102.9 1889.39Z" fill="url(#paint13_linear_635_1095)"/>
<path d="M2157.18 2045.57C2157.18 2045.57 2159.41 2026.07 2189.9 2002.1C2220.39 1978.13 2239.58 1964.28 2239.58 1964.28C2239.58 1964.28 2248.09 2010.79 2219.58 2035.2C2198.71 2052.28 2176.44 2067.59 2153.02 2080.96L2157.18 2045.57Z" fill="url(#paint14_linear_635_1095)"/>
<path d="M2149.04 1997.38C2149.04 1997.38 2145.69 1978.01 2113.89 1955.59C2082.1 1933.17 2062.1 1920.69 2062.1 1920.69C2062.1 1920.69 2056.27 1967.57 2086.14 1990.36C2107.97 2006.23 2131.09 2020.25 2155.25 2032.28L2149.04 1997.38Z" fill="url(#paint15_linear_635_1095)"/>
<path d="M2149.04 2102.7C2149.04 2102.7 2150.66 2083.08 2125.57 2053.33C2100.48 2023.59 2084.21 2006.45 2084.21 2006.45C2084.21 2006.45 2066.64 2050.29 2089.8 2079.91C2106.78 2100.77 2125.47 2120.17 2145.69 2137.91L2149.04 2102.7Z" fill="url(#paint16_linear_635_1095)"/>
<path d="M1994.85 1522.27C1999.71 1542.2 2005.66 1561.86 2012.67 1581.14C2032.98 1634.67 2065.95 1665.78 2085.33 1713.9C2104.7 1762.03 2085.33 1831.89 2104.46 1894.67C2123.58 1957.45 2155.25 1988.87 2155.25 2032.96C2155.25 2077.05 2138.11 2199.7 2138.11 2199.7" stroke="#263238" stroke-width="0.746423" stroke-linecap="round" stroke-linejoin="round"/>
<path d="M2008.08 1572.32L1974.98 1555" stroke="#263238" stroke-width="0.746423" stroke-linecap="round" stroke-linejoin="round"/>
<path d="M2002.24 1546.74L2010.69 1522.89" stroke="#263238" stroke-width="0.746423" stroke-linecap="round" stroke-linejoin="round"/>
<path d="M2083.28 1711.92C2083.28 1711.92 2055.65 1697.82 2027.39 1683.79" stroke="#263238" stroke-width="0.746423" stroke-linecap="round" stroke-linejoin="round"/>
<path d="M2064.46 1675.84C2072.61 1650.25 2083.32 1625.56 2096.44 1602.13" stroke="#263238" stroke-width="0.746423" stroke-linecap="round" stroke-linejoin="round"/>
<path d="M2099.67 1879.15C2081.25 1855.83 2059.54 1835.31 2035.22 1818.23" stroke="#263238" stroke-width="0.746423" stroke-linecap="round" stroke-linejoin="round"/>
<path d="M2109.11 1905.48C2113.53 1886.74 2119.49 1868.4 2126.93 1850.64C2137.55 1827.11 2139.35 1824 2139.35 1824" stroke="#263238" stroke-width="0.746423" stroke-linecap="round" stroke-linejoin="round"/>
<path d="M2153.76 2066.43C2164.53 2053.09 2176.46 2040.73 2189.41 2029.49C2197.64 2023.42 2205.37 2016.69 2212.51 2009.37" stroke="#263238" stroke-width="0.746423" stroke-linecap="round" stroke-linejoin="round"/>
<path d="M2155.25 2032.96C2146.38 2018.65 2136.44 2005.03 2125.51 1992.23C2114.74 1980.48 2103.03 1969.64 2090.48 1959.81" stroke="#263238" stroke-width="0.746423" stroke-linecap="round" stroke-linejoin="round"/>
<path d="M2145.69 2137.91C2144.58 2122.98 2139.5 2108.61 2130.97 2096.3C2117.37 2078.36 2101.35 2054.51 2094.83 2045.13" stroke="#263238" stroke-width="0.746423" stroke-linecap="round" stroke-linejoin="round"/>
<path d="M234.375 1256.37L207.176 1178.68L234.375 1211.66L213.013 1095.1L246.05 1178.68L257.724 1015.43L277.161 1170.86L298.522 1139.81V1178.68L323.796 1126.21L310.197 1217.49L333.484 1201.97L296.597 1252.45L234.375 1256.37Z" fill="url(#paint17_linear_635_1095)"/>
<path d="M319.884 1236.93H218.851L237.045 1440.92H301.689L319.884 1236.93Z" fill="#263238" stroke="#263238" stroke-width="0.746423" stroke-linecap="round" stroke-linejoin="round"/>
<path d="M509.407 1438.62H165.198V2167.65H509.407V1438.62Z" fill="white" stroke="#263238" stroke-width="0.746423" stroke-linecap="round" stroke-linejoin="round"/>
<path d="M528.223 1438.62H337.271V2167.65H528.223V1438.62Z" fill="white" stroke="#263238" stroke-width="0.746423" stroke-linecap="round" stroke-linejoin="round"/>
<path d="M506.737 1438.62H337.271V2167.65H506.737V1438.62Z" fill="#263238" stroke="#263238" stroke-width="0.746423" stroke-linecap="round" stroke-linejoin="round"/>
<path d="M487.673 1998.13H337.271V2147.41H487.673V1998.13Z" fill="url(#paint18_linear_635_1095)" stroke="#263238" stroke-width="0.746423" stroke-linecap="round" stroke-linejoin="round"/>
<path d="M487.673 2006.2H337.271V2025.33H487.673V2006.2Z" fill="white" stroke="#263238" stroke-width="0.746423" stroke-linecap="round" stroke-linejoin="round"/>
<path d="M487.673 2116.11H337.271V2135.24H487.673V2116.11Z" fill="white" stroke="#263238" stroke-width="0.746423" stroke-linecap="round" stroke-linejoin="round"/>
<path d="M365.774 2001.23V2190.01" stroke="#263238" stroke-width="0.746423" stroke-linecap="round" stroke-linejoin="round"/>
<path d="M418.247 2001.23V2190.01" stroke="#263238" stroke-width="0.746423" stroke-linecap="round" stroke-linejoin="round"/>
<path d="M464.324 2001.23V2190.01" stroke="#263238" stroke-width="0.746423" stroke-linecap="round" stroke-linejoin="round"/>
<path d="M487.673 1465.7H337.271V1685.21H487.673V1465.7Z" fill="url(#paint19_linear_635_1095)" stroke="#263238" stroke-width="0.746423" stroke-linecap="round" stroke-linejoin="round"/>
<path d="M487.673 1474.89H337.271V1496.62H487.673V1474.89Z" fill="white" stroke="#263238" stroke-width="0.746423" stroke-linecap="round" stroke-linejoin="round"/>
<path d="M487.673 1615.6H337.271V1637.34H487.673V1615.6Z" fill="white" stroke="#263238" stroke-width="0.746423" stroke-linecap="round" stroke-linejoin="round"/>
<path d="M365.774 1469.18V1683.72" stroke="#263238" stroke-width="0.746423" stroke-linecap="round" stroke-linejoin="round"/>
<path d="M418.247 1469.18V1683.72" stroke="#263238" stroke-width="0.746423" stroke-linecap="round" stroke-linejoin="round"/>
<path d="M464.324 1469.18V1683.72" stroke="#263238" stroke-width="0.746423" stroke-linecap="round" stroke-linejoin="round"/>
<path d="M487.673 1730.24H337.271V1949.75H487.673V1730.24Z" fill="url(#paint20_linear_635_1095)" stroke="#263238" stroke-width="0.746423" stroke-linecap="round" stroke-linejoin="round"/>
<path d="M487.673 1739.43H337.271V1761.16H487.673V1739.43Z" fill="white" stroke="#263238" stroke-width="0.746423" stroke-linecap="round" stroke-linejoin="round"/>
<path d="M487.673 1880.14H337.271V1901.87H487.673V1880.14Z" fill="white" stroke="#263238" stroke-width="0.746423" stroke-linecap="round" stroke-linejoin="round"/>
<path d="M365.774 1733.78V1948.26" stroke="#263238" stroke-width="0.746423" stroke-linecap="round" stroke-linejoin="round"/>
<path d="M418.247 1733.78V1948.26" stroke="#263238" stroke-width="0.746423" stroke-linecap="round" stroke-linejoin="round"/>
<path d="M464.324 1733.78V1948.26" stroke="#263238" stroke-width="0.746423" stroke-linecap="round" stroke-linejoin="round"/>
<path d="M509.345 1682.17H337.271V1707.14H509.345V1682.17Z" fill="white" stroke="#263238" stroke-width="0.746423" stroke-linecap="round" stroke-linejoin="round"/>
<path d="M509.345 1948.39H337.271V1973.35H509.345V1948.39Z" fill="white" stroke="#263238" stroke-width="0.746423" stroke-linecap="round" stroke-linejoin="round"/>
<path d="M509.345 1438.62V2167.59" stroke="#263238" stroke-width="0.746423" stroke-linecap="round" stroke-linejoin="round"/>
<path d="M312.991 1438.62V2167.59H337.271V1465.7H506.364V1438.31L312.991 1438.62Z" fill="white" stroke="#263238" stroke-width="0.746423" stroke-linecap="round" stroke-linejoin="round"/>
<path d="M337.271 1465.7V1438.62" stroke="#263238" stroke-width="0.746423" stroke-linecap="round" stroke-linejoin="round"/>
<path d="M508.041 1103.73C489.97 1068.89 482.394 1043.93 482.394 1038.15C482.394 1026.73 507.233 1019.9 507.233 1019.9C545.983 999.405 728.24 1029.03 810.272 1042.69C856.192 1050.69 902.646 1055.26 949.247 1056.35C949.247 1056.35 960.611 1047.28 974.086 1035.86C987.561 1024.43 1051.52 949.291 1076.61 942.709C1101.7 936.127 1124.43 951.837 1124.43 951.837C1124.43 951.837 1165.47 976.677 1158.58 981.458C1151.69 986.24 1051.52 1072.56 1026.43 1088.52C1001.35 1104.47 948.998 1097.64 903.419 1106.77C864.173 1114.6 705.202 1124.28 668.75 1127.26C641.375 1133.76 612.643 1131.36 586.719 1120.43" fill="white"/>
<path d="M1124.86 951.589C1124.86 951.589 1102.07 935.63 1077.04 942.461C1052.02 949.292 988.182 1024.49 974.521 1035.61C960.859 1046.72 949.681 1056.1 949.681 1056.1C903.081 1055.01 856.627 1050.44 810.706 1042.44C728.675 1028.78 546.417 998.97 507.668 1019.65C507.668 1019.65 482.829 1026.48 482.829 1037.91C483.692 1044.29 485.339 1050.55 487.735 1056.53L491.15 1057.78C491.15 1057.78 536.668 1053 634.907 1055.35C733.146 1057.71 960.362 1071.19 974.955 1076.47C981.165 1078.83 1025.19 1068.89 1074 1051.63C1111.26 1021.26 1155.04 983.321 1159.45 980.651C1165.91 976.615 1124.86 951.589 1124.86 951.589Z" fill="url(#paint21_linear_635_1095)"/>
<path opacity="0.5" d="M1124.86 951.589C1124.86 951.589 1102.07 935.63 1077.04 942.461C1052.02 949.292 988.182 1024.49 974.521 1035.61C960.859 1046.72 949.681 1056.1 949.681 1056.1C903.081 1055.01 856.627 1050.44 810.706 1042.44C728.675 1028.78 546.417 998.97 507.668 1019.65C507.668 1019.65 482.829 1026.48 482.829 1037.91C483.692 1044.29 485.339 1050.55 487.735 1056.53L491.15 1057.78C491.15 1057.78 536.668 1053 634.907 1055.35C733.146 1057.71 960.362 1071.19 974.955 1076.47C981.165 1078.83 1025.19 1068.89 1074 1051.63C1111.26 1021.26 1155.04 983.321 1159.45 980.651C1165.91 976.615 1124.86 951.589 1124.86 951.589Z" fill="white"/>
<path d="M508.041 1103.73C489.97 1068.89 482.394 1043.93 482.394 1038.15C482.394 1026.73 507.233 1019.9 507.233 1019.9C545.983 999.405 728.24 1029.03 810.272 1042.69C856.192 1050.69 902.646 1055.26 949.247 1056.35C949.247 1056.35 960.611 1047.28 974.086 1035.86C987.561 1024.43 1051.52 949.291 1076.61 942.709C1101.7 936.127 1124.43 951.837 1124.43 951.837C1124.43 951.837 1165.47 976.677 1158.58 981.458C1151.69 986.24 1051.52 1072.56 1026.43 1088.52C1001.35 1104.47 948.998 1097.64 903.419 1106.77C864.173 1114.6 705.202 1124.28 668.75 1127.26C641.375 1133.76 612.643 1131.36 586.719 1120.43" stroke="#263238" stroke-width="0.746423" stroke-linecap="round" stroke-linejoin="round"/>
<path d="M1407.9 1306.29C1412.02 1298.47 1418.21 1291.92 1425.78 1287.36C1433.35 1282.79 1442.03 1280.39 1450.87 1280.4H1865.07C1865.07 1280.4 1895 1280.4 1886.06 1337.28C1877.11 1394.16 1754.28 1741.47 1724.6 1846.48C1694.92 1951.49 1688.65 2172.81 1688.65 2172.81H1191.86C1191.86 2172.81 1231.23 1643.55 1407.9 1306.29Z" fill="white"/>
<path opacity="0.16" d="M1594.44 1280.4H1450.87C1442.03 1280.39 1433.35 1282.79 1425.78 1287.36C1418.21 1291.92 1412.02 1298.47 1407.9 1306.29C1231.23 1643.55 1191.43 2172.62 1191.43 2172.62H1414.24L1469.19 1963.91L1698.33 2011.17C1699.95 1993.66 1701.81 1975.83 1703.99 1958.26L1698.96 1902.37C1698.96 1902.37 1652.01 1853 1637.23 1840.65C1622.45 1828.29 1632.26 1806 1629.78 1709.68C1627.29 1613.37 1540.85 1544.13 1508.69 1484.82C1476.52 1425.52 1526.01 1388.45 1570.47 1329.15C1586.31 1307.72 1592.77 1291.95 1594.44 1280.4Z" fill="black"/>
<path d="M1407.9 1306.29C1412.02 1298.47 1418.21 1291.92 1425.78 1287.36C1433.35 1282.79 1442.03 1280.39 1450.87 1280.4H1865.07C1865.07 1280.4 1895 1280.4 1886.06 1337.28C1877.11 1394.16 1754.28 1741.47 1724.6 1846.48C1694.92 1951.49 1688.65 2172.81 1688.65 2172.81H1191.86C1191.86 2172.81 1231.23 1643.55 1407.9 1306.29Z" stroke="#263238" stroke-width="0.746423" stroke-linecap="round" stroke-linejoin="round"/>
<path d="M1793.22 1379.2C1751.37 1476.88 1662.81 1863.56 1648.41 2172.62H1688.4C1688.4 2172.62 1694.61 1951.06 1724.35 1846.3C1754.1 1741.54 1877.05 1394.16 1885.81 1337.09C1894.56 1280.02 1864.82 1280.21 1864.82 1280.21C1864.82 1280.21 1826.82 1300.89 1793.22 1379.2Z" fill="#263238" stroke="#263238" stroke-width="0.746423" stroke-linecap="round" stroke-linejoin="round"/>
<path d="M1065.62 1183.96C1065.62 1183.96 999.546 1145.21 974.521 1076.9C949.495 1008.59 1170.44 899.178 1266.38 892.347C1362.32 885.517 1389.4 910.542 1446.47 1008.53C1503.53 1106.52 1542.16 1240.9 1512.54 1306.98C1482.92 1373.05 1432.8 1389.01 1469.07 1443.59C1505.33 1498.18 1608.04 1653.17 1601.21 1726.07C1594.38 1798.98 1523.78 1862.69 1421.13 1869.65C1318.48 1876.6 1181.87 1814.94 1067.98 1714.4C954.09 1613.86 983.649 1466.01 1024.51 1418.19C1065.37 1370.38 1127.03 1352.12 1131.57 1304.31C1136.1 1256.49 1065.62 1183.96 1065.62 1183.96Z" fill="#263238" stroke="#263238" stroke-width="0.746423" stroke-linecap="round" stroke-linejoin="round"/>
<path d="M1347.23 1075.85C1382.32 1141.17 1426.22 1228.67 1439.94 1281.52C1463.91 1374.04 1340.59 1432.29 1374.8 1476.81" stroke="white" stroke-width="0.746423" stroke-linecap="round" stroke-linejoin="round"/>
<path d="M1299.42 990.276C1299.42 990.276 1313.08 1013.56 1331.96 1047.84" stroke="white" stroke-width="0.746423" stroke-linecap="round" stroke-linejoin="round"/>
<path d="M1483.48 1154.65C1487.52 1166.89 1490.15 1179.56 1491.3 1192.4" stroke="white" stroke-width="0.746423" stroke-linecap="round" stroke-linejoin="round"/>
<path d="M1323.14 956.309C1323.14 956.309 1431.06 1036.04 1474.16 1131.49" stroke="white" stroke-width="0.746423" stroke-linecap="round" stroke-linejoin="round"/>
<path d="M1173.36 1016.11C1096.29 1037.72 985.45 1072.8 994.454 1093.05" stroke="white" stroke-width="0.746423" stroke-linecap="round" stroke-linejoin="round"/>
<path d="M1244.58 997.107C1244.58 997.107 1228.13 1001.21 1203.6 1007.79" stroke="white" stroke-width="0.746423" stroke-linecap="round" stroke-linejoin="round"/>
<path d="M1149.26 956.867C1193.41 942.955 1239.64 936.861 1285.88 938.859" stroke="white" stroke-width="0.746423" stroke-linecap="round" stroke-linejoin="round"/>
<path d="M1117.84 969.722C1124.82 966.086 1132.04 962.932 1139.45 960.283" stroke="white" stroke-width="0.746423" stroke-linecap="round" stroke-linejoin="round"/>
<path d="M482.394 1038.15C482.366 1038.59 482.366 1039.02 482.394 1039.46C482.366 1039.02 482.366 1038.59 482.394 1038.15V1038.15ZM508.041 1103.73C497.582 1084.58 489.252 1064.34 483.202 1043.37C489.223 1064.35 497.554 1084.59 508.041 1103.73V1103.73ZM482.518 1039.83C482.518 1040.2 482.518 1040.64 482.518 1041.2C482.643 1040.64 482.581 1040.2 482.518 1039.83V1039.83ZM482.829 1041.57C482.905 1042.18 483.03 1042.78 483.202 1043.37C483.03 1042.78 482.905 1042.18 482.829 1041.57ZM508.041 1103.67C531.265 1147.66 560.159 1188.41 593.984 1224.88C676.016 1313.74 912.982 1546.18 935.523 1562.14C958.065 1578.1 951.482 1623.61 935.523 1669.19C919.564 1714.77 860.322 1780.97 862.62 1853.75C864.918 1926.53 887.459 2038.3 885.41 2061.09C883.361 2083.88 826.355 2161.38 826.355 2161.38H1414.17C1414.17 2161.38 1340.9 2068.23 1340.9 2036.38C1340.9 2004.52 1441.5 1596.35 1446.03 1566.73C1450.56 1537.11 1432.37 1516.62 1395.92 1514.32C1359.47 1512.02 1220.49 1482.4 1213.66 1459.61C1206.83 1436.82 1250.11 1350.26 1250.11 1350.26L1113.5 1357.09C1113.5 1357.09 1106.67 1416.33 1097.54 1427.76C1088.41 1439.18 1074.75 1416.33 1042.83 1400.43C1010.91 1384.54 949.681 1370.81 926.643 1352.56C903.605 1334.3 685.144 1129 685.144 1129" fill="white"/>
<path d="M961.542 1370.13C972.906 1390 984.27 1407.95 984.27 1407.95C984.27 1407.95 1022.58 1429.5 1032.15 1429.5C1041.71 1429.5 1099.21 1460.54 1099.21 1460.54C1099.21 1460.54 1147.15 1448.56 1130.26 1407.82C1124.93 1397.39 1118.21 1387.74 1110.27 1379.13C1107.41 1397.2 1102.82 1420.86 1097.41 1427.63C1088.28 1439 1074.62 1416.21 1042.7 1400.31C1022.03 1390 988.555 1380.56 961.542 1370.13Z" fill="url(#paint22_linear_635_1095)"/>
<path d="M844.549 1277.91C774.192 1212.77 685.144 1129.25 685.144 1129.25L633.354 1121.8L627.145 1125.28C627.145 1125.28 773.323 1254.63 804.434 1269.03C817.02 1274.82 830.698 1277.85 844.549 1277.91Z" fill="url(#paint23_linear_635_1095)"/>
<path d="M918.26 1345.35L912.671 1340.38C915.527 1345.1 917.142 1348.08 917.142 1348.08L918.26 1345.35Z" fill="url(#paint24_linear_635_1095)"/>
<g opacity="0.5">
<path d="M961.542 1370.13C972.906 1390 984.27 1407.95 984.27 1407.95C984.27 1407.95 1022.58 1429.5 1032.15 1429.5C1041.71 1429.5 1099.21 1460.54 1099.21 1460.54C1099.21 1460.54 1147.15 1448.56 1130.26 1407.82C1124.93 1397.39 1118.21 1387.74 1110.27 1379.13C1107.41 1397.2 1102.82 1420.86 1097.41 1427.63C1088.28 1439 1074.62 1416.21 1042.7 1400.31C1022.03 1390 988.555 1380.56 961.542 1370.13Z" fill="white"/>
<path d="M844.549 1277.91C774.192 1212.77 685.144 1129.25 685.144 1129.25L633.354 1121.8L627.145 1125.28C627.145 1125.28 773.323 1254.63 804.434 1269.03C817.02 1274.82 830.698 1277.85 844.549 1277.91Z" fill="white"/>
<path d="M918.26 1345.35L912.671 1340.38C915.527 1345.1 917.142 1348.08 917.142 1348.08L918.26 1345.35Z" fill="white"/>
</g>
<path d="M508.041 1103.67C531.265 1147.66 560.159 1188.41 593.984 1224.88C676.016 1313.74 912.982 1546.18 935.523 1562.14C958.065 1578.1 951.482 1623.61 935.523 1669.19C919.564 1714.77 860.322 1780.97 862.62 1853.75C864.918 1926.53 887.459 2038.3 885.41 2061.09C883.361 2083.88 826.355 2161.38 826.355 2161.38H1414.17C1414.17 2161.38 1340.9 2068.23 1340.9 2036.38C1340.9 2004.52 1441.5 1596.35 1446.03 1566.73C1450.56 1537.11 1432.37 1516.62 1395.92 1514.32C1359.47 1512.02 1220.49 1482.4 1213.66 1459.61C1206.83 1436.82 1250.11 1350.26 1250.11 1350.26L1113.5 1357.09C1113.5 1357.09 1106.67 1416.33 1097.54 1427.76C1088.41 1439.18 1074.75 1416.33 1042.83 1400.43C1010.91 1384.54 949.681 1370.81 926.643 1352.56C903.605 1334.3 685.144 1129 685.144 1129M482.394 1038.15C482.366 1038.59 482.366 1039.02 482.394 1039.46C482.366 1039.02 482.366 1038.59 482.394 1038.15V1038.15ZM508.041 1103.73C497.582 1084.58 489.252 1064.34 483.202 1043.37C489.223 1064.35 497.554 1084.59 508.041 1103.73V1103.73ZM482.518 1039.83C482.518 1040.2 482.518 1040.64 482.518 1041.2C482.643 1040.64 482.581 1040.2 482.518 1039.83V1039.83ZM482.829 1041.57C482.905 1042.18 483.03 1042.78 483.202 1043.37C483.03 1042.78 482.905 1042.18 482.829 1041.57Z" stroke="#263238" stroke-width="0.746423" stroke-linecap="round" stroke-linejoin="round"/>
<path d="M685.144 1129.25C685.144 1129.25 612.365 1130.62 571.753 1097.15" stroke="#263238" stroke-width="0.746423" stroke-linecap="round" stroke-linejoin="round"/>
<path d="M1213.72 1459.61C1206.89 1436.88 1250.17 1350.26 1250.17 1350.26L1113.56 1357.09C1113.56 1357.09 1106.73 1416.33 1097.6 1427.76C1088.47 1439.18 1074.81 1416.33 1042.89 1400.43C1040.47 1399.19 1037.8 1398.01 1035.07 1396.83L1026.81 1526.68C1026.81 1526.68 1038.79 1652.43 1182.49 1628.52C1240.67 1618.83 1302.77 1566.92 1356.36 1508.55C1301.22 1498.42 1218.94 1477.06 1213.72 1459.61Z" fill="white"/>
<path d="M1209.87 1367.46C1209.87 1367.46 1201.61 1413.78 1194.97 1465.02C1188.32 1516.25 1183.42 1554.37 1183.42 1554.37L1213.72 1459.61L1247.88 1359.2C1247.88 1359.2 1214.84 1359.2 1209.87 1367.46Z" fill="url(#paint25_linear_635_1095)"/>
<path opacity="0.5" d="M1209.87 1367.46C1209.87 1367.46 1201.61 1413.78 1194.97 1465.02C1188.32 1516.25 1183.42 1554.37 1183.42 1554.37L1213.72 1459.61L1247.88 1359.2C1247.88 1359.2 1214.84 1359.2 1209.87 1367.46Z" fill="white"/>
<path d="M1213.72 1459.61C1206.89 1436.88 1250.17 1350.26 1250.17 1350.26L1113.56 1357.09C1113.56 1357.09 1106.73 1416.33 1097.6 1427.76C1088.47 1439.18 1074.81 1416.33 1042.89 1400.43C1040.47 1399.19 1037.8 1398.01 1035.07 1396.83L1026.81 1526.68C1026.81 1526.68 1038.79 1652.43 1182.49 1628.52C1240.67 1618.83 1302.77 1566.92 1356.36 1508.55C1301.22 1498.42 1218.94 1477.06 1213.72 1459.61Z" stroke="#263238" stroke-width="0.746423" stroke-linecap="round" stroke-linejoin="round"/>
<path d="M1097.54 1427.76C1088.41 1439.12 1074.75 1416.33 1042.83 1400.43C1022.71 1390.31 990.666 1381.12 964.15 1371.18C956.636 1353.36 946.701 1330.14 940.305 1316.1C928.941 1291.26 910.684 1306.98 910.684 1306.98C901.159 1296.14 893.462 1283.83 887.894 1270.52C876.53 1245.68 858.273 1247.73 833.248 1243.2C808.222 1238.67 755.749 1190.79 755.749 1190.79C755.749 1190.79 731.221 1172.16 721.099 1162.91C709.3 1186.13 681.046 1226.99 619.941 1252.52C717.373 1354.29 915.031 1547.67 935.771 1562.2C958.561 1578.1 951.731 1623.68 935.771 1669.26C919.812 1714.84 860.571 1781.03 862.868 1853.81C865.166 1926.59 887.708 2038.37 885.658 2061.16C883.609 2081.46 838.153 2145.11 828.28 2158.77L851.442 2161.38H972.037C971.354 2100.28 971.416 1850.89 1013.21 1751.53C1061.09 1637.34 1097.54 1427.76 1097.54 1427.76Z" fill="url(#paint26_linear_635_1095)"/>
<path opacity="0.16" d="M1042.83 1400.43C1022.71 1390.31 990.666 1381.12 964.15 1371.18C956.636 1353.36 946.701 1330.14 940.305 1316.1C928.941 1291.26 910.684 1306.98 910.684 1306.98C901.159 1296.14 893.462 1283.83 887.894 1270.52C876.53 1245.68 858.273 1247.73 833.248 1243.2C808.222 1238.67 755.75 1190.79 755.75 1190.79C755.75 1190.79 731.221 1172.16 721.099 1162.91C716.048 1172.77 710.037 1182.11 703.153 1190.79C743.889 1225.25 788.848 1261.77 804.559 1269.03C835.608 1283.38 842.873 1271.39 866.657 1285.8C890.44 1300.21 916.956 1347.9 916.956 1347.9C916.956 1347.9 931.363 1309.52 943.347 1335.91C955.332 1362.3 984.084 1407.76 984.084 1407.76C984.084 1407.76 1022.4 1429.31 1031.96 1429.31C1039.48 1429.31 1076.3 1448.43 1091.95 1456.69C1095.43 1438.5 1097.35 1427.57 1097.35 1427.57C1088.41 1439.12 1074.75 1416.33 1042.83 1400.43Z" fill="black"/>
<path d="M1097.54 1427.76C1088.41 1439.12 1074.75 1416.33 1042.83 1400.43C1022.71 1390.31 990.666 1381.12 964.15 1371.18C956.636 1353.36 946.701 1330.14 940.305 1316.1C928.941 1291.26 910.684 1306.98 910.684 1306.98C901.159 1296.14 893.462 1283.83 887.894 1270.52C876.53 1245.68 858.273 1247.73 833.248 1243.2C808.222 1238.67 755.749 1190.79 755.749 1190.79C755.749 1190.79 731.221 1172.16 721.099 1162.91C709.3 1186.13 681.046 1226.99 619.941 1252.52C717.373 1354.29 915.031 1547.67 935.771 1562.2C958.561 1578.1 951.731 1623.68 935.771 1669.26C919.812 1714.84 860.571 1781.03 862.868 1853.81C865.166 1926.59 887.708 2038.37 885.658 2061.16C883.609 2081.46 838.153 2145.11 828.28 2158.77L851.442 2161.38H972.037C971.354 2100.28 971.416 1850.89 1013.21 1751.53C1061.09 1637.34 1097.54 1427.76 1097.54 1427.76Z" stroke="#263238" stroke-width="0.746423" stroke-linecap="round" stroke-linejoin="round"/>
<path d="M1099.15 1419.81C1099.15 1419.81 1070.83 1411.11 1053.39 1426.39C1035.94 1441.67 1009.92 1520.03 994.578 1605.05C985.125 1654.53 991.649 1705.75 1013.21 1751.29C1013.21 1751.29 1049.04 1657.33 1059.91 1611.57C1070.77 1565.8 1099.15 1419.81 1099.15 1419.81Z" fill="url(#paint27_linear_635_1095)"/>
<path opacity="0.16" d="M1044.82 1433.66C1044.82 1433.66 1065.31 1428.69 1073.75 1431.54C1080.86 1434.59 1087.51 1438.63 1093.5 1443.53L1099.15 1419.81C1090.67 1415.48 1081.06 1413.89 1071.64 1415.28C1057.55 1418.13 1044.82 1433.66 1044.82 1433.66Z" fill="black"/>
<path d="M1099.15 1419.81C1099.15 1419.81 1070.83 1411.11 1053.39 1426.39C1035.94 1441.67 1009.92 1520.03 994.578 1605.05C985.125 1654.53 991.649 1705.75 1013.21 1751.29C1013.21 1751.29 1049.04 1657.33 1059.91 1611.57C1070.77 1565.8 1099.15 1419.81 1099.15 1419.81Z" stroke="#263238" stroke-width="0.746423" stroke-linecap="round" stroke-linejoin="round"/>
<path d="M908.449 1427.26L944.9 1575.36L862.869 1388.51" stroke="#263238" stroke-width="0.746423" stroke-linecap="round" stroke-linejoin="round"/>
<path d="M1148.58 2161.38H1414.24C1414.24 2161.38 1340.96 2068.23 1340.96 2036.38C1340.96 2004.52 1441.56 1596.35 1446.09 1566.73C1450.63 1537.11 1432.43 1516.62 1395.98 1514.32C1359.53 1512.02 1220.55 1482.4 1213.72 1459.61C1213.72 1459.61 1161.31 1644.17 1143.12 1769.48C1127.47 1876.97 1143.68 2100.03 1148.58 2161.38Z" fill="url(#paint28_linear_635_1095)"/>
<path opacity="0.16" d="M1395.98 1514.32C1366.11 1512.46 1267.44 1492.21 1229 1472.47L1242.97 1504.76C1268.29 1518.19 1295.51 1527.65 1323.7 1532.83C1369.96 1541.09 1412.99 1539.47 1441.12 1580.83L1442.49 1582.88C1444.23 1574.93 1445.41 1569.34 1445.78 1566.73C1450.69 1537.11 1432.43 1516.62 1395.98 1514.32Z" fill="black"/>
<path d="M1148.58 2161.38H1414.24C1414.24 2161.38 1340.96 2068.23 1340.96 2036.38C1340.96 2004.52 1441.56 1596.35 1446.09 1566.73C1450.63 1537.11 1432.43 1516.62 1395.98 1514.32C1359.53 1512.02 1220.55 1482.4 1213.72 1459.61C1213.72 1459.61 1161.31 1644.17 1143.12 1769.48C1127.47 1876.97 1143.68 2100.03 1148.58 2161.38Z" stroke="#263238" stroke-width="0.746423" stroke-linecap="round" stroke-linejoin="round"/>
<path d="M1213.72 1459.61C1213.72 1459.61 1143.43 1683.17 1143.12 1769.48C1143.12 1769.48 1242.97 1648.58 1256.01 1563.63C1269.05 1478.68 1213.72 1459.61 1213.72 1459.61Z" fill="url(#paint29_linear_635_1095)"/>
<path opacity="0.16" d="M1201.61 1488.18C1212.18 1487.82 1222.66 1490.05 1232.18 1494.66C1241.69 1499.27 1249.93 1506.12 1256.2 1514.63C1256.2 1514.63 1242.41 1474.08 1213.72 1459.61L1201.61 1488.18Z" fill="black"/>
<path d="M1213.72 1459.61C1213.72 1459.61 1143.43 1683.17 1143.12 1769.48C1143.12 1769.48 1242.97 1648.58 1256.01 1563.63C1269.05 1478.68 1213.72 1459.61 1213.72 1459.61Z" stroke="#263238" stroke-width="0.746423" stroke-linecap="round" stroke-linejoin="round"/>
<path d="M1964.18 2119.34C1964.18 2119.34 2015.66 2121.45 2049.37 2126.3C2071.86 2129.34 2094.5 2131.15 2117.19 2131.7C2117.19 2131.7 2098.56 2094.07 2078.68 2083.45C2058.81 2072.83 2022.8 2053.83 1992.62 2058.05C1962.44 2062.27 1919.28 2092.7 1922.88 2102.39C1926.48 2112.08 1942.57 2116.42 1964.18 2119.34Z" fill="white"/>
<path d="M1964.18 2119.34C1964.18 2119.34 2015.66 2121.45 2049.37 2126.3C2071.86 2129.34 2094.5 2131.15 2117.19 2131.7C2117.19 2131.7 2098.56 2094.07 2078.68 2083.45C2058.81 2072.83 2022.8 2053.83 1992.62 2058.05C1962.44 2062.27 1919.28 2092.7 1922.88 2102.39C1926.48 2112.08 1942.57 2116.42 1964.18 2119.34Z" fill="url(#paint30_linear_635_1095)"/>
<path opacity="0.5" d="M1964.18 2119.34C1964.18 2119.34 2015.66 2121.45 2049.37 2126.3C2071.86 2129.34 2094.5 2131.15 2117.19 2131.7C2117.19 2131.7 2098.56 2094.07 2078.68 2083.45C2058.81 2072.83 2022.8 2053.83 1992.62 2058.05C1962.44 2062.27 1919.28 2092.7 1922.88 2102.39C1926.48 2112.08 1942.57 2116.42 1964.18 2119.34Z" fill="white"/>
<path d="M1964.18 2119.34C1964.18 2119.34 2015.66 2121.45 2049.37 2126.3C2071.86 2129.34 2094.5 2131.15 2117.19 2131.7C2117.19 2131.7 2098.56 2094.07 2078.68 2083.45C2058.81 2072.83 2022.8 2053.83 1992.62 2058.05C1962.44 2062.27 1919.28 2092.7 1922.88 2102.39C1926.48 2112.08 1942.57 2116.42 1964.18 2119.34Z" stroke="#263238" stroke-width="0.746423" stroke-linecap="round" stroke-linejoin="round"/>
<path d="M2049.68 2103.94C2049.68 2103.94 2090.48 2082.77 2100.67 2083.08C2110.85 2083.39 2178.54 2129.15 2175.18 2136.48C2172.91 2139.88 2169.62 2142.47 2165.79 2143.9C2161.95 2145.33 2157.77 2145.51 2153.82 2144.43C2146.31 2140.89 2100.73 2121.51 2100.73 2121.51L2070.92 2128.53L2049.68 2103.94Z" fill="white"/>
<path d="M2049.68 2103.94C2049.68 2103.94 2090.48 2082.77 2100.67 2083.08C2110.85 2083.39 2178.54 2129.15 2175.18 2136.48C2171.83 2143.81 2155.81 2149.77 2153.82 2144.43C2151.84 2139.09 2100.73 2121.51 2100.73 2121.51L2070.92 2128.53L2049.68 2103.94Z" fill="url(#paint31_linear_635_1095)"/>
<path opacity="0.5" d="M2049.68 2103.94C2049.68 2103.94 2090.48 2082.77 2100.67 2083.08C2110.85 2083.39 2178.54 2129.15 2175.18 2136.48C2171.83 2143.81 2155.81 2149.77 2153.82 2144.43C2151.84 2139.09 2100.73 2121.51 2100.73 2121.51L2070.92 2128.53L2049.68 2103.94Z" fill="white"/>
<path d="M2049.68 2103.94C2049.68 2103.94 2090.48 2082.77 2100.67 2083.08C2110.85 2083.39 2178.54 2129.15 2175.18 2136.48C2172.91 2139.88 2169.62 2142.47 2165.79 2143.9C2161.95 2145.33 2157.77 2145.51 2153.82 2144.43C2146.31 2140.89 2100.73 2121.51 2100.73 2121.51L2070.92 2128.53L2049.68 2103.94Z" stroke="#263238" stroke-width="0.746423" stroke-linecap="round" stroke-linejoin="round"/>
<path d="M2020.56 2069.1C2020.56 2069.1 2074.96 2067.36 2085.76 2072.83C2096.57 2078.29 2145.38 2162 2138.05 2168.09C2130.72 2174.17 2110.48 2172.37 2111.1 2165.6C2111.72 2158.84 2066.14 2114 2066.14 2114L2030.68 2106.24L2020.56 2069.1Z" fill="white"/>
<path d="M2020.56 2069.1C2020.56 2069.1 2074.96 2067.36 2085.76 2072.83C2096.57 2078.29 2145.38 2162 2138.05 2168.09C2130.72 2174.17 2110.48 2172.37 2111.1 2165.6C2111.72 2158.84 2066.14 2114 2066.14 2114L2030.68 2106.24L2020.56 2069.1Z" fill="url(#paint32_linear_635_1095)"/>
<path opacity="0.5" d="M2020.56 2069.1C2020.56 2069.1 2074.96 2067.36 2085.76 2072.83C2096.57 2078.29 2145.38 2162 2138.05 2168.09C2130.72 2174.17 2110.48 2172.37 2111.1 2165.6C2111.72 2158.84 2066.14 2114 2066.14 2114L2030.68 2106.24L2020.56 2069.1Z" fill="white"/>
<path d="M2020.56 2069.1C2020.56 2069.1 2074.96 2067.36 2085.76 2072.83C2096.57 2078.29 2145.38 2162 2138.05 2168.09C2130.72 2174.17 2110.48 2172.37 2111.1 2165.6C2111.72 2158.84 2066.14 2114 2066.14 2114L2030.68 2106.24L2020.56 2069.1Z" stroke="#263238" stroke-width="0.746423" stroke-linecap="round" stroke-linejoin="round"/>
<path d="M1988.33 2057.86C1988.33 2057.86 2043.41 2056.06 2054.34 2061.65C2065.27 2067.24 2114.7 2151.88 2107.25 2158.09C2099.8 2164.3 2079.43 2162.38 2080.05 2155.54C2080.67 2148.71 2034.53 2103.32 2034.53 2103.32L1998.64 2095.43L1988.33 2057.86Z" fill="white"/>
<path d="M1988.33 2057.86C1988.33 2057.86 2043.41 2056.06 2054.34 2061.65C2065.27 2067.24 2114.7 2151.88 2107.25 2158.09C2099.8 2164.3 2079.43 2162.38 2080.05 2155.54C2080.67 2148.71 2034.53 2103.32 2034.53 2103.32L1998.64 2095.43L1988.33 2057.86Z" fill="url(#paint33_linear_635_1095)"/>
<path opacity="0.5" d="M1988.33 2057.86C1988.33 2057.86 2043.41 2056.06 2054.34 2061.65C2065.27 2067.24 2114.7 2151.88 2107.25 2158.09C2099.8 2164.3 2079.43 2162.38 2080.05 2155.54C2080.67 2148.71 2034.53 2103.32 2034.53 2103.32L1998.64 2095.43L1988.33 2057.86Z" fill="white"/>
<path d="M1988.33 2057.86C1988.33 2057.86 2043.41 2056.06 2054.34 2061.65C2065.27 2067.24 2114.7 2151.88 2107.25 2158.09C2099.8 2164.3 2079.43 2162.38 2080.05 2155.54C2080.67 2148.71 2034.53 2103.32 2034.53 2103.32L1998.64 2095.43L1988.33 2057.86Z" stroke="#263238" stroke-width="0.746423" stroke-linecap="round" stroke-linejoin="round"/>
<path d="M1362.07 1742.28C1401.94 1803.7 1481.99 1959.32 1505.33 1976.83C1541.79 2004.15 1785.46 2070.47 1808.93 2088.6C1832.4 2106.74 1830.79 2124.93 1853.02 2131.58C1875.25 2138.22 1958.59 2157.28 1990.38 2160.26C2022.18 2163.25 2007.95 2143.56 2007.95 2143.56L1953.74 2106.3L2001 2094.63C2001 2094.63 2048.38 2151.63 2057.26 2154.74C2066.14 2157.84 2081.79 2154.74 2080.8 2147.72C2079.06 2136.48 2028.51 2044.51 2010.56 2040.6C1992.62 2036.69 1883.7 2051.78 1883.7 2051.78C1883.7 2051.78 1655.24 1897.71 1651.14 1892.25C1651.14 1892.25 1637.48 1853.5 1626.3 1837.54C1615.12 1821.58 1608.04 1826.18 1608.04 1826.18C1608.04 1826.18 1612.64 1805.62 1605.81 1798.79L1569.36 1762.34L1568.05 1764.08C1561.84 1751.66 1555.63 1737.5 1548.8 1721.36C1529.74 1676.46 1462.24 1550.46 1450.87 1532.27C1442.37 1518.67 1371.08 1508.92 1334.94 1504.82" fill="url(#paint34_linear_635_1095)"/>
<path opacity="0.16" d="M1520.8 1746.19C1550.6 1772.65 1540.67 1772.65 1534.02 1795.87C1527.38 1819.1 1538.99 1787.61 1567.12 1789.29C1595.25 1790.97 1586.99 1827.29 1583.64 1833.94C1580.29 1840.58 1618.41 1848.84 1611.77 1863.68C1605.13 1878.53 1567.12 1900.07 1545.64 1921.62C1524.15 1943.17 1601.83 1886.85 1628.29 1885.23C1636.36 1884.67 1643.01 1885.73 1648.59 1885.6C1642.73 1868.99 1635.2 1853.01 1626.11 1837.91C1614.69 1821.95 1607.86 1826.55 1607.86 1826.55C1607.86 1826.55 1612.45 1805.99 1605.62 1799.16L1569.17 1762.71L1567.87 1764.45C1561.66 1752.03 1555.45 1737.87 1548.62 1721.73C1529.55 1676.83 1462.05 1550.83 1450.69 1532.64C1442.18 1519.04 1370.89 1509.29 1334.75 1505.19L1338.04 1533.94L1338.85 1534.56C1338.85 1534.56 1383.5 1542.82 1398.4 1544.5C1413.3 1546.18 1431.5 1559.34 1429.82 1569.34C1428.15 1579.34 1385.17 1623.92 1398.4 1627.28C1411.63 1630.63 1426.53 1594.18 1441.44 1599.15C1456.34 1604.11 1490.8 1719.74 1520.8 1746.19Z" fill="black"/>
<path d="M1362.07 1742.28C1401.94 1803.7 1481.99 1959.32 1505.33 1976.83C1541.79 2004.15 1785.46 2070.47 1808.93 2088.6C1832.4 2106.74 1830.79 2124.93 1853.02 2131.58C1875.25 2138.22 1958.59 2157.28 1990.38 2160.26C2022.18 2163.25 2007.95 2143.56 2007.95 2143.56L1953.74 2106.3L2001 2094.63C2001 2094.63 2048.38 2151.63 2057.26 2154.74C2066.14 2157.84 2081.79 2154.74 2080.8 2147.72C2079.06 2136.48 2028.51 2044.51 2010.56 2040.6C1992.62 2036.69 1883.7 2051.78 1883.7 2051.78C1883.7 2051.78 1655.24 1897.71 1651.14 1892.25C1651.14 1892.25 1637.48 1853.5 1626.3 1837.54C1615.12 1821.58 1608.04 1826.18 1608.04 1826.18C1608.04 1826.18 1612.64 1805.62 1605.81 1798.79L1569.36 1762.34L1568.05 1764.08C1561.84 1751.66 1555.63 1737.5 1548.8 1721.36C1529.74 1676.46 1462.24 1550.46 1450.87 1532.27C1442.37 1518.67 1371.08 1508.92 1334.94 1504.82" stroke="#263238" stroke-width="0.746423" stroke-linecap="round" stroke-linejoin="round"/>
<path d="M1362.69 1658.02C1361.02 1663.6 1359.59 1669.19 1358.47 1674.91" stroke="#263238" stroke-width="0.746423" stroke-linecap="round" stroke-linejoin="round"/>
<path d="M1423.05 1555.24C1403.54 1577.48 1387.08 1602.23 1374.12 1628.83" stroke="#263238" stroke-width="0.746423" stroke-linecap="round" stroke-linejoin="round"/>
<path d="M1514.28 1907.84C1531.04 1883 1557.74 1851.51 1587.18 1842.51" stroke="#263238" stroke-width="0.746423" stroke-linecap="round" stroke-linejoin="round"/>
<path d="M1495.71 1938.39C1495.71 1938.39 1498.69 1932.55 1504.03 1923.73" stroke="#263238" stroke-width="0.746423" stroke-linecap="round" stroke-linejoin="round"/>
<path d="M1495.71 1899.14C1495.71 1899.14 1526.2 1822.89 1556.69 1803.26C1587.18 1783.64 1569.73 1822.89 1569.73 1822.89" stroke="#263238" stroke-width="0.746423" stroke-linecap="round" stroke-linejoin="round"/>
<path d="M1808.93 2088.66C1832.47 2106.86 1830.79 2124.99 1853.02 2131.64C1875.25 2138.28 1958.59 2157.35 1990.38 2160.33C2022.18 2163.31 2007.95 2143.62 2007.95 2143.62L1953.74 2106.36L2001 2094.69C2001 2094.69 2048.38 2151.69 2057.26 2154.8C2066.14 2157.9 2083.03 2159.02 2080.8 2147.78C2076.45 2126.05 2028.51 2044.58 2010.56 2040.66C1992.62 2036.75 1883.7 2051.84 1883.7 2051.84C1883.7 2051.84 1675.61 1909.02 1652.82 1893.55C1564.45 1902.06 1522.41 1948.32 1504.71 1976.08L1505.33 1976.58C1541.79 2004.15 1785.46 2070.47 1808.93 2088.66Z" fill="white"/>
<path d="M2080.73 2148.03C2069.43 2120.4 2028.45 2044.82 2010.5 2040.91C1992.55 2037 1883.63 2052.09 1883.63 2052.09C1883.63 2052.09 1675.54 1909.26 1652.75 1893.8C1629.56 1895.82 1606.8 1901.32 1585.25 1910.13C1618.1 1928.76 1837.06 2052.96 1864.69 2058.48C1894.01 2064.69 1991.81 2048.61 2009.01 2060.16C2019.94 2067.49 2052.48 2119.09 2074.46 2155.73C2080.73 2154.8 2083.03 2153.62 2080.73 2148.03Z" fill="url(#paint35_linear_635_1095)"/>
<path opacity="0.5" d="M2080.73 2148.03C2063.1 2108.47 2028.45 2044.82 2010.5 2040.91C1992.55 2037 1883.63 2052.09 1883.63 2052.09C1883.63 2052.09 1675.54 1909.26 1652.75 1893.8C1629.56 1895.82 1606.8 1901.32 1585.25 1910.13C1618.1 1928.76 1837.06 2052.96 1864.69 2058.48C1894.01 2064.69 1991.81 2048.61 2009.01 2060.16C2019.94 2067.49 2052.48 2119.09 2074.46 2155.73C2080.73 2154.8 2083.22 2153.56 2080.73 2148.03Z" fill="white"/>
<path d="M1808.93 2088.66C1832.47 2106.86 1830.79 2124.99 1853.02 2131.64C1875.25 2138.28 1958.59 2157.35 1990.38 2160.33C2022.18 2163.31 2007.95 2143.62 2007.95 2143.62L1953.74 2106.36L2001 2094.69C2001 2094.69 2048.38 2151.69 2057.26 2154.8C2066.14 2157.9 2083.03 2159.02 2080.8 2147.78C2076.45 2126.05 2028.51 2044.58 2010.56 2040.66C1992.62 2036.75 1883.7 2051.84 1883.7 2051.84C1883.7 2051.84 1675.61 1909.02 1652.82 1893.55C1564.45 1902.06 1522.41 1948.32 1504.71 1976.08L1505.33 1976.58C1541.79 2004.15 1785.46 2070.47 1808.93 2088.66Z" stroke="#263238" stroke-width="0.746423" stroke-linecap="round" stroke-linejoin="round"/>
<path d="M1260.11 1004.31L1073.07 1082.37C1070.8 1115.24 1062.66 1147.44 1049.04 1177.44C1026.93 1224.2 1039.85 1312.69 1061.09 1360.44C1082.32 1408.2 1175.9 1389.5 1210.12 1383.54C1233.33 1379.13 1256.06 1372.49 1277.99 1363.73C1287.98 1367.58 1298.79 1368.83 1309.39 1367.35C1319.99 1365.87 1330.04 1361.72 1338.6 1355.29C1338.6 1355.29 1238.5 1074.29 1260.11 1004.31Z" fill="white"/>
<path d="M1260.11 1004.31L1073.07 1082.37C1070.8 1115.24 1062.66 1147.44 1049.04 1177.44C1026.93 1224.2 1039.85 1312.69 1061.09 1360.44C1064.64 1368.12 1070.36 1374.6 1077.54 1379.07V1375.47C1077.54 1375.47 1042.83 1289.46 1049.41 1239.85C1055.99 1190.23 1084.19 1165.33 1087.48 1133.97C1090.77 1102.61 1089.09 1087.71 1152 1064.54C1214.9 1041.38 1241.29 1019.9 1247.88 1043C1254.46 1066.1 1280.97 1218.36 1299.17 1254.75C1317.36 1291.14 1315.69 1329.27 1287.62 1345.72C1259.25 1362.75 1228.85 1376.15 1197.14 1385.59L1210.37 1383.29C1233.58 1378.88 1256.3 1372.25 1278.24 1363.48C1288.23 1367.33 1299.04 1368.58 1309.64 1367.1C1320.24 1365.62 1330.29 1361.47 1338.85 1355.04C1338.85 1355.04 1238.5 1074.29 1260.11 1004.31Z" fill="url(#paint36_linear_635_1095)"/>
<path opacity="0.5" d="M1260.11 1004.31L1073.07 1082.37C1070.8 1115.24 1062.66 1147.44 1049.04 1177.44C1026.93 1224.2 1039.85 1312.69 1061.09 1360.44C1064.64 1368.12 1070.36 1374.6 1077.54 1379.07V1375.47C1077.54 1375.47 1042.83 1289.46 1049.41 1239.85C1055.99 1190.23 1084.19 1165.33 1087.48 1133.97C1090.77 1102.61 1089.09 1087.71 1152 1064.54C1214.9 1041.38 1241.29 1019.9 1247.88 1043C1254.46 1066.1 1280.97 1218.36 1299.17 1254.75C1317.36 1291.14 1315.69 1329.27 1287.62 1345.72C1259.25 1362.75 1228.85 1376.15 1197.14 1385.59L1210.37 1383.29C1233.58 1378.88 1256.3 1372.25 1278.24 1363.48C1288.23 1367.33 1299.04 1368.58 1309.64 1367.1C1320.24 1365.62 1330.29 1361.47 1338.85 1355.04C1338.85 1355.04 1238.5 1074.29 1260.11 1004.31Z" fill="white"/>
<path d="M1260.11 1004.31L1073.07 1082.37C1070.8 1115.24 1062.66 1147.44 1049.04 1177.44C1026.93 1224.2 1039.85 1312.69 1061.09 1360.44C1082.32 1408.2 1175.9 1389.5 1210.12 1383.54C1233.33 1379.13 1256.06 1372.49 1277.99 1363.73C1287.98 1367.58 1298.79 1368.83 1309.39 1367.35C1319.99 1365.87 1330.04 1361.72 1338.6 1355.29C1338.6 1355.29 1238.5 1074.29 1260.11 1004.31Z" stroke="#263238" stroke-width="0.746423" stroke-linecap="round" stroke-linejoin="round"/>
<path d="M1165.6 1126.71C1166.1 1137.7 1164.74 1148.7 1161.56 1159.24C1156.59 1171.66 1109.71 1220.47 1111.14 1225.75C1112.56 1231.03 1116.79 1247.98 1125.11 1249.6" stroke="#263238" stroke-width="0.746423" stroke-linecap="round" stroke-linejoin="round"/>
<path d="M1217.57 1170.36C1224.09 1157.32 1245.52 1170.05 1245.21 1199.42" stroke="#263238" stroke-width="0.746423" stroke-linecap="round" stroke-linejoin="round"/>
<path d="M1111.38 1131.98C1111.38 1131.98 1129.64 1123.97 1145.97 1153.53" stroke="#263238" stroke-width="0.746423" stroke-linecap="round" stroke-linejoin="round"/>
<path d="M1191.62 1213.39C1212.71 1214.46 1232.77 1222.87 1248.31 1237.18" stroke="#263238" stroke-width="0.373212" stroke-linecap="round" stroke-linejoin="round"/>
<path d="M1089.34 1174.58C1100.25 1176.04 1110.9 1178.99 1121.01 1183.34" stroke="#263238" stroke-width="0.373212" stroke-linecap="round" stroke-linejoin="round"/>
<path d="M1163.55 1099.13C1158.72 1096.58 1153.38 1095.19 1147.92 1095.06C1142.47 1094.93 1137.06 1096.07 1132.13 1098.39C1115.42 1106.4 1105.17 1115.22 1106.29 1104.97C1107.41 1094.72 1127.03 1083.42 1132.93 1081.93C1138.83 1080.44 1165.22 1076.34 1163.55 1099.13Z" fill="#263238"/>
<path d="M1210.37 1075.97C1227.78 1090.06 1241.61 1108.06 1250.73 1128.51C1263.15 1159.56 1272.96 1125.65 1263.15 1105.34C1253.34 1085.04 1224.96 1063.43 1210.37 1075.97Z" fill="#263238"/>
<path d="M1341.33 1408.38C1341.33 1422.85 1333.14 1434.59 1323.08 1434.59C1313.02 1434.59 1304.88 1422.85 1304.88 1408.38C1304.88 1393.91 1313.02 1357.09 1323.08 1357.09C1333.14 1357.09 1341.33 1393.91 1341.33 1408.38Z" fill="url(#paint37_linear_635_1095)" stroke="#263238" stroke-width="0.746423" stroke-linecap="round" stroke-linejoin="round"/>
<path d="M1219.19 1164.71C1218.47 1166.61 1217.91 1168.56 1217.51 1170.55C1215.71 1179.74 1213.91 1198.93 1217.51 1199.73C1221.11 1200.54 1229.93 1182.59 1231.48 1173.4C1231.83 1171.6 1232.04 1169.77 1232.1 1167.94C1227.86 1166.61 1223.55 1165.53 1219.19 1164.71Z" fill="#263238"/>
<path d="M1113.25 1130.18C1112.7 1131.81 1112.26 1133.47 1111.94 1135.15C1110.08 1144.34 1110.14 1164.52 1114.05 1165.27C1117.97 1166.01 1124.36 1147.14 1126.16 1137.94C1126.61 1135.72 1126.86 1133.45 1126.91 1131.18C1122.46 1129.95 1117.82 1129.62 1113.25 1130.18V1130.18Z" fill="#263238"/>
<path d="M1217.57 1170.67L1223.78 1159.12C1233.63 1161.04 1242.55 1166.2 1249.12 1173.78" stroke="#263238" stroke-width="0.559817" stroke-linecap="round" stroke-linejoin="round"/>
<path d="M1113.25 1130.18L1119.46 1122.92C1119.46 1122.92 1122.13 1121.61 1136.78 1128.26" stroke="#263238" stroke-width="0.559817" stroke-linecap="round" stroke-linejoin="round"/>
<path d="M1089.71 1298.59C1089.71 1298.59 1100.14 1279.4 1114.12 1279.4C1128.09 1279.4 1138.52 1310.76 1138.52 1310.76" stroke="#263238" stroke-width="0.746423" stroke-linecap="round" stroke-linejoin="round"/>
<path d="M640.061 2126.11C626.558 2125.44 613.295 2122.28 600.939 2116.8C599.216 2116.16 597.641 2115.18 596.309 2113.91C594.978 2112.65 593.918 2111.12 593.193 2109.44C592.469 2107.75 592.096 2105.93 592.097 2104.09C592.098 2102.26 592.472 2100.44 593.198 2098.75C593.923 2097.06 594.985 2095.54 596.318 2094.28C597.65 2093.01 599.226 2092.03 600.95 2091.4C602.673 2090.76 604.508 2090.48 606.342 2090.58C608.177 2090.68 609.972 2091.14 611.62 2091.96C624.04 2097.23 640.123 2100.53 644.408 2098.66C652.294 2089.84 664.403 2036.56 648.755 2010.86C645.215 2005.14 641.924 2004.09 639.75 2003.84C630.87 2002.6 617.706 2011.73 613.048 2016.26C611.752 2017.48 610.227 2018.44 608.561 2019.07C606.895 2019.71 605.12 2020.01 603.338 2019.95C601.557 2019.9 599.802 2019.5 598.176 2018.77C596.55 2018.04 595.083 2017 593.86 2015.7C592.637 2014.4 591.681 2012.88 591.047 2011.21C590.413 2009.55 590.114 2007.77 590.165 2005.99C590.217 2004.21 590.62 2002.45 591.349 2000.83C592.079 1999.2 593.122 1997.73 594.419 1996.51C596.841 1994.15 619.258 1973.97 643.166 1977.2C649.095 1978.06 654.746 1980.29 659.678 1983.69C664.611 1987.09 668.692 1991.59 671.607 1996.82C694.645 2034.39 678.872 2105.87 661.174 2120.02C655.024 2124.38 647.583 2126.52 640.061 2126.11V2126.11Z" fill="white"/>
<path d="M658.256 2006.76C656.627 2002.9 654.077 1999.5 650.829 1996.86C647.581 1994.22 643.734 1992.41 639.626 1991.61C624.102 1989.12 609.509 2004.71 607.894 2006.45C606.41 2008.24 605.493 2010.43 605.261 2012.74C605.028 2015.05 605.491 2017.38 606.59 2019.43C609.033 2018.94 611.291 2017.77 613.111 2016.07C617.768 2011.73 630.933 2002.6 639.813 2003.65C641.986 2003.65 645.277 2004.96 648.817 2010.67C664.466 2036.13 652.356 2089.66 644.47 2098.48C640.185 2100.34 624.164 2097.05 611.682 2091.77C610.146 2091.12 608.504 2090.77 606.839 2090.71C606.952 2092.42 607.488 2094.06 608.399 2095.51C609.31 2096.95 610.567 2098.14 612.055 2098.97C619.907 2103.17 628.568 2105.62 637.453 2106.18C642.522 2106.42 647.488 2104.68 651.301 2101.33C662.975 2090.59 673.283 2035.63 658.256 2006.76Z" fill="url(#paint38_linear_635_1095)"/>
<path opacity="0.5" d="M658.256 2006.76C656.627 2002.9 654.077 1999.5 650.829 1996.86C647.581 1994.22 643.734 1992.41 639.626 1991.61C624.102 1989.12 609.509 2004.71 607.894 2006.45C606.41 2008.24 605.493 2010.43 605.261 2012.74C605.028 2015.05 605.491 2017.38 606.59 2019.43C609.033 2018.94 611.291 2017.77 613.111 2016.07C617.768 2011.73 630.933 2002.6 639.813 2003.65C641.986 2003.65 645.277 2004.96 648.817 2010.67C664.466 2036.13 652.356 2089.66 644.47 2098.48C640.185 2100.34 624.164 2097.05 611.682 2091.77C610.146 2091.12 608.504 2090.77 606.839 2090.71C606.952 2092.42 607.488 2094.06 608.399 2095.51C609.31 2096.95 610.567 2098.14 612.055 2098.97C619.907 2103.17 628.568 2105.62 637.453 2106.18C642.522 2106.42 647.488 2104.68 651.301 2101.33C662.975 2090.59 673.283 2035.63 658.256 2006.76Z" fill="white"/>
<path d="M640.061 2126.11C626.558 2125.44 613.295 2122.28 600.939 2116.8C599.216 2116.16 597.641 2115.18 596.309 2113.91C594.978 2112.65 593.918 2111.12 593.193 2109.44C592.469 2107.75 592.096 2105.93 592.097 2104.09C592.098 2102.26 592.472 2100.44 593.198 2098.75C593.923 2097.06 594.985 2095.54 596.318 2094.28C597.65 2093.01 599.226 2092.03 600.95 2091.4C602.673 2090.76 604.508 2090.48 606.342 2090.58C608.177 2090.68 609.972 2091.14 611.62 2091.96C624.04 2097.23 640.123 2100.53 644.408 2098.66C652.294 2089.84 664.403 2036.56 648.755 2010.86C645.215 2005.14 641.924 2004.09 639.75 2003.84C630.87 2002.6 617.706 2011.73 613.048 2016.26C611.752 2017.48 610.227 2018.44 608.561 2019.07C606.895 2019.71 605.12 2020.01 603.338 2019.95C601.557 2019.9 599.802 2019.5 598.176 2018.77C596.55 2018.04 595.083 2017 593.86 2015.7C592.637 2014.4 591.681 2012.88 591.047 2011.21C590.413 2009.55 590.114 2007.77 590.165 2005.99C590.217 2004.21 590.62 2002.45 591.349 2000.83C592.079 1999.2 593.122 1997.73 594.419 1996.51C596.841 1994.15 619.258 1973.97 643.166 1977.2C649.095 1978.06 654.746 1980.29 659.678 1983.69C664.611 1987.09 668.692 1991.59 671.607 1996.82C694.645 2034.39 678.872 2105.87 661.174 2120.02C655.024 2124.38 647.583 2126.52 640.061 2126.11V2126.11Z" stroke="#263238" stroke-width="0.746423" stroke-linecap="round" stroke-linejoin="round"/>
<path d="M616.339 1965.9H466.994V2164.11H616.339V1965.9Z" fill="white"/>
<path d="M528.16 1965.9H466.994V2164.11H528.16V1965.9Z" fill="url(#paint39_linear_635_1095)"/>
<path opacity="0.5" d="M528.16 1965.9H466.994V2164.11H528.16V1965.9Z" fill="white"/>
<path d="M616.339 1965.9H466.994V2164.11H616.339V1965.9Z" stroke="#263238" stroke-width="0.746423" stroke-linecap="round" stroke-linejoin="round"/>
<path d="M1437.03 2161.38H799.032L778.229 1810.65C777.654 1807.25 777.824 1803.77 778.726 1800.44C779.628 1797.11 781.242 1794.02 783.456 1791.37C785.669 1788.73 788.431 1786.59 791.548 1785.12C794.666 1783.65 798.067 1782.87 801.516 1782.83H1434.29C1437.76 1782.83 1441.19 1783.58 1444.34 1785.04C1447.49 1786.5 1450.28 1788.63 1452.52 1791.28C1454.76 1793.93 1456.4 1797.03 1457.32 1800.38C1458.23 1803.73 1458.41 1807.23 1457.83 1810.65L1437.03 2161.38Z" fill="#263238" stroke="#263238" stroke-width="0.746423" stroke-linecap="round" stroke-linejoin="round"/>
<path d="M830.453 1791.22H1429.7C1433.08 1791.18 1436.44 1791.89 1439.52 1793.28C1442.6 1794.68 1445.34 1796.73 1447.55 1799.3C1449.76 1801.87 1451.38 1804.89 1452.29 1808.15C1453.21 1811.41 1453.4 1814.83 1452.86 1818.17" stroke="white" stroke-width="0.746423" stroke-linecap="round" stroke-linejoin="round"/>
<path d="M782.886 1812.64C783.386 1806.77 786.08 1801.31 790.431 1797.34C794.781 1793.36 800.469 1791.18 806.359 1791.22" stroke="white" stroke-width="0.746423" stroke-linecap="round" stroke-linejoin="round"/>
<path d="M1439.7 2127.23H796.362V2161.38H1439.7V2127.23Z" fill="white" stroke="#263238" stroke-width="0.746423" stroke-linecap="round" stroke-linejoin="round"/>
<path d="M1115.73 2000.8C1140.9 2000.8 1161.31 1988.56 1161.31 1973.47C1161.31 1958.38 1140.9 1946.15 1115.73 1946.15C1090.56 1946.15 1070.15 1958.38 1070.15 1973.47C1070.15 1988.56 1090.56 2000.8 1115.73 2000.8Z" fill="white" stroke="#263238" stroke-width="0.746423" stroke-linecap="round" stroke-linejoin="round"/>
<path d="M2410.04 2157.35H13.9272V2215.53H2410.04V2157.35Z" fill="#263238"/>
<path d="M1788.75 0H636.024C597.167 0 565.667 31.4999 565.667 70.357V731.763C565.667 770.62 597.167 802.12 636.024 802.12H1788.75C1827.61 802.12 1859.11 770.62 1859.11 731.763V70.357C1859.11 31.4999 1827.61 0 1788.75 0Z" fill="url(#paint40_linear_635_1095)"/>
<path d="M1242.8 460.954C1347.37 444.149 1418.51 345.761 1401.71 241.197C1384.9 136.634 1286.51 65.4908 1181.95 82.2954C1077.39 99.0999 1006.24 197.488 1023.05 302.052C1039.85 406.615 1138.24 477.758 1242.8 460.954Z" fill="#263238"/>
<path d="M1210.93 307.075L1147.03 389.106C1144.86 392.521 1141.87 395.342 1138.33 397.314C1134.8 399.287 1130.83 400.35 1126.78 400.408C1121.23 400.484 1115.88 398.363 1111.88 394.508C1109.85 392.645 1108.24 390.366 1107.17 387.827C1106.1 385.287 1105.59 382.546 1105.67 379.791C1105.87 373.621 1108.05 367.678 1111.88 362.838L1184.72 272.734L1116.41 182.568C1113.24 178.337 1111.5 173.202 1111.45 167.913C1111.43 164.758 1112.07 161.635 1113.32 158.738C1114.57 155.842 1116.41 153.236 1118.71 151.084C1120.88 148.822 1123.48 147.023 1126.36 145.796C1129.25 144.568 1132.35 143.938 1135.48 143.943C1139.49 144.008 1143.42 145.077 1146.91 147.051C1150.41 149.025 1153.35 151.842 1155.47 155.245L1217.2 236.531L1279.3 156.611C1281.52 152.883 1284.62 149.759 1288.34 147.517C1292.05 145.275 1296.26 143.983 1300.6 143.757C1303.29 143.75 1305.95 144.298 1308.42 145.367C1310.88 146.435 1313.11 148.001 1314.94 149.967C1316.9 151.809 1318.46 154.032 1319.53 156.498C1320.59 158.965 1321.15 161.624 1321.15 164.311C1321.09 169.121 1319.43 173.773 1316.43 177.538L1243.34 271.058L1313.95 364.205C1317.29 368.368 1319.14 373.524 1319.23 378.86C1319.25 381.945 1318.6 384.998 1317.32 387.807C1316.04 390.616 1314.17 393.115 1311.84 395.13C1307.28 399.511 1301.21 401.959 1294.88 401.96C1290.85 401.91 1286.9 400.849 1283.38 398.875C1279.87 396.9 1276.9 394.075 1274.76 390.658L1210.93 307.075Z" fill="white"/>
<path d="M1577.74 663.207H846.785C831.962 663.207 817.747 657.319 807.266 646.838C796.785 636.357 790.897 622.141 790.897 607.319V607.319C790.897 592.496 796.785 578.281 807.266 567.8C817.747 557.319 831.962 551.431 846.785 551.431H1577.74C1592.56 551.431 1606.78 557.319 1617.26 567.8C1627.74 578.281 1633.63 592.496 1633.63 607.319V607.319C1633.63 622.141 1627.74 636.357 1617.26 646.838C1606.78 657.319 1592.56 663.207 1577.74 663.207V663.207Z" fill="white"/>
<path d="M946.949 625.327C946.461 625.327 945.979 625.228 945.53 625.036C945.082 624.843 944.677 624.562 944.341 624.209C943.974 623.844 943.685 623.408 943.493 622.928C943.3 622.447 943.209 621.932 943.223 621.415C943.223 620.54 943.459 619.682 943.906 618.931L949.495 610.237H938.069C937.541 610.264 937.013 610.178 936.521 609.986C936.028 609.793 935.582 609.498 935.213 609.119C934.574 608.376 934.223 607.429 934.223 606.449C934.223 605.469 934.574 604.522 935.213 603.779C935.582 603.4 936.028 603.105 936.521 602.912C937.013 602.72 937.541 602.634 938.069 602.661L949.309 602.972L944.341 594.899C943.843 594.072 943.565 593.131 943.534 592.166C943.519 591.649 943.611 591.134 943.803 590.653C943.995 590.173 944.284 589.737 944.652 589.372C945 589.017 945.415 588.735 945.874 588.543C946.332 588.351 946.825 588.253 947.322 588.254C948.017 588.244 948.7 588.439 949.285 588.814C949.871 589.19 950.332 589.729 950.613 590.366L956.078 600.115L961.294 590.8C961.622 590.076 962.143 589.455 962.8 589.006C963.457 588.557 964.225 588.297 965.02 588.254C965.507 588.254 965.99 588.353 966.438 588.546C966.887 588.738 967.291 589.019 967.628 589.372C967.992 589.713 968.279 590.128 968.472 590.588C968.665 591.048 968.758 591.544 968.745 592.042C968.737 592.924 968.479 593.786 968 594.526L962.536 603.282L973.9 602.972C974.428 602.94 974.957 603.024 975.451 603.217C975.944 603.41 976.389 603.708 976.756 604.089C977.394 604.833 977.745 605.78 977.745 606.76C977.745 607.739 977.394 608.686 976.756 609.43C976.389 609.811 975.944 610.109 975.451 610.302C974.957 610.495 974.428 610.579 973.9 610.548H962.412L967.504 618.496C968.078 619.455 968.399 620.545 968.435 621.663C968.453 622.166 968.368 622.668 968.187 623.137C968.006 623.607 967.731 624.035 967.379 624.395C967.052 624.744 966.658 625.023 966.221 625.215C965.783 625.407 965.311 625.508 964.833 625.513C964.065 625.494 963.317 625.256 962.679 624.827C962.041 624.398 961.539 623.796 961.232 623.091L956.078 613.963L950.923 623.091C950.55 623.81 949.976 624.405 949.27 624.802C948.564 625.199 947.757 625.381 946.949 625.327V625.327Z" fill="black"/>
<path d="M1003.95 625.327C1003.47 625.327 1002.98 625.228 1002.54 625.036C1002.09 624.843 1001.68 624.562 1001.35 624.209C1000.98 623.844 1000.69 623.408 1000.5 622.928C1000.31 622.447 1000.21 621.932 1000.23 621.415C1000.23 620.54 1000.46 619.682 1000.91 618.931L1006.5 610.237H995.075C994.547 610.264 994.019 610.178 993.526 609.986C993.034 609.793 992.588 609.498 992.218 609.119C991.58 608.376 991.229 607.429 991.229 606.449C991.229 605.469 991.58 604.522 992.218 603.779C992.588 603.4 993.034 603.105 993.526 602.912C994.019 602.72 994.547 602.634 995.075 602.661L1006.31 602.972L1001.04 594.588C1000.54 593.761 1000.26 592.821 1000.23 591.856C1000.21 591.339 1000.31 590.824 1000.5 590.343C1000.69 589.862 1000.98 589.426 1001.35 589.062C1001.69 588.707 1002.11 588.425 1002.57 588.233C1003.03 588.041 1003.52 587.942 1004.02 587.944C1004.71 587.933 1005.4 588.128 1005.98 588.504C1006.57 588.879 1007.03 589.419 1007.31 590.055L1012.77 599.804L1017.99 590.49C1018.32 589.765 1018.84 589.144 1019.5 588.695C1020.15 588.246 1020.92 587.986 1021.72 587.944C1022.2 587.944 1022.69 588.043 1023.13 588.235C1023.58 588.427 1023.99 588.708 1024.32 589.062C1024.69 589.403 1024.97 589.817 1025.17 590.277C1025.36 590.737 1025.45 591.233 1025.44 591.732C1025.43 592.614 1025.17 593.475 1024.7 594.216L1019.23 602.972L1030.59 602.661C1031.12 602.63 1031.65 602.714 1032.15 602.907C1032.64 603.1 1033.08 603.397 1033.45 603.779C1034.09 604.522 1034.44 605.469 1034.44 606.449C1034.44 607.429 1034.09 608.376 1033.45 609.119C1033.08 609.501 1032.64 609.798 1032.15 609.991C1031.65 610.184 1031.12 610.268 1030.59 610.237H1019.11L1024.2 618.186C1024.77 619.145 1025.09 620.235 1025.13 621.352C1025.15 621.856 1025.06 622.357 1024.88 622.827C1024.7 623.296 1024.43 623.724 1024.07 624.085C1023.75 624.433 1023.35 624.712 1022.92 624.904C1022.48 625.096 1022.01 625.198 1021.53 625.203C1020.76 625.191 1020.01 624.957 1019.37 624.527C1018.73 624.097 1018.23 623.49 1017.93 622.781L1012.77 613.652L1007.62 622.781C1007.31 623.509 1006.81 624.135 1006.16 624.586C1005.51 625.037 1004.74 625.294 1003.95 625.327V625.327Z" fill="black"/>
<path d="M1060.96 625.327C1060.47 625.327 1059.99 625.228 1059.54 625.036C1059.09 624.843 1058.69 624.562 1058.35 624.209C1057.99 623.844 1057.7 623.408 1057.5 622.928C1057.31 622.447 1057.22 621.932 1057.23 621.415C1057.23 620.54 1057.47 619.682 1057.92 618.931L1063.51 610.237H1052.08C1051.55 610.264 1051.02 610.178 1050.53 609.986C1050.04 609.793 1049.59 609.498 1049.22 609.119C1048.59 608.376 1048.24 607.429 1048.24 606.449C1048.24 605.469 1048.59 604.522 1049.22 603.779C1049.59 603.4 1050.04 603.105 1050.53 602.912C1051.02 602.72 1051.55 602.634 1052.08 602.661L1063.32 602.972L1058.04 594.588C1057.54 593.761 1057.27 592.821 1057.23 591.856C1057.22 591.339 1057.31 590.824 1057.5 590.343C1057.7 589.862 1057.99 589.426 1058.35 589.062C1058.7 588.707 1059.12 588.425 1059.57 588.233C1060.03 588.041 1060.53 587.942 1061.02 587.944C1061.72 587.933 1062.4 588.128 1062.99 588.504C1063.57 588.879 1064.03 589.419 1064.31 590.055L1069.78 599.804L1074.99 590.49C1075.32 589.765 1075.84 589.144 1076.5 588.695C1077.16 588.246 1077.93 587.986 1078.72 587.944C1079.21 587.944 1079.69 588.043 1080.14 588.235C1080.59 588.427 1080.99 588.708 1081.33 589.062C1081.69 589.403 1081.98 589.817 1082.17 590.277C1082.37 590.737 1082.46 591.233 1082.45 591.732C1082.44 592.614 1082.18 593.475 1081.7 594.216L1076.24 602.972L1087.6 602.661C1088.13 602.63 1088.66 602.714 1089.15 602.907C1089.64 603.1 1090.09 603.397 1090.46 603.779C1091.1 604.522 1091.45 605.469 1091.45 606.449C1091.45 607.429 1091.1 608.376 1090.46 609.119C1090.09 609.501 1089.64 609.798 1089.15 609.991C1088.66 610.184 1088.13 610.268 1087.6 610.237H1076.11L1081.2 618.186C1081.78 619.145 1082.1 620.235 1082.14 621.352C1082.15 621.856 1082.07 622.357 1081.89 622.827C1081.71 623.296 1081.43 623.724 1081.08 624.085C1080.75 624.433 1080.36 624.712 1079.92 624.904C1079.48 625.096 1079.01 625.198 1078.53 625.203C1077.76 625.191 1077.01 624.957 1076.37 624.527C1075.73 624.097 1075.23 623.49 1074.93 622.781L1069.78 613.652L1064.62 622.781C1064.32 623.509 1063.81 624.135 1063.16 624.586C1062.51 625.037 1061.75 625.294 1060.96 625.327V625.327Z" fill="black"/>
<path d="M1118.22 625.327C1117.73 625.327 1117.24 625.228 1116.8 625.036C1116.35 624.843 1115.94 624.562 1115.61 624.209C1115.24 623.844 1114.95 623.408 1114.76 622.928C1114.57 622.447 1114.47 621.932 1114.49 621.415C1114.49 620.54 1114.72 619.682 1115.17 618.931L1120.76 610.237H1109.34C1108.81 610.264 1108.28 610.178 1107.79 609.986C1107.29 609.793 1106.85 609.498 1106.48 609.119C1105.84 608.376 1105.49 607.429 1105.49 606.449C1105.49 605.469 1105.84 604.522 1106.48 603.779C1106.85 603.4 1107.29 603.105 1107.79 602.912C1108.28 602.72 1108.81 602.634 1109.34 602.661L1120.58 602.972L1115.3 594.588C1114.8 593.761 1114.52 592.821 1114.49 591.856C1114.47 591.339 1114.57 590.824 1114.76 590.343C1114.95 589.862 1115.24 589.426 1115.61 589.062C1115.96 588.707 1116.37 588.425 1116.83 588.233C1117.29 588.041 1117.78 587.942 1118.28 587.944C1118.97 587.933 1119.66 588.128 1120.24 588.504C1120.83 588.879 1121.29 589.419 1121.57 590.055L1127.03 599.804L1132.25 590.49C1132.58 589.765 1133.1 589.144 1133.76 588.695C1134.41 588.246 1135.18 587.986 1135.98 587.944C1136.46 587.944 1136.95 588.043 1137.39 588.235C1137.84 588.427 1138.25 588.708 1138.58 589.062C1138.95 589.403 1139.24 589.817 1139.43 590.277C1139.62 590.737 1139.71 591.233 1139.7 591.732C1139.69 592.614 1139.43 593.475 1138.96 594.216L1133.49 602.972L1144.86 602.661C1145.38 602.63 1145.91 602.714 1146.41 602.907C1146.9 603.1 1147.34 603.397 1147.71 603.779C1148.35 604.522 1148.7 605.469 1148.7 606.449C1148.7 607.429 1148.35 608.376 1147.71 609.119C1147.34 609.501 1146.9 609.798 1146.41 609.991C1145.91 610.184 1145.38 610.268 1144.86 610.237H1133.37L1138.46 618.186C1139.03 619.145 1139.35 620.235 1139.39 621.352C1139.41 621.856 1139.32 622.357 1139.14 622.827C1138.96 623.296 1138.69 623.724 1138.34 624.085C1138.01 624.433 1137.61 624.712 1137.18 624.904C1136.74 625.096 1136.27 625.198 1135.79 625.203C1135.02 625.184 1134.27 624.946 1133.64 624.517C1133 624.088 1132.49 623.486 1132.19 622.781L1127.03 613.652L1121.88 622.781C1121.57 623.509 1121.07 624.135 1120.42 624.586C1119.77 625.037 1119 625.294 1118.22 625.327V625.327Z" fill="black"/>
<path d="M1174.97 625.327C1174.49 625.327 1174 625.228 1173.55 625.036C1173.11 624.843 1172.7 624.562 1172.36 624.209C1172 623.844 1171.71 623.408 1171.52 622.928C1171.32 622.447 1171.23 621.932 1171.25 621.415C1171.28 620.544 1171.51 619.693 1171.93 618.931L1177.52 610.237H1166.09C1165.56 610.264 1165.04 610.178 1164.54 609.986C1164.05 609.793 1163.61 609.498 1163.24 609.119C1162.6 608.376 1162.25 607.429 1162.25 606.449C1162.25 605.469 1162.6 604.522 1163.24 603.779C1163.61 603.4 1164.05 603.105 1164.54 602.912C1165.04 602.72 1165.56 602.634 1166.09 602.661L1177.33 602.972L1172.05 594.588C1171.56 593.761 1171.28 592.821 1171.25 591.856C1171.23 591.339 1171.32 590.824 1171.52 590.343C1171.71 589.862 1172 589.426 1172.36 589.062C1172.71 588.707 1173.13 588.425 1173.59 588.233C1174.05 588.041 1174.54 587.943 1175.03 587.944C1175.73 587.933 1176.41 588.128 1177 588.504C1177.58 588.879 1178.05 589.419 1178.33 590.055L1183.79 599.805L1189.01 590.49C1189.34 589.765 1189.86 589.144 1190.51 588.695C1191.17 588.247 1191.94 587.986 1192.73 587.944C1193.22 587.936 1193.71 588.032 1194.16 588.225C1194.61 588.417 1195.01 588.702 1195.34 589.062C1195.7 589.403 1195.99 589.817 1196.19 590.277C1196.38 590.737 1196.47 591.233 1196.46 591.732C1196.45 592.614 1196.19 593.475 1195.71 594.216L1190.25 602.972L1201.61 602.661C1202.14 602.63 1202.67 602.714 1203.16 602.907C1203.66 603.1 1204.1 603.397 1204.47 603.779C1205.11 604.522 1205.46 605.469 1205.46 606.449C1205.46 607.429 1205.11 608.376 1204.47 609.119C1204.1 609.501 1203.66 609.798 1203.16 609.991C1202.67 610.184 1202.14 610.268 1201.61 610.237H1190.12L1195.22 618.186C1195.79 619.145 1196.11 620.235 1196.15 621.353C1196.17 621.856 1196.08 622.357 1195.9 622.827C1195.72 623.296 1195.44 623.724 1195.09 624.085C1194.77 624.433 1194.37 624.712 1193.93 624.904C1193.5 625.096 1193.02 625.198 1192.55 625.203C1191.78 625.184 1191.03 624.946 1190.39 624.517C1189.75 624.088 1189.25 623.486 1188.94 622.781L1183.79 613.652L1178.64 622.781C1178.33 623.509 1177.82 624.135 1177.17 624.586C1176.53 625.037 1175.76 625.294 1174.97 625.327V625.327Z" fill="black"/>
<path d="M1231.98 625.327C1231.49 625.327 1231.01 625.228 1230.56 625.036C1230.11 624.843 1229.71 624.562 1229.37 624.209C1229 623.844 1228.71 623.408 1228.52 622.928C1228.33 622.447 1228.24 621.932 1228.25 621.415C1228.28 620.544 1228.52 619.693 1228.94 618.931L1234.52 610.237H1223.16C1222.62 610.269 1222.08 610.186 1221.58 609.993C1221.08 609.8 1220.62 609.502 1220.24 609.119C1219.6 608.376 1219.25 607.429 1219.25 606.449C1219.25 605.469 1219.6 604.522 1220.24 603.779C1220.62 603.396 1221.08 603.098 1221.58 602.905C1222.08 602.712 1222.62 602.629 1223.16 602.661L1234.34 602.972L1229.06 594.588C1228.56 593.761 1228.28 592.821 1228.25 591.856C1228.24 591.339 1228.33 590.824 1228.52 590.343C1228.71 589.862 1229 589.426 1229.37 589.062C1229.72 588.707 1230.13 588.425 1230.59 588.233C1231.05 588.041 1231.54 587.943 1232.04 587.944C1232.74 587.933 1233.42 588.128 1234 588.504C1234.59 588.879 1235.05 589.419 1235.33 590.055L1240.8 599.805L1246.01 590.49C1246.34 589.765 1246.86 589.144 1247.52 588.695C1248.18 588.247 1248.94 587.986 1249.74 587.944C1250.23 587.936 1250.71 588.032 1251.16 588.225C1251.61 588.417 1252.02 588.702 1252.35 589.062C1252.71 589.403 1253 589.817 1253.19 590.277C1253.38 590.737 1253.48 591.233 1253.46 591.732C1253.46 592.614 1253.2 593.475 1252.72 594.216L1247.25 602.972L1258.62 602.661C1259.15 602.63 1259.68 602.714 1260.17 602.907C1260.66 603.1 1261.11 603.397 1261.48 603.779C1262.11 604.522 1262.46 605.469 1262.46 606.449C1262.46 607.429 1262.11 608.376 1261.48 609.119C1261.11 609.501 1260.66 609.798 1260.17 609.991C1259.68 610.184 1259.15 610.268 1258.62 610.237H1247.13L1252.22 618.186C1252.8 619.145 1253.12 620.235 1253.15 621.353C1253.17 621.856 1253.09 622.357 1252.91 622.827C1252.72 623.296 1252.45 623.724 1252.1 624.085C1251.77 624.433 1251.38 624.712 1250.94 624.904C1250.5 625.096 1250.03 625.198 1249.55 625.203C1248.78 625.184 1248.04 624.946 1247.4 624.517C1246.76 624.088 1246.26 623.486 1245.95 622.781L1240.8 613.652L1235.64 622.781C1235.34 623.509 1234.83 624.135 1234.18 624.586C1233.53 625.037 1232.77 625.294 1231.98 625.327V625.327Z" fill="black"/>
<path d="M1288.98 625.327C1288.5 625.327 1288.01 625.228 1287.57 625.036C1287.12 624.843 1286.71 624.562 1286.38 624.209C1286.01 623.844 1285.72 623.408 1285.53 622.928C1285.34 622.447 1285.24 621.932 1285.26 621.415C1285.26 620.54 1285.49 619.682 1285.94 618.931L1291.53 610.237H1280.1C1279.58 610.264 1279.05 610.178 1278.56 609.986C1278.06 609.793 1277.62 609.498 1277.25 609.119C1276.61 608.376 1276.26 607.429 1276.26 606.449C1276.26 605.469 1276.61 604.522 1277.25 603.779C1277.62 603.4 1278.06 603.105 1278.56 602.912C1279.05 602.72 1279.58 602.634 1280.1 602.661L1291.34 602.972L1285.88 594.899C1285.38 594.072 1285.1 593.131 1285.07 592.167C1285.06 591.649 1285.15 591.134 1285.34 590.653C1285.53 590.173 1285.82 589.737 1286.19 589.372C1286.54 589.017 1286.95 588.735 1287.41 588.543C1287.87 588.351 1288.36 588.253 1288.86 588.254C1289.56 588.244 1290.24 588.439 1290.82 588.814C1291.41 589.19 1291.87 589.729 1292.15 590.366L1297.62 600.115L1302.83 590.8C1303.16 590.076 1303.68 589.455 1304.34 589.006C1305 588.557 1305.76 588.297 1306.56 588.254C1307.05 588.247 1307.53 588.342 1307.98 588.535C1308.43 588.728 1308.83 589.013 1309.17 589.372C1309.53 589.713 1309.82 590.128 1310.01 590.588C1310.2 591.048 1310.3 591.544 1310.28 592.042C1310.28 592.924 1310.02 593.786 1309.54 594.526L1304.07 603.282L1315.44 602.972C1315.97 602.94 1316.5 603.024 1316.99 603.217C1317.48 603.41 1317.93 603.708 1318.29 604.089C1318.93 604.833 1319.28 605.78 1319.28 606.76C1319.28 607.739 1318.93 608.687 1318.29 609.43C1317.93 609.811 1317.48 610.109 1316.99 610.302C1316.5 610.495 1315.97 610.579 1315.44 610.548H1303.95L1309.04 618.496C1309.62 619.456 1309.94 620.545 1309.97 621.663C1309.99 622.166 1309.91 622.668 1309.73 623.137C1309.54 623.607 1309.27 624.035 1308.92 624.395C1308.59 624.744 1308.2 625.023 1307.76 625.215C1307.32 625.407 1306.85 625.508 1306.37 625.513C1305.6 625.494 1304.86 625.256 1304.22 624.827C1303.58 624.398 1303.08 623.796 1302.77 623.091L1297.62 613.963L1292.46 623.091C1292.13 623.735 1291.63 624.279 1291.02 624.672C1290.41 625.064 1289.71 625.29 1288.98 625.327V625.327Z" fill="black"/>
<path d="M1345.99 625.326C1345.5 625.326 1345.02 625.227 1344.57 625.035C1344.12 624.843 1343.72 624.562 1343.38 624.208C1343.02 623.844 1342.73 623.408 1342.53 622.927C1342.34 622.446 1342.25 621.931 1342.26 621.414C1342.29 620.544 1342.53 619.693 1342.95 618.93L1348.54 610.236H1337.17C1336.64 610.276 1336.11 610.196 1335.62 610.003C1335.12 609.809 1334.68 609.507 1334.32 609.119C1333.64 608.394 1333.26 607.44 1333.26 606.448C1333.26 605.457 1333.64 604.503 1334.32 603.778C1334.68 603.389 1335.12 603.087 1335.62 602.894C1336.11 602.7 1336.64 602.621 1337.17 602.66L1348.35 602.971L1343.07 594.588C1342.57 593.761 1342.3 592.82 1342.26 591.855C1342.25 591.348 1342.33 590.842 1342.52 590.368C1342.7 589.894 1342.98 589.461 1343.33 589.096C1343.68 588.731 1344.11 588.441 1344.57 588.243C1345.04 588.045 1345.54 587.943 1346.05 587.943C1346.75 587.933 1347.43 588.128 1348.02 588.503C1348.6 588.879 1349.06 589.418 1349.34 590.055L1354.81 599.804L1360.02 590.489C1360.35 589.764 1360.87 589.144 1361.53 588.695C1362.19 588.246 1362.96 587.986 1363.75 587.943C1364.24 587.927 1364.73 588.019 1365.18 588.213C1365.63 588.406 1366.03 588.695 1366.36 589.061C1366.72 589.402 1367.01 589.816 1367.2 590.277C1367.4 590.737 1367.49 591.232 1367.48 591.731C1367.47 592.613 1367.21 593.474 1366.73 594.215L1361.27 602.971L1372.63 602.66C1373.16 602.629 1373.69 602.713 1374.18 602.906C1374.67 603.099 1375.12 603.396 1375.49 603.778C1376.13 604.521 1376.48 605.469 1376.48 606.448C1376.48 607.428 1376.13 608.375 1375.49 609.119C1375.12 609.5 1374.67 609.798 1374.18 609.991C1373.69 610.184 1373.16 610.268 1372.63 610.236H1361.14L1366.23 618.185C1366.81 619.144 1367.13 620.234 1367.17 621.352C1367.18 621.841 1367.1 622.329 1366.93 622.787C1366.76 623.246 1366.5 623.666 1366.16 624.023C1365.83 624.381 1365.43 624.669 1364.98 624.871C1364.54 625.074 1364.05 625.186 1363.56 625.202C1362.8 625.183 1362.05 624.945 1361.41 624.516C1360.77 624.087 1360.27 623.485 1359.96 622.78L1354.81 613.652L1349.65 622.78C1349.35 623.509 1348.84 624.135 1348.19 624.586C1347.54 625.037 1346.78 625.293 1345.99 625.326V625.326Z" fill="black"/>
<path d="M1403 625.326C1402.51 625.326 1402.03 625.227 1401.58 625.035C1401.13 624.843 1400.72 624.562 1400.39 624.208C1400.02 623.844 1399.73 623.408 1399.54 622.927C1399.35 622.446 1399.26 621.931 1399.27 621.414C1399.3 620.544 1399.53 619.693 1399.95 618.93L1405.54 610.236H1394.12C1393.6 610.267 1393.08 610.182 1392.59 609.989C1392.11 609.796 1391.68 609.499 1391.32 609.119C1390.65 608.394 1390.27 607.44 1390.27 606.448C1390.27 605.457 1390.65 604.503 1391.32 603.778C1391.68 603.398 1392.11 603.101 1392.59 602.907C1393.08 602.714 1393.6 602.63 1394.12 602.66L1405.36 602.971L1400.08 594.588C1399.58 593.761 1399.3 592.82 1399.27 591.855C1399.25 591.348 1399.34 590.842 1399.52 590.368C1399.71 589.894 1399.98 589.461 1400.34 589.096C1400.69 588.731 1401.11 588.441 1401.58 588.243C1402.05 588.045 1402.55 587.943 1403.06 587.943C1403.75 587.933 1404.44 588.128 1405.02 588.503C1405.61 588.879 1406.07 589.418 1406.35 590.055L1411.81 599.804L1417.03 590.489C1417.36 589.764 1417.88 589.144 1418.54 588.695C1419.19 588.246 1419.96 587.986 1420.76 587.943C1421.25 587.927 1421.73 588.019 1422.18 588.213C1422.64 588.406 1423.04 588.695 1423.36 589.061C1423.73 589.402 1424.02 589.816 1424.21 590.277C1424.4 590.737 1424.49 591.232 1424.48 591.731C1424.47 592.613 1424.22 593.474 1423.74 594.215L1418.27 602.971L1429.64 602.66C1430.17 602.629 1430.69 602.713 1431.19 602.906C1431.68 603.099 1432.13 603.396 1432.49 603.778C1433.13 604.521 1433.48 605.469 1433.48 606.448C1433.48 607.428 1433.13 608.375 1432.49 609.119C1432.13 609.5 1431.68 609.798 1431.19 609.991C1430.69 610.184 1430.17 610.268 1429.64 610.236H1418.15L1423.24 618.185C1423.81 619.144 1424.14 620.234 1424.17 621.352C1424.19 621.841 1424.11 622.329 1423.94 622.787C1423.76 623.246 1423.5 623.666 1423.17 624.023C1422.83 624.381 1422.43 624.669 1421.99 624.871C1421.54 625.074 1421.06 625.186 1420.57 625.202C1419.8 625.183 1419.05 624.945 1418.42 624.516C1417.78 624.087 1417.28 623.485 1416.97 622.78L1411.81 613.652L1406.66 622.78C1406.35 623.509 1405.85 624.135 1405.2 624.586C1404.55 625.037 1403.79 625.293 1403 625.326V625.326Z" fill="black"/>
<path d="M1459.75 625.326C1459.27 625.326 1458.78 625.227 1458.34 625.035C1457.89 624.843 1457.48 624.562 1457.15 624.208C1456.78 623.844 1456.49 623.408 1456.3 622.927C1456.11 622.446 1456.01 621.931 1456.03 621.414C1456.06 620.544 1456.29 619.693 1456.71 618.93L1462.3 610.236H1450.87C1450.35 610.267 1449.84 610.182 1449.35 609.989C1448.87 609.796 1448.43 609.499 1448.08 609.119C1447.4 608.394 1447.03 607.44 1447.03 606.448C1447.03 605.457 1447.4 604.503 1448.08 603.778C1448.43 603.398 1448.87 603.101 1449.35 602.907C1449.84 602.714 1450.35 602.63 1450.87 602.66L1462.11 602.971L1456.84 594.588C1456.34 593.761 1456.06 592.82 1456.03 591.855C1456.01 591.338 1456.11 590.823 1456.3 590.342C1456.49 589.862 1456.78 589.426 1457.15 589.061C1457.49 588.706 1457.91 588.424 1458.37 588.232C1458.83 588.04 1459.32 587.942 1459.82 587.943C1460.51 587.933 1461.19 588.128 1461.78 588.503C1462.37 588.879 1462.83 589.418 1463.11 590.055L1468.57 599.804L1473.79 590.489C1474.12 589.764 1474.64 589.144 1475.29 588.695C1475.95 588.246 1476.72 587.986 1477.51 587.943C1478 587.927 1478.49 588.019 1478.94 588.213C1479.39 588.406 1479.8 588.695 1480.12 589.061C1480.49 589.402 1480.77 589.816 1480.97 590.277C1481.16 590.737 1481.25 591.232 1481.24 591.731C1481.23 592.613 1480.97 593.474 1480.49 594.215L1475.03 602.971L1486.39 602.66C1486.92 602.629 1487.45 602.713 1487.95 602.906C1488.44 603.099 1488.88 603.396 1489.25 603.778C1489.89 604.521 1490.24 605.469 1490.24 606.448C1490.24 607.428 1489.89 608.375 1489.25 609.119C1488.88 609.5 1488.44 609.798 1487.95 609.991C1487.45 610.184 1486.92 610.268 1486.39 610.236H1474.91L1480 618.185C1480.57 619.144 1480.89 620.234 1480.93 621.352C1480.95 621.855 1480.86 622.357 1480.68 622.826C1480.5 623.296 1480.23 623.724 1479.87 624.084C1479.55 624.433 1479.15 624.711 1478.72 624.904C1478.28 625.096 1477.81 625.197 1477.33 625.202C1476.56 625.183 1475.81 624.945 1475.17 624.516C1474.54 624.087 1474.03 623.485 1473.73 622.78L1468.57 613.652L1463.42 622.78C1463.11 623.509 1462.61 624.135 1461.96 624.586C1461.31 625.037 1460.54 625.293 1459.75 625.326V625.326Z" fill="black"/>
<path d="M1655.11 762.688H1731.06" stroke="white" stroke-width="2.23927" stroke-linecap="round" stroke-linejoin="round"/>
<path d="M601.747 203.495V707.917C601.747 722.525 607.55 736.535 617.879 746.865C628.209 757.195 642.219 762.998 656.827 762.998H1583.02" stroke="white" stroke-width="2.23927" stroke-linecap="round" stroke-linejoin="round"/>
<path d="M601.747 69.7363V145.372" stroke="white" stroke-width="2.23927" stroke-linecap="round" stroke-linejoin="round"/>
<defs>
<linearGradient id="paint0_linear_635_1095" x1="2290.83" y1="1169.8" x2="2290.83" y2="972.144" gradientUnits="userSpaceOnUse">
<stop offset="0.383912" stop-color="#0155DC"/>
<stop offset="0.667563" stop-color="#006FE8"/>
</linearGradient>
<linearGradient id="paint1_linear_635_1095" x1="2228.16" y1="1362.68" x2="2228.16" y2="1165.02" gradientUnits="userSpaceOnUse">
<stop offset="0.383912" stop-color="#0155DC"/>
<stop offset="0.667563" stop-color="#006FE8"/>
</linearGradient>
<linearGradient id="paint2_linear_635_1095" x1="2410.71" y1="1222.21" x2="2410.71" y2="1037.66" gradientUnits="userSpaceOnUse">
<stop offset="0.383912" stop-color="#0155DC"/>
<stop offset="0.667563" stop-color="#006FE8"/>
</linearGradient>
<linearGradient id="paint3_linear_635_1095" x1="2337.51" y1="1448.99" x2="2337.51" y2="1279.65" gradientUnits="userSpaceOnUse">
<stop offset="0.383912" stop-color="#0155DC"/>
<stop offset="0.667563" stop-color="#006FE8"/>
</linearGradient>
<linearGradient id="paint4_linear_635_1095" x1="2346.85" y1="1698.56" x2="2346.85" y2="1500.91" gradientUnits="userSpaceOnUse">
<stop offset="0.383912" stop-color="#0155DC"/>
<stop offset="0.667563" stop-color="#006FE8"/>
</linearGradient>
<linearGradient id="paint5_linear_635_1095" x1="2232.94" y1="1758.61" x2="2232.94" y2="1546.74" gradientUnits="userSpaceOnUse">
<stop offset="0.383912" stop-color="#0155DC"/>
<stop offset="0.667563" stop-color="#006FE8"/>
</linearGradient>
<linearGradient id="paint6_linear_635_1095" x1="2303.52" y1="1938.88" x2="2303.52" y2="1741.17" gradientUnits="userSpaceOnUse">
<stop offset="0.383912" stop-color="#0155DC"/>
<stop offset="0.667563" stop-color="#006FE8"/>
</linearGradient>
<linearGradient id="paint7_linear_635_1095" x1="2319.62" y1="2099.9" x2="2319.62" y2="1879.77" gradientUnits="userSpaceOnUse">
<stop offset="0.383912" stop-color="#0155DC"/>
<stop offset="0.667563" stop-color="#006FE8"/>
</linearGradient>
<linearGradient id="paint8_linear_635_1095" x1="2031.05" y1="1561.7" x2="2031.05" y2="1425.33" gradientUnits="userSpaceOnUse">
<stop offset="0.383912" stop-color="#0155DC"/>
<stop offset="0.667563" stop-color="#006FE8"/>
</linearGradient>
<linearGradient id="paint9_linear_635_1095" x1="2091.35" y1="1675.84" x2="2091.35" y2="1539.47" gradientUnits="userSpaceOnUse">
<stop offset="0.383912" stop-color="#0155DC"/>
<stop offset="0.667563" stop-color="#006FE8"/>
</linearGradient>
<linearGradient id="paint10_linear_635_1095" x1="1962.96" y1="1593.56" x2="1962.96" y2="1492.46" gradientUnits="userSpaceOnUse">
<stop offset="0.383912" stop-color="#0155DC"/>
<stop offset="0.667563" stop-color="#006FE8"/>
</linearGradient>
<linearGradient id="paint11_linear_635_1095" x1="2033.82" y1="1726.94" x2="2033.82" y2="1637.4" gradientUnits="userSpaceOnUse">
<stop offset="0.383912" stop-color="#0155DC"/>
<stop offset="0.667563" stop-color="#006FE8"/>
</linearGradient>
<linearGradient id="paint12_linear_635_1095" x1="2055.11" y1="1886.29" x2="2055.11" y2="1774.76" gradientUnits="userSpaceOnUse">
<stop offset="0.383912" stop-color="#0155DC"/>
<stop offset="0.667563" stop-color="#006FE8"/>
</linearGradient>
<linearGradient id="paint13_linear_635_1095" x1="2131.09" y1="1922.99" x2="2131.09" y2="1780.91" gradientUnits="userSpaceOnUse">
<stop offset="0.383912" stop-color="#0155DC"/>
<stop offset="0.667563" stop-color="#006FE8"/>
</linearGradient>
<linearGradient id="paint14_linear_635_1095" x1="2196.89" y1="2080.96" x2="2196.89" y2="1964.28" gradientUnits="userSpaceOnUse">
<stop offset="0.383912" stop-color="#0155DC"/>
<stop offset="0.667563" stop-color="#006FE8"/>
</linearGradient>
<linearGradient id="paint15_linear_635_1095" x1="2108.45" y1="2032.28" x2="2108.45" y2="1920.69" gradientUnits="userSpaceOnUse">
<stop offset="0.383912" stop-color="#0155DC"/>
<stop offset="0.667563" stop-color="#006FE8"/>
</linearGradient>
<linearGradient id="paint16_linear_635_1095" x1="2113.44" y1="2137.91" x2="2113.44" y2="2006.45" gradientUnits="userSpaceOnUse">
<stop offset="0.383912" stop-color="#0155DC"/>
<stop offset="0.667563" stop-color="#006FE8"/>
</linearGradient>
<linearGradient id="paint17_linear_635_1095" x1="270.33" y1="1256.37" x2="270.33" y2="1015.43" gradientUnits="userSpaceOnUse">
<stop offset="0.383912" stop-color="#0155DC"/>
<stop offset="0.667563" stop-color="#006FE8"/>
</linearGradient>
<linearGradient id="paint18_linear_635_1095" x1="412.472" y1="2147.41" x2="412.472" y2="1998.13" gradientUnits="userSpaceOnUse">
<stop offset="0.383912" stop-color="#0155DC"/>
<stop offset="0.667563" stop-color="#006FE8"/>
</linearGradient>
<linearGradient id="paint19_linear_635_1095" x1="412.472" y1="1685.21" x2="412.472" y2="1465.7" gradientUnits="userSpaceOnUse">
<stop offset="0.383912" stop-color="#0155DC"/>
<stop offset="0.667563" stop-color="#006FE8"/>
</linearGradient>
<linearGradient id="paint20_linear_635_1095" x1="412.472" y1="1949.75" x2="412.472" y2="1730.24" gradientUnits="userSpaceOnUse">
<stop offset="0.383912" stop-color="#0155DC"/>
<stop offset="0.667563" stop-color="#006FE8"/>
</linearGradient>
<linearGradient id="paint21_linear_635_1095" x1="821.483" y1="1076.81" x2="821.483" y2="940.761" gradientUnits="userSpaceOnUse">
<stop offset="0.383912" stop-color="#0155DC"/>
<stop offset="0.667563" stop-color="#006FE8"/>
</linearGradient>
<linearGradient id="paint22_linear_635_1095" x1="1047.71" y1="1460.54" x2="1047.71" y2="1370.13" gradientUnits="userSpaceOnUse">
<stop offset="0.383912" stop-color="#0155DC"/>
<stop offset="0.667563" stop-color="#006FE8"/>
</linearGradient>
<linearGradient id="paint23_linear_635_1095" x1="735.847" y1="1277.91" x2="735.847" y2="1121.8" gradientUnits="userSpaceOnUse">
<stop offset="0.383912" stop-color="#0155DC"/>
<stop offset="0.667563" stop-color="#006FE8"/>
</linearGradient>
<linearGradient id="paint24_linear_635_1095" x1="915.465" y1="1348.08" x2="915.465" y2="1340.38" gradientUnits="userSpaceOnUse">
<stop offset="0.383912" stop-color="#0155DC"/>
<stop offset="0.667563" stop-color="#006FE8"/>
</linearGradient>
<linearGradient id="paint25_linear_635_1095" x1="1215.65" y1="1554.37" x2="1215.65" y2="1359.2" gradientUnits="userSpaceOnUse">
<stop offset="0.383912" stop-color="#0155DC"/>
<stop offset="0.667563" stop-color="#006FE8"/>
</linearGradient>
<linearGradient id="paint26_linear_635_1095" x1="858.739" y1="2161.38" x2="858.739" y2="1162.91" gradientUnits="userSpaceOnUse">
<stop offset="0.383912" stop-color="#0155DC"/>
<stop offset="0.667563" stop-color="#006FE8"/>
</linearGradient>
<linearGradient id="paint27_linear_635_1095" x1="1044.75" y1="1751.29" x2="1044.75" y2="1417.34" gradientUnits="userSpaceOnUse">
<stop offset="0.383912" stop-color="#0155DC"/>
<stop offset="0.667563" stop-color="#006FE8"/>
</linearGradient>
<linearGradient id="paint28_linear_635_1095" x1="1291.62" y1="2161.38" x2="1291.62" y2="1459.61" gradientUnits="userSpaceOnUse">
<stop offset="0.383912" stop-color="#0155DC"/>
<stop offset="0.667563" stop-color="#006FE8"/>
</linearGradient>
<linearGradient id="paint29_linear_635_1095" x1="1200.56" y1="1769.48" x2="1200.56" y2="1459.61" gradientUnits="userSpaceOnUse">
<stop offset="0.383912" stop-color="#0155DC"/>
<stop offset="0.667563" stop-color="#006FE8"/>
</linearGradient>
<linearGradient id="paint30_linear_635_1095" x1="2019.93" y1="2131.7" x2="2019.93" y2="2057.45" gradientUnits="userSpaceOnUse">
<stop offset="0.383912" stop-color="#0155DC"/>
<stop offset="0.667563" stop-color="#006FE8"/>
</linearGradient>
<linearGradient id="paint31_linear_635_1095" x1="2112.49" y1="2146.48" x2="2112.49" y2="2083.07" gradientUnits="userSpaceOnUse">
<stop offset="0.383912" stop-color="#0155DC"/>
<stop offset="0.667563" stop-color="#006FE8"/>
</linearGradient>
<linearGradient id="paint32_linear_635_1095" x1="2079.68" y1="2171.8" x2="2079.68" y2="2068.84" gradientUnits="userSpaceOnUse">
<stop offset="0.383912" stop-color="#0155DC"/>
<stop offset="0.667563" stop-color="#006FE8"/>
</linearGradient>
<linearGradient id="paint33_linear_635_1095" x1="2048.17" y1="2161.85" x2="2048.17" y2="2057.59" gradientUnits="userSpaceOnUse">
<stop offset="0.383912" stop-color="#0155DC"/>
<stop offset="0.667563" stop-color="#006FE8"/>
</linearGradient>
<linearGradient id="paint34_linear_635_1095" x1="1707.89" y1="2160.57" x2="1707.89" y2="1504.82" gradientUnits="userSpaceOnUse">
<stop offset="0.383912" stop-color="#0155DC"/>
<stop offset="0.667563" stop-color="#006FE8"/>
</linearGradient>
<linearGradient id="paint35_linear_635_1095" x1="1833.43" y1="2155.73" x2="1833.43" y2="1893.8" gradientUnits="userSpaceOnUse">
<stop offset="0.383912" stop-color="#0155DC"/>
<stop offset="0.667563" stop-color="#006FE8"/>
</linearGradient>
<linearGradient id="paint36_linear_635_1095" x1="1188.19" y1="1385.59" x2="1188.19" y2="1004.31" gradientUnits="userSpaceOnUse">
<stop offset="0.383912" stop-color="#0155DC"/>
<stop offset="0.667563" stop-color="#006FE8"/>
</linearGradient>
<linearGradient id="paint37_linear_635_1095" x1="1323.11" y1="1434.59" x2="1323.11" y2="1357.09" gradientUnits="userSpaceOnUse">
<stop offset="0.383912" stop-color="#0155DC"/>
<stop offset="0.667563" stop-color="#006FE8"/>
</linearGradient>
<linearGradient id="paint38_linear_635_1095" x1="635.478" y1="2106.2" x2="635.478" y2="1991.34" gradientUnits="userSpaceOnUse">
<stop offset="0.383912" stop-color="#0155DC"/>
<stop offset="0.667563" stop-color="#006FE8"/>
</linearGradient>
<linearGradient id="paint39_linear_635_1095" x1="497.577" y1="2164.11" x2="497.577" y2="1965.9" gradientUnits="userSpaceOnUse">
<stop offset="0.383912" stop-color="#0155DC"/>
<stop offset="0.667563" stop-color="#006FE8"/>
</linearGradient>
<linearGradient id="paint40_linear_635_1095" x1="1212.39" y1="802.119" x2="1212.39" y2="3.36985e-07" gradientUnits="userSpaceOnUse">
<stop offset="0.383912" stop-color="#0155DC"/>
<stop offset="0.667563" stop-color="#006FE8"/>
</linearGradient>
</defs>
</svg>
