<svg width="23" height="23" viewBox="0 0 23 23" fill="none" xmlns="http://www.w3.org/2000/svg">
<g clip-path="url(#clip0_410_944)">
<path d="M21.9418 9.94135L12.9682 9.94092C12.5719 9.94092 12.2507 10.2621 12.2507 10.6583V13.525C12.2507 13.9212 12.5719 14.2424 12.9681 14.2424H18.0215C17.4682 15.6784 16.4354 16.8811 15.1177 17.6453L17.2724 21.3753C20.7289 19.3763 22.7724 15.8688 22.7724 11.9424C22.7724 11.3833 22.7312 10.9837 22.6488 10.5337C22.5862 10.1918 22.2893 9.94135 21.9418 9.94135Z" fill="#167EE6"/>
<path d="M11.7724 18.5499C9.29936 18.5499 7.14043 17.1987 5.98092 15.1992L2.25098 17.3491C4.14912 20.6389 7.70496 22.8542 11.7724 22.8542C13.7677 22.8542 15.6505 22.317 17.2724 21.3807V21.3756L15.1176 17.6455C14.132 18.2172 12.9914 18.5499 11.7724 18.5499Z" fill="#12B347"/>
<path d="M17.2722 21.3807V21.3756L15.1175 17.6455C14.1318 18.2171 12.9914 18.5499 11.7722 18.5499V22.8542C13.7676 22.8542 15.6504 22.317 17.2722 21.3807Z" fill="#0F993E"/>
<path d="M5.07657 11.8538C5.07657 10.6348 5.40923 9.49436 5.98076 8.50879L2.25081 6.35889C1.30941 7.97567 0.772217 9.85332 0.772217 11.8538C0.772217 13.8542 1.30941 15.7319 2.25081 17.3487L5.98076 15.1988C5.40923 14.2132 5.07657 13.0728 5.07657 11.8538Z" fill="#FFD500"/>
<path d="M11.7724 5.15836C13.385 5.15836 14.8663 5.73139 16.0234 6.68456C16.3088 6.91969 16.7237 6.90271 16.9851 6.64125L19.0163 4.61012C19.3129 4.31346 19.2918 3.82787 18.9749 3.55296C17.0364 1.8712 14.5141 0.854004 11.7724 0.854004C7.70496 0.854004 4.14912 3.06934 2.25098 6.35912L5.98092 8.50902C7.14043 6.50955 9.29936 5.15836 11.7724 5.15836Z" fill="#FF4B26"/>
<path d="M16.0232 6.68456C16.3086 6.91969 16.7236 6.90271 16.985 6.64125L19.0161 4.61012C19.3127 4.31346 19.2916 3.82787 18.9747 3.55296C17.0362 1.87116 14.5139 0.854004 11.7722 0.854004V5.15836C13.3848 5.15836 14.8662 5.73139 16.0232 6.68456Z" fill="#D93F21"/>
</g>
<defs>
<clipPath id="clip0_410_944">
<rect width="22" height="22" fill="white" transform="translate(0.772217 0.854004)"/>
</clipPath>
</defs>
</svg>
