<svg width="22" height="25" viewBox="0 0 22 25" fill="none" xmlns="http://www.w3.org/2000/svg">
<path fill-rule="evenodd" clip-rule="evenodd" d="M6.87451 0.851562H15.1245C18.9209 0.851562 21.9995 4.1719 21.9995 8.26633V17.1641C21.9995 21.2585 18.9209 24.5788 15.1245 24.5788H6.87451C3.07814 24.5788 -0.000488281 21.2585 -0.000488281 17.1641V8.26633C-0.000488281 4.1719 3.07814 0.851562 6.87451 0.851562ZM15.1245 22.3544C17.7783 22.3544 19.937 20.0262 19.937 17.1641V8.26633C19.937 5.40423 17.7783 3.07599 15.1245 3.07599H6.87453C4.22078 3.07599 2.06203 5.40423 2.06203 8.26633V17.1641C2.06203 20.0262 4.22078 22.3544 6.87453 22.3544H15.1245Z" fill="white"/>
<path fill-rule="evenodd" clip-rule="evenodd" d="M5.49951 12.715C5.49951 9.43917 7.96214 6.7832 10.9995 6.7832C14.0369 6.7832 16.4995 9.43917 16.4995 12.715C16.4995 15.9909 14.0369 18.6468 10.9995 18.6468C7.96214 18.6468 5.49951 15.9909 5.49951 12.715ZM7.56201 12.715C7.56201 14.7585 9.10476 16.4224 10.9995 16.4224C12.8943 16.4224 14.437 14.7585 14.437 12.715C14.437 10.67 12.8943 9.00764 10.9995 9.00764C9.10476 9.00764 7.56201 10.67 7.56201 12.715Z" fill="white"/>
<ellipse cx="16.9121" cy="6.33827" rx="0.73291" ry="0.790415" fill="white"/>
</svg>
