<svg width="19" height="19" viewBox="0 0 19 19" fill="none" xmlns="http://www.w3.org/2000/svg">
<path d="M8.04346 12.832V10.582H2.79346V7.58203H8.04346V5.33203L11.7935 9.08203L8.04346 12.832ZM8.04346 1.58203H14.7935C15.1913 1.58203 15.5728 1.74007 15.8541 2.02137C16.1354 2.30268 16.2935 2.68421 16.2935 3.08203V15.082C16.2935 15.4799 16.1354 15.8614 15.8541 16.1427C15.5728 16.424 15.1913 16.582 14.7935 16.582H8.04346C7.64563 16.582 7.2641 16.424 6.9828 16.1427C6.70149 15.8614 6.54346 15.4799 6.54346 15.082V13.582H8.04346V15.082H14.7935V3.08203H8.04346V4.58203H6.54346V3.08203C6.54346 2.68421 6.70149 2.30268 6.9828 2.02137C7.2641 1.74007 7.64563 1.58203 8.04346 1.58203Z" fill="white"/>
</svg>
