<svg width="25" height="22" viewBox="0 0 25 22" fill="none" xmlns="http://www.w3.org/2000/svg">
<path fill-rule="evenodd" clip-rule="evenodd" d="M14.4785 21.0302V17.08C14.4785 16.5442 14.9073 16.1101 15.4363 16.1101C17.3237 16.1101 18.3504 14.1497 18.4927 10.2803L15.4363 10.2803C14.9073 10.2803 14.4785 9.84586 14.4785 9.31032V0.96962C14.4785 0.434153 14.9073 0 15.4363 0H23.5853C24.1145 0 24.543 0.434492 24.543 0.96962L24.543 9.31032C24.543 11.1652 24.3586 12.8674 23.995 14.3701C23.6222 15.9109 23.0498 17.2581 22.2944 18.3744C21.5171 19.5216 20.5448 20.4219 19.4043 21.049C18.2561 21.68 16.9208 22 15.436 22C14.9073 22 14.4785 21.5659 14.4785 21.0302ZM1.50087 16.1101C0.972134 16.1101 0.542969 16.5446 0.542969 17.08V21.0302C0.542969 21.5659 0.972067 22 1.50087 22C2.9851 22 4.32054 21.6799 5.46835 21.049C6.60907 20.4219 7.5819 19.5216 8.35934 18.3744C9.11448 17.2581 9.68681 15.9108 10.0597 14.3697C10.4231 12.8665 10.6075 11.1643 10.6075 9.31032V0.96962C10.6075 0.434153 10.1785 0 9.64965 0H1.50094C0.9722 0 0.543438 0.434492 0.543438 0.96962L0.543438 9.31039C0.543438 9.84586 0.972134 10.2804 1.50094 10.2804L4.51373 10.2804C4.37358 14.1497 3.3619 16.1101 1.50087 16.1101Z" fill="#0D6EFD"/>
</svg>
