<svg width="19" height="19" viewBox="0 0 19 19" fill="none" xmlns="http://www.w3.org/2000/svg">
<g clip-path="url(#clip0_153_94)">
<path d="M13.4088 7.69742C13.4088 6.36328 12.9346 5.22206 11.9863 4.27374C11.038 3.32542 9.89678 2.85126 8.56265 2.85126C7.22852 2.85126 6.08729 3.32542 5.13897 4.27374C4.19066 5.22206 3.7165 6.36328 3.7165 7.69742C3.7165 9.03155 4.19066 10.1728 5.13897 11.1211C6.08729 12.0694 7.22852 12.5436 8.56265 12.5436C9.89678 12.5436 11.038 12.0694 11.9863 11.1211C12.9346 10.1728 13.4088 9.03155 13.4088 7.69742ZM18.9473 16.6974C18.9473 17.0724 18.8102 17.3969 18.5362 17.671C18.2622 17.945 17.9377 18.082 17.5627 18.082C17.1732 18.082 16.8487 17.945 16.5891 17.671L12.8788 13.9715C11.5879 14.8657 10.1492 15.3128 8.56265 15.3128C7.5314 15.3128 6.54522 15.1127 5.60412 14.7124C4.66301 14.3122 3.85171 13.7713 3.17022 13.0898C2.48873 12.4084 1.94787 11.5971 1.54763 10.6559C1.14739 9.71484 0.947266 8.72867 0.947266 7.69742C0.947266 6.66617 1.14739 5.67999 1.54763 4.73888C1.94787 3.79778 2.48873 2.98648 3.17022 2.30499C3.85171 1.6235 4.66301 1.08263 5.60412 0.682392C6.54522 0.282151 7.5314 0.0820312 8.56265 0.0820312C9.5939 0.0820312 10.5801 0.282151 11.5212 0.682392C12.4623 1.08263 13.2736 1.6235 13.9551 2.30499C14.6366 2.98648 15.1774 3.79778 15.5777 4.73888C15.9779 5.67999 16.178 6.66617 16.178 7.69742C16.178 9.28395 15.7309 10.7227 14.8367 12.0135L18.547 15.7239C18.8139 15.9907 18.9473 16.3152 18.9473 16.6974Z" fill="#0d1b1ea8"/>
</g>
<defs>
<clipPath id="clip0_153_94">
<rect width="18" height="18" fill="white" transform="translate(0.947266 0.0820312)"/>
</clipPath>
</defs>
</svg>
