<svg width="191" height="144" viewBox="0 0 191 144" fill="none" xmlns="http://www.w3.org/2000/svg">
<g opacity="0.5">
<path d="M185.814 -54.2919C185.814 30.9496 107.917 100.256 11.5589 100.256C-84.7993 100.256 -162.696 30.9496 -162.696 -54.2919C-162.696 -139.534 -84.7993 -208.84 11.5589 -208.84C107.917 -208.84 185.814 -139.534 185.814 -54.2919Z" stroke="white" stroke-opacity="0.5" stroke-width="2.07447"/>
<path d="M187.889 -32.7763C187.889 52.4652 109.992 121.771 13.6336 121.771C-82.7246 121.771 -160.621 52.4652 -160.621 -32.7763C-160.621 -118.018 -82.7246 -187.324 13.6336 -187.324C109.992 -187.324 187.889 -118.018 187.889 -32.7763Z" stroke="white" stroke-opacity="0.5" stroke-width="2.07447"/>
<path d="M187.889 17.2774C187.889 102.519 109.992 171.825 13.6336 171.825C-82.7246 171.825 -160.621 102.519 -160.621 17.2774C-160.621 -67.9642 -82.7246 -137.27 13.6336 -137.27C109.992 -137.27 187.889 -67.9642 187.889 17.2774Z" stroke="white" stroke-opacity="0.5" stroke-width="2.07447"/>
<path d="M189.963 -11.2646C189.963 73.977 112.066 143.283 15.7078 143.283C-80.6504 143.283 -158.547 73.977 -158.547 -11.2646C-158.547 -96.5062 -80.6504 -165.812 15.7078 -165.812C112.066 -165.812 189.963 -96.5062 189.963 -11.2646Z" stroke="white" stroke-opacity="0.5" stroke-width="2.07447"/>
</g>
</svg>
