<svg width="191" height="144" viewBox="0 0 191 144" fill="none" xmlns="http://www.w3.org/2000/svg">
<g opacity="0.5">
<path d="M316.113 -42.015C316.113 31.1964 245.696 90.7924 158.502 90.7924C71.3079 90.7924 0.891325 31.1964 0.891325 -42.015C0.891325 -115.226 71.3079 -174.823 158.502 -174.823C245.696 -174.823 316.113 -115.226 316.113 -42.015Z" stroke="white" stroke-opacity="0.5" stroke-width="1.78265"/>
<path d="M317.989 -23.5248C317.989 49.6866 247.572 109.283 160.378 109.283C73.1839 109.283 2.7673 49.6866 2.7673 -23.5248C2.7673 -96.7362 73.1839 -156.332 160.378 -156.332C247.572 -156.332 317.989 -96.7362 317.989 -23.5248Z" stroke="white" stroke-opacity="0.5" stroke-width="1.78265"/>
<path d="M317.989 19.4859C317.989 92.6974 247.572 152.293 160.378 152.293C73.1839 152.293 2.7673 92.6974 2.7673 19.4859C2.7673 -53.7255 73.1839 -113.322 160.378 -113.322C247.572 -113.322 317.989 -53.7255 317.989 19.4859Z" stroke="white" stroke-opacity="0.5" stroke-width="1.78265"/>
<path d="M319.864 -5.04044C319.864 68.171 249.448 127.767 162.254 127.767C75.0593 127.767 4.64279 68.171 4.64279 -5.04044C4.64279 -78.2519 75.0593 -137.848 162.254 -137.848C249.448 -137.848 319.864 -78.2519 319.864 -5.04044Z" stroke="white" stroke-opacity="0.5" stroke-width="1.78265"/>
</g>
</svg>
