<svg width="191" height="144" viewBox="0 0 191 144" fill="none" xmlns="http://www.w3.org/2000/svg">
<g opacity="0.5">
<path d="M331.788 -43.5396C331.788 33.3021 257.88 95.8534 166.362 95.8534C74.8438 95.8534 0.935523 33.3021 0.935523 -43.5396C0.935523 -120.381 74.8438 -182.933 166.362 -182.933C257.88 -182.933 331.788 -120.381 331.788 -43.5396Z" stroke="white" stroke-opacity="0.5" stroke-width="1.87105"/>
<path d="M333.757 -24.1324C333.757 52.7094 259.848 115.261 168.33 115.261C76.8126 115.261 2.90427 52.7094 2.90427 -24.1324C2.90427 -100.974 76.8126 -163.525 168.33 -163.525C259.848 -163.525 333.757 -100.974 333.757 -24.1324Z" stroke="white" stroke-opacity="0.5" stroke-width="1.87105"/>
<path d="M333.757 21.0112C333.757 97.8529 259.848 160.404 168.33 160.404C76.8126 160.404 2.90427 97.8529 2.90427 21.0112C2.90427 -55.8306 76.8126 -118.382 168.33 -118.382C259.848 -118.382 333.757 -55.8306 333.757 21.0112Z" stroke="white" stroke-opacity="0.5" stroke-width="1.87105"/>
<path d="M335.725 -4.73201C335.725 72.1097 261.817 134.661 170.299 134.661C78.7813 134.661 4.87302 72.1097 4.87302 -4.73201C4.87302 -81.5738 78.7813 -144.125 170.299 -144.125C261.817 -144.125 335.725 -81.5738 335.725 -4.73201Z" stroke="white" stroke-opacity="0.5" stroke-width="1.87105"/>
</g>
</svg>
