<svg width="22" height="20" viewBox="0 0 22 20" fill="none" xmlns="http://www.w3.org/2000/svg">
<path d="M22 2.29106C21.1819 2.67811 20.3101 2.93466 19.4013 3.05923C20.3363 2.45715 21.0499 1.51102 21.3854 0.37063C20.5136 0.931187 19.5511 1.32714 18.5254 1.5481C17.6976 0.597522 16.5179 0.00878906 15.2309 0.00878906C12.7339 0.00878906 10.7236 2.19466 10.7236 4.87436C10.7236 5.25993 10.7539 5.63067 10.8281 5.98361C7.0785 5.78638 3.76062 3.84816 1.53175 0.895596C1.14262 1.62373 0.914375 2.45715 0.914375 3.35433C0.914375 5.03897 1.71875 6.53231 2.91775 7.39687C2.19312 7.38204 1.48225 7.15515 0.88 6.79775C0.88 6.81258 0.88 6.83186 0.88 6.85114C0.88 9.21497 2.44338 11.1784 4.4935 11.6307C4.12638 11.739 3.72625 11.7909 3.311 11.7909C3.02225 11.7909 2.73075 11.7731 2.45712 11.7078C3.0415 13.6342 4.69975 15.0504 6.6715 15.0964C5.137 16.391 3.18863 17.171 1.07938 17.171C0.7095 17.171 0.35475 17.1532 0 17.1043C1.99787 18.4938 4.36563 19.2872 6.919 19.2872C15.2185 19.2872 19.756 11.8724 19.756 5.4453C19.756 5.23027 19.7491 5.02266 19.7395 4.81653C20.6346 4.1314 21.3867 3.27574 22 2.29106Z" fill="white"/>
</svg>
