<svg width="331" height="342" viewBox="0 0 331 342" fill="none" xmlns="http://www.w3.org/2000/svg">
<path d="M168.614 341.834C257.762 341.834 330.031 300.109 330.031 248.64C330.031 197.171 257.762 155.447 168.614 155.447C79.4664 155.447 7.19767 197.171 7.19767 248.64C7.19767 300.109 79.4664 341.834 168.614 341.834Z" fill="#F5F5F5"/>
<path d="M142.936 281.282C163.862 281.282 180.826 271.488 180.826 259.406C180.826 247.323 163.862 237.529 142.936 237.529C122.01 237.529 105.046 247.323 105.046 259.406C105.046 271.488 122.01 281.282 142.936 281.282Z" fill="#E0E0E0"/>
<path d="M207.174 301.597C232.511 301.597 253.051 289.739 253.051 275.111C253.051 260.483 232.511 248.625 207.174 248.625C181.836 248.625 161.296 260.483 161.296 275.111C161.296 289.739 181.836 301.597 207.174 301.597Z" fill="#E0E0E0"/>
<path d="M155.941 251.033C155.941 249.11 154.679 247.186 152.14 245.732C147.069 242.8 138.843 242.8 133.772 245.732C131.232 247.194 129.963 249.117 129.963 251.033V256.966C129.963 258.89 131.232 260.814 133.772 262.276C138.843 265.2 147.069 265.2 152.14 262.276C154.679 260.806 155.941 258.89 155.941 256.966V251.033Z" fill="#263238"/>
<path d="M152.17 251.664C157.241 254.596 157.241 259.359 152.17 262.276C147.099 265.192 138.873 265.2 133.802 262.276C128.732 259.352 128.724 254.581 133.802 251.664C138.881 248.748 147.099 248.74 152.17 251.664Z" fill="#938BA1"/>
<path d="M155.972 251.033H129.993V256.966H155.972V251.033Z" fill="#938BA1"/>
<path d="M152.17 245.755C157.241 248.679 157.241 253.449 152.17 256.358C147.099 259.267 138.873 259.29 133.802 256.358C128.732 253.426 128.724 248.663 133.802 245.755C138.881 242.846 147.099 242.8 152.17 245.755Z" fill="#455A64"/>
<path d="M147.307 247.078C149.7 248.455 149.7 250.695 147.307 252.072C145.967 252.751 144.485 253.105 142.983 253.105C141.48 253.105 139.998 252.751 138.658 252.072C136.273 250.695 136.273 248.455 138.658 247.078C139.998 246.398 141.48 246.044 142.983 246.044C144.485 246.044 145.967 246.398 147.307 247.078Z" fill="#263238"/>
<path d="M149.1 137.571H136.865V249.579H149.1V137.571Z" fill="#263238"/>
<path d="M192.946 85.8459V85.7613C192.83 85.1226 192.692 84.4762 192.53 83.8298C192.552 83.8981 192.57 83.9675 192.584 84.0376C192.484 83.599 192.369 83.1604 192.246 82.7218C192.292 82.8834 192.33 83.0449 192.369 83.2065C192.246 82.7218 192.107 82.2447 191.961 81.7599C192.03 81.9677 192.099 82.1831 192.153 82.3909C192.076 82.1139 191.992 81.8368 191.907 81.5598L191.768 81.1212V81.0597V81.1058C190.735 77.9677 189.373 74.9474 187.706 72.0951C187.652 71.995 187.598 71.895 187.536 71.7949C183.343 64.6617 177.264 58.1441 170.477 54.0966L170.146 53.8965C168.199 52.7662 166.135 51.8527 163.99 51.1725C162.207 50.6085 160.35 50.3103 158.48 50.2876H157.834H157.441C157.118 50.2876 156.803 50.3492 156.495 50.3953H156.21L155.687 50.4954C155.464 50.5415 155.241 50.5954 155.025 50.657L154.425 50.8339C154.425 50.8339 154.425 50.8339 154.386 50.8339L153.786 51.0494C153.586 51.134 153.386 51.2187 153.201 51.311L151.878 52.0805L85.232 90.5552H85.1782C81.5693 92.579 79.3839 96.7112 79.3839 102.582V138.833L54.3061 152.684C51.8216 154.054 49.7456 156.059 48.2904 158.494C46.8353 160.929 46.0532 163.707 46.0242 166.544C45.9953 169.381 46.7204 172.175 48.1256 174.639C49.5307 177.104 51.5654 179.151 54.0214 180.571C61.0048 184.599 68.925 186.719 76.9869 186.719C85.0489 186.719 92.969 184.599 99.9525 180.571L125.931 165.95L193.438 126.945V90.686C193.419 89.0612 193.254 87.4413 192.946 85.8459Z" fill="url(#paint0_linear_175_793)"/>
<path d="M84.0778 136.317V95.8183L126.954 71.3022L130.817 108.746L84.0778 136.317Z" fill="url(#paint1_linear_175_793)"/>
<path opacity="0.5" d="M84.0778 136.317V95.8183L126.954 71.3022L130.817 108.746L84.0778 136.317Z" fill="#0D1B1E"/>
<path d="M84.0778 136.317L130.817 108.746V152.815L121.152 157.724L84.0778 136.317Z" fill="url(#paint2_linear_175_793)"/>
<path opacity="0.3" d="M84.0778 136.317L130.817 108.746V152.815L121.152 157.724L84.0778 136.317Z" fill="#0D1B1E"/>
<path d="M192.953 85.8457L188.521 88.285L161.543 103.052L156.664 105.706L122.945 124.174C120.806 120.558 115.25 103.683 112.287 100.628C109.433 97.6259 106.175 95.0361 102.607 92.9327C98.375 90.4857 94.4121 89.3238 90.9878 89.3238C88.9731 89.2825 86.9813 89.7566 85.2013 90.7012L151.855 52.2265L153.178 51.457C153.363 51.3647 153.563 51.28 153.763 51.1954L154.363 50.9799C154.363 50.9799 154.363 50.9799 154.402 50.9799L155.002 50.803C155.217 50.7414 155.441 50.6875 155.664 50.6414L156.187 50.5413H156.472C156.78 50.4952 157.095 50.4567 157.418 50.4336H157.811H158.457C160.327 50.4563 162.184 50.7545 163.967 51.3185C166.112 51.9987 168.176 52.9122 170.123 54.0425L170.453 54.2426C181.603 60.7448 190.853 74.0648 192.953 85.8457Z" fill="url(#paint3_linear_175_793)"/>
<g opacity="0.3">
<path opacity="0.3" d="M192.954 85.8457L188.521 88.285L161.543 103.052L156.664 105.706L122.945 124.174C120.806 120.558 115.25 103.683 112.287 100.628C109.433 97.6259 106.175 95.0361 102.607 92.9327C98.375 90.4857 94.4121 89.3238 90.9879 89.3238C88.9732 89.2825 86.9813 89.7566 85.2013 90.7012L151.855 52.2265L153.178 51.457C153.363 51.3647 153.563 51.28 153.763 51.1954L154.363 50.9799C154.363 50.9799 154.363 50.9799 154.402 50.9799L155.002 50.803C155.218 50.7414 155.441 50.6875 155.664 50.6414L156.187 50.5413H156.472C156.78 50.4952 157.095 50.4567 157.418 50.4336H157.811H158.457C160.327 50.4563 162.184 50.7545 163.967 51.3185C166.112 51.9987 168.176 52.9122 170.123 54.0425L170.454 54.2426C181.603 60.7448 190.853 74.0648 192.954 85.8457Z" fill="#0D1B1E"/>
</g>
<path d="M187.49 71.8486C187.552 71.941 187.613 72.041 187.667 72.141C187.636 72.0179 187.582 71.9179 187.49 71.8486Z" fill="url(#paint4_linear_175_793)"/>
<path d="M191.068 79.1592C191.902 81.325 192.533 83.5636 192.953 85.8461L188.521 88.2854L161.543 103.052L156.664 105.707L122.945 124.175L125.931 165.95L193.438 126.945V90.6862C193.348 86.7326 192.545 82.8277 191.068 79.1592Z" fill="url(#paint5_linear_175_793)"/>
<path d="M190.068 76.7429C189.783 76.112 189.483 75.4733 189.168 74.8423C189.483 75.4733 189.799 76.112 190.068 76.7429Z" fill="url(#paint6_linear_175_793)"/>
<path d="M187.998 72.6182C188.321 73.203 188.644 73.7878 188.944 74.3803C188.644 73.8186 188.329 73.2338 187.998 72.6182Z" fill="url(#paint7_linear_175_793)"/>
<path d="M191.045 79.0896C190.776 78.397 190.491 77.7122 190.191 77.0273C190.491 77.7122 190.776 78.397 191.045 79.0896Z" fill="url(#paint8_linear_175_793)"/>
<g opacity="0.5">
<path opacity="0.5" d="M187.49 71.8486C187.552 71.941 187.613 72.041 187.667 72.141C187.636 72.0179 187.582 71.9179 187.49 71.8486Z" fill="#0D1B1E"/>
<path opacity="0.5" d="M191.068 79.1587C191.902 81.3245 192.533 83.5631 192.953 85.8456L188.521 88.2849L161.543 103.051L156.664 105.706L122.945 124.174L125.931 165.95L193.438 126.944V90.6857C193.348 86.7321 192.545 82.8272 191.068 79.1587Z" fill="#0D1B1E"/>
<path opacity="0.5" d="M190.068 76.7424C189.783 76.1115 189.483 75.4728 189.168 74.8418C189.483 75.4728 189.799 76.1115 190.068 76.7424Z" fill="#0D1B1E"/>
<path opacity="0.5" d="M187.998 72.6182C188.321 73.203 188.644 73.7878 188.944 74.3803C188.644 73.8186 188.329 73.2338 187.998 72.6182Z" fill="#0D1B1E"/>
<path opacity="0.5" d="M191.045 79.0896C190.776 78.397 190.491 77.7122 190.191 77.0273C190.491 77.7122 190.776 78.397 191.045 79.0896Z" fill="#0D1B1E"/>
</g>
<path d="M90.9879 94.1104C93.6734 94.1104 96.8745 95.1339 100.222 97.0807C111.556 103.621 121.137 118.557 121.137 129.7V157.725L84.0624 136.317V102.806C84.0624 95.6187 87.8175 94.1104 90.9879 94.1104ZM90.9879 89.355C84.0162 89.355 79.33 94.1797 79.33 102.806V139.057L125.9 165.989V129.7C125.9 116.834 115.473 100.39 102.615 92.9639C98.3827 90.5246 94.4044 89.355 90.9879 89.355Z" fill="url(#paint9_linear_175_793)"/>
<path d="M79.33 139.057L54.2522 152.908C51.7677 154.277 49.6917 156.282 48.2366 158.717C46.7814 161.153 45.9993 163.931 45.9703 166.768C45.9414 169.604 46.6666 172.398 48.0717 174.863C49.4769 177.327 51.5115 179.374 53.9675 180.794C60.9509 184.822 68.8711 186.943 76.933 186.943C84.995 186.943 92.9152 184.822 99.8986 180.794L125.931 165.95L79.33 139.057Z" fill="url(#paint10_linear_175_793)"/>
<path opacity="0.2" d="M79.33 139.057L54.2522 152.908C51.7677 154.277 49.6917 156.282 48.2366 158.717C46.7814 161.153 45.9993 163.931 45.9703 166.768C45.9414 169.604 46.6666 172.398 48.0717 174.863C49.4769 177.327 51.5115 179.374 53.9675 180.794C60.9509 184.822 68.8711 186.943 76.933 186.943C84.995 186.943 92.9152 184.822 99.8986 180.794L125.931 165.95L79.33 139.057Z" fill="white"/>
<path d="M141.436 154.908L136.203 157.924V107.407L141.436 104.383V154.908Z" fill="#E0E0E0"/>
<path d="M151.316 108.777L136.203 117.495V107.407L151.316 98.6812V108.777Z" fill="#E0E0E0"/>
<path d="M143.69 153.13C143.598 154.834 143.106 156.492 142.253 157.969C141.4 159.446 140.21 160.702 138.781 161.633C136.065 163.172 133.864 161.933 133.864 158.802C133.962 157.104 134.459 155.453 135.313 153.983C136.167 152.512 137.355 151.264 138.781 150.337C141.49 148.729 143.69 149.999 143.69 153.13Z" fill="url(#paint11_linear_175_793)"/>
<path opacity="0.2" d="M143.69 153.13C143.598 154.834 143.106 156.492 142.253 157.969C141.4 159.446 140.21 160.702 138.781 161.633C136.065 163.172 133.864 161.933 133.864 158.802C133.962 157.104 134.459 155.453 135.313 153.983C136.167 152.512 137.355 151.264 138.781 150.337C141.49 148.729 143.69 149.999 143.69 153.13Z" fill="#0D1B1E"/>
<path d="M145.322 154.077C145.224 155.774 144.729 157.424 143.876 158.894C143.024 160.365 141.837 161.614 140.412 162.541C137.704 164.08 135.503 162.834 135.503 159.702C135.597 157.999 136.091 156.342 136.943 154.865C137.796 153.387 138.985 152.132 140.412 151.199C143.129 149.675 145.322 150.945 145.322 154.077Z" fill="url(#paint12_linear_175_793)"/>
<path d="M254.99 237.29L263.67 242.323C263.67 242.323 259.284 228.325 261.715 214.251C262.631 208.942 264.57 206.303 265.247 204.879C265.925 203.455 271.173 194.683 266.556 190.636C261.939 186.588 251.127 194.637 251.612 216.321C251.85 223.425 252.985 230.471 254.99 237.29Z" fill="url(#paint13_linear_175_793)"/>
<path opacity="0.3" d="M254.99 237.29L263.67 242.323C263.67 242.323 259.284 228.325 261.715 214.251C262.631 208.942 264.57 206.303 265.247 204.879C265.925 203.455 271.173 194.683 266.556 190.636C261.939 186.588 251.127 194.637 251.612 216.321C251.85 223.425 252.985 230.471 254.99 237.29Z" fill="#0D1B1E"/>
<path d="M259.053 240.014C258.975 240.012 258.898 239.987 258.834 239.942C258.77 239.897 258.72 239.833 258.691 239.76C258.691 239.668 255.375 230.526 255.544 215.906C255.713 201.286 263.455 193.344 263.532 193.267C263.604 193.195 263.702 193.154 263.805 193.154C263.907 193.154 264.005 193.195 264.078 193.267C264.15 193.34 264.191 193.438 264.191 193.541C264.191 193.643 264.15 193.741 264.078 193.814C264.001 193.891 256.491 201.509 256.321 215.914C256.152 230.319 259.399 239.391 259.399 239.483C259.434 239.579 259.429 239.685 259.386 239.777C259.343 239.87 259.264 239.941 259.168 239.976C259.133 239.996 259.094 240.009 259.053 240.014Z" fill="white"/>
<path d="M261.723 241.222L276.074 249.687C276.074 249.687 282.646 248.717 282.153 242.53C281.661 236.344 278.983 234.882 282.307 232.165C285.631 229.449 286.493 229.272 286.332 226.602C286.17 223.932 284.385 222.754 283.538 221.723C282.692 220.692 280.345 218.453 281.999 215.237C283.654 212.02 285.893 208.919 282.569 207.449C280.576 206.572 277.236 207.672 275.028 210.019C272.819 212.366 270.98 214.067 268.872 214.636C266.763 215.206 262.4 215.221 262.547 218.838C262.693 222.454 263.632 223.701 262.754 225.302C261.115 228.279 254.059 229.911 261.723 241.222Z" fill="url(#paint14_linear_175_793)"/>
<path d="M267.571 245.047C267.473 245.047 267.379 245.01 267.307 244.942C267.236 244.875 267.193 244.783 267.187 244.685C267.187 244.47 265.601 223.078 280.468 209.027C280.503 208.983 280.547 208.948 280.597 208.922C280.646 208.897 280.701 208.883 280.757 208.88C280.813 208.878 280.868 208.887 280.92 208.908C280.972 208.929 281.019 208.96 281.057 209.001C281.096 209.041 281.126 209.089 281.144 209.142C281.163 209.194 281.17 209.25 281.165 209.306C281.16 209.362 281.144 209.416 281.116 209.464C281.089 209.513 281.052 209.555 281.007 209.588C266.386 223.378 267.925 244.416 267.925 244.623C267.934 244.726 267.902 244.829 267.835 244.908C267.769 244.987 267.674 245.037 267.571 245.047Z" fill="white"/>
<path d="M270.141 226.702C270.045 226.702 269.951 226.666 269.88 226.6C269.808 226.535 269.764 226.445 269.757 226.348C269.643 224.704 269.198 223.099 268.448 221.631C267.698 220.163 266.659 218.862 265.394 217.807C265.353 217.777 265.318 217.739 265.292 217.696C265.265 217.653 265.248 217.605 265.24 217.555C265.232 217.505 265.234 217.454 265.246 217.404C265.258 217.355 265.279 217.309 265.309 217.268C265.339 217.227 265.376 217.192 265.42 217.166C265.463 217.14 265.511 217.122 265.561 217.114C265.611 217.106 265.662 217.108 265.711 217.12C265.76 217.132 265.807 217.153 265.848 217.183C267.215 218.295 268.337 219.677 269.144 221.244C269.951 222.811 270.424 224.528 270.534 226.286C270.538 226.338 270.532 226.389 270.516 226.438C270.5 226.487 270.474 226.532 270.441 226.57C270.407 226.609 270.366 226.641 270.32 226.663C270.274 226.686 270.223 226.699 270.172 226.702H270.141Z" fill="white"/>
<path d="M269.056 230.365C268.96 230.367 268.866 230.331 268.795 230.265C268.759 230.229 268.73 230.186 268.711 230.139C268.691 230.093 268.681 230.042 268.681 229.992C268.681 229.941 268.691 229.89 268.711 229.844C268.73 229.797 268.759 229.754 268.795 229.718C268.949 229.541 272.688 225.502 281.338 226.687C281.44 226.702 281.532 226.756 281.595 226.838C281.658 226.92 281.687 227.022 281.676 227.125C281.661 227.227 281.606 227.318 281.524 227.38C281.442 227.442 281.339 227.469 281.238 227.456C272.989 226.325 269.41 230.195 269.372 230.234C269.333 230.278 269.284 230.313 269.229 230.335C269.175 230.358 269.116 230.368 269.056 230.365Z" fill="white"/>
<path d="M96.9591 115.348C96.2743 115.348 95.5817 115.348 94.9046 115.264C94.8111 115.257 94.7199 115.231 94.6365 115.189C94.553 115.146 94.4789 115.087 94.4186 115.016C94.3584 114.944 94.3131 114.861 94.2855 114.771C94.258 114.682 94.2487 114.587 94.2582 114.494C94.2758 114.307 94.3664 114.134 94.5104 114.013C94.6544 113.892 94.8402 113.833 95.0277 113.848C95.9408 113.932 96.8586 113.955 97.7748 113.917C97.9615 113.915 98.1418 113.985 98.278 114.112C98.4143 114.24 98.4959 114.415 98.5058 114.602C98.5121 114.788 98.4444 114.97 98.3176 115.107C98.1908 115.244 98.0151 115.325 97.8286 115.333C97.5285 115.348 97.2438 115.348 96.9591 115.348ZM100.607 115.056C100.427 115.059 100.253 114.993 100.119 114.873C99.986 114.752 99.9036 114.585 99.8889 114.406C99.8742 114.227 99.9283 114.049 100.04 113.908C100.152 113.767 100.313 113.674 100.491 113.648C101.394 113.5 102.286 113.292 103.161 113.024C103.338 112.98 103.525 113.005 103.683 113.095C103.842 113.185 103.959 113.332 104.012 113.507C104.064 113.681 104.048 113.869 103.965 114.032C103.883 114.194 103.741 114.318 103.569 114.379C102.636 114.666 101.685 114.89 100.722 115.048L100.607 115.056ZM92.1421 114.856H92.0036C91.0514 114.651 90.1112 114.394 89.1872 114.086C89.0093 114.025 88.8623 113.896 88.7775 113.728C88.6927 113.56 88.6768 113.366 88.7332 113.186C88.7946 113.008 88.9234 112.862 89.0919 112.778C89.2604 112.695 89.4549 112.681 89.6335 112.74C90.504 113.027 91.3904 113.263 92.2883 113.448C92.3797 113.466 92.4666 113.502 92.5438 113.555C92.621 113.607 92.687 113.674 92.7378 113.752C92.7887 113.83 92.8235 113.918 92.8401 114.009C92.8567 114.101 92.8549 114.195 92.8346 114.286C92.8032 114.444 92.719 114.586 92.596 114.69C92.4729 114.793 92.3182 114.852 92.1575 114.856H92.1421ZM105.993 113.386C105.832 113.387 105.676 113.332 105.55 113.232C105.424 113.132 105.336 112.993 105.3 112.836C105.265 112.679 105.283 112.515 105.353 112.37C105.423 112.225 105.54 112.109 105.685 112.039L106.178 111.801C106.261 111.754 106.353 111.724 106.448 111.714C106.543 111.703 106.639 111.712 106.731 111.74C106.823 111.767 106.908 111.813 106.981 111.875C107.054 111.936 107.114 112.012 107.158 112.098C107.201 112.183 107.226 112.276 107.232 112.372C107.239 112.467 107.225 112.563 107.193 112.653C107.161 112.743 107.112 112.826 107.047 112.897C106.982 112.967 106.904 113.024 106.816 113.063L106.293 113.325C106.205 113.37 106.108 113.396 106.008 113.401L105.993 113.386ZM86.7556 113.086C86.6517 113.085 86.5493 113.062 86.4555 113.017C85.577 112.607 84.7215 112.15 83.8931 111.647C83.8138 111.596 83.7452 111.531 83.6912 111.454C83.6373 111.377 83.599 111.29 83.5787 111.198C83.5583 111.106 83.5562 111.011 83.5726 110.919C83.5889 110.826 83.6233 110.738 83.6738 110.658C83.7243 110.579 83.79 110.51 83.867 110.456C83.9441 110.402 84.031 110.364 84.1228 110.344C84.2146 110.323 84.3095 110.321 84.4022 110.338C84.4948 110.354 84.5833 110.388 84.6626 110.439C85.4492 110.913 86.2609 111.345 87.0942 111.732C87.2363 111.803 87.3504 111.92 87.4186 112.064C87.4868 112.208 87.5052 112.37 87.4707 112.525C87.4363 112.681 87.3511 112.82 87.2286 112.922C87.106 113.023 86.9531 113.081 86.7941 113.086H86.7556ZM81.9078 110.162C81.7562 110.158 81.6089 110.11 81.4846 110.023C80.7151 109.454 79.9456 108.831 79.2531 108.169C79.1843 108.106 79.1286 108.031 79.0891 107.947C79.0496 107.862 79.0271 107.771 79.0228 107.678C79.0185 107.585 79.0326 107.493 79.0641 107.405C79.0957 107.318 79.1442 107.237 79.2069 107.169C79.2695 107.1 79.3451 107.044 79.4293 107.005C79.5135 106.965 79.6046 106.943 79.6975 106.938C79.7904 106.934 79.8832 106.948 79.9707 106.98C80.0581 107.011 80.1385 107.06 80.2072 107.122C80.8998 107.753 81.6154 108.346 82.3387 108.892C82.4561 108.982 82.5423 109.107 82.5853 109.248C82.6283 109.39 82.6258 109.541 82.5783 109.681C82.5307 109.822 82.4405 109.943 82.3202 110.029C82.2 110.116 82.0557 110.162 81.9078 110.162ZM77.7295 106.353C77.6309 106.353 77.5334 106.333 77.4432 106.293C77.353 106.254 77.2723 106.195 77.2062 106.122C76.5675 105.422 75.9365 104.675 75.3517 103.906C75.2951 103.832 75.2536 103.748 75.2296 103.658C75.2055 103.568 75.1994 103.475 75.2115 103.382C75.2361 103.196 75.3336 103.028 75.4825 102.913C75.6315 102.799 75.8198 102.749 76.006 102.773C76.1921 102.798 76.3609 102.895 76.4752 103.044C77.0369 103.814 77.6371 104.491 78.2527 105.168C78.3154 105.237 78.3639 105.317 78.3955 105.404C78.4271 105.492 78.4412 105.585 78.4369 105.678C78.4326 105.771 78.41 105.862 78.3705 105.946C78.331 106.03 78.2753 106.106 78.2065 106.168C78.0857 106.278 77.9309 106.343 77.7679 106.353H77.7295ZM74.3206 101.859C74.2018 101.859 74.0848 101.829 73.981 101.771C73.8773 101.713 73.7902 101.63 73.7281 101.528C73.4203 101.051 73.1202 100.559 72.8355 100.066C72.6431 99.7276 72.4507 99.3813 72.2661 99.035C72.1954 98.8717 72.1889 98.6877 72.2478 98.5198C72.3067 98.3518 72.4267 98.2122 72.5839 98.1288C72.7411 98.0453 72.924 98.0242 73.0961 98.0695C73.2682 98.1148 73.4169 98.2232 73.5126 98.3732C73.6896 98.7041 73.8743 99.035 74.059 99.3582C74.336 99.8353 74.6207 100.305 74.9208 100.766C74.9877 100.874 75.0246 100.998 75.028 101.125C75.0313 101.251 75.0009 101.377 74.9398 101.488C74.8788 101.599 74.7892 101.692 74.6804 101.757C74.5716 101.823 74.4474 101.858 74.3206 101.859ZM71.6735 96.8573C71.5342 96.8579 71.3978 96.8172 71.2815 96.7406C71.1651 96.6639 71.074 96.5546 71.0195 96.4264C70.6424 95.5338 70.3038 94.6181 70.0114 93.7101C69.9826 93.6217 69.9715 93.5285 69.9787 93.4357C69.9859 93.343 70.0113 93.2526 70.0535 93.1697C70.0957 93.0869 70.1537 93.0131 70.2244 92.9526C70.2951 92.8922 70.377 92.8463 70.4654 92.8175C70.645 92.7617 70.8394 92.7789 71.0064 92.8653C71.1735 92.9517 71.2998 93.1004 71.3581 93.2792C71.6351 94.1487 71.9583 95.0183 72.3199 95.8724C72.3676 95.9795 72.3876 96.0969 72.3781 96.2138C72.3686 96.3307 72.33 96.4433 72.2656 96.5413C72.2013 96.6394 72.1134 96.7197 72.0099 96.7749C71.9065 96.8301 71.7908 96.8585 71.6735 96.8573ZM69.9499 91.4709C69.7879 91.4695 69.6312 91.4131 69.5054 91.3111C69.3796 91.209 69.2922 91.0673 69.2573 90.9092C69.0516 89.9615 68.8975 89.0033 68.7956 88.0389C68.7784 87.8535 68.835 87.6687 68.9531 87.5246C69.0712 87.3806 69.2414 87.2889 69.4266 87.2694C69.5253 87.2465 69.628 87.2465 69.7267 87.2694C69.7784 87.1737 69.8521 87.0917 69.9417 87.0302C70.0314 86.9686 70.1344 86.9293 70.2423 86.9155C71.1389 86.7916 72.024 86.5961 72.8893 86.3307C73.0689 86.2746 73.2635 86.2921 73.4301 86.3794C73.5968 86.4667 73.722 86.6166 73.7781 86.7962C73.8342 86.9758 73.8167 87.1703 73.7294 87.337C73.6421 87.5037 73.4922 87.6289 73.3126 87.685C72.3713 87.9721 71.4091 88.1857 70.4347 88.3237C70.3759 88.3314 70.3164 88.3314 70.2577 88.3237C70.35 89.0932 70.4808 89.8626 70.6424 90.586C70.6627 90.677 70.6645 90.7711 70.6479 90.8629C70.6313 90.9546 70.5965 91.0421 70.5456 91.1202C70.4948 91.1984 70.4288 91.2655 70.3516 91.3178C70.2744 91.3701 70.1875 91.4065 70.0961 91.4247C70.0506 91.4504 70.0012 91.4686 69.9499 91.4786V91.4709ZM67.5106 88.5314C66.5343 88.5163 65.56 88.4367 64.5942 88.2929C64.4099 88.2638 64.2445 88.163 64.1341 88.0126C64.0236 87.8622 63.977 87.6743 64.0044 87.4897C64.0318 87.3051 64.1309 87.1388 64.2803 87.027C64.4297 86.9151 64.6171 86.8668 64.802 86.8924C65.7036 87.0307 66.6139 87.1053 67.526 87.1155C67.7137 87.1155 67.8938 87.1901 68.0266 87.3229C68.1593 87.4557 68.2339 87.6357 68.2339 87.8235C68.2339 88.0112 68.1593 88.1913 68.0266 88.3241C67.8938 88.4568 67.7137 88.5314 67.526 88.5314H67.5106ZM61.9241 87.7004C61.8604 87.7114 61.7953 87.7114 61.7317 87.7004C60.7953 87.4266 59.8777 87.0925 58.9846 86.7C58.8121 86.6255 58.6763 86.4856 58.6071 86.311C58.5378 86.1364 58.5407 85.9414 58.6152 85.7689C58.6897 85.5965 58.8297 85.4607 59.0043 85.3914C59.1789 85.3222 59.3739 85.3251 59.5463 85.3996C60.3869 85.7618 61.2506 86.0677 62.1318 86.3153C62.3114 86.3689 62.4628 86.4908 62.5534 86.6549C62.6441 86.8189 62.6668 87.0119 62.6166 87.1925C62.5719 87.3415 62.4804 87.4721 62.3557 87.5649C62.2309 87.6578 62.0796 87.708 61.9241 87.7081V87.7004ZM75.7211 86.6769C75.5645 86.6742 75.4132 86.6197 75.291 86.5218C75.1687 86.4239 75.0824 86.2883 75.0454 86.1361C75.0085 85.9839 75.023 85.8238 75.0868 85.6808C75.1506 85.5378 75.26 85.4199 75.3979 85.3457C76.1905 84.9392 76.934 84.4435 77.614 83.8683C77.7566 83.7465 77.9413 83.6855 78.1284 83.6984C78.3154 83.7114 78.49 83.7972 78.6144 83.9375C78.6752 84.0082 78.7215 84.0902 78.7505 84.1787C78.7796 84.2673 78.7909 84.3607 78.7837 84.4537C78.7766 84.5466 78.7511 84.6373 78.7089 84.7204C78.6666 84.8034 78.6083 84.8774 78.5374 84.9379C77.7791 85.5902 76.9445 86.1483 76.052 86.6C75.95 86.6542 75.8366 86.6832 75.7211 86.6846V86.6769ZM69.3728 85.8459C69.1843 85.8418 69.0051 85.7636 68.8739 85.6282C68.7428 85.4927 68.6704 85.3111 68.6725 85.1226C68.688 84.1494 68.7625 83.178 68.8957 82.2139C68.9053 82.119 68.934 82.027 68.9801 81.9435C69.0262 81.8599 69.0887 81.7866 69.1638 81.7278C69.2389 81.669 69.3252 81.6261 69.4173 81.6014C69.5095 81.5768 69.6057 81.5711 69.7001 81.5846C69.7945 81.5981 69.8853 81.6305 69.9668 81.68C70.0484 81.7294 70.1192 81.7948 70.1749 81.8723C70.2305 81.9497 70.27 82.0376 70.2908 82.1307C70.3117 82.2238 70.3135 82.3201 70.2962 82.4139C70.1719 83.3195 70.1026 84.2317 70.0884 85.1456C70.0864 85.3341 70.0101 85.5142 69.8761 85.6467C69.7421 85.7793 69.5612 85.8536 69.3728 85.8536V85.8459ZM56.7223 85.4842C56.5986 85.4823 56.4772 85.4507 56.3683 85.3919C55.5266 84.9017 54.7146 84.3621 53.9367 83.7759C53.8617 83.7213 53.7985 83.6521 53.7508 83.5726C53.7031 83.493 53.6718 83.4047 53.6589 83.3128C53.646 83.2209 53.6517 83.1274 53.6756 83.0378C53.6995 82.9481 53.7412 82.8642 53.7982 82.791C53.8537 82.7161 53.9234 82.6528 54.0033 82.6049C54.0833 82.5569 54.1719 82.5253 54.2641 82.5117C54.3564 82.4981 54.4504 82.5029 54.5408 82.5257C54.6312 82.5485 54.7161 82.589 54.7909 82.6448C55.5269 83.2063 56.2979 83.7204 57.0993 84.1838C57.2356 84.2611 57.3423 84.3815 57.4028 84.526C57.4633 84.6705 57.4741 84.831 57.4337 84.9823C57.3932 85.1336 57.3037 85.2673 57.1791 85.3623C57.0546 85.4573 56.902 85.5083 56.7454 85.5073L56.7223 85.4842ZM79.8994 82.9603C79.7754 82.9607 79.6535 82.9289 79.5455 82.868C79.4651 82.821 79.3947 82.7587 79.3384 82.6846C79.2821 82.6104 79.241 82.5259 79.2174 82.4358C79.1938 82.3458 79.1882 82.2519 79.2009 82.1597C79.2137 82.0675 79.2444 81.9787 79.2915 81.8984C79.4937 81.5477 79.6637 81.1794 79.7994 80.798C79.9452 80.3917 80.0332 79.9669 80.061 79.536C80.0668 79.4419 80.0915 79.3499 80.1336 79.2655C80.1758 79.1812 80.2346 79.1062 80.3065 79.0451C80.3783 78.984 80.4618 78.9381 80.5518 78.9101C80.6419 78.882 80.7367 78.8725 80.8305 78.882C80.9243 78.8887 81.0158 78.9141 81.0996 78.9566C81.1835 78.9992 81.258 79.0579 81.3189 79.1296C81.3798 79.2012 81.4258 79.2842 81.4542 79.3738C81.4827 79.4634 81.493 79.5578 81.4846 79.6515C81.444 80.2078 81.3301 80.7563 81.146 81.2828C80.9817 81.7468 80.7756 82.1949 80.5304 82.6217C80.4652 82.73 80.3725 82.8191 80.2616 82.8799C80.1508 82.9408 80.0258 82.9711 79.8994 82.968V82.9603ZM52.1977 82.0831C52.0139 82.0821 51.8376 82.0104 51.7052 81.883L51.2358 81.4059C50.7202 80.875 50.2201 80.3132 49.743 79.7284C49.6246 79.5825 49.569 79.3955 49.5885 79.2087C49.608 79.0218 49.7009 78.8503 49.8469 78.7319C49.9928 78.6136 50.1797 78.558 50.3666 78.5775C50.5535 78.597 50.725 78.6899 50.8433 78.8358C51.2896 79.3898 51.7667 79.9208 52.2515 80.421L52.6901 80.8673C52.7567 80.9325 52.8095 81.0103 52.8456 81.0962C52.8817 81.182 52.9003 81.2743 52.9003 81.3674C52.9003 81.4606 52.8817 81.5528 52.8456 81.6387C52.8095 81.7246 52.7567 81.8024 52.6901 81.8676C52.5648 81.9993 52.3945 82.079 52.213 82.0908L52.1977 82.0831ZM70.173 80.2517C70.1042 80.2629 70.0341 80.2629 69.9653 80.2517C69.8763 80.2244 69.7936 80.1799 69.7219 80.1207C69.6501 80.0615 69.5908 79.9887 69.5472 79.9065C69.5036 79.8243 69.4766 79.7343 69.4678 79.6417C69.459 79.5491 69.4685 79.4557 69.4959 79.3668C69.7807 78.4011 70.1921 77.4773 70.7194 76.6197C70.8214 76.4605 70.9825 76.3483 71.1672 76.3079C71.3519 76.2675 71.5451 76.3022 71.7043 76.4042C71.8635 76.5062 71.9756 76.6673 72.016 76.8521C72.0565 77.0368 72.0218 77.23 71.9198 77.3891C71.4579 78.1409 71.0982 78.9509 70.8502 79.7977C70.801 79.9335 70.711 80.0508 70.5925 80.1334C70.474 80.2161 70.3329 80.2601 70.1884 80.2594L70.173 80.2517ZM48.6272 77.697C48.5092 77.6974 48.393 77.6679 48.2894 77.6114C48.1859 77.5549 48.0982 77.4732 48.0347 77.3738C47.5076 76.5628 47.0222 75.7255 46.5803 74.8652C46.4946 74.6979 46.4789 74.5033 46.5366 74.3244C46.5944 74.1454 46.7208 73.9967 46.8881 73.911C47.0555 73.8253 47.25 73.8096 47.429 73.8673C47.6079 73.925 47.7566 74.0515 47.8423 74.2188C48.2602 75.0371 48.7199 75.8333 49.2197 76.6043C49.2888 76.711 49.3279 76.8344 49.3329 76.9615C49.3378 77.0886 49.3084 77.2147 49.2478 77.3265C49.1872 77.4383 49.0975 77.5317 48.9883 77.5969C48.8791 77.6621 48.7544 77.6966 48.6272 77.697ZM80.3073 77.52C80.1671 77.5198 80.0301 77.4781 79.9136 77.4C79.7972 77.3219 79.7065 77.211 79.6532 77.0814C79.3587 76.3266 78.8473 75.6759 78.1835 75.2115C78.05 75.1004 77.962 74.9441 77.9362 74.7724C77.9104 74.6006 77.9487 74.4254 78.0437 74.28C78.1387 74.1346 78.2839 74.0293 78.4515 73.9839C78.6192 73.9386 78.7976 73.9565 78.953 74.0342C79.8483 74.6556 80.5392 75.5286 80.9383 76.5427C80.9748 76.628 80.9941 76.7197 80.9949 76.8125C80.9957 76.9053 80.978 76.9974 80.9429 77.0833C80.9078 77.1692 80.856 77.2473 80.7905 77.313C80.725 77.3787 80.647 77.4308 80.5612 77.4661C80.4859 77.5004 80.4052 77.5212 80.3227 77.5277L80.3073 77.52ZM73.251 75.627C73.136 75.6265 73.0227 75.5982 72.9209 75.5447C72.8191 75.4911 72.7318 75.4137 72.6662 75.3192C72.6136 75.2424 72.5766 75.156 72.5574 75.065C72.5382 74.9739 72.5371 74.8799 72.5543 74.7884C72.5714 74.6969 72.6065 74.6097 72.6573 74.5318C72.7082 74.4539 72.774 74.3867 72.8509 74.3343C73.732 73.7248 74.7546 73.3513 75.8211 73.2493C75.9165 73.2354 76.0137 73.2411 76.1068 73.2661C76.1999 73.2912 76.2868 73.3349 76.3624 73.3947C76.438 73.4545 76.5006 73.5292 76.5463 73.614C76.592 73.6989 76.6199 73.7922 76.6283 73.8882C76.6367 73.9842 76.6254 74.0809 76.5951 74.1724C76.5648 74.2639 76.5161 74.3482 76.4521 74.4202C76.388 74.4923 76.31 74.5505 76.2226 74.5913C76.1353 74.632 76.0406 74.6546 75.9442 74.6574C75.1138 74.7374 74.3183 75.0318 73.6358 75.5116C73.5252 75.5836 73.398 75.626 73.2664 75.6347L73.251 75.627ZM46.034 72.6722C45.8929 72.6714 45.7553 72.6285 45.6387 72.549C45.5222 72.4695 45.4321 72.3569 45.3799 72.2258C45.026 71.3409 44.7028 70.4252 44.4258 69.4941C44.394 69.4039 44.3809 69.3081 44.3872 69.2126C44.3935 69.1171 44.4191 69.0239 44.4624 68.9386C44.5057 68.8532 44.5659 68.7776 44.6393 68.7162C44.7127 68.6548 44.7978 68.6089 44.8894 68.5813C44.9811 68.5537 45.0774 68.545 45.1725 68.5557C45.2676 68.5663 45.3595 68.5962 45.4427 68.6434C45.526 68.6906 45.5988 68.7541 45.6568 68.8303C45.7148 68.9064 45.7567 68.9935 45.7801 69.0863C46.0494 69.9712 46.3572 70.8561 46.6958 71.7026C46.7617 71.8773 46.7568 72.0708 46.682 72.2418C46.6072 72.4129 46.4686 72.548 46.2956 72.6183C46.2187 72.6557 46.1349 72.6767 46.0494 72.6798L46.034 72.6722ZM44.395 67.2857C44.2326 67.2857 44.0752 67.2298 43.9492 67.1276C43.8231 67.0253 43.736 66.8828 43.7024 66.724C43.5024 65.7929 43.3408 64.8387 43.21 63.8768C43.1986 63.6978 43.2557 63.5211 43.3697 63.3825C43.4837 63.2439 43.646 63.1537 43.8239 63.1303C44.0018 63.1068 44.182 63.1518 44.328 63.2561C44.474 63.3604 44.575 63.5163 44.6104 63.6922C44.7336 64.6156 44.8952 65.5312 45.0875 66.4316C45.1263 66.6152 45.0905 66.8068 44.988 66.9641C44.8856 67.1213 44.7248 67.2315 44.5412 67.2703L44.395 67.2857ZM43.6255 61.6761C43.4448 61.6745 43.2713 61.6046 43.14 61.4804C43.0087 61.3563 42.9292 61.187 42.9176 61.0066C42.9176 60.2371 42.856 59.4676 42.856 58.6981V58.1056C42.8639 57.9192 42.9436 57.743 43.0784 57.6139C43.2132 57.4849 43.3927 57.4129 43.5793 57.4131C43.6722 57.413 43.7642 57.4317 43.8498 57.4679C43.9354 57.5042 44.0128 57.5572 44.0774 57.624C44.142 57.6908 44.1925 57.7699 44.2259 57.8566C44.2593 57.9433 44.275 58.0358 44.2719 58.1287V58.6981C44.2719 59.4676 44.2719 60.1756 44.3334 60.9066C44.3408 61.0006 44.3295 61.0952 44.3001 61.1848C44.2708 61.2745 44.2241 61.3574 44.1626 61.4289C44.1011 61.5005 44.026 61.5591 43.9418 61.6015C43.8575 61.6439 43.7657 61.6693 43.6717 61.6761H43.6255Z" fill="#263238"/>
<path d="M50.7202 35.9136L46.488 54.3045L0.272217 44.3857L50.7202 35.9136Z" fill="url(#paint15_linear_175_793)"/>
<path opacity="0.3" d="M50.7202 35.9136L46.488 54.3045L0.272217 44.3857L50.7202 35.9136Z" fill="#0D1B1E"/>
<path d="M0.272217 44.3857L57.815 42.8467L71.335 63.6846L0.272217 44.3857Z" fill="url(#paint16_linear_175_793)"/>
<path d="M0.272217 44.3855L50.7202 35.9134L38.8316 22.124L0.272217 44.3855Z" fill="url(#paint17_linear_175_793)"/>
<path d="M200.703 236.021L188.526 235.711L187.897 260.365L200.074 260.676L200.703 236.021Z" fill="#945959"/>
<path d="M184.704 137.025C184.704 137.025 183.85 178.978 184.143 195.599C184.366 208.119 186.32 245.616 186.32 245.616C186.32 245.616 194.215 250.772 202.534 246.463C202.534 246.463 207.335 208.588 206.166 197.176C206.016 195.793 206.016 194.397 206.166 193.014L213.507 129.5L184.704 137.025Z" fill="#938BA1"/>
<path d="M192.107 256.951C192.107 256.951 198.855 256.181 200.217 253.98V252.549C200.217 252.549 201.387 253.172 201.164 255.542C200.964 257.743 201.841 261.491 201.972 266.061C201.98 266.434 201.901 266.804 201.741 267.141C201.58 267.478 201.343 267.772 201.049 268.001C199.74 269.009 196.978 270.555 192.107 270.763C190.399 270.84 183.566 275.218 177.879 275.218C172.193 275.218 168.476 272.402 168.476 268.462C168.476 264.522 180.072 260.96 180.072 260.96L185.643 255.573C185.643 255.573 184.558 249.702 188.106 251.11C191.653 252.518 192.107 253.98 192.107 256.951Z" fill="#938BA1"/>
<path d="M190.876 260.375C190.801 260.375 190.727 260.351 190.666 260.307C190.605 260.263 190.56 260.2 190.537 260.128C189.352 256.581 185.651 255.927 185.612 255.919C185.566 255.912 185.522 255.895 185.483 255.871C185.443 255.846 185.409 255.814 185.382 255.776C185.354 255.738 185.335 255.695 185.324 255.65C185.314 255.605 185.312 255.558 185.32 255.512C185.337 255.419 185.389 255.338 185.465 255.283C185.541 255.229 185.635 255.206 185.728 255.219C186.968 255.461 188.124 256.019 189.084 256.841C190.045 257.662 190.776 258.718 191.207 259.905C191.236 259.994 191.229 260.091 191.187 260.174C191.145 260.258 191.072 260.322 190.984 260.352L190.876 260.375Z" fill="#FAFAFA"/>
<path d="M188.652 262.575C188.577 262.574 188.505 262.549 188.444 262.505C188.384 262.461 188.338 262.4 188.313 262.329C187.136 258.797 183.427 258.128 183.389 258.12C183.343 258.113 183.299 258.096 183.26 258.072C183.22 258.047 183.186 258.015 183.16 257.977C183.133 257.938 183.115 257.895 183.105 257.85C183.095 257.805 183.095 257.758 183.104 257.712C183.111 257.666 183.128 257.622 183.152 257.583C183.177 257.543 183.209 257.509 183.247 257.481C183.285 257.454 183.328 257.435 183.373 257.424C183.419 257.414 183.466 257.412 183.512 257.42C184.752 257.662 185.908 258.22 186.868 259.041C187.828 259.863 188.56 260.919 188.991 262.106C189.005 262.151 189.01 262.197 189.006 262.244C189.003 262.291 188.99 262.336 188.968 262.377C188.947 262.419 188.917 262.456 188.881 262.486C188.846 262.516 188.804 262.538 188.76 262.552C188.726 262.568 188.689 262.576 188.652 262.575Z" fill="#FAFAFA"/>
<path d="M186.721 264.484C186.647 264.484 186.576 264.461 186.516 264.418C186.457 264.376 186.412 264.315 186.39 264.245C185.212 260.706 181.503 260.036 181.465 260.028C181.415 260.027 181.365 260.014 181.32 259.992C181.275 259.969 181.235 259.938 181.204 259.899C181.172 259.86 181.149 259.814 181.136 259.766C181.123 259.717 181.12 259.666 181.129 259.617C181.137 259.567 181.156 259.52 181.184 259.478C181.212 259.436 181.248 259.401 181.291 259.374C181.334 259.348 181.382 259.33 181.432 259.324C181.481 259.317 181.532 259.321 181.58 259.336C182.821 259.576 183.979 260.133 184.939 260.955C185.9 261.776 186.63 262.833 187.059 264.022C187.088 264.111 187.081 264.208 187.04 264.291C186.998 264.375 186.925 264.439 186.836 264.468L186.721 264.484Z" fill="#FAFAFA"/>
<path d="M168.507 268.463C168.507 272.356 172.146 275.149 177.741 275.211L185.705 272.018C185.705 263.761 180.118 260.96 180.118 260.96C180.118 260.96 168.507 264.53 168.507 268.463Z" fill="#EBEBEB"/>
<path d="M201.803 266.4C200.441 267.454 197.547 269.078 192.453 269.301C190.66 269.378 183.519 273.918 177.571 273.918C173.493 273.918 170.384 272.533 168.83 270.325C169.838 273.241 173.193 275.18 177.91 275.18C183.596 275.18 190.43 270.802 192.138 270.725C197.009 270.517 199.771 268.97 201.079 267.962C201.35 267.751 201.572 267.483 201.729 267.178C201.885 266.872 201.974 266.536 201.987 266.192C201.931 266.266 201.869 266.335 201.803 266.4Z" fill="#263238"/>
<path d="M191.761 142.896C191.761 142.896 192.876 152.392 200.156 157.409L206.581 189.628L210.706 149.345L191.761 142.896Z" fill="#263238"/>
<path d="M233.581 242.78L221.437 243.729L223.359 268.316L235.503 267.367L233.581 242.78Z" fill="#945959"/>
<path d="M228.912 138.026C228.912 138.026 230.382 143.589 231.09 166.543C231.659 184.734 232.082 195.199 232.236 198.754C232.273 199.639 232.369 200.521 232.521 201.393C234.017 210.567 235.018 219.814 235.522 229.095C236.561 246.794 236.645 255.173 236.645 255.173C236.645 255.173 229.135 261.045 220.07 256.435L211.298 203.694L202.064 154.747C202.064 154.747 189.406 149.922 188.29 137.048L228.912 138.026Z" fill="#938BA1"/>
<path d="M235.068 261.729L235.26 264.13C235.26 264.13 233.814 266.162 232.105 266.754C232.105 266.754 230.797 261.976 228.481 261.729C226.165 261.483 221.356 261.268 222.002 263.93C222.362 265.318 222.586 266.738 222.671 268.17L218.208 276.488C218.208 276.488 209.151 284.291 212.937 289.262C216.723 294.233 229.427 291.57 230.682 283.768C230.883 282.592 231.324 281.471 231.978 280.474C232.632 279.477 233.485 278.626 234.483 277.973C235.302 277.457 235.946 276.706 236.332 275.818C236.718 274.93 236.827 273.946 236.645 272.995C236.414 271.21 235.876 267.778 236.037 266.231C236.199 264.684 236.63 261.753 235.068 261.729Z" fill="#938BA1"/>
<path d="M212.937 289.262C216.084 293.394 225.365 292.263 229.15 287.292C229.317 286.484 229.399 285.662 229.397 284.837C229.397 275.95 218.208 276.488 218.208 276.488C218.208 276.488 209.151 284.291 212.937 289.262Z" fill="#EBEBEB"/>
<path d="M236.645 272.995C236.645 272.864 236.607 272.71 236.584 272.556C236.497 273.267 236.25 273.949 235.862 274.551C235.474 275.154 234.956 275.661 234.345 276.034C233.313 276.71 232.432 277.591 231.757 278.622C231.082 279.653 230.627 280.813 230.42 282.029C229.143 290.016 216.292 292.802 212.214 287.869C212.371 288.372 212.616 288.844 212.937 289.262C216.723 294.241 229.428 291.57 230.682 283.768C230.883 282.592 231.324 281.471 231.978 280.474C232.632 279.477 233.485 278.626 234.483 277.973C235.302 277.457 235.947 276.706 236.332 275.818C236.718 274.93 236.827 273.946 236.645 272.995Z" fill="#263238"/>
<path d="M229.25 270.024C229.16 270.025 229.072 269.992 229.004 269.932C226.296 267.369 222.71 268.531 222.671 268.547C222.626 268.566 222.578 268.575 222.529 268.575C222.48 268.574 222.432 268.564 222.387 268.544C222.343 268.524 222.303 268.494 222.27 268.458C222.237 268.422 222.213 268.379 222.197 268.333C222.182 268.287 222.176 268.238 222.18 268.189C222.185 268.14 222.199 268.093 222.223 268.05C222.247 268.007 222.279 267.97 222.317 267.94C222.356 267.91 222.401 267.889 222.448 267.877C223.654 267.501 224.938 267.446 226.172 267.715C227.407 267.985 228.55 268.571 229.489 269.416C229.523 269.449 229.55 269.487 229.568 269.53C229.586 269.573 229.596 269.62 229.596 269.666C229.596 269.713 229.586 269.759 229.568 269.802C229.55 269.845 229.523 269.884 229.489 269.916C229.426 269.981 229.341 270.019 229.25 270.024Z" fill="#FAFAFA"/>
<path d="M227.696 273.11C227.608 273.109 227.523 273.077 227.458 273.018C224.749 270.455 221.163 271.617 221.125 271.633C221.035 271.662 220.937 271.655 220.853 271.612C220.768 271.57 220.704 271.496 220.674 271.406C220.645 271.316 220.652 271.218 220.695 271.134C220.737 271.049 220.812 270.985 220.901 270.956C222.108 270.584 223.391 270.53 224.624 270.799C225.858 271.069 227.001 271.653 227.942 272.495C228.007 272.562 228.043 272.651 228.043 272.745C228.043 272.838 228.007 272.927 227.942 272.995C227.878 273.063 227.79 273.104 227.696 273.11Z" fill="#FAFAFA"/>
<path d="M226.149 276.196C226.061 276.195 225.976 276.162 225.911 276.103C223.202 273.541 219.616 274.703 219.578 274.718C219.488 274.748 219.39 274.74 219.306 274.698C219.221 274.655 219.157 274.581 219.128 274.491C219.098 274.401 219.106 274.303 219.148 274.219C219.191 274.135 219.265 274.071 219.355 274.041C220.561 273.667 221.844 273.612 223.078 273.881C224.312 274.151 225.455 274.736 226.396 275.58C226.46 275.647 226.496 275.737 226.496 275.83C226.496 275.923 226.46 276.013 226.396 276.08C226.331 276.148 226.243 276.189 226.149 276.196Z" fill="#FAFAFA"/>
<path d="M148.292 38.4529C147.56 35.3479 147.046 32.1955 146.753 29.0189C146.568 25.3022 145.491 24.0018 143.221 25.8639C140.951 27.7261 135.78 33.128 136.088 37.3371C136.34 42.0012 137.824 46.5152 140.389 50.4185L147.007 52.4192L149.654 46.9866L148.292 38.4529Z" fill="#945959"/>
<path d="M176.979 72.0953L163.72 69.1635C163.72 69.1635 158.072 60.0142 154.802 55.1895C151.532 50.3647 149.677 47.0251 149.677 47.0251L143.521 45.1553L140.382 50.4571C140.382 50.4571 150.701 76.1043 155.487 80.4673C157.895 82.6373 173.454 87.4544 173.454 87.4544C173.454 87.4544 179.987 80.5597 176.979 72.0953Z" fill="#945959"/>
<path d="M193.692 75.6964L176.979 72.0952C176.752 77.374 175.568 82.5677 173.485 87.4235L190.276 92.6253L193.692 75.6964Z" fill="url(#paint18_linear_175_793)"/>
<path opacity="0.3" d="M193.692 75.6964L176.979 72.0952C176.752 77.374 175.568 82.5677 173.485 87.4235L190.276 92.6253L193.692 75.6964Z" fill="white"/>
<path d="M216.877 77.7047L224.649 80.1517L228.912 103.144L226.388 114.294C226.042 115.808 225.977 117.373 226.196 118.911L228.912 138.025C228.912 138.025 221.217 142.935 207.066 142.935C192.915 142.935 184.704 137.063 184.704 137.063L185.774 93.6794C186.173 86.9298 188.983 80.548 193.692 75.6963L203.334 76.8121L216.877 77.7047Z" fill="url(#paint19_linear_175_793)"/>
<path d="M192.376 41.2075C192.376 41.2075 184.951 47.7251 191.407 62.2532L198.956 42.608L192.376 41.2075Z" fill="#263238"/>
<path d="M216.877 77.7048L207.52 80.7135L203.334 76.8122V59.2754H216.877V77.7048Z" fill="#945959"/>
<path d="M203.334 75.6965C207.905 75.6965 214.876 71.6259 214.876 68.7711L216.415 59.2524H203.334V75.6965Z" fill="#703838"/>
<path d="M206.935 37.2217C202.38 37.2217 192.692 39.761 191.545 51.6805C190.399 63.5999 192.176 73.7496 197.663 73.7496C208.436 73.7496 218.793 72.3799 218.878 54.7431C218.97 39.1454 211.383 37.2217 206.935 37.2217Z" fill="#945959"/>
<path d="M216.877 65.1542L215.123 59.7677C214.991 59.8786 214.83 59.9498 214.66 59.9729C214.489 59.9961 214.316 59.9703 214.159 59.8985C214.003 59.8267 213.87 59.7119 213.776 59.5675C213.682 59.4231 213.632 59.255 213.63 59.0829V49.4642C213.63 49.4642 209.151 48.1945 209.628 44.424C209.628 44.424 207.32 46.4786 198.54 46.4786C189.76 46.4786 187.613 39.0222 188.49 34.9131C188.49 34.9131 190.122 36.5983 194.769 36.5983C199.417 36.5983 218.77 30.7578 219.27 42.4464C219.27 42.4464 220.901 40.0533 223.541 42.4464L220.147 44.4625C220.147 44.4625 224.172 44.3394 223.541 50.2414C223.133 54.0889 221.709 60.9297 220.786 65.1234C220.27 67.4666 218.87 69.5203 216.877 70.8561V65.1542Z" fill="#263238"/>
<path d="M200.271 55.228V62.8845L195.785 61.5071L200.271 55.228Z" fill="#703838"/>
<path d="M207.397 56.459C207.395 56.7417 207.31 57.0177 207.152 57.252C206.994 57.4864 206.77 57.6686 206.508 57.7758C206.246 57.8829 205.959 57.9102 205.682 57.8541C205.405 57.798 205.15 57.6611 204.951 57.4606C204.751 57.2601 204.616 57.0051 204.561 56.7277C204.507 56.4503 204.535 56.1629 204.644 55.9018C204.753 55.6407 204.936 55.4176 205.171 55.2607C205.406 55.1038 205.683 55.02 205.966 55.02C206.154 55.02 206.341 55.0573 206.515 55.1297C206.689 55.2021 206.847 55.3082 206.98 55.4419C207.113 55.5757 207.219 55.7344 207.29 55.9089C207.362 56.0834 207.398 56.2704 207.397 56.459Z" fill="#263238"/>
<path d="M196.678 55.4435C196.678 55.7265 196.594 56.0033 196.437 56.2386C196.279 56.474 196.056 56.6574 195.794 56.7658C195.533 56.8741 195.245 56.9024 194.967 56.8472C194.69 56.792 194.435 56.6557 194.235 56.4555C194.034 56.2554 193.898 56.0003 193.843 55.7227C193.788 55.4451 193.816 55.1573 193.924 54.8957C194.033 54.6342 194.216 54.4107 194.451 54.2534C194.687 54.0962 194.963 54.0122 195.247 54.0122C195.626 54.0122 195.99 54.163 196.259 54.4314C196.527 54.6998 196.678 55.0639 196.678 55.4435Z" fill="#263238"/>
<path d="M193.5 52.4576L196.301 50.7955C196.301 50.7955 195.223 49.6797 194.154 50.3492C193.084 51.0186 193.5 52.4576 193.5 52.4576Z" fill="#263238"/>
<path d="M208.882 53.4963L206.073 51.8419C206.073 51.8419 207.151 50.7261 208.22 51.3956C209.29 52.065 208.882 53.4963 208.882 53.4963Z" fill="#263238"/>
<path d="M200.633 66.5627C200.633 66.5627 202.711 65.2315 204.711 63.731C204.711 63.731 205.873 65.9933 204.042 67.1629C202.21 68.3325 200.633 66.5627 200.633 66.5627Z" fill="#703838"/>
<path d="M214.999 59.8447L219.955 54.4737L216.392 52.3345L214.999 59.8447Z" fill="#253239"/>
<path d="M215.815 57.7516C214.192 60.5679 214.615 63.9845 216.877 65.1541C218.331 65.9236 222.625 64.2846 224.249 61.4682C225.872 58.6519 224.964 56.2433 222.756 54.9737C220.548 53.704 217.439 54.9198 215.815 57.7516Z" fill="#945959"/>
<path d="M203.334 76.812L201.487 79.7438C201.131 80.3079 200.897 80.9407 200.802 81.6011C200.707 82.2614 200.752 82.9345 200.934 83.5763C201.116 84.2181 201.432 84.8143 201.86 85.326C202.288 85.8378 202.819 86.2535 203.419 86.5462C204.508 87.0763 205.697 87.3728 206.908 87.4166C208.119 87.4605 209.326 87.2507 210.451 86.8008C211.576 86.3508 212.595 85.6707 213.442 84.8039C214.289 83.9371 214.945 82.9029 215.369 81.7676L216.908 77.7047L210.136 75.2808L203.334 76.812Z" fill="#945959"/>
<path d="M149.677 47.025C149.677 47.025 151.939 43.5777 151.901 40.3074C151.862 37.037 152.27 35.5211 152.832 34.7362C153.394 33.9513 152.763 32.8048 151.255 33.1972C149.977 33.5435 148.4 35.5057 148.053 37.314C148.003 37.6017 147.889 37.8745 147.72 38.1128C147.551 38.351 147.331 38.5486 147.076 38.6914C145.483 39.5456 142.513 41.9925 143.921 47.9253L149.677 47.025Z" fill="#945959"/>
<path d="M143.629 43.8854C143.559 43.8741 143.496 43.8353 143.454 43.7776C143.412 43.7199 143.395 43.648 143.406 43.5776C143.554 42.507 143.952 41.4863 144.568 40.5986C145.185 39.7108 146.002 38.9809 146.953 38.4682C147.176 38.3488 147.368 38.1798 147.514 37.9743C147.661 37.7689 147.759 37.5324 147.8 37.2832C147.814 37.2141 147.856 37.1536 147.915 37.1147C147.974 37.0758 148.046 37.0617 148.115 37.0754C148.149 37.0819 148.181 37.095 148.21 37.114C148.239 37.1329 148.264 37.1574 148.283 37.1861C148.302 37.2147 148.316 37.2468 148.323 37.2807C148.329 37.3145 148.33 37.3493 148.323 37.3832C148.264 37.707 148.133 38.0135 147.94 38.2799C147.747 38.5463 147.497 38.7658 147.207 38.9222C146.327 39.3957 145.571 40.0705 145.002 40.8916C144.432 41.7126 144.064 42.6568 143.929 43.6469C143.926 43.6828 143.916 43.7177 143.899 43.7495C143.882 43.7812 143.859 43.8092 143.831 43.8316C143.803 43.854 143.77 43.8703 143.736 43.8796C143.701 43.8888 143.664 43.8908 143.629 43.8854Z" fill="#703838"/>
<path d="M225.788 108.5L229.204 115.702L246.741 122.643L239.669 101.213L225.788 108.5Z" fill="#945959"/>
<path d="M223.61 79.8286C223.61 79.8286 217.762 85.8384 220.294 94.3105C221.718 99.188 223.556 103.935 225.788 108.5C225.788 108.5 235.645 108.792 239.639 101.213L234.614 88.5316C233.821 86.5378 232.574 84.757 230.97 83.3314C229.367 81.9058 227.453 80.8749 225.38 80.3211L223.61 79.8286Z" fill="url(#paint20_linear_175_793)"/>
<path opacity="0.3" d="M223.61 79.8286C223.61 79.8286 217.762 85.8384 220.294 94.3105C221.718 99.188 223.556 103.935 225.788 108.5C225.788 108.5 235.645 108.792 239.639 101.213L234.614 88.5316C233.821 86.5378 232.574 84.757 230.97 83.3314C229.367 81.9058 227.453 80.8749 225.38 80.3211L223.61 79.8286Z" fill="white"/>
<path d="M228.219 114.364C232.652 115.664 245.718 119.535 245.718 119.535C245.718 119.535 245.818 119.819 246.741 122.613C248.157 126.96 243.663 137.479 227.75 129.846C211.837 122.212 206.027 118.126 206.027 118.126L207.759 108.469C207.759 108.469 223.164 112.878 228.219 114.364Z" fill="#945959"/>
<path d="M228.689 114.586L236.93 116.964L227.704 112.509L228.689 114.586Z" fill="#703838"/>
<path d="M205.296 122.489L194.954 121.389C194.584 121.351 194.233 121.201 193.95 120.959C193.667 120.717 193.464 120.395 193.369 120.035L187.721 98.7812C187.682 98.6359 187.678 98.4834 187.709 98.3362C187.74 98.189 187.806 98.0513 187.9 97.9342C187.995 97.8172 188.116 97.7241 188.253 97.6627C188.39 97.6013 188.54 97.5732 188.69 97.5808L198.694 98.0502C199.066 98.0654 199.423 98.199 199.714 98.4315C200.005 98.6641 200.213 98.9834 200.31 99.3429L206.327 121.297C206.365 121.447 206.366 121.604 206.331 121.754C206.295 121.905 206.224 122.045 206.122 122.162C206.021 122.279 205.893 122.37 205.749 122.427C205.606 122.484 205.45 122.505 205.296 122.489Z" fill="#938BA1"/>
<path d="M191.761 100.697C191.761 100.874 191.708 101.047 191.61 101.194C191.511 101.341 191.371 101.455 191.208 101.523C191.044 101.59 190.865 101.607 190.691 101.572C190.518 101.537 190.359 101.451 190.234 101.326C190.11 101.2 190.025 101.04 189.992 100.867C189.958 100.693 189.977 100.513 190.046 100.35C190.114 100.187 190.23 100.049 190.378 99.9514C190.526 99.8542 190.699 99.8032 190.876 99.8047C191.111 99.8068 191.336 99.9017 191.502 100.069C191.668 100.236 191.761 100.462 191.761 100.697Z" fill="#263238"/>
<path d="M207.759 108.5C207.759 108.5 204.765 103.298 201.049 102.036L202.534 107.753C202.534 107.753 199.71 107.977 196.516 107.977C193.323 107.977 189.829 105.822 188.821 105.268C187.813 104.714 186.874 108.577 190.891 115.856C194.908 123.136 206.058 118.165 206.058 118.165L207.759 108.5Z" fill="#945959"/>
<path d="M252.943 3.84873L258.514 7.01904V5.04914C258.514 4.91063 258.514 4.76443 258.514 4.63361C258.514 4.5028 258.514 4.36429 258.514 4.23348V4.18731C258.714 1.57103 260.692 0.570686 263.131 1.96347C264.224 2.63761 265.161 3.53747 265.878 4.60283C266.425 1.05547 269.318 -0.229589 272.804 1.79418C276.682 4.03341 279.829 9.5199 279.829 13.983V18.2075C279.832 18.5421 279.921 18.8704 280.089 19.1603C280.256 19.4502 280.495 19.6919 280.784 19.8619L284.054 21.7779C284.76 22.1988 285.344 22.7962 285.748 23.5113C286.153 24.2264 286.365 25.0346 286.362 25.8563C286.36 26.1976 286.269 26.5324 286.097 26.8274C285.925 27.1225 285.68 27.3674 285.384 27.5378C285.088 27.7082 284.753 27.7983 284.412 27.7989C284.07 27.7995 283.735 27.7108 283.438 27.5414L253.028 9.95082C252.218 9.48262 251.547 8.80926 251.081 7.99867C250.615 7.18807 250.371 6.2689 250.373 5.33385C250.376 5.03418 250.457 4.74043 250.608 4.48158C250.759 4.22273 250.975 4.00772 251.234 3.85779C251.494 3.70785 251.788 3.62815 252.088 3.62656C252.387 3.62497 252.682 3.70155 252.943 3.84873Z" fill="#E6E6E6"/>
<path d="M277.09 39.2841L281.207 41.5926V40.169C281.207 40.0613 281.207 39.9612 281.207 39.8612C281.207 39.7612 281.207 39.6611 281.207 39.5611C281.353 37.6297 282.815 36.891 284.6 37.9221C285.41 38.4169 286.103 39.0811 286.632 39.8689C287.032 37.2449 289.171 36.2984 291.764 37.7913C293.277 38.7819 294.536 40.1142 295.44 41.6807C296.343 43.2472 296.866 45.0041 296.966 46.8097V49.9339C296.966 50.1811 297.031 50.4239 297.154 50.6384C297.277 50.8529 297.453 51.0318 297.666 51.1574L300.09 52.5732C300.615 52.8826 301.05 53.3236 301.352 53.8526C301.655 54.3816 301.814 54.9804 301.814 55.5897C301.813 55.8417 301.747 56.0893 301.621 56.3075C301.495 56.5258 301.314 56.7071 301.095 56.8334C300.877 56.9596 300.63 57.0263 300.378 57.0268C300.126 57.0273 299.878 56.9616 299.659 56.8362L277.151 43.7933C276.559 43.4458 276.068 42.9487 275.727 42.3518C275.387 41.755 275.21 41.0792 275.212 40.3922C275.213 40.1725 275.272 39.9568 275.381 39.7663C275.49 39.5758 275.647 39.417 275.837 39.3053C276.026 39.1936 276.241 39.133 276.46 39.1293C276.68 39.1256 276.897 39.1789 277.09 39.2841Z" fill="#E6E6E6"/>
<defs>
<linearGradient id="paint0_linear_175_793" x1="119.731" y1="186.719" x2="119.731" y2="50.2876" gradientUnits="userSpaceOnUse">
<stop offset="0.383912" stop-color="#0155DC"/>
<stop offset="0.667563" stop-color="#006FE8"/>
</linearGradient>
<linearGradient id="paint1_linear_175_793" x1="107.447" y1="136.317" x2="107.447" y2="71.3022" gradientUnits="userSpaceOnUse">
<stop offset="0.383912" stop-color="#0155DC"/>
<stop offset="0.667563" stop-color="#006FE8"/>
</linearGradient>
<linearGradient id="paint2_linear_175_793" x1="107.447" y1="157.724" x2="107.447" y2="108.746" gradientUnits="userSpaceOnUse">
<stop offset="0.383912" stop-color="#0155DC"/>
<stop offset="0.667563" stop-color="#006FE8"/>
</linearGradient>
<linearGradient id="paint3_linear_175_793" x1="139.077" y1="124.174" x2="139.077" y2="50.4336" gradientUnits="userSpaceOnUse">
<stop offset="0.383912" stop-color="#0155DC"/>
<stop offset="0.667563" stop-color="#006FE8"/>
</linearGradient>
<linearGradient id="paint4_linear_175_793" x1="187.579" y1="72.141" x2="187.579" y2="71.8486" gradientUnits="userSpaceOnUse">
<stop offset="0.383912" stop-color="#0155DC"/>
<stop offset="0.667563" stop-color="#006FE8"/>
</linearGradient>
<linearGradient id="paint5_linear_175_793" x1="158.192" y1="165.95" x2="158.192" y2="79.1592" gradientUnits="userSpaceOnUse">
<stop offset="0.383912" stop-color="#0155DC"/>
<stop offset="0.667563" stop-color="#006FE8"/>
</linearGradient>
<linearGradient id="paint6_linear_175_793" x1="189.618" y1="76.7429" x2="189.618" y2="74.8423" gradientUnits="userSpaceOnUse">
<stop offset="0.383912" stop-color="#0155DC"/>
<stop offset="0.667563" stop-color="#006FE8"/>
</linearGradient>
<linearGradient id="paint7_linear_175_793" x1="188.471" y1="74.3803" x2="188.471" y2="72.6182" gradientUnits="userSpaceOnUse">
<stop offset="0.383912" stop-color="#0155DC"/>
<stop offset="0.667563" stop-color="#006FE8"/>
</linearGradient>
<linearGradient id="paint8_linear_175_793" x1="190.618" y1="79.0896" x2="190.618" y2="77.0273" gradientUnits="userSpaceOnUse">
<stop offset="0.383912" stop-color="#0155DC"/>
<stop offset="0.667563" stop-color="#006FE8"/>
</linearGradient>
<linearGradient id="paint9_linear_175_793" x1="102.615" y1="165.989" x2="102.615" y2="89.355" gradientUnits="userSpaceOnUse">
<stop offset="0.383912" stop-color="#0155DC"/>
<stop offset="0.667563" stop-color="#006FE8"/>
</linearGradient>
<linearGradient id="paint10_linear_175_793" x1="85.9501" y1="186.943" x2="85.9501" y2="139.057" gradientUnits="userSpaceOnUse">
<stop offset="0.383912" stop-color="#0155DC"/>
<stop offset="0.667563" stop-color="#006FE8"/>
</linearGradient>
<linearGradient id="paint11_linear_175_793" x1="138.777" y1="162.293" x2="138.777" y2="149.639" gradientUnits="userSpaceOnUse">
<stop offset="0.383912" stop-color="#0155DC"/>
<stop offset="0.667563" stop-color="#006FE8"/>
</linearGradient>
<linearGradient id="paint12_linear_175_793" x1="140.412" y1="163.199" x2="140.412" y2="150.555" gradientUnits="userSpaceOnUse">
<stop offset="0.383912" stop-color="#0155DC"/>
<stop offset="0.667563" stop-color="#006FE8"/>
</linearGradient>
<linearGradient id="paint13_linear_175_793" x1="260.017" y1="242.323" x2="260.017" y2="189.627" gradientUnits="userSpaceOnUse">
<stop offset="0.383912" stop-color="#0155DC"/>
<stop offset="0.667563" stop-color="#006FE8"/>
</linearGradient>
<linearGradient id="paint14_linear_175_793" x1="272.285" y1="249.687" x2="272.285" y2="207.149" gradientUnits="userSpaceOnUse">
<stop offset="0.383912" stop-color="#0155DC"/>
<stop offset="0.667563" stop-color="#006FE8"/>
</linearGradient>
<linearGradient id="paint15_linear_175_793" x1="25.4962" y1="54.3045" x2="25.4962" y2="35.9136" gradientUnits="userSpaceOnUse">
<stop offset="0.383912" stop-color="#0155DC"/>
<stop offset="0.667563" stop-color="#006FE8"/>
</linearGradient>
<linearGradient id="paint16_linear_175_793" x1="35.8036" y1="63.6846" x2="35.8036" y2="42.8467" gradientUnits="userSpaceOnUse">
<stop offset="0.383912" stop-color="#0155DC"/>
<stop offset="0.667563" stop-color="#006FE8"/>
</linearGradient>
<linearGradient id="paint17_linear_175_793" x1="25.4962" y1="44.3855" x2="25.4962" y2="22.124" gradientUnits="userSpaceOnUse">
<stop offset="0.383912" stop-color="#0155DC"/>
<stop offset="0.667563" stop-color="#006FE8"/>
</linearGradient>
<linearGradient id="paint18_linear_175_793" x1="183.589" y1="92.6253" x2="183.589" y2="72.0952" gradientUnits="userSpaceOnUse">
<stop offset="0.383912" stop-color="#0155DC"/>
<stop offset="0.667563" stop-color="#006FE8"/>
</linearGradient>
<linearGradient id="paint19_linear_175_793" x1="206.808" y1="142.935" x2="206.808" y2="75.6963" gradientUnits="userSpaceOnUse">
<stop offset="0.383912" stop-color="#0155DC"/>
<stop offset="0.667563" stop-color="#006FE8"/>
</linearGradient>
<linearGradient id="paint20_linear_175_793" x1="229.648" y1="108.501" x2="229.648" y2="79.8286" gradientUnits="userSpaceOnUse">
<stop offset="0.383912" stop-color="#0155DC"/>
<stop offset="0.667563" stop-color="#006FE8"/>
</linearGradient>
</defs>
</svg>
