<svg width="382" height="387" viewBox="0 0 382 387" fill="none" xmlns="http://www.w3.org/2000/svg">
<path d="M323.571 331.662H356.421V321.207H323.571V331.662Z" fill="#EBEBEB"/>
<path d="M303.707 103.026H270.857V113.481H303.707V103.026Z" fill="#EBEBEB"/>
<path d="M341.893 344.835C347.349 344.751 361.336 344.518 366.605 344.452H374.743L374.313 344.873V334.418L374.78 334.885C369.324 334.885 355.412 334.819 350.143 334.745L341.93 334.642L342.154 334.418L341.93 344.873L341.893 344.835ZM341.893 344.835L341.678 334.38V334.165H341.902C346.004 334.109 354.235 334.016 358.327 333.979L374.752 333.913H375.219V334.38V344.835V345.265H374.799H366.512C361.28 345.209 347.358 344.966 341.949 344.873L341.893 344.835Z" fill="#EBEBEB"/>
<path d="M193.346 217.788C187.881 217.881 174.081 218.115 168.783 218.171H160.505H160.076V217.741V207.286V206.866H160.552L176.968 206.931C181.06 206.931 189.31 207.053 193.393 207.109H193.627V207.324L193.403 217.778L193.346 217.788ZM193.346 217.788L193.132 207.333L193.346 207.557C189.254 207.613 181.023 207.707 176.921 207.735L160.505 207.8L160.963 207.333V217.788L160.543 217.367H168.681C173.885 217.423 188.002 217.657 193.384 217.75L193.346 217.788Z" fill="#EBEBEB"/>
<path d="M175.025 230.971C169.549 231.064 155.75 231.298 150.462 231.354L142.174 231.401H141.754V230.971L141.707 220.516V220.049H142.174L158.599 220.114C162.692 220.114 170.932 220.236 175.025 220.292H175.249V220.507L175.025 230.962V230.971ZM175.025 230.971L174.8 220.516L175.025 220.74C170.932 220.796 162.701 220.88 158.599 220.918L142.174 220.983L142.641 220.516V230.971L142.212 230.55H150.349C155.563 230.607 169.68 230.84 175.062 230.934L175.025 230.971Z" fill="#EBEBEB"/>
<path d="M156.778 207.333H123.927V217.788H156.778V207.333Z" fill="#EBEBEB"/>
<path d="M6.92356 344.845H39.7739V334.39H6.92356V344.845Z" fill="#EBEBEB"/>
<path d="M25.2453 21.9937L58.0957 21.9937V11.5387L25.2453 11.5387V21.9937Z" fill="#EBEBEB"/>
<path d="M6.92345 35.1674C12.3798 35.0739 26.3665 34.8403 31.636 34.7843H39.7738L39.344 35.2047V24.7498L39.8112 25.2169C34.3548 25.2169 20.4429 25.1515 15.1734 25.0768L6.96083 24.974L7.14769 24.675L6.92345 35.13V35.1674ZM6.92345 35.1674L6.69922 24.675V24.4602H6.92345C11.0251 24.4041 19.247 24.3107 23.3486 24.2733L39.7738 24.2079H40.241V24.675V35.13V35.5598H39.8205H31.5332C26.3011 35.4944 12.3705 35.2608 6.97017 35.1674H6.92345Z" fill="#EBEBEB"/>
<path d="M323.57 21.9842C329.027 21.8908 343.013 21.6666 348.283 21.6012H356.421L355.991 22.0216V11.5667L356.458 12.0338L340.033 11.9684C335.941 11.9684 327.7 11.847 323.608 11.7909L323.832 11.5667L323.608 22.0216L323.57 21.9842ZM323.57 21.9842L323.346 11.5293V11.3144H323.57C327.672 11.2583 335.903 11.1649 339.996 11.1275L356.421 11.0621H356.888V11.5293L356.841 21.9842V22.414H356.421H348.133C342.901 22.3486 328.98 22.115 323.57 22.0216V21.9842Z" fill="#EBEBEB"/>
<path d="M327.523 114.163H168.279V7.70801H327.523V114.163ZM169.213 113.229H326.588V8.64232H169.213V113.229Z" fill="#EBEBEB"/>
<path d="M176.053 12.6879C176.053 13.0076 175.958 13.3201 175.78 13.5859C175.603 13.8517 175.35 14.0589 175.055 14.1812C174.759 14.3035 174.434 14.3356 174.121 14.2732C173.807 14.2108 173.519 14.0569 173.293 13.8308C173.067 13.6048 172.913 13.3168 172.851 13.0032C172.789 12.6897 172.821 12.3647 172.943 12.0693C173.065 11.774 173.272 11.5215 173.538 11.3439C173.804 11.1663 174.116 11.0715 174.436 11.0715C174.864 11.074 175.274 11.2451 175.576 11.5477C175.879 11.8503 176.05 12.26 176.053 12.6879V12.6879Z" fill="#A6A6A6"/>
<path d="M182.649 12.6879C182.649 13.0076 182.554 13.3201 182.376 13.5859C182.199 13.8517 181.946 14.0589 181.651 14.1812C181.356 14.3035 181.031 14.3356 180.717 14.2732C180.403 14.2108 180.115 14.0569 179.889 13.8308C179.663 13.6048 179.509 13.3168 179.447 13.0032C179.385 12.6897 179.417 12.3647 179.539 12.0693C179.661 11.774 179.869 11.5215 180.134 11.3439C180.4 11.1663 180.713 11.0715 181.032 11.0715C181.46 11.074 181.87 11.2451 182.173 11.5477C182.475 11.8503 182.646 12.26 182.649 12.6879V12.6879Z" fill="#EBEBEB"/>
<path d="M189.245 12.6879C189.245 13.0076 189.15 13.3201 188.973 13.5859C188.795 13.8517 188.542 14.0589 188.247 14.1812C187.952 14.3035 187.627 14.3356 187.313 14.2732C187 14.2108 186.712 14.0569 186.486 13.8308C186.26 13.6048 186.106 13.3168 186.043 13.0032C185.981 12.6897 186.013 12.3647 186.135 12.0693C186.258 11.774 186.465 11.5215 186.731 11.3439C186.996 11.1663 187.309 11.0715 187.629 11.0715C188.057 11.0715 188.468 11.2418 188.771 11.545C189.075 11.8481 189.245 12.2592 189.245 12.6879V12.6879Z" fill="#006FE8"/>
<path d="M327.056 17.0698H168.746V18.0041H327.056V17.0698Z" fill="#EBEBEB"/>
<path d="M71.1105 39.4652H7.96045V116.069H71.1105V39.4652Z" fill="#EBEBEB"/>
<path d="M63.9069 46.4539H15.1826V109.071H63.9069V46.4539Z" fill="white"/>
<path d="M17.0793 46.4539H15.1826V109.071H17.0793V46.4539Z" fill="#C7C7C7"/>
<path d="M73.0168 39.4652H71.1201V116.069H73.0168V39.4652Z" fill="#C7C7C7"/>
<path d="M40.6242 95.1595H52.1162L52.1162 60.9357H40.6242V95.1595Z" fill="#EBEBEB"/>
<path d="M57.6006 72.3249H26.0303V54.573H57.6006V72.3249ZM26.9646 71.3906H56.6663V55.5073H26.9646V71.3906Z" fill="#EBEBEB"/>
<path d="M108.483 228.252H45.333V304.856H108.483V228.252Z" fill="#EBEBEB"/>
<path d="M101.279 235.241H52.5552V297.858H101.279V235.241Z" fill="white"/>
<path d="M54.4518 235.241H52.5552V297.858H54.4518V235.241Z" fill="#C7C7C7"/>
<path d="M110.389 228.252H108.492V304.856H110.389V228.252Z" fill="#C7C7C7"/>
<path d="M80.3695 249.723H68.8774V283.946H80.3695V249.723Z" fill="#EBEBEB"/>
<path d="M94.9727 261.112H63.4023V243.406H94.9727V261.112ZM64.3367 260.177H94.0384V244.341H64.3367V260.177Z" fill="#EBEBEB"/>
<path d="M89.797 134.204H26.647V210.808H89.797V134.204Z" fill="#EBEBEB"/>
<path d="M82.5934 141.193H33.8691V203.81H82.5934V141.193Z" fill="white"/>
<path d="M35.7658 141.193H33.8691V203.81H35.7658V141.193Z" fill="#C7C7C7"/>
<path d="M91.7028 134.204H89.8062V210.808H91.7028V134.204Z" fill="#C7C7C7"/>
<path d="M63.3466 157.385H53.5083V182.265H63.3466V157.385Z" fill="#EBEBEB"/>
<path d="M74.1844 190.123H46.8091V172.035H74.1844V190.123ZM47.7434 189.188H73.2501V172.969H47.7434V189.188Z" fill="#DBDBDB"/>
<path d="M0 385.17C122.264 384.59 259.402 384.59 381.666 385.17C259.402 385.739 122.264 385.739 0 385.17Z" fill="#263238"/>
<path d="M332.718 296.765C347.312 311.051 349.76 333.156 346.686 352.525C346.602 352.964 345.929 352.842 345.929 352.431C345.929 348.021 346.06 343.649 346.05 339.295C345.966 339.099 345.901 338.912 345.817 338.716C342.014 335.913 338.51 332.811 336.343 328.522C333.904 323.729 332.942 318.32 331.083 313.321C330.905 312.835 331.419 312.975 331.755 313.228C340.631 319.768 343.462 326.822 346.004 336.24C345.953 331.312 345.437 326.401 344.462 321.571C342.547 312.639 338.744 303.819 332.316 297.148C332.092 296.896 332.465 296.56 332.718 296.765Z" fill="#263238"/>
<path d="M329.971 298.428C327.458 298.512 325.888 302.53 323.935 303.698C323.731 303.873 323.491 304.002 323.232 304.076C322.973 304.15 322.701 304.168 322.435 304.127C322.169 304.086 321.914 303.988 321.69 303.84C321.465 303.692 321.275 303.497 321.132 303.268C319.189 300.558 321.852 297.214 324.356 295.354C322.562 296.083 321.086 297.382 319.151 297.746C318.905 297.828 318.643 297.855 318.385 297.827C318.127 297.798 317.877 297.714 317.655 297.58C317.432 297.446 317.241 297.265 317.094 297.05C316.948 296.836 316.85 296.592 316.806 296.335C315.956 292.645 320.544 291.01 323.758 290.926C322.216 289.861 317.806 286.955 320.151 285.516C322.496 284.077 327.7 288.244 329.392 289.618C331.877 291.626 334.829 294.635 334.941 297.784C335.119 301.465 331.914 299.204 329.971 298.428Z" fill="#006FE8"/>
<path opacity="0.1" d="M329.971 298.428C327.458 298.512 325.888 302.53 323.935 303.698C323.731 303.873 323.491 304.002 323.232 304.076C322.973 304.15 322.701 304.168 322.435 304.127C322.169 304.086 321.914 303.988 321.69 303.84C321.465 303.692 321.275 303.497 321.132 303.268C319.189 300.558 321.852 297.214 324.356 295.354C322.562 296.083 321.086 297.382 319.151 297.746C318.905 297.828 318.643 297.855 318.385 297.827C318.127 297.798 317.877 297.714 317.655 297.58C317.432 297.446 317.241 297.265 317.094 297.05C316.948 296.836 316.85 296.592 316.806 296.335C315.956 292.645 320.544 291.01 323.758 290.926C322.216 289.861 317.806 286.955 320.151 285.516C322.496 284.077 327.7 288.244 329.392 289.618C331.877 291.626 334.829 294.635 334.941 297.784C335.119 301.465 331.914 299.204 329.971 298.428Z" fill="black"/>
<path d="M330.7 299.045C327.486 297.587 321.356 299.689 320.796 298.475C319.731 295.999 324.664 294.308 327.336 293.981C324.879 293.317 320.189 292.252 320.329 289.898C320.506 287.011 327.532 289.487 331.092 292.215C335.567 295.653 335.539 298.961 334.829 299.624C333.783 300.54 331.232 299.288 330.7 299.045Z" fill="#006FE8"/>
<path d="M365.951 295.354C350.825 309.07 347.536 331.073 349.872 350.535C349.937 350.974 350.619 350.88 350.638 350.469C350.806 346.069 350.834 341.696 351.021 337.342L351.264 336.772C355.178 334.147 358.794 331.166 361.13 326.953C363.746 322.281 364.914 316.881 366.96 312.004C367.156 311.527 366.642 311.649 366.297 311.882C357.178 318.086 354.076 325.019 351.17 334.306C351.414 329.386 352.118 324.5 353.272 319.712C355.534 310.855 359.663 302.156 366.353 295.765C366.38 295.739 366.401 295.708 366.416 295.673C366.431 295.638 366.439 295.601 366.439 295.563C366.44 295.525 366.433 295.488 366.419 295.453C366.405 295.418 366.384 295.386 366.358 295.359C366.331 295.332 366.3 295.31 366.265 295.296C366.23 295.281 366.193 295.273 366.155 295.272C366.118 295.272 366.08 295.279 366.045 295.293C366.01 295.307 365.978 295.328 365.951 295.354Z" fill="#263238"/>
<path d="M368.633 297.12C371.137 297.298 372.557 301.371 374.472 302.614C374.67 302.794 374.904 302.93 375.158 303.012C375.413 303.094 375.682 303.121 375.948 303.09C376.214 303.059 376.47 302.971 376.699 302.832C376.928 302.694 377.124 302.508 377.275 302.287C379.312 299.652 376.78 296.214 374.351 294.252C376.117 295.055 377.546 296.41 379.461 296.849C379.705 296.93 379.963 296.96 380.219 296.937C380.475 296.914 380.724 296.838 380.949 296.714C381.175 296.59 381.372 296.422 381.529 296.218C381.686 296.015 381.8 295.781 381.862 295.532C382.853 291.869 378.293 290.057 375.117 289.861C376.696 288.851 381.218 286.123 378.929 284.591C376.64 283.059 371.277 287.02 369.539 288.328C366.979 290.244 363.933 293.14 363.681 296.289C363.372 299.951 366.671 297.812 368.633 297.12Z" fill="#006FE8"/>
<path opacity="0.1" d="M368.633 297.12C371.137 297.298 372.557 301.371 374.472 302.614C374.67 302.794 374.904 302.93 375.158 303.012C375.413 303.094 375.682 303.121 375.948 303.09C376.214 303.059 376.47 302.971 376.699 302.832C376.928 302.694 377.124 302.508 377.275 302.287C379.312 299.652 376.78 296.214 374.351 294.252C376.117 295.055 377.546 296.41 379.461 296.849C379.705 296.93 379.963 296.96 380.219 296.937C380.475 296.914 380.724 296.838 380.949 296.714C381.175 296.59 381.372 296.422 381.529 296.218C381.686 296.015 381.8 295.781 381.862 295.532C382.853 291.869 378.293 290.057 375.117 289.861C376.696 288.851 381.218 286.123 378.929 284.591C376.64 283.059 371.277 287.02 369.539 288.328C366.979 290.244 363.933 293.14 363.681 296.289C363.372 299.951 366.671 297.812 368.633 297.12Z" fill="black"/>
<path d="M367.885 297.709C371.146 296.373 377.228 298.708 377.798 297.513C378.957 295.083 374.061 293.196 371.454 292.766C373.921 292.196 378.658 291.318 378.602 288.954C378.536 286.067 371.417 288.282 367.764 290.87C363.158 294.13 363.092 297.41 363.774 298.129C364.755 299.082 367.343 297.933 367.885 297.709Z" fill="#006FE8"/>
<path d="M350.488 331.596C349.471 338.934 347.91 346.185 345.817 353.291C345.776 353.418 345.69 353.526 345.575 353.593C345.46 353.661 345.323 353.684 345.193 353.657C345.062 353.63 344.945 353.556 344.866 353.449C344.786 353.342 344.749 353.209 344.761 353.076C345.751 346.396 347.564 339.827 348.554 333.147C349.62 326.379 349.992 319.52 349.666 312.676C349.031 301.409 345.929 289.421 338.613 280.602C338.454 280.396 338.791 280.097 338.959 280.293C353.684 297.456 351.339 318.497 351.329 320.384C353.413 313.284 355.562 305.137 363.475 297.905C363.821 297.587 364.083 297.737 364.027 298.269C362.616 311.443 358.953 318.329 351.311 325.364C351.093 327.463 350.818 329.541 350.488 331.596Z" fill="#263238"/>
<path d="M338.51 282.545C335.857 281.368 332.204 284.741 329.588 284.965C329.289 285.035 328.979 285.042 328.678 284.984C328.376 284.926 328.091 284.804 327.84 284.628C327.589 284.451 327.379 284.223 327.223 283.959C327.067 283.695 326.968 283.401 326.934 283.096C326.28 279.359 330.727 277.191 334.259 276.556C332.035 276.425 329.84 277.014 327.654 276.425C327.357 276.384 327.072 276.28 326.819 276.12C326.566 275.96 326.351 275.748 326.187 275.497C326.023 275.246 325.915 274.963 325.87 274.667C325.824 274.371 325.843 274.069 325.925 273.781C326.906 269.53 332.531 270.156 335.866 271.67C334.81 269.801 331.69 264.55 334.848 264.242C338.006 263.933 341.313 270.866 342.369 273.146C343.939 276.481 345.489 281.097 344.023 284.414C342.322 288.319 340.127 284.348 338.51 282.545Z" fill="#006FE8"/>
<path opacity="0.1" d="M338.51 282.545C335.857 281.368 332.204 284.741 329.588 284.965C329.289 285.035 328.979 285.042 328.678 284.984C328.376 284.926 328.091 284.804 327.84 284.628C327.589 284.451 327.379 284.223 327.223 283.959C327.067 283.695 326.968 283.401 326.934 283.096C326.28 279.359 330.727 277.191 334.259 276.556C332.035 276.425 329.84 277.014 327.654 276.425C327.357 276.384 327.072 276.28 326.819 276.12C326.566 275.96 326.351 275.748 326.187 275.497C326.023 275.246 325.915 274.963 325.87 274.667C325.824 274.371 325.843 274.069 325.925 273.781C326.906 269.53 332.531 270.156 335.866 271.67C334.81 269.801 331.69 264.55 334.848 264.242C338.006 263.933 341.313 270.866 342.369 273.146C343.939 276.481 345.489 281.097 344.023 284.414C342.322 288.319 340.127 284.348 338.51 282.545Z" fill="black"/>
<path d="M338.95 283.582C336.352 280.452 328.896 279.527 328.962 277.976C329.111 274.874 335.072 275.594 337.997 276.593C335.792 274.669 331.456 271.212 332.793 268.839C334.428 265.933 340.463 272.043 342.78 276.659C345.705 282.48 344.004 285.899 342.902 286.217C341.388 286.675 339.389 284.105 338.95 283.582Z" fill="#006FE8"/>
<path d="M360.168 335.558L366.661 385.17H327.159C327.972 380.769 335.325 335.502 335.325 335.502L360.168 335.558Z" fill="#006FE8"/>
<path d="M354.15 266.736H183.835V25.0581H372.64V248.228L354.15 266.736Z" fill="white"/>
<path d="M354.151 266.736C354.067 266.736 183.816 266.811 183.732 266.839C183.648 266.867 183.648 25.1049 183.602 25.0582V24.8246H183.835C183.929 24.8246 372.678 24.9554 372.771 24.9274C372.865 24.8993 372.603 248.228 372.65 248.228C372.697 248.228 354.151 266.727 354.151 266.736V266.736ZM354.151 266.736L372.622 248.228L372.51 25.0582C373.332 25.3385 183.658 25.2263 183.835 25.2917L184.069 25.0582L183.938 266.736C183.303 266.493 354.291 266.802 354.151 266.736Z" fill="#263238"/>
<path d="M372.64 25.0581H183.835V31.7945H372.64V25.0581Z" fill="#006FE8"/>
<path d="M188.787 28.4123C188.787 28.6378 188.72 28.8581 188.595 29.0456C188.47 29.233 188.292 29.3791 188.083 29.4654C187.875 29.5517 187.646 29.5743 187.425 29.5303C187.204 29.4863 187.001 29.3777 186.841 29.2183C186.682 29.0589 186.573 28.8558 186.529 28.6347C186.485 28.4136 186.508 28.1844 186.594 27.9761C186.68 27.7678 186.826 27.5898 187.014 27.4646C187.201 27.3393 187.422 27.2725 187.647 27.2725C187.949 27.2725 188.239 27.3926 188.453 27.6063C188.667 27.8201 188.787 28.11 188.787 28.4123Z" fill="#C7C7C7"/>
<path d="M193.43 28.4124C193.43 28.6378 193.363 28.8582 193.238 29.0456C193.113 29.2331 192.935 29.3792 192.726 29.4655C192.518 29.5517 192.289 29.5743 192.068 29.5303C191.847 29.4863 191.644 29.3778 191.484 29.2184C191.325 29.059 191.216 28.8558 191.172 28.6347C191.128 28.4136 191.151 28.1844 191.237 27.9762C191.323 27.7679 191.47 27.5899 191.657 27.4646C191.844 27.3394 192.065 27.2725 192.29 27.2725C192.44 27.2713 192.589 27.2999 192.728 27.3567C192.867 27.4136 192.993 27.4975 193.099 27.6036C193.205 27.7097 193.289 27.8358 193.346 27.9747C193.403 28.1135 193.431 28.2623 193.43 28.4124Z" fill="white"/>
<path d="M198.083 28.4123C198.083 28.6378 198.017 28.8581 197.891 29.0456C197.766 29.233 197.588 29.3791 197.38 29.4654C197.171 29.5517 196.942 29.5743 196.721 29.5303C196.5 29.4863 196.297 29.3777 196.138 29.2183C195.978 29.0589 195.87 28.8558 195.826 28.6347C195.782 28.4136 195.804 28.1844 195.89 27.9761C195.977 27.7678 196.123 27.5898 196.31 27.4646C196.498 27.3393 196.718 27.2725 196.944 27.2725C197.093 27.2725 197.241 27.3019 197.38 27.3592C197.518 27.4165 197.644 27.5005 197.75 27.6063C197.855 27.7122 197.939 27.8378 197.997 27.9761C198.054 28.1144 198.083 28.2626 198.083 28.4123Z" fill="#455A64"/>
<path d="M257.982 51.9009H254.927L254.31 53.5359C254.238 53.7115 254.099 53.8517 253.925 53.9267C253.75 54.0018 253.553 54.0057 253.376 53.9377C253.287 53.9046 253.205 53.854 253.135 53.7887C253.066 53.7234 253.011 53.6448 252.972 53.5577C252.934 53.4705 252.913 53.3765 252.912 53.2813C252.911 53.1861 252.929 53.0915 252.965 53.0034L255.768 45.5943C255.824 45.4632 255.918 45.3517 256.038 45.2737C256.158 45.1956 256.298 45.1544 256.44 45.1552C256.582 45.1525 256.722 45.193 256.84 45.2715C256.959 45.3499 257.051 45.4625 257.104 45.5943L259.907 53.0034C259.941 53.0923 259.958 53.1871 259.955 53.2824C259.952 53.3777 259.931 53.4715 259.892 53.5585C259.853 53.6454 259.797 53.7237 259.727 53.7888C259.657 53.8539 259.576 53.9045 259.486 53.9377C259.409 53.9535 259.33 53.9535 259.253 53.9377C259.113 53.9405 258.976 53.8998 258.86 53.8211C258.745 53.7424 258.657 53.6297 258.608 53.4985L257.982 51.9009ZM257.468 50.5181L256.45 47.8179L255.431 50.5181H257.468Z" fill="#263238"/>
<path d="M267.446 52.938C267.503 53.1127 267.489 53.3027 267.406 53.4669C267.324 53.6312 267.181 53.7566 267.007 53.8163C266.914 53.8268 266.82 53.8268 266.727 53.8163V53.8163C266.552 53.8168 266.381 53.7683 266.232 53.6761C266.066 53.5628 265.928 53.4125 265.83 53.237C265.638 52.7728 265.552 52.2717 265.578 51.7701C265.578 51.5823 265.526 51.3981 265.428 51.2376C265.332 51.0841 265.201 50.956 265.045 50.8638C264.827 50.7312 264.591 50.6305 264.345 50.5649H262.859V53.293C262.859 53.3846 262.841 53.4753 262.805 53.5598C262.77 53.6443 262.718 53.7209 262.653 53.7853C262.588 53.8496 262.511 53.9003 262.426 53.9345C262.341 53.9687 262.25 53.9857 262.158 53.9844C262.067 53.9857 261.977 53.9687 261.892 53.9344C261.808 53.9001 261.731 53.8492 261.667 53.7847C261.602 53.7203 261.551 53.6436 261.517 53.5591C261.483 53.4747 261.466 53.3842 261.467 53.293V45.8653C261.466 45.7741 261.483 45.6837 261.517 45.5992C261.551 45.5148 261.602 45.438 261.667 45.3736C261.731 45.3091 261.808 45.2583 261.892 45.224C261.977 45.1897 262.067 45.1726 262.158 45.1739H264.41C264.764 45.1739 265.115 45.2438 265.442 45.3796C265.769 45.5154 266.066 45.7145 266.316 45.9653C266.566 46.2162 266.764 46.5139 266.899 46.8414C267.033 47.169 267.102 47.5199 267.101 47.8741C267.094 48.2648 267 48.6491 266.828 48.9996C266.655 49.35 266.407 49.658 266.101 49.9015C266.27 50.0339 266.419 50.1914 266.54 50.3687C266.815 50.7671 266.961 51.2396 266.961 51.7234C266.927 51.9714 266.927 52.2228 266.961 52.4709C267.075 52.5008 267.179 52.5595 267.264 52.6412C267.349 52.723 267.412 52.8252 267.446 52.938V52.938ZM265.681 47.8741C265.683 47.7032 265.652 47.5335 265.588 47.3749C265.524 47.2163 265.43 47.072 265.31 46.9502C265.19 46.8285 265.047 46.7319 264.889 46.6659C264.731 46.6 264.562 46.566 264.391 46.566H262.84V49.1634H264.391C264.733 49.1634 265.061 49.0276 265.303 48.7858C265.545 48.544 265.681 48.216 265.681 47.8741Z" fill="#263238"/>
<path d="M274.622 46.566H272.622V53.2837C272.622 53.4671 272.55 53.6429 272.42 53.7726C272.29 53.9023 272.114 53.9751 271.931 53.9751C271.748 53.9751 271.572 53.9023 271.442 53.7726C271.312 53.6429 271.24 53.4671 271.24 53.2837V46.566H269.25C269.065 46.5636 268.889 46.4886 268.76 46.3575C268.631 46.2264 268.558 46.0495 268.558 45.8653C268.557 45.7741 268.574 45.6837 268.608 45.5992C268.643 45.5148 268.693 45.438 268.758 45.3736C268.822 45.3091 268.899 45.2583 268.983 45.224C269.068 45.1897 269.158 45.1726 269.25 45.1739H274.622C274.805 45.1739 274.981 45.2467 275.111 45.3764C275.24 45.5061 275.313 45.6819 275.313 45.8653C275.311 46.0488 275.238 46.2243 275.109 46.3549C274.98 46.4855 274.805 46.5612 274.622 46.566V46.566Z" fill="#263238"/>
<path d="M277.481 45.8653C277.48 45.7741 277.497 45.6837 277.531 45.5992C277.565 45.5148 277.616 45.438 277.681 45.3736C277.745 45.3091 277.822 45.2583 277.906 45.224C277.991 45.1897 278.081 45.1726 278.172 45.1739C278.357 45.1739 278.534 45.2464 278.665 45.3758C278.796 45.5052 278.871 45.6811 278.873 45.8653V53.2837C278.871 53.4679 278.796 53.6438 278.665 53.7732C278.534 53.9026 278.357 53.9751 278.172 53.9751C278.081 53.9764 277.991 53.9593 277.906 53.925C277.822 53.8907 277.745 53.8398 277.681 53.7754C277.616 53.7109 277.565 53.6342 277.531 53.5498C277.497 53.4653 277.48 53.3749 277.481 53.2837V45.8653Z" fill="#263238"/>
<path d="M280.844 49.453C280.864 48.2428 281.359 47.0889 282.223 46.2409C283.087 45.3929 284.249 44.919 285.46 44.9216C286.506 44.8989 287.529 45.228 288.365 45.8559C288.5 45.9795 288.583 46.1488 288.598 46.3306C288.613 46.5123 288.56 46.6932 288.449 46.8375C288.337 46.9818 288.176 47.0791 287.996 47.1102C287.816 47.1412 287.631 47.1037 287.478 47.0051C286.909 46.54 286.194 46.2917 285.46 46.3044C284.612 46.3187 283.801 46.6523 283.189 47.2387C282.6 47.8185 282.264 48.6078 282.255 49.4344C282.258 49.8426 282.342 50.2461 282.502 50.6215C282.663 50.9969 282.896 51.3365 283.189 51.6206C283.801 52.207 284.612 52.5407 285.46 52.5549C286.192 52.5648 286.905 52.3204 287.478 51.8636C287.633 51.7571 287.823 51.7125 288.01 51.7384C288.196 51.7643 288.366 51.8589 288.487 52.0037C288.597 52.1548 288.646 52.3419 288.623 52.5275C288.601 52.713 288.509 52.8831 288.365 53.0034C287.529 53.6314 286.506 53.9604 285.46 53.9377C284.256 53.9454 283.097 53.4795 282.234 52.6405C281.37 51.8015 280.871 50.6567 280.844 49.453Z" fill="#263238"/>
<path d="M290.935 53.2836V45.8652C290.935 45.6818 291.008 45.506 291.138 45.3763C291.267 45.2467 291.443 45.1738 291.627 45.1738C291.811 45.1738 291.988 45.2464 292.119 45.3757C292.25 45.5051 292.325 45.681 292.327 45.8652V52.5829H295.737C295.921 52.5877 296.095 52.6634 296.224 52.794C296.353 52.9247 296.426 53.1001 296.429 53.2836C296.426 53.4663 296.353 53.6407 296.224 53.7699C296.095 53.899 295.92 53.9726 295.737 53.975H291.627C291.535 53.9763 291.445 53.9593 291.36 53.925C291.276 53.8907 291.199 53.8398 291.135 53.7753C291.07 53.7109 291.019 53.6342 290.985 53.5497C290.951 53.4653 290.934 53.3748 290.935 53.2836V53.2836Z" fill="#263238"/>
<path d="M298.017 53.2837V45.8653C298.016 45.7741 298.033 45.6837 298.067 45.5992C298.102 45.5148 298.152 45.438 298.217 45.3736C298.281 45.3091 298.358 45.2583 298.442 45.224C298.527 45.1897 298.617 45.1726 298.709 45.1739H302.829C303.012 45.1739 303.188 45.2467 303.318 45.3764C303.447 45.5061 303.52 45.6819 303.52 45.8653C303.52 46.0495 303.448 46.2264 303.318 46.3575C303.189 46.4886 303.013 46.5636 302.829 46.566H299.419V48.8738H302.343C302.526 48.8762 302.7 48.9498 302.829 49.0789C302.958 49.2081 303.032 49.3825 303.034 49.5652C303.036 49.6567 303.019 49.7476 302.984 49.8326C302.95 49.9176 302.9 49.9949 302.835 50.0601C302.771 50.1253 302.694 50.1771 302.61 50.2124C302.525 50.2477 302.435 50.2659 302.343 50.2659H299.419V52.583H302.829C303.012 52.5878 303.187 52.6634 303.316 52.7941C303.445 52.9247 303.518 53.1002 303.52 53.2837C303.518 53.4663 303.444 53.6408 303.315 53.7699C303.186 53.8991 303.011 53.9727 302.829 53.9751H298.746C298.652 53.9802 298.558 53.9661 298.47 53.9336C298.382 53.9011 298.301 53.851 298.233 53.7863C298.164 53.7216 298.11 53.6436 298.073 53.5572C298.036 53.4708 298.017 53.3777 298.017 53.2837Z" fill="#263238"/>
<path d="M311.359 49.5839C327.429 48.9579 343.611 48.9579 359.672 49.5839C343.611 50.2099 327.429 50.2099 311.359 49.5839Z" fill="#263238"/>
<path d="M196.785 49.5839C212.845 48.9579 229.028 48.9579 245.098 49.5839C229.028 50.2099 212.845 50.2099 196.785 49.5839Z" fill="#263238"/>
<path d="M359.7 58.8989H196.785V68.9428H359.7V58.8989Z" fill="#006FE8"/>
<path d="M334.166 78.9399C342.397 78.6315 351.46 78.6315 359.691 78.9399C351.46 79.2482 342.397 79.2482 334.166 78.9399Z" fill="#263238"/>
<path d="M303.52 78.9399C310.907 78.6222 318.301 78.6222 325.701 78.9399C318.307 79.2576 310.914 79.2576 303.52 78.9399Z" fill="#263238"/>
<path d="M264.26 78.9399C274.64 78.6315 286.058 78.6315 296.429 78.9399C286.058 79.2482 274.64 79.2482 264.26 78.9399Z" fill="#263238"/>
<path d="M344.368 86.2368C349.471 85.9238 354.588 85.9238 359.691 86.2368C354.588 86.5544 349.471 86.5544 344.368 86.2368V86.2368Z" fill="#263238"/>
<path d="M313.125 86.2368C322.001 85.9378 331.811 85.9285 340.64 86.2368C331.774 86.5451 322.001 86.5451 313.125 86.2368Z" fill="#263238"/>
<path d="M264.26 86.2368C278.798 85.9378 294.794 85.9285 309.331 86.2368C294.794 86.5451 278.798 86.5451 264.26 86.2368Z" fill="#263238"/>
<path d="M311.976 93.5431C327.373 93.2348 344.303 93.2348 359.691 93.5431C344.303 93.8515 327.373 93.8515 311.976 93.5431Z" fill="#263238"/>
<path d="M264.26 93.5431C277.341 93.2348 291.701 93.2348 304.763 93.5431C291.682 93.8515 277.322 93.8515 264.26 93.5431Z" fill="#263238"/>
<path d="M328.111 100.84C338.295 100.541 349.507 100.532 359.691 100.84C349.507 101.148 338.295 101.148 328.111 100.84Z" fill="#263238"/>
<path d="M292.794 100.84C302.446 100.541 313.078 100.532 322.692 100.84C313.041 101.148 302.408 101.148 292.794 100.84Z" fill="#263238"/>
<path d="M264.26 100.84C271.996 100.541 280.508 100.532 288.244 100.84C280.508 101.148 271.996 101.148 264.26 100.84Z" fill="#263238"/>
<path d="M264.26 108.146C285.011 107.838 307.837 107.838 328.588 108.146C307.837 108.455 285.011 108.445 264.26 108.146V108.146Z" fill="#263238"/>
<path d="M339.818 122.778C346.445 122.46 353.07 122.46 359.691 122.778C353.063 123.095 346.439 123.095 339.818 122.778Z" fill="#263238"/>
<path d="M300.979 122.778C311.397 122.469 322.87 122.469 333.287 122.778C322.87 123.086 311.397 123.077 300.979 122.778Z" fill="#263238"/>
<path d="M264.26 122.778C274.239 122.469 285.207 122.469 295.177 122.778C285.207 123.086 274.239 123.077 264.26 122.778V122.778Z" fill="#263238"/>
<path d="M317.133 130.047C330.867 129.738 345.966 129.738 359.691 130.047C345.966 130.355 330.867 130.355 317.133 130.047Z" fill="#263238"/>
<path d="M284.507 130.047C293.373 129.738 303.118 129.738 311.976 130.047C303.118 130.355 293.373 130.355 284.507 130.047Z" fill="#263238"/>
<path d="M264.26 130.047C269.902 129.734 275.557 129.734 281.199 130.047C275.557 130.364 269.902 130.364 264.26 130.047V130.047Z" fill="#263238"/>
<path d="M337.333 137.353C344.807 137.035 352.26 137.035 359.691 137.353C352.217 137.671 344.764 137.671 337.333 137.353Z" fill="#263238"/>
<path d="M304.763 137.353C313.461 137.045 323.038 137.045 331.736 137.353C323.038 137.661 313.461 137.652 304.763 137.353Z" fill="#263238"/>
<path d="M264.26 137.353C275.939 137.045 288.786 137.045 300.465 137.353C288.786 137.661 275.939 137.652 264.26 137.353Z" fill="#263238"/>
<path d="M324.178 144.65C335.632 144.342 348.236 144.342 359.682 144.65C348.227 144.958 335.623 144.958 324.178 144.65Z" fill="#263238"/>
<path d="M294.037 144.65C302.156 144.342 311.088 144.342 319.207 144.65C311.088 144.958 302.156 144.958 294.037 144.65Z" fill="#263238"/>
<path d="M255.721 144.65C267.082 144.342 279.574 144.342 290.935 144.65C279.574 144.958 267.082 144.958 255.721 144.65Z" fill="#263238"/>
<path d="M230.448 144.65C237.144 144.332 243.843 144.332 250.545 144.65C243.843 144.968 237.144 144.968 230.448 144.65Z" fill="#263238"/>
<path d="M196.943 144.65C206.483 144.342 216.975 144.342 226.514 144.65C216.975 144.958 206.483 144.958 196.943 144.65Z" fill="#263238"/>
<path d="M277.724 151.956C292.121 151.648 307.958 151.648 322.356 151.956C307.958 152.265 292.121 152.255 277.724 151.956Z" fill="#263238"/>
<path d="M245.883 151.956C255.338 151.648 265.737 151.648 275.192 151.956C265.737 152.265 255.338 152.255 245.883 151.956Z" fill="#263238"/>
<path d="M221.235 151.956C228.616 151.639 236.004 151.639 243.397 151.956C236.01 152.268 228.623 152.268 221.235 151.956V151.956Z" fill="#263238"/>
<path d="M196.943 151.956C203.932 151.639 210.924 151.639 217.919 151.956C210.93 152.268 203.938 152.268 196.943 151.956Z" fill="#263238"/>
<path d="M337.333 166.56C344.807 166.242 352.26 166.242 359.691 166.56C352.217 166.865 344.764 166.865 337.333 166.56Z" fill="#263238"/>
<path d="M309.332 166.559C317.339 166.251 326.149 166.251 334.166 166.559C326.158 166.868 317.348 166.858 309.332 166.559Z" fill="#263238"/>
<path d="M279.723 166.559C287.796 166.251 296.681 166.251 304.763 166.559C296.681 166.868 287.796 166.858 279.723 166.559Z" fill="#263238"/>
<path d="M261.729 166.559C266.21 166.232 270.71 166.232 275.192 166.559C270.71 166.877 266.211 166.877 261.729 166.559Z" fill="#263238"/>
<path d="M231.7 166.559C239.931 166.251 248.994 166.251 257.225 166.559C248.994 166.868 239.931 166.858 231.7 166.559Z" fill="#263238"/>
<path d="M196.943 166.559C206.969 166.251 217.993 166.251 228.019 166.559C217.993 166.868 206.969 166.858 196.943 166.559Z" fill="#263238"/>
<path d="M324.178 173.856C335.632 173.548 348.236 173.548 359.682 173.856C348.227 174.165 335.623 174.165 324.178 173.856Z" fill="#263238"/>
<path d="M298.279 173.856C305.691 173.539 313.094 173.539 320.487 173.856C313.088 174.174 305.685 174.174 298.279 173.856Z" fill="#263238"/>
<path d="M270.735 173.856C278.509 173.539 286.276 173.539 294.037 173.856C286.276 174.174 278.509 174.174 270.735 173.856Z" fill="#263238"/>
<path d="M222.272 173.856C236.399 173.548 251.946 173.548 266.073 173.856C251.946 174.165 236.399 174.165 222.272 173.856Z" fill="#263238"/>
<path d="M196.943 173.856C203.932 173.539 210.924 173.539 217.919 173.856C210.93 174.174 203.938 174.174 196.943 173.856Z" fill="#263238"/>
<path d="M251.628 181.153C264.307 180.854 278.256 180.845 290.935 181.153C278.256 181.462 264.307 181.462 251.628 181.153Z" fill="#263238"/>
<path d="M230.448 181.153C236.261 180.845 242.087 180.845 247.901 181.153C242.087 181.471 236.261 181.471 230.448 181.153Z" fill="#263238"/>
<path d="M196.943 181.153C206.286 180.854 216.564 180.845 225.842 181.153C216.498 181.462 206.221 181.462 196.943 181.153Z" fill="#263238"/>
<path d="M246.499 188.46C254.964 188.151 264.251 188.151 272.734 188.46C264.27 188.768 254.983 188.768 246.499 188.46Z" fill="#263238"/>
<path d="M219.628 188.46C227.346 188.142 235.06 188.142 242.771 188.46C235.066 188.777 227.352 188.777 219.628 188.46Z" fill="#263238"/>
<path d="M196.943 188.46C203.421 188.142 209.896 188.142 216.368 188.46C209.89 188.777 203.415 188.777 196.943 188.46Z" fill="#263238"/>
<path d="M257.225 203.063C268.091 202.755 280.06 202.755 290.935 203.063C280.06 203.371 268.091 203.371 257.225 203.063Z" fill="#263238"/>
<path d="M228.635 203.063C236.605 202.755 245.369 202.755 253.329 203.063C245.369 203.371 236.605 203.371 228.635 203.063Z" fill="#263238"/>
<path d="M196.943 203.063C205.866 202.755 215.63 202.755 224.599 203.063C215.676 203.371 205.866 203.371 196.943 203.063Z" fill="#263238"/>
<path d="M271.277 210.36C277.836 210.049 284.376 210.049 290.898 210.36C284.351 210.678 277.811 210.678 271.277 210.36Z" fill="#263238"/>
<path d="M243.397 210.36C250.956 210.061 259.281 210.052 266.858 210.36C259.29 210.668 250.975 210.668 243.397 210.36Z" fill="#263238"/>
<path d="M216.368 210.36C223.961 210.049 231.563 210.049 239.174 210.36C231.569 210.678 223.967 210.678 216.368 210.36Z" fill="#263238"/>
<path d="M196.943 210.36C202.118 210.047 207.306 210.047 212.481 210.36C207.307 210.678 202.118 210.678 196.943 210.36V210.36Z" fill="#263238"/>
<path d="M253.329 217.666C265.475 217.358 278.808 217.358 290.935 217.666C278.789 217.975 265.456 217.975 253.329 217.666Z" fill="#263238"/>
<path d="M227.766 217.666C234.898 217.349 242.024 217.349 249.143 217.666C242.024 217.984 234.898 217.984 227.766 217.666Z" fill="#263238"/>
<path d="M196.943 217.666C205.614 217.358 215.153 217.358 223.823 217.666C215.153 217.975 205.614 217.975 196.943 217.666Z" fill="#263238"/>
<path d="M196.943 224.963C213.378 224.664 231.457 224.655 247.901 224.963C231.466 225.272 213.378 225.272 196.943 224.963Z" fill="#263238"/>
<path d="M310.817 239.566C326.588 239.268 343.929 239.258 359.691 239.566C343.929 239.875 326.588 239.875 310.817 239.566Z" fill="#263238"/>
<path d="M281.199 239.566C289.608 239.268 298.848 239.258 307.248 239.566C298.839 239.875 289.599 239.875 281.199 239.566Z" fill="#263238"/>
<path d="M264.26 239.567C268.742 239.247 273.242 239.247 277.724 239.567C273.257 239.889 268.773 239.889 264.307 239.567H264.26Z" fill="#263238"/>
<path d="M228.635 239.566C238.913 239.268 250.246 239.258 260.533 239.566C250.255 239.875 238.922 239.875 228.635 239.566Z" fill="#263238"/>
<path d="M196.943 239.566C205.866 239.268 215.63 239.258 224.599 239.566C215.676 239.875 205.866 239.875 196.943 239.566Z" fill="#263238"/>
<path d="M325.112 246.873C336.268 246.565 348.535 246.565 359.682 246.873C348.526 247.181 336.259 247.172 325.112 246.873Z" fill="#263238"/>
<path d="M296.952 246.873C304.529 246.565 312.835 246.565 320.45 246.873C312.873 247.181 304.567 247.172 296.952 246.873Z" fill="#263238"/>
<path d="M272.118 246.873C279.213 246.555 286.307 246.555 293.402 246.873C286.301 247.191 279.206 247.191 272.118 246.873Z" fill="#263238"/>
<path d="M239.174 246.873C248.62 246.565 259.019 246.565 268.456 246.873C259.019 247.181 248.62 247.172 239.174 246.873Z" fill="#263238"/>
<path d="M215.695 246.873C222.353 246.555 229.015 246.555 235.68 246.873C229.021 247.191 222.36 247.191 215.695 246.873Z" fill="#263238"/>
<path d="M196.943 246.873C201.865 246.555 206.802 246.555 211.724 246.873C206.802 247.186 201.865 247.186 196.943 246.873V246.873Z" fill="#263238"/>
<path d="M279.723 254.17C288.394 253.862 297.952 253.862 306.622 254.17C297.952 254.478 288.394 254.478 279.723 254.17Z" fill="#263238"/>
<path d="M255.123 254.17C261.813 253.858 268.502 253.858 275.192 254.17C268.502 254.488 261.813 254.488 255.123 254.17Z" fill="#263238"/>
<path d="M227.766 254.17C235.465 253.862 243.939 253.862 251.628 254.17C243.939 254.478 235.465 254.478 227.766 254.17Z" fill="#263238"/>
<path d="M196.943 254.17C205.352 253.862 214.63 253.862 223.048 254.17C214.639 254.478 205.361 254.478 196.943 254.17Z" fill="#263238"/>
<path d="M196.785 137.344H256.244V77.8841H196.785V137.344Z" fill="#EBEBEB"/>
<path d="M199.7 134.438H253.338V80.7991H199.7V134.438Z" fill="#006FE8"/>
<path opacity="0.1" d="M208.333 93.5992C208.119 94.665 208.254 95.7712 208.718 96.7543C209.182 97.7374 209.949 98.5451 210.908 99.0582C211.866 99.5712 212.964 99.7623 214.039 99.6031C215.114 99.444 216.11 98.9431 216.879 98.1745C217.647 97.4059 218.148 96.4104 218.307 95.3351C218.466 94.2599 218.275 93.1619 217.762 92.2037C217.249 91.2454 216.441 90.4776 215.458 90.0138C214.475 89.5501 213.369 89.4149 212.303 89.6284C211.324 89.8247 210.424 90.3064 209.717 91.013C209.01 91.7196 208.529 92.6194 208.333 93.5992V93.5992Z" fill="black"/>
<path opacity="0.1" d="M214.564 120.517H253.329L233.951 98.7847L214.564 120.517Z" fill="black"/>
<path d="M199.69 120.517H231.7L215.695 106.362L199.69 120.517Z" fill="#006FE8"/>
<g opacity="0.2">
<path opacity="0.2" d="M199.69 120.517H231.7L215.695 106.362L199.69 120.517Z" fill="black"/>
</g>
<path d="M253.329 120.517H199.69V134.438H253.329V120.517Z" fill="#006FE8"/>
<path opacity="0.2" d="M253.329 120.517H199.69V134.438H253.329V120.517Z" fill="black"/>
<path d="M296.943 225.225H360.224V180.63H296.943V225.225Z" fill="#EBEBEB"/>
<path d="M299.138 223.039H358.046V182.816H299.138V223.039Z" fill="#455A64"/>
<path d="M305.613 192.412C305.454 193.21 305.556 194.038 305.904 194.774C306.252 195.509 306.828 196.114 307.545 196.497C308.263 196.881 309.085 197.023 309.89 196.904C310.695 196.785 311.44 196.41 312.016 195.834C312.591 195.259 312.966 194.513 313.086 193.708C313.205 192.903 313.062 192.081 312.679 191.364C312.295 190.646 311.691 190.071 310.955 189.723C310.22 189.375 309.392 189.273 308.593 189.431C307.858 189.579 307.183 189.941 306.652 190.471C306.122 191.001 305.76 191.677 305.613 192.412V192.412Z" fill="#37474F"/>
<path d="M310.285 212.602H358.047L334.166 196.299L310.285 212.602Z" fill="#37474F"/>
<path d="M299.129 212.602H331.736L315.433 201.989L299.129 212.602Z" fill="#263238"/>
<path d="M358.037 212.602H299.129V223.039H358.037V212.602Z" fill="#263238"/>
<path d="M183.835 154.918C188.82 154.918 192.86 150.877 192.86 145.893C192.86 140.908 188.82 136.867 183.835 136.867C178.85 136.867 174.81 140.908 174.81 145.893C174.81 150.877 178.85 154.918 183.835 154.918Z" fill="#455A64"/>
<path d="M372.641 154.918C377.625 154.918 381.666 150.877 381.666 145.893C381.666 140.908 377.625 136.867 372.641 136.867C367.656 136.867 363.615 140.908 363.615 145.893C363.615 150.877 367.656 154.918 372.641 154.918Z" fill="#455A64"/>
<path d="M371.22 143.22C371.12 143.122 371.052 142.996 371.024 142.858C370.996 142.721 371.009 142.578 371.062 142.448C371.115 142.318 371.206 142.207 371.322 142.128C371.438 142.049 371.575 142.007 371.715 142.006C371.907 142.005 372.091 142.079 372.229 142.211L375.378 145.407C375.378 145.407 375.425 145.407 375.434 145.472C375.441 145.503 375.441 145.535 375.434 145.566C375.44 145.581 375.44 145.597 375.434 145.612C375.434 145.612 375.434 145.668 375.434 145.678C375.434 145.687 375.434 145.724 375.434 145.734V145.809C375.434 145.809 375.434 145.809 375.434 145.874C375.434 145.939 375.434 145.874 375.434 145.93V146.014C375.434 146.014 375.434 146.014 375.434 146.061C375.434 146.107 375.434 146.117 375.434 146.145C375.434 146.173 375.434 146.145 375.434 146.145C375.434 146.145 375.434 146.22 375.378 146.238C375.322 146.257 375.378 146.238 375.378 146.238C375.365 146.27 375.342 146.296 375.312 146.313L372.164 149.508C372.028 149.639 371.847 149.711 371.659 149.711C371.471 149.711 371.29 149.639 371.155 149.508C371.088 149.442 371.035 149.364 370.999 149.277C370.963 149.191 370.944 149.098 370.944 149.004C370.944 148.91 370.963 148.817 370.999 148.731C371.035 148.644 371.088 148.565 371.155 148.499L373.808 145.818L371.22 143.22Z" fill="white"/>
<path d="M354.15 266.736L372.659 248.228H354.15V266.736Z" fill="#EBEBEB"/>
<path d="M105.96 228.355C114.266 275.173 133.495 331.764 142.399 341.238C153.704 353.225 227.103 374.219 230.999 374.873C240.66 376.34 266.727 316.217 256.468 314.199C240.847 311.144 184.826 300.185 181.574 296.503C178.201 292.645 155.572 261 132.457 225.318C116.546 200.624 100.803 199.288 105.96 228.355Z" fill="#D3766A"/>
<path d="M225.767 373.537C226.804 373.958 241.575 379.788 250.536 381.535C257.225 382.834 276.575 386.067 278.733 378.844C280.219 373.92 269.063 370.688 261.224 368.221C257.094 366.923 251.816 363.195 252.759 360.532C254.413 355.86 265.055 359.439 272.146 362.746C285.852 369.146 304.436 381.208 311.798 373.883C314.601 371.08 310.677 366.876 305.165 362.877C313.928 367.324 323.15 370.8 326.364 367.838C328.233 366.156 328.111 364.101 326.794 361.821C329.429 362.428 331.68 362.055 333.11 360.252C335.548 357.187 333.857 353.141 330.531 349.143C331.035 349.036 331.507 348.811 331.906 348.486C332.306 348.161 332.622 347.746 332.83 347.274C337.753 338.052 306.94 315.648 296.849 314.199C267.157 309.911 236.652 313.956 236.652 313.956C226.057 324.14 225.739 373.528 225.767 373.537Z" fill="#D3766A"/>
<path d="M266.091 342.939C273.102 343.396 279.934 345.342 286.132 348.647C293.943 352.852 299.344 358.103 306.043 363.279C306.211 363.409 306.043 363.69 305.837 363.559C302.642 361.092 289.515 351.955 286.151 349.909C280.063 346.127 273.193 343.782 266.063 343.051C265.998 343.051 266.017 342.929 266.091 342.939Z" fill="#263238"/>
<path d="M270.399 330.111C278.228 331.512 286.282 332.914 293.654 335.894C301.773 339.155 308.425 345.05 314.956 350.712C318.88 354.113 322.723 357.601 326.486 361.176C326.644 361.326 326.486 361.606 326.28 361.457C319.646 355.602 312.838 349.943 305.856 344.48C299.412 339.378 292.023 335.6 284.115 333.362C279.592 332.091 274.986 331.166 270.38 330.251C270.366 330.244 270.355 330.233 270.348 330.219C270.34 330.205 270.337 330.189 270.34 330.174C270.342 330.159 270.348 330.144 270.359 330.133C270.37 330.121 270.384 330.114 270.399 330.111V330.111Z" fill="#263238"/>
<path d="M277.583 318.591C285.142 319.45 291.738 320.17 298.671 323.552C307.846 328.036 317.039 336.146 320.272 339.033C323.841 342.21 327.298 345.508 330.708 348.862C330.849 348.993 330.615 349.236 330.465 349.105C322.693 341.787 314.457 334.978 305.809 328.719C301.734 325.68 297.215 323.288 292.411 321.627C287.609 320.057 282.554 319.375 277.583 318.647V318.591Z" fill="#263238"/>
<path d="M244.434 304.744L216.405 380.124C216.405 380.124 151.938 358.159 140.576 344.62C129.215 331.082 110.529 263.41 105.652 230.803C100.775 198.195 117.06 199.812 131.037 220.918C145.014 242.024 179.902 293.224 181.938 294.401C183.975 295.578 244.434 304.744 244.434 304.744Z" fill="#006FE8"/>
<path d="M210.734 344.817C213.901 336.408 217.134 327.999 219.984 319.478C221.609 314.629 223.254 309.78 224.833 304.922C224.889 304.735 224.58 304.604 224.506 304.781C220.993 313.097 217.489 321.45 214.359 329.933C211.229 338.417 208.052 346.751 205.016 355.253C203.303 360.074 201.746 364.942 200.344 369.856C200.342 369.877 200.347 369.897 200.357 369.915C200.368 369.932 200.384 369.946 200.403 369.953C200.422 369.961 200.444 369.962 200.463 369.956C200.483 369.95 200.5 369.938 200.512 369.922C204.334 361.718 207.548 353.291 210.734 344.817Z" fill="#263238"/>
<path opacity="0.1" d="M183.938 367.941L181.088 366.782C175.735 364.559 170.278 362.195 165.149 359.784C164.486 359.485 163.832 359.177 163.196 358.85C162.159 358.364 161.131 357.86 160.141 357.364C159.636 357.122 159.151 356.86 158.655 356.617L158.132 356.355L156.591 355.552C154.563 354.487 152.639 353.431 150.854 352.375C150.443 352.142 150.013 351.889 149.611 351.637C146.818 350.013 144.203 348.099 141.81 345.928C141.586 345.704 141.371 345.489 141.175 345.274C140.978 345.06 140.773 344.845 140.595 344.639C129.281 331.138 110.538 263.429 105.661 230.821C105.615 230.438 105.559 230.065 105.503 229.691C105.498 229.61 105.498 229.529 105.503 229.448C105.185 226.972 104.951 223.917 104.802 220.619C104.699 204.511 112.435 202.269 121.479 209.799C142.436 261.243 174.146 346.078 183.938 367.941Z" fill="black"/>
<path d="M153.461 384.917H0C6.48412 356 33.3736 247.574 80.9487 204.156L82.0045 203.222C88.909 197.093 104.493 198.466 114.705 203.521C115.414 203.943 116.046 204.484 116.574 205.118C120.648 209.622 128.047 222.16 132.158 235.016C132.88 237.242 133.489 239.503 133.98 241.79C134.083 242.229 134.186 242.724 134.288 243.35C134.391 243.799 134.475 244.285 134.578 244.855C134.709 245.63 134.849 246.48 135.008 247.415C139.128 272.323 149.639 353.627 153.461 384.917Z" fill="#006FE8"/>
<path d="M105.409 242.136L112.659 231.092L120.199 239.94L118.293 248.321L109.754 249.713L105.409 242.136Z" fill="#263238"/>
<path d="M109.754 249.713L108.903 346.246L121.404 376.266L132.738 343.78L118.293 248.321L109.754 249.713Z" fill="#263238"/>
<path d="M63.7105 230.046C40.0911 281.508 24.0677 366.848 38.699 379.825C54.9934 394.27 85.6948 333.689 84.3681 330.662C83.3591 328.373 84.0972 273.314 85.209 233.064C86.3208 192.814 69.5499 217.321 63.7105 230.046Z" fill="#D3766A"/>
<path d="M84.7327 330.587C84.4431 324.841 86.1902 251.956 85.9847 229.186C85.7791 206.417 76.9032 202.568 63.2716 228.439C49.64 254.31 29.5617 319.459 31.2901 355.935C32.9532 391.065 49.3036 388.58 65.4672 366.212C73.4248 355.234 79.9023 343.256 84.7327 330.587V330.587Z" fill="#006FE8"/>
<path d="M84.5553 339.996C83.6771 312.751 84.082 285.504 85.7699 258.253C86.6544 285.497 86.2496 312.745 84.5553 339.996Z" fill="#263238"/>
<path d="M85.8164 274.071C86.2614 270.508 87.0627 266.999 88.2082 263.597C87.9998 267.197 87.1914 270.737 85.8164 274.071Z" fill="#263238"/>
<path d="M42.8196 380.554C56.1335 389.794 84.032 384.74 147.462 374.462C156.236 373.033 158.674 306.884 149.21 307.921C137.306 309.229 91.4038 316.871 88.1243 317.862C60.3846 326.149 33.7848 374.285 42.8196 380.554Z" fill="#D3766A"/>
<path d="M161.112 304.034C179.556 300.502 184.834 302.427 198.812 291.187C207.996 283.806 216.648 286.516 211.761 297.727C203.782 316.105 180.929 325.654 172.072 326.691L161.112 304.034Z" fill="#D3766A"/>
<path d="M120.61 319.796C120.61 319.796 132.962 311.723 152.246 306.015C165.579 302.072 195.551 296.718 225.916 325.019C233.12 331.727 238.623 346.405 222.88 339.715C211.668 334.96 206.062 328.569 199.027 326.99C199.027 326.99 203.82 346.489 196.813 353.44C190.683 359.522 184.126 365.158 177.192 370.305C175.958 369.254 174.794 368.124 173.707 366.923C173.707 366.923 167.307 374.238 146.238 374.677L120.61 319.796Z" fill="#D3766A"/>
<path d="M165.607 304.286C172.231 307.323 186.161 313.994 195.673 323.421C206.221 333.895 223.702 356.897 215.919 364.615C210.192 370.267 202.736 362.064 202.736 362.064C202.736 362.064 207.968 373.108 201.68 377.078C195.953 380.704 190.562 374.014 190.562 374.014C190.562 374.014 192.58 381.255 186.395 383.684C178.921 386.599 175.931 370.949 165.84 367.38C163.523 366.633 165.607 304.286 165.607 304.286Z" fill="#D3766A"/>
<path d="M182.714 332.727C188.469 336.604 199.298 348.778 202.783 361.774C202.867 362.064 202.68 362.279 202.558 362.027C197.116 351.522 190.418 341.718 182.611 332.829C182.555 332.764 182.648 332.68 182.714 332.727Z" fill="#263238"/>
<path d="M172.455 343.686C177.08 347.545 187.684 360.588 190.758 373.874C190.823 374.173 190.637 374.378 190.515 374.117C185.623 363.352 179.53 353.176 172.352 343.78C172.296 343.714 172.39 343.639 172.455 343.686Z" fill="#263238"/>
<path d="M199.027 326.869C205.165 328.345 209.304 331.11 214.546 334.399C217.144 336.064 219.832 337.583 222.599 338.949C225.131 340.154 228.869 341.986 231.391 339.762C232.793 338.529 232.662 336.408 232.251 334.764C231.392 332.343 230.152 330.076 228.579 328.046C228.513 327.962 228.644 327.859 228.71 327.934C230.227 329.778 231.551 331.772 232.662 333.885C233.384 335.329 233.657 336.956 233.447 338.557C232.727 341.948 228.775 342.584 225.972 341.808C224.278 341.286 222.641 340.594 221.086 339.743C219.572 338.977 218.105 338.136 216.657 337.258C213.677 335.464 210.808 333.521 207.856 331.652C204.983 329.927 202.003 328.389 198.933 327.046C198.83 327.018 198.905 326.841 199.027 326.869Z" fill="#263238"/>
<path d="M212.78 347.526C211.042 344.153 201.83 330.204 198.906 327.018C198.889 327.002 198.88 326.98 198.88 326.957C198.88 326.935 198.889 326.913 198.906 326.897C198.922 326.881 198.943 326.871 198.966 326.871C198.989 326.871 199.011 326.881 199.027 326.897C203.979 331.129 212.163 342.621 214.116 346.34C216.069 350.058 218.311 354.748 218.526 358.915C218.853 365.241 214.714 366.652 213.182 367.035C211.356 367.459 209.44 367.245 207.753 366.427C205.771 365.347 204.032 363.871 202.643 362.092C202.568 362.008 202.643 361.887 202.755 361.961C205.072 364.344 208.847 366.633 212.257 365.998C213.012 365.884 213.737 365.622 214.39 365.226C215.043 364.83 215.61 364.307 216.059 363.69C216.92 362.12 217.189 360.293 216.816 358.542C216.284 354.636 214.574 350.992 212.78 347.526Z" fill="#263238"/>
<path d="M138.344 306.781L108.614 383.927C108.614 383.927 52.4337 391.401 39.6429 380.956C31.2341 374.079 56.3297 323.841 87.5824 316.694L138.344 306.781Z" fill="#006FE8"/>
<path d="M55.7785 339.538C59.2354 334.25 69.6249 321.029 87.6291 316.638C87.7879 316.638 87.8814 316.843 87.7225 316.899C74.6422 321.468 59.7399 334.904 55.956 339.706C55.8719 339.827 55.685 339.659 55.7785 339.538Z" fill="#263238"/>
<path d="M90.8619 379.713C93.6648 371.052 96.9442 362.559 100.205 354.066C103.466 345.573 106.745 337.071 110.286 328.653C112.276 323.897 114.229 319.132 116.378 314.452C116.388 314.421 116.41 314.395 116.439 314.38C116.467 314.365 116.501 314.362 116.532 314.372C116.563 314.382 116.589 314.404 116.604 314.433C116.619 314.462 116.621 314.495 116.611 314.526C113.809 323.169 110.566 331.69 107.334 340.192C104.101 348.694 100.794 357.196 97.346 365.652C95.4213 370.426 93.4032 375.172 91.2543 379.853C91.1795 380.059 90.7684 379.937 90.8619 379.713Z" fill="#263238"/>
<path d="M138.147 305.996C134.615 306.258 131.103 306.754 127.636 307.482C124.142 308.117 120.666 308.808 117.191 309.528C110.286 310.967 95.4961 313.218 83.4902 317.834C83.3594 317.88 84.2843 318.273 84.4245 318.208C90.0303 315.722 134.13 308.257 137.596 307.211C137.538 307.481 137.504 307.756 137.493 308.033C137.493 308.22 137.736 308.379 137.867 308.192C138.175 307.743 138.344 307.257 138.624 306.809C138.679 306.727 138.709 306.632 138.712 306.533C138.715 306.435 138.69 306.338 138.641 306.253C138.591 306.168 138.518 306.099 138.431 306.054C138.344 306.008 138.245 305.988 138.147 305.996V305.996Z" fill="#263238"/>
<path d="M50.6212 385.375C39.6804 383.591 34.822 379.573 32.2246 368.623C28.9078 354.048 30.9072 338.921 33.0748 324.337C37.0643 300.979 43.455 278.182 50.6679 255.674C48.1172 265.951 44.4267 279.91 42.0722 290.029C37.0924 312.452 25.9741 355.888 36.2048 376.555C39.2132 382.254 44.7724 383.88 50.6212 385.375Z" fill="#263238"/>
<path d="M47.519 257.758C47.1079 261.373 46.4819 264.849 46.865 268.483C45.5009 265.064 46.1642 261.084 47.519 257.758Z" fill="#263238"/>
<path d="M112.93 230.98C103.811 231.774 90.6653 216.087 86.3021 204.296C86.0031 203.483 88.3109 195.766 90.6653 186.255C92.0761 180.481 93.515 174.015 94.4026 168.026C94.5801 166.793 130.644 182.686 130.644 182.686C130.644 182.686 125.104 194.701 123.637 205.165C123.525 205.992 123.491 206.827 123.534 207.66C123.534 207.772 123.534 207.912 123.534 208.071C123.562 212.855 121.741 230.223 112.93 230.98Z" fill="#D3766A"/>
<path d="M96.6826 168.559C96.9349 178.948 99.635 204.352 119.629 207.753C120.909 207.986 122.206 208.108 123.507 208.118C123.525 207.978 123.525 207.837 123.507 207.697C123.474 206.865 123.505 206.031 123.6 205.203C125.086 194.729 130.635 182.714 130.635 182.714C130.635 182.714 104.615 171.212 96.6826 168.559Z" fill="#263238"/>
<path d="M100.102 120.909C93.02 133.055 91.0486 172.595 98.3923 183.237C109.043 198.653 130.906 205.025 145.108 191.207C158.898 177.818 160.552 126.281 151.938 116.163C139.259 101.214 110.557 102.886 100.102 120.909Z" fill="#D3766A"/>
<path d="M131.972 153.872C131.972 153.769 131.757 153.993 131.757 154.105C131.757 156.768 131.233 159.814 128.786 160.589C128.711 160.589 128.711 160.748 128.786 160.739C131.766 160.459 132.373 156.413 131.972 153.872Z" fill="#263238"/>
<path d="M129.729 150.985C125.459 150.471 124.74 159.038 128.692 159.524C132.644 160.01 133.307 151.424 129.729 150.985Z" fill="#263238"/>
<path d="M146.836 155.208C146.836 155.105 147.032 155.348 147.023 155.46C146.715 158.104 146.808 161.187 149.135 162.271C149.209 162.271 149.191 162.439 149.135 162.421C146.201 161.757 146.117 157.665 146.836 155.208Z" fill="#263238"/>
<path d="M149.443 152.676C153.741 152.676 153.348 161.309 149.368 161.271C145.388 161.234 145.836 152.601 149.443 152.676Z" fill="#263238"/>
<path d="M126.907 145.313C128.078 145.184 129.241 144.994 130.392 144.743C131.728 144.51 132.812 144.463 133.84 143.482C134.1 143.176 134.251 142.793 134.269 142.392C134.288 141.992 134.173 141.596 133.943 141.268C132.868 139.913 131.14 139.792 129.542 140.006C127.904 140.168 126.385 140.934 125.282 142.155C124.104 143.398 125.319 145.416 126.907 145.313Z" fill="#263238"/>
<path d="M154.227 148.238C153.074 147.988 151.936 147.676 150.817 147.303C149.518 146.92 148.443 146.752 147.537 145.668C147.321 145.333 147.218 144.937 147.243 144.538C147.268 144.14 147.42 143.76 147.677 143.454C148.892 142.23 150.602 142.295 152.19 142.688C153.799 143.033 155.224 143.962 156.189 145.295C156.39 145.611 156.495 145.978 156.49 146.353C156.486 146.728 156.374 147.093 156.166 147.405C155.958 147.716 155.664 147.961 155.32 148.109C154.976 148.257 154.596 148.302 154.227 148.238V148.238Z" fill="#263238"/>
<path d="M124.385 177.314C124.917 178.024 125.422 178.967 126.366 179.182C127.349 179.31 128.348 179.23 129.299 178.949C129.318 178.944 129.338 178.946 129.356 178.954C129.374 178.961 129.389 178.974 129.399 178.99C129.409 179.007 129.414 179.026 129.413 179.045C129.412 179.064 129.405 179.083 129.393 179.098C128.939 179.561 128.369 179.892 127.742 180.056C127.115 180.221 126.455 180.213 125.833 180.032C125.312 179.816 124.869 179.449 124.561 178.977C124.252 178.505 124.093 177.952 124.105 177.388C124.095 177.229 124.301 177.211 124.385 177.314Z" fill="#263238"/>
<path d="M128.337 169.839C128.85 170.982 129.594 172.007 130.521 172.85C131.449 173.692 132.541 174.334 133.728 174.735C134.761 175.097 135.84 175.311 136.933 175.37C137.141 175.384 137.35 175.384 137.559 175.37H138.147C138.292 175.364 138.431 175.31 138.542 175.217C138.653 175.124 138.731 174.997 138.764 174.856C138.777 174.766 138.777 174.675 138.764 174.585V174.585V174.352C139.119 172.334 139.39 169.213 139.39 169.213C140.072 169.699 143.594 171.969 143.697 170.895C144.491 162.047 145.379 152.208 144.304 143.22C144.293 143.163 144.262 143.111 144.217 143.074C144.172 143.037 144.115 143.016 144.057 143.016C143.998 143.016 143.942 143.037 143.896 143.074C143.851 143.111 143.82 143.163 143.809 143.22C142.707 151.704 143.108 160.318 142.137 168.849C140.997 168.213 139.156 167.064 138.091 166.933C137.792 166.933 137.68 172.96 137.446 173.856C137.453 173.887 137.453 173.919 137.446 173.95C133.971 173.866 131.56 172.455 128.589 169.671C128.449 169.493 128.234 169.605 128.337 169.839Z" fill="#263238"/>
<path d="M135.886 174.165C134.557 175.447 132.919 176.365 131.13 176.828C130.15 177.046 129.126 176.958 128.197 176.575C126.169 175.697 126.412 173.772 127.047 172.165C127.391 171.322 127.833 170.522 128.365 169.783C130.343 172.005 132.977 173.54 135.886 174.165V174.165Z" fill="#263238"/>
<path d="M131.13 176.818C130.15 177.037 129.126 176.949 128.197 176.566C126.169 175.688 126.412 173.763 127.047 172.156C129.262 172.726 131.27 174.595 131.13 176.818Z" fill="#FF98B9"/>
<path d="M93.1229 150.106C98.4111 152.489 104.503 145.07 106.446 141.847C108.39 138.624 109.483 122.881 112.986 118.134C116.49 113.388 122.638 111.398 127.001 113.463C131.364 115.527 136.297 122.367 139.689 122.572C143.08 122.778 145.005 115.649 147.341 116.032C152.47 116.817 157.17 133.56 157.235 139.324C157.235 139.324 162.103 111.856 135.606 106.035C111.8 100.803 100.934 113.509 97.7384 120.433C91.5439 133.616 93.1229 150.106 93.1229 150.106Z" fill="#263238"/>
<path d="M124.273 167.064C122.135 166.681 120.147 165.705 118.536 164.248C116.925 162.79 115.755 160.91 115.16 158.821C114.565 156.732 114.568 154.517 115.17 152.43C115.771 150.342 116.946 148.466 118.562 147.013C120.177 145.561 122.168 144.591 124.307 144.214C126.446 143.837 128.649 144.068 130.663 144.881C132.678 145.694 134.423 147.056 135.702 148.812C136.98 150.569 137.74 152.648 137.895 154.815V154.815C138.111 157.883 137.101 160.912 135.087 163.236C133.072 165.561 130.218 166.991 127.151 167.214C126.189 167.287 125.222 167.237 124.273 167.064V167.064ZM128.104 145.743C127.28 145.601 126.443 145.557 125.609 145.612C123.06 145.797 120.678 146.946 118.946 148.826C117.215 150.706 116.266 153.174 116.291 155.73C116.316 158.285 117.315 160.735 119.083 162.58C120.851 164.425 123.256 165.526 125.808 165.66C128.36 165.794 130.867 164.95 132.819 163.3C134.77 161.65 136.02 159.318 136.312 156.78C136.605 154.241 135.919 151.686 134.393 149.636C132.868 147.585 130.619 146.193 128.104 145.743V145.743Z" fill="#EBEBEB"/>
<path d="M150.854 168.559C146.491 167.774 143.323 162.579 143.697 156.534C143.825 153.645 144.854 150.868 146.64 148.593C147.346 147.567 148.306 146.742 149.426 146.196C150.545 145.651 151.787 145.405 153.03 145.481C154.273 145.557 155.475 145.953 156.519 146.631C157.564 147.309 158.416 148.245 158.992 149.35C160.485 151.826 161.168 154.707 160.944 157.59C160.552 163.981 156.366 168.933 151.601 168.643C151.351 168.629 151.101 168.601 150.854 168.559V168.559ZM153.517 147.07C153.322 147.031 153.126 147.006 152.928 146.995C151.938 146.981 150.959 147.204 150.073 147.646C149.187 148.089 148.42 148.737 147.836 149.536C146.258 151.561 145.35 154.026 145.239 156.59C144.902 162.131 147.789 166.821 151.704 167.064C155.619 167.307 159.057 162.991 159.393 157.459C159.603 154.902 159.005 152.343 157.684 150.144C157.243 149.368 156.644 148.694 155.926 148.164C155.209 147.635 154.388 147.262 153.517 147.07Z" fill="#EBEBEB"/>
<path d="M137.428 156.133L136.494 154.881C138.362 153.517 142.52 151.779 145.164 154.983L143.968 155.964C141.614 153.096 137.577 156.011 137.428 156.133Z" fill="#EBEBEB"/>
<path d="M88.4327 156.628L87.106 155.834C87.4703 155.208 90.8432 149.751 94.3188 149.396C97.5796 149.079 115.425 151.629 116.303 151.769L116.06 153.302C110.146 152.367 96.991 150.695 94.4683 150.947C92.1699 151.171 89.3296 155.124 88.4327 156.628Z" fill="#EBEBEB"/>
<path d="M100.952 153.61C100.952 153.61 94.9728 139.465 88.7316 141.342C82.4904 143.22 85.1532 162.439 91.1889 166.279C91.9288 166.825 92.7714 167.215 93.6659 167.426C94.5605 167.638 95.4885 167.666 96.3944 167.51C97.3002 167.354 98.1652 167.016 98.9372 166.517C99.7092 166.018 100.372 165.369 100.887 164.607L100.952 153.61Z" fill="#D3766A"/>
<path d="M89.6284 146.874C89.5256 146.874 89.4789 146.976 89.563 147.042C93.758 149.845 95.2716 154.666 96.0191 159.44C95.01 157.45 93.3563 156.123 90.7215 157.263C90.5907 157.319 90.6655 157.534 90.7963 157.534C91.6596 157.449 92.5279 157.634 93.2823 158.062C94.0367 158.49 94.6402 159.141 95.01 159.926C95.6164 161.242 96.077 162.621 96.3835 164.037C96.5143 164.495 97.3178 164.439 97.2524 163.934C97.2479 163.894 97.2479 163.853 97.2524 163.813C98.5978 157.982 95.7948 148.808 89.6284 146.874Z" fill="#263238"/>
<path d="M123.563 206.95L112.136 226.411L87.9093 196.999L80.8179 206.081C80.8179 206.081 102.027 248.471 102.363 246.677L112.584 230.42L123.712 243.547L125.674 213.574L123.563 206.95Z" fill="#006FE8"/>
<path d="M125.553 228.785C125.702 223.823 126.001 218.834 125.908 213.836C125.908 213.658 125.628 213.555 125.572 213.752C124.067 218.423 123.6 237.38 123.133 241.893L123.077 241.837C122.619 241.276 112.706 230.233 112.585 230.382C110.464 232.914 102.971 244.752 102.438 245.845C99.0838 239.109 84.6861 212.453 80.5564 205.997C80.435 205.81 80.1453 205.922 80.2294 206.137C83.0884 213.182 101.634 248.302 101.952 248.246C102.148 248.424 111.445 233.858 112.659 231.055C114.285 233.4 124.179 245.733 124.282 245.004C125.003 239.625 125.427 234.21 125.553 228.785Z" fill="#263238"/>
<path d="M260.981 379.19H112.799V385.17H260.981V379.19Z" fill="#455A64"/>
<path d="M194.794 379.19H112.799V385.17H194.794V379.19Z" fill="#A6A6A6"/>
<path d="M192.309 385.16H322.178L340.537 296.952H210.659L192.309 385.16Z" fill="#A6A6A6"/>
<path d="M198.195 385.16H328.074L346.424 296.952H216.545L198.195 385.16Z" fill="#C7C7C7"/>
<path d="M263.653 343.032C263.507 344.126 263.6 345.238 263.924 346.293C264.249 347.347 264.798 348.319 265.534 349.141C266.27 349.963 267.176 350.616 268.188 351.055C269.2 351.494 270.295 351.708 271.399 351.684C273.767 351.632 276.037 350.729 277.794 349.14C279.551 347.551 280.677 345.383 280.966 343.032C281.112 341.938 281.019 340.825 280.694 339.77C280.37 338.715 279.821 337.743 279.085 336.921C278.349 336.098 277.444 335.444 276.432 335.004C275.419 334.564 274.324 334.348 273.22 334.371C270.851 334.423 268.579 335.328 266.822 336.918C265.065 338.509 263.94 340.679 263.653 343.032Z" fill="#EBEBEB"/>
<path d="M11.903 94.272C12.5969 100.944 15.1318 107.292 19.2247 112.607C23.3175 117.922 28.8073 121.995 35.0808 124.37C41.3544 126.746 48.1647 127.33 54.7514 126.059C61.3381 124.788 67.4418 121.711 72.3809 117.172L90.4879 119.835L81.425 104.176C83.4999 99.0803 84.386 93.579 84.0159 88.0899C83.6458 82.6007 82.0293 77.2682 79.2892 72.4975C76.5491 67.7268 72.7575 63.6436 68.2026 60.558C63.6477 57.4725 58.4493 55.4659 53.0026 54.6907C47.5559 53.9155 42.0041 54.3922 36.7693 56.0844C31.5344 57.7767 26.7542 60.64 22.7919 64.4568C18.8296 68.2736 15.7895 72.9435 13.9027 78.1114C12.0159 83.2793 11.332 88.8094 11.903 94.2813V94.272Z" fill="white"/>
<path d="M22.7411 64.3834C26.6815 60.4885 31.4663 57.5538 36.7242 55.8071C41.9821 54.0604 47.5718 53.5487 53.0595 54.3115C58.5859 55.0351 63.8726 57.0168 68.513 60.1042C75.5371 64.7984 80.7239 71.7749 83.196 79.8533C85.668 87.9318 85.2735 96.6162 82.0792 104.437V103.811L91.0859 119.498L91.7493 120.657L90.4412 120.461L72.353 117.658L72.7734 117.527C67.7455 122.082 61.5457 125.143 54.872 126.366C53.2196 126.675 51.5448 126.85 49.8641 126.889C48.1885 126.979 46.5086 126.948 44.8375 126.795C38.1353 126.139 31.7424 123.654 26.3569 119.61C25.0179 118.612 23.7417 117.533 22.5355 116.378C21.3718 115.196 20.2768 113.948 19.2561 112.641C13.8432 105.559 11.2134 96.74 11.8642 87.8508C12.515 78.9616 16.4013 70.6193 22.7878 64.4021L22.7411 64.3834ZM19.3215 112.5C20.3545 113.814 21.4685 115.062 22.657 116.238C23.835 117.388 25.0832 118.465 26.3942 119.461C29.0596 121.441 32.0035 123.015 35.13 124.133C38.2358 125.288 41.4873 126.004 44.7908 126.263C46.4395 126.375 48.094 126.375 49.7427 126.263C51.3942 126.195 53.0376 125.995 54.6571 125.665C61.1527 124.358 67.1547 121.264 71.9886 116.733L72.1661 116.565H72.4184L90.544 119.106L89.89 120.04L80.7805 104.419L80.6123 104.12L80.7431 103.802C82.7527 98.7993 83.6209 93.4114 83.2844 88.0308C82.9245 82.6816 81.3628 77.4824 78.7156 72.8202C76.0102 68.1387 72.3145 64.1049 67.887 61.0012C63.4209 57.916 58.3069 55.896 52.938 55.0963C45.8442 53.9982 38.584 55.0589 32.1009 58.1408C25.6178 61.2226 20.2114 66.183 16.5842 72.3775C12.957 78.5719 11.2766 85.7142 11.7614 92.8761C12.2462 100.038 14.8739 106.889 19.3028 112.538L19.3215 112.5Z" fill="#263238"/>
<path d="M43.4267 110.949L27.9639 95.2997L33.1586 90.1703L42.1934 99.3079L60.9544 69.8958L67.1115 73.8199L43.4267 110.949Z" fill="#006FE8"/>
</svg>
