<svg width="349" height="261" viewBox="0 0 349 261" fill="none" xmlns="http://www.w3.org/2000/svg">
<path d="M348.202 228.69H0.0488281V228.865H348.202V228.69Z" fill="#E6E6E6"/>
<path d="M263.016 236.064H239.063V236.238H263.016V236.064Z" fill="#E6E6E6"/>
<path d="M77.3667 236.148H63.8862V236.322H77.3667V236.148Z" fill="#E6E6E6"/>
<path d="M174.822 235.744H147.499V235.918H174.822V235.744Z" fill="#E6E6E6"/>
<path d="M146.802 233.265H134.589V233.439H146.802V233.265Z" fill="#E6E6E6"/>
<path d="M295.673 233.349H258.776V233.523H295.673V233.349Z" fill="#E6E6E6"/>
<path d="M165.073 197.635H30.6232C29.57 197.633 28.5605 197.214 27.8164 196.468C27.0722 195.723 26.6543 194.712 26.6543 193.659V4.6607C26.6635 3.61347 27.0854 2.61215 27.8286 1.87423C28.5717 1.13631 29.576 0.721398 30.6232 0.719604H165.073C166.128 0.719604 167.139 1.13849 167.884 1.88412C168.63 2.62975 169.049 3.64104 169.049 4.69551V193.659C169.049 194.714 168.63 195.725 167.884 196.471C167.139 197.216 166.128 197.635 165.073 197.635V197.635ZM30.6232 0.858866C29.6161 0.860711 28.6509 1.26207 27.9394 1.97485C27.228 2.68764 26.8284 3.6536 26.8284 4.6607V193.659C26.8284 194.666 27.228 195.632 27.9394 196.345C28.6509 197.058 29.6161 197.459 30.6232 197.461H165.073C166.081 197.459 167.047 197.058 167.759 196.345C168.472 195.633 168.873 194.667 168.875 193.659V4.6607C168.873 3.65296 168.472 2.68701 167.759 1.97443C167.047 1.26185 166.081 0.860707 165.073 0.858866H30.6232Z" fill="#E6E6E6"/>
<path d="M315.691 197.635H181.235C180.181 197.633 179.171 197.214 178.425 196.469C177.68 195.723 177.261 194.713 177.259 193.659V4.6607C177.27 3.61284 177.693 2.61152 178.438 1.8738C179.182 1.13607 180.187 0.721379 181.235 0.719604H315.691C316.738 0.723228 317.74 1.13895 318.482 1.87668C319.223 2.6144 319.644 3.61467 319.653 4.6607V193.659C319.653 194.711 319.237 195.72 318.494 196.466C317.751 197.211 316.744 197.631 315.691 197.635V197.635ZM181.235 0.858866C180.227 0.860707 179.261 1.26185 178.548 1.97443C177.836 2.68701 177.435 3.65296 177.433 4.6607V193.659C177.435 194.667 177.836 195.633 178.548 196.345C179.261 197.058 180.227 197.459 181.235 197.461H315.691C316.699 197.459 317.665 197.058 318.378 196.345C319.09 195.633 319.491 194.667 319.493 193.659V4.6607C319.491 3.65296 319.09 2.68701 318.378 1.97443C317.665 1.26185 316.699 0.860707 315.691 0.858866H181.235Z" fill="#E6E6E6"/>
<path d="M294.608 13.6918H199.715V124.265H294.608V13.6918Z" fill="#E0E0E0"/>
<path d="M297.184 13.6918H200.919V124.265H297.184V13.6918Z" fill="#F5F5F5"/>
<path d="M294.608 124.258H199.715V130.455H294.608V124.258Z" fill="#E0E0E0"/>
<path d="M308.979 124.258H218.355V130.455H308.979V124.258Z" fill="#F5F5F5"/>
<path d="M293.577 119.572V18.3779L204.533 18.3779V119.572H293.577Z" fill="#FAFAFA"/>
<path d="M217.338 119.572L238.533 18.3779H266.316L245.121 119.572H217.338Z" fill="white"/>
<path d="M249.619 119.572L270.808 18.3779H283.355L262.167 119.572H249.619Z" fill="white"/>
<path d="M197.006 13.5316V52.9007H207.451C207.451 52.9007 226.161 40.6945 230.429 15.5787C230.53 14.9806 230.5 14.3676 230.34 13.7824C230.18 13.1971 229.895 12.6537 229.504 12.1899C229.113 11.726 228.626 11.3529 228.076 11.0964C227.526 10.8399 226.927 10.7062 226.321 10.7045H199.861C199.488 10.7018 199.118 10.7728 198.772 10.9136C198.426 11.0543 198.112 11.262 197.846 11.5247C197.581 11.7874 197.37 12.0999 197.226 12.4443C197.082 12.7887 197.007 13.1582 197.006 13.5316V13.5316Z" fill="#E0E0E0"/>
<path d="M197.006 116.007V56.0758H207.451C207.451 56.0758 213.439 68.1776 219.407 82.0898C220.994 85.7913 221.637 89.829 221.279 93.8406C220.921 97.8521 219.573 101.712 217.355 105.074C215.138 108.436 212.12 111.195 208.573 113.103C205.027 115.011 201.062 116.009 197.034 116.007H197.006Z" fill="#E0E0E0"/>
<path d="M207.117 52.9008H197.389C196.812 52.9008 196.345 53.3684 196.345 53.9452V55.0315C196.345 55.6083 196.812 56.0759 197.389 56.0759H207.117C207.693 56.0759 208.161 55.6083 208.161 55.0315V53.9452C208.161 53.3684 207.693 52.9008 207.117 52.9008Z" fill="#F5F5F5"/>
<path d="M300.157 13.5316V52.9008H289.713C289.713 52.9008 270.996 40.6945 266.735 15.5788C266.634 14.9812 266.664 14.3688 266.823 13.7841C266.983 13.1994 267.267 12.6563 267.657 12.1926C268.048 11.7289 268.534 11.3556 269.083 11.0986C269.632 10.8417 270.23 10.7072 270.836 10.7046H297.296C297.67 10.7009 298.04 10.7713 298.387 10.9116C298.734 11.052 299.049 11.2595 299.315 11.5223C299.581 11.7851 299.793 12.0979 299.937 12.4428C300.082 12.7876 300.157 13.1577 300.157 13.5316V13.5316Z" fill="#E0E0E0"/>
<path d="M300.227 116.021V56.0898H289.782C289.782 56.0898 283.794 68.1847 277.82 82.1039C276.243 85.8065 275.608 89.842 275.972 93.8498C276.335 97.8577 277.685 101.713 279.901 105.072C282.117 108.431 285.131 111.189 288.673 113.1C292.215 115.01 296.175 116.014 300.199 116.021H300.227Z" fill="#E0E0E0"/>
<path d="M290.026 56.0758H299.753C300.33 56.0758 300.798 55.6082 300.798 55.0313V53.9451C300.798 53.3683 300.33 52.9006 299.753 52.9006H290.026C289.449 52.9006 288.982 53.3683 288.982 53.9451V55.0313C288.982 55.6082 289.449 56.0758 290.026 56.0758Z" fill="#F5F5F5"/>
<path d="M139.93 62.4054H98.1309V108.16H139.93V62.4054Z" fill="#E0E0E0"/>
<path d="M145.807 62.4054H100.394V108.16H145.807V62.4054Z" fill="#FAFAFA"/>
<path d="M141.121 103.481V67.0917H105.073V103.481H141.121Z" fill="white"/>
<path d="M113.547 85.2861C113.549 83.0067 114.456 80.8212 116.068 79.21C117.681 77.5988 119.867 76.6937 122.146 76.6937H124.082C126.36 76.6956 128.545 77.6014 130.156 79.2124C131.767 80.8234 132.673 83.0079 132.674 85.2861V85.2861C132.674 86.4145 132.452 87.5318 132.02 88.5743C131.589 89.6168 130.956 90.564 130.158 91.3619C129.36 92.1598 128.413 92.7927 127.37 93.2245C126.328 93.6563 125.21 93.8786 124.082 93.8786H122.146C121.017 93.8795 119.899 93.6579 118.856 93.2265C117.813 92.7951 116.865 92.1623 116.066 91.3644C115.267 90.5664 114.634 89.6189 114.202 88.5759C113.769 87.533 113.547 86.4151 113.547 85.2861Z" fill="#F5F5F5"/>
<path d="M64.2764 73.3235C58.4593 73.3235 52.8803 71.0126 48.767 66.8993C44.6536 62.7859 42.3428 57.207 42.3428 51.3898C42.3428 45.5727 44.6536 39.9938 48.767 35.8804C52.8803 31.767 58.4593 29.4562 64.2764 29.4562H68.2384V73.3235H64.2764Z" fill="#E0E0E0"/>
<path d="M68.2381 73.3233C80.344 73.3233 90.1578 63.5095 90.1578 51.4036C90.1578 39.2977 80.344 29.4839 68.2381 29.4839C56.1322 29.4839 46.3184 39.2977 46.3184 51.4036C46.3184 63.5095 56.1322 73.3233 68.2381 73.3233Z" fill="#FAFAFA"/>
<path d="M68.2383 67.9341C77.3678 67.9341 84.7686 60.5332 84.7686 51.4037C84.7686 42.2743 77.3678 34.8734 68.2383 34.8734C59.1089 34.8734 51.708 42.2743 51.708 51.4037C51.708 60.5332 59.1089 67.9341 68.2383 67.9341Z" fill="white"/>
<path d="M75.0476 57.5869L66.9287 51.919L69.505 39.3994L71.8029 39.8729L69.5399 50.8815L76.3915 55.6582L75.0476 57.5869Z" fill="#E0E0E0"/>
<path d="M245.385 150.426H215.507V231.155H245.385V150.426Z" fill="#E0E0E0"/>
<path d="M237.406 231.155H245.385V217.786H229.043L237.406 231.155Z" fill="#FAFAFA"/>
<path d="M66.2608 150.426H36.3823V231.155H66.2608V150.426Z" fill="#E0E0E0"/>
<path d="M245.393 150.426H59.2979V226.553H245.393V150.426Z" fill="#FAFAFA"/>
<path d="M67.2775 231.155H59.2979V217.786H75.6402L67.2775 231.155Z" fill="#FAFAFA"/>
<path d="M239.202 156.971H65.4878V184.99H239.202V156.971Z" fill="#F0F0F0"/>
<path d="M239.202 191.765H65.4878V219.785H239.202V191.765Z" fill="#F0F0F0"/>
<path d="M213.731 156.971H65.4878V184.99H213.731V156.971Z" fill="#E0E0E0"/>
<path d="M111.138 160.752H102.12C102.12 160.752 103.687 166.162 103.687 169.344C103.687 172.526 96.8285 184.997 106.633 184.997C116.437 184.997 109.571 172.526 109.571 169.344C109.571 166.162 111.138 160.752 111.138 160.752Z" fill="#FAFAFA"/>
<path d="M75.6401 170.152V175.075C75.6401 180.534 80.9181 184.997 87.3659 184.997H93.1801C99.6279 184.997 104.906 180.534 104.906 175.075V170.152H75.6401Z" fill="#F0F0F0"/>
<path d="M213.731 191.765H65.4878V219.785H213.731V191.765Z" fill="#E0E0E0"/>
<path d="M148.745 219.276H162.629V196.152H148.745V219.276Z" fill="white"/>
<path d="M160.464 219.638H161.411V196.514H160.464V219.638Z" fill="#E6E6E6"/>
<path d="M161.48 219.812H163.904C164.088 219.812 164.238 219.663 164.238 219.478V196.667C164.238 196.483 164.088 196.333 163.904 196.333H161.48C161.296 196.333 161.146 196.483 161.146 196.667V219.478C161.146 219.663 161.296 219.812 161.48 219.812Z" fill="#EBEBEB"/>
<path d="M161.146 207.181H164.238V201.695H161.146V207.181Z" fill="white"/>
<path d="M161.146 212.258H164.238V208.874H161.146V212.258Z" fill="white"/>
<path d="M148.035 219.812H160.548C160.732 219.812 160.882 219.663 160.882 219.478V196.667C160.882 196.483 160.732 196.333 160.548 196.333H148.035C147.85 196.333 147.701 196.483 147.701 196.667V219.478C147.701 219.663 147.85 219.812 148.035 219.812Z" fill="#EBEBEB"/>
<path d="M141.97 219.221H157.289V193.708H141.97V219.221Z" fill="white"/>
<path d="M154.915 219.617H155.952V194.105H154.915V219.617Z" fill="#E6E6E6"/>
<path d="M156.028 219.812H158.702C158.906 219.812 159.071 219.647 159.071 219.443V194.279C159.071 194.075 158.906 193.91 158.702 193.91H156.028C155.825 193.91 155.659 194.075 155.659 194.279V219.443C155.659 219.647 155.825 219.812 156.028 219.812Z" fill="#F0F0F0"/>
<path d="M155.659 203.045H159.071V202.161H155.659V203.045Z" fill="white"/>
<path d="M155.659 205.608H159.071V204.723H155.659V205.608Z" fill="white"/>
<path d="M155.659 208.163H159.071V207.279H155.659V208.163Z" fill="white"/>
<path d="M141.197 219.812H154.998C155.201 219.812 155.367 219.647 155.367 219.443V194.279C155.367 194.075 155.201 193.91 154.998 193.91H141.197C140.993 193.91 140.828 194.075 140.828 194.279V219.443C140.828 219.647 140.993 219.812 141.197 219.812Z" fill="#F0F0F0"/>
<path d="M123.1 210.928C123.102 211.705 122.873 212.464 122.442 213.111C122.011 213.758 121.398 214.262 120.681 214.561C119.963 214.859 119.174 214.938 118.411 214.787C117.649 214.636 116.949 214.263 116.399 213.714C115.849 213.165 115.474 212.465 115.322 211.703C115.17 210.941 115.247 210.151 115.544 209.433C115.841 208.715 116.345 208.101 116.991 207.67C117.637 207.238 118.396 207.007 119.173 207.007C120.214 207.007 121.211 207.42 121.948 208.155C122.684 208.89 123.099 209.887 123.1 210.928V210.928Z" fill="#FAFAFA"/>
<path d="M116.409 212.801C116.409 213.408 116.228 214.002 115.891 214.507C115.554 215.012 115.074 215.405 114.513 215.638C113.952 215.87 113.334 215.931 112.739 215.812C112.143 215.694 111.596 215.401 111.166 214.972C110.737 214.542 110.445 213.995 110.326 213.4C110.208 212.804 110.268 212.187 110.501 211.625C110.733 211.064 111.127 210.585 111.632 210.247C112.137 209.91 112.73 209.73 113.338 209.73C114.152 209.732 114.932 210.056 115.507 210.631C116.083 211.207 116.407 211.987 116.409 212.801V212.801Z" fill="#FAFAFA"/>
<path d="M129.819 212.801C129.819 213.577 129.589 214.337 129.157 214.982C128.726 215.628 128.112 216.132 127.395 216.429C126.677 216.726 125.888 216.804 125.126 216.652C124.364 216.501 123.664 216.127 123.115 215.578C122.566 215.028 122.192 214.329 122.04 213.567C121.889 212.805 121.967 212.015 122.264 211.298C122.561 210.58 123.064 209.967 123.71 209.535C124.356 209.104 125.115 208.873 125.892 208.873C126.933 208.875 127.931 209.29 128.667 210.026C129.403 210.762 129.817 211.76 129.819 212.801V212.801Z" fill="#FAFAFA"/>
<path d="M136.253 211.652C136.253 212.428 136.023 213.188 135.591 213.834C135.16 214.479 134.547 214.983 133.829 215.28C133.111 215.577 132.322 215.655 131.56 215.503C130.798 215.352 130.098 214.978 129.549 214.429C129 213.879 128.626 213.18 128.474 212.418C128.323 211.656 128.401 210.867 128.698 210.149C128.995 209.431 129.498 208.818 130.144 208.386C130.79 207.955 131.549 207.725 132.326 207.725C133.368 207.725 134.367 208.138 135.103 208.875C135.84 209.611 136.253 210.61 136.253 211.652V211.652Z" fill="#FAFAFA"/>
<path d="M102.531 212.16C102.531 212.16 103.067 219.819 123.727 219.819C144.386 219.819 144.922 212.16 144.922 212.16H102.531Z" fill="#F5F5F5"/>
<path d="M160.464 177.338C160.464 177.338 161.32 184.997 194.061 184.997C226.801 184.997 227.65 177.338 227.65 177.338H160.464Z" fill="white"/>
<path d="M174.125 260.136C248.687 260.136 309.132 256.607 309.132 252.254C309.132 247.9 248.687 244.371 174.125 244.371C99.5628 244.371 39.1182 247.9 39.1182 252.254C39.1182 256.607 99.5628 260.136 174.125 260.136Z" fill="#F5F5F5"/>
<path d="M102.351 147.867C117.078 133.14 117.078 109.262 102.351 94.5343C87.6233 79.8069 63.7454 79.8069 49.0179 94.5343C34.2905 109.262 34.2905 133.14 49.018 147.867C63.7454 162.595 87.6233 162.595 102.351 147.867Z" fill="#407BFF"/>
<path opacity="0.4" d="M102.351 147.867C117.078 133.14 117.078 109.262 102.351 94.5343C87.6233 79.8069 63.7454 79.8069 49.0179 94.5343C34.2905 109.262 34.2905 133.14 49.018 147.867C63.7454 162.595 87.6233 162.595 102.351 147.867Z" fill="black"/>
<path opacity="0.2" d="M106.904 126.526C109.845 109.285 98.2526 92.9245 81.0118 89.9837C63.7711 87.0429 47.4107 98.6352 44.4698 115.876C41.529 133.117 53.1214 149.477 70.3622 152.418C87.6029 155.359 103.963 143.766 106.904 126.526Z" fill="black"/>
<path d="M108.418 124.234C109.593 107.444 96.935 92.88 80.1451 91.7047C63.3553 90.5294 48.7916 103.188 47.6163 119.977C46.441 136.767 59.0992 151.331 75.889 152.506C92.6789 153.682 107.243 141.023 108.418 124.234Z" fill="#407BFF"/>
<path opacity="0.4" d="M108.418 124.234C109.593 107.444 96.935 92.88 80.1451 91.7047C63.3553 90.5294 48.7916 103.188 47.6163 119.977C46.441 136.767 59.0992 151.331 75.889 152.506C92.6789 153.682 107.243 141.023 108.418 124.234Z" fill="black"/>
<path d="M88.2072 118.298L90.1917 126.897C90.2759 127.226 90.291 127.568 90.2358 127.902C90.1807 128.237 90.0566 128.556 89.8714 128.84C89.6914 129.13 89.4552 129.381 89.1765 129.579C88.8978 129.776 88.5825 129.916 88.249 129.989L80.6871 131.737L82.0797 137.788C82.1617 138.115 82.1742 138.455 82.1167 138.787C82.0591 139.12 81.9327 139.436 81.7455 139.716C81.5656 140.002 81.3286 140.247 81.0494 140.436C80.7702 140.626 80.4548 140.755 80.1231 140.817C79.7908 140.9 79.4453 140.916 79.1068 140.863C78.7683 140.81 78.4439 140.69 78.1526 140.51C77.8624 140.339 77.6109 140.11 77.4143 139.837C77.2177 139.563 77.0802 139.252 77.0106 138.923L75.618 132.802L68.1188 134.536C67.7956 134.614 67.46 134.626 67.1321 134.571C66.8042 134.516 66.4909 134.395 66.2109 134.216C65.9199 134.045 65.6676 133.816 65.4698 133.542C65.2721 133.269 65.1332 132.958 65.062 132.628C64.9828 132.303 64.9704 131.965 65.0254 131.634C65.0805 131.304 65.2019 130.988 65.3823 130.706C65.5544 130.418 65.7843 130.168 66.0575 129.973C66.3307 129.777 66.6413 129.641 66.9699 129.571L84.5168 125.526L83.6952 121.954L66.197 125.985C65.873 126.068 65.5357 126.084 65.2054 126.032C64.8751 125.981 64.5586 125.863 64.2752 125.686C63.9845 125.511 63.7335 125.278 63.538 125.001C63.3426 124.724 63.2071 124.41 63.1402 124.077L61.1627 115.513C61.0105 114.854 61.126 114.163 61.4837 113.589C61.8415 113.016 62.4123 112.608 63.0706 112.456L70.535 110.736L69.1423 104.678C69.0616 104.358 69.0459 104.025 69.0961 103.698C69.1463 103.372 69.2615 103.059 69.4348 102.777C69.6185 102.473 69.865 102.211 70.158 102.009C70.451 101.807 70.7837 101.67 71.1338 101.607C71.4558 101.529 71.7904 101.517 72.1172 101.572C72.4439 101.627 72.7561 101.748 73.0347 101.928C73.3206 102.104 73.568 102.336 73.7619 102.61C73.9557 102.884 74.0921 103.194 74.1627 103.522L75.5553 109.573L83.2147 107.819C83.5461 107.738 83.8902 107.726 84.2265 107.782C84.5627 107.838 84.8841 107.962 85.1713 108.146C85.4619 108.313 85.7146 108.538 85.9135 108.808C86.1125 109.078 86.2533 109.386 86.3272 109.712C86.4739 110.386 86.3513 111.09 85.9857 111.674C85.6201 112.258 85.0404 112.676 84.3706 112.839L66.8236 116.884L67.5896 120.436L85.0738 116.404C85.4052 116.324 85.7493 116.311 86.0856 116.368C86.4219 116.424 86.7433 116.548 87.0305 116.731C87.3257 116.895 87.5831 117.119 87.7858 117.389C87.9886 117.659 88.1322 117.969 88.2072 118.298V118.298Z" fill="#407BFF"/>
<g opacity="0.7">
<path opacity="0.7" d="M88.2077 118.298L90.1922 126.898C90.2764 127.226 90.2915 127.568 90.2363 127.903C90.1812 128.237 90.0571 128.556 89.8719 128.84C89.6919 129.13 89.4556 129.382 89.177 129.579C88.8983 129.776 88.583 129.916 88.2495 129.989L80.6876 131.737L82.0802 137.788C82.1621 138.115 82.1747 138.455 82.1172 138.788C82.0596 139.12 81.9332 139.436 81.746 139.717C81.5661 140.002 81.3291 140.247 81.0499 140.436C80.7707 140.626 80.4553 140.755 80.1236 140.817C79.7913 140.9 79.4457 140.916 79.1073 140.863C78.7688 140.811 78.4443 140.691 78.153 140.51C77.8628 140.34 77.6114 140.11 77.4148 139.837C77.2182 139.564 77.0807 139.252 77.0111 138.923L75.6185 132.802L68.1193 134.536C67.7961 134.614 67.4605 134.626 67.1326 134.571C66.8047 134.516 66.4914 134.395 66.2114 134.216C65.9204 134.045 65.6681 133.816 65.4703 133.543C65.2726 133.269 65.1337 132.958 65.0625 132.628C64.9833 132.303 64.9709 131.965 65.0259 131.634C65.081 131.304 65.2024 130.988 65.3828 130.706C65.5549 130.418 65.7848 130.168 66.058 129.973C66.3312 129.778 66.6418 129.641 66.9704 129.571L84.5173 125.526L83.6956 121.954L66.1975 125.985C65.8735 126.068 65.5362 126.084 65.2059 126.033C64.8755 125.981 64.5591 125.863 64.2756 125.686C63.985 125.512 63.734 125.278 63.5385 125.001C63.3431 124.725 63.2076 124.41 63.1407 124.078L61.1632 115.513C61.011 114.855 61.1264 114.163 61.4842 113.59C61.842 113.016 62.4128 112.609 63.071 112.456L70.5354 110.736L69.1428 104.678C69.0621 104.358 69.0464 104.025 69.0966 103.698C69.1468 103.372 69.262 103.059 69.4353 102.778C69.6189 102.473 69.8655 102.211 70.1585 102.009C70.4515 101.807 70.7841 101.671 71.1343 101.608C71.4563 101.529 71.7909 101.517 72.1176 101.573C72.4444 101.628 72.7566 101.749 73.0352 101.928C73.3211 102.104 73.5685 102.336 73.7624 102.61C73.9562 102.884 74.0926 103.194 74.1632 103.523L75.5558 109.573L83.2152 107.819C83.5465 107.739 83.8907 107.726 84.227 107.782C84.5632 107.839 84.8846 107.962 85.1718 108.146C85.4623 108.313 85.7151 108.539 85.914 108.808C86.113 109.078 86.2538 109.386 86.3277 109.713C86.4744 110.386 86.3518 111.09 85.9862 111.674C85.6206 112.259 85.0409 112.677 84.3711 112.839L66.8241 116.885L67.5901 120.436L85.0743 116.404C85.4057 116.324 85.7498 116.312 86.0861 116.368C86.4223 116.424 86.7437 116.548 87.031 116.732C87.3262 116.895 87.5836 117.119 87.7863 117.389C87.9891 117.659 88.1327 117.969 88.2077 118.298V118.298Z" fill="white"/>
</g>
<path d="M156.159 91.2103C165.542 80.1075 164.147 63.5008 153.045 54.1182C141.942 44.7356 125.335 46.1301 115.953 57.2329C106.57 68.3357 107.964 84.9424 119.067 94.325C130.17 103.708 146.777 102.313 156.159 91.2103Z" fill="#407BFF"/>
<path opacity="0.4" d="M156.159 91.2103C165.542 80.1075 164.147 63.5008 153.045 54.1182C141.942 44.7356 125.335 46.1301 115.953 57.2329C106.57 68.3357 107.964 84.9424 119.067 94.325C130.17 103.708 146.777 102.313 156.159 91.2103Z" fill="black"/>
<path opacity="0.2" d="M153.091 88.2832C160.868 78.8756 159.546 64.9448 150.138 57.1677C140.731 49.3906 126.8 50.7124 119.023 60.12C111.246 69.5275 112.568 83.4584 121.975 91.2354C131.383 99.0125 145.314 97.6907 153.091 88.2832Z" fill="black"/>
<path d="M153.758 88.5142C160.874 79.2044 159.095 65.8892 149.785 58.7738C140.475 51.6585 127.16 53.4375 120.045 62.7473C112.929 72.0572 114.708 85.3724 124.018 92.4877C133.328 99.603 146.643 97.824 153.758 88.5142Z" fill="#407BFF"/>
<path opacity="0.4" d="M153.758 88.5142C160.874 79.2044 159.095 65.8892 149.785 58.7738C140.475 51.6585 127.16 53.4375 120.045 62.7473C112.929 72.0572 114.708 85.3724 124.018 92.4877C133.328 99.603 146.643 97.824 153.758 88.5142Z" fill="black"/>
<path d="M144.755 76.3803L143.258 82.3547C143.204 82.5818 143.103 82.7952 142.961 82.981C142.82 83.1669 142.641 83.3211 142.436 83.4339C142.23 83.5596 142 83.6422 141.761 83.6769C141.521 83.7116 141.278 83.6977 141.044 83.6359L135.829 82.3198L134.77 86.4977C134.716 86.726 134.615 86.9405 134.474 87.1275C134.332 87.3146 134.153 87.47 133.948 87.5839C133.751 87.7065 133.531 87.7877 133.301 87.8224C133.071 87.8571 132.836 87.8447 132.612 87.7858C132.38 87.7314 132.161 87.6313 131.969 87.4914C131.776 87.3515 131.614 87.1747 131.491 86.9712C131.365 86.7724 131.281 86.5499 131.245 86.3175C131.21 86.0851 131.222 85.8478 131.282 85.6203L132.347 81.3729L127.125 80.0986C126.898 80.0445 126.685 79.945 126.499 79.8061C126.312 79.6673 126.155 79.492 126.038 79.2909C125.913 79.0935 125.829 78.8722 125.793 78.6409C125.757 78.4096 125.77 78.1733 125.83 77.947C125.882 77.7181 125.98 77.5023 126.119 77.313C126.258 77.1238 126.434 76.9651 126.637 76.8469C126.838 76.7247 127.06 76.6444 127.293 76.6109C127.525 76.5774 127.761 76.5913 127.988 76.6519L140.173 79.7087L140.8 77.2298L128.65 74.18C128.422 74.1291 128.207 74.0317 128.019 73.8939C127.831 73.7561 127.674 73.5809 127.556 73.3793C127.43 73.1807 127.348 72.9576 127.314 72.7247C127.28 72.4919 127.297 72.2546 127.361 72.0284L128.852 66.075C128.908 65.8481 129.008 65.6345 129.147 65.4467C129.286 65.2589 129.461 65.1005 129.662 64.9807C129.863 64.8609 130.085 64.7821 130.317 64.7488C130.548 64.7156 130.784 64.7285 131.01 64.7868L136.177 66.082L137.235 61.9041C137.286 61.6683 137.386 61.4456 137.527 61.2502C137.669 61.0547 137.849 60.8906 138.057 60.7683C138.265 60.646 138.496 60.568 138.736 60.5394C138.975 60.5108 139.218 60.5321 139.449 60.602C139.674 60.654 139.885 60.752 140.07 60.8899C140.254 61.0277 140.408 61.2024 140.522 61.4028C140.645 61.6013 140.726 61.8229 140.761 62.0539C140.796 62.285 140.783 62.5207 140.724 62.7467L139.665 66.9245L144.957 68.2545C145.189 68.3099 145.408 68.4119 145.599 68.5544C145.791 68.6968 145.951 68.8767 146.071 69.083C146.198 69.2787 146.283 69.4983 146.322 69.7283C146.36 69.9583 146.351 70.1938 146.294 70.42C146.236 70.6519 146.132 70.87 145.989 71.0613C145.845 71.2526 145.665 71.4133 145.458 71.5341C145.253 71.662 145.023 71.7465 144.784 71.7825C144.544 71.8184 144.3 71.8049 144.066 71.7429L131.873 68.6862L131.261 71.1511L143.404 74.1939C143.636 74.2494 143.855 74.3514 144.046 74.4939C144.238 74.6363 144.399 74.8162 144.518 75.0226C144.653 75.2188 144.743 75.4416 144.784 75.6758C144.825 75.91 144.815 76.1502 144.755 76.3803V76.3803Z" fill="#407BFF"/>
<g opacity="0.7">
<path opacity="0.7" d="M144.755 76.3805L143.258 82.3548C143.203 82.582 143.102 82.7953 142.961 82.9811C142.819 83.167 142.641 83.3212 142.436 83.434C142.229 83.5597 142 83.6424 141.76 83.677C141.521 83.7117 141.277 83.6978 141.043 83.636L135.828 82.32L134.77 86.4978C134.716 86.7261 134.615 86.9406 134.473 87.1276C134.332 87.3147 134.153 87.4701 133.948 87.584C133.751 87.7066 133.53 87.7878 133.3 87.8225C133.07 87.8572 132.836 87.8448 132.611 87.786C132.379 87.7315 132.161 87.6314 131.968 87.4916C131.776 87.3517 131.613 87.1748 131.49 86.9713C131.364 86.7725 131.281 86.55 131.245 86.3176C131.209 86.0852 131.221 85.8479 131.281 85.6205L132.346 81.373L127.124 80.0987C126.898 80.0446 126.685 79.9451 126.498 79.8062C126.312 79.6674 126.155 79.4921 126.038 79.291C125.912 79.0937 125.828 78.8723 125.793 78.641C125.757 78.4097 125.769 78.1734 125.829 77.9472C125.881 77.7182 125.98 77.5024 126.119 77.3132C126.258 77.1239 126.434 76.9652 126.637 76.847C126.837 76.7248 127.06 76.6445 127.292 76.611C127.524 76.5775 127.761 76.5914 127.988 76.652L140.173 79.7088L140.8 77.23L128.649 74.1801C128.422 74.1292 128.207 74.0318 128.019 73.894C127.831 73.7562 127.673 73.581 127.556 73.3794C127.43 73.1808 127.347 72.9577 127.314 72.7249C127.28 72.492 127.296 72.2547 127.361 72.0286L128.851 66.0751C128.907 65.8482 129.008 65.6347 129.147 65.4468C129.286 65.259 129.461 65.1006 129.662 64.9808C129.862 64.861 130.085 64.7822 130.316 64.749C130.548 64.7157 130.783 64.7286 131.01 64.787L136.176 66.0821L137.235 61.9043C137.286 61.6684 137.385 61.4458 137.527 61.2503C137.668 61.0548 137.849 60.8907 138.057 60.7684C138.265 60.6461 138.496 60.5682 138.735 60.5395C138.975 60.5109 139.218 60.5323 139.449 60.6022C139.673 60.6541 139.884 60.7522 140.069 60.89C140.254 61.0278 140.408 61.2025 140.521 61.4029C140.644 61.6014 140.726 61.823 140.76 62.0541C140.795 62.2851 140.782 62.5208 140.723 62.7468L139.665 66.9246L144.957 68.2546C145.189 68.31 145.407 68.4121 145.599 68.5545C145.79 68.6969 145.951 68.8768 146.071 69.0832C146.198 69.2788 146.283 69.4984 146.321 69.7284C146.36 69.9584 146.35 70.1939 146.294 70.4201C146.235 70.6521 146.132 70.8701 145.988 71.0614C145.845 71.2527 145.664 71.4134 145.458 71.5342C145.252 71.6621 145.023 71.7467 144.783 71.7826C144.544 71.8185 144.299 71.8051 144.065 71.7431L131.873 68.6863L131.26 71.1512L143.404 74.1941C143.636 74.2495 143.854 74.3515 144.046 74.494C144.237 74.6364 144.398 74.8163 144.518 75.0227C144.652 75.219 144.743 75.4417 144.783 75.6759C144.824 75.9101 144.814 76.1504 144.755 76.3805V76.3805Z" fill="white"/>
</g>
<path d="M71.9492 233.265H71.2529V241.126H71.9492V233.265Z" fill="#407BFF"/>
<path opacity="0.1" d="M71.9492 233.265H71.2529V241.126H71.9492V233.265Z" fill="black"/>
<path d="M276.998 170.981H276.301V181.752H276.998V170.981Z" fill="#407BFF"/>
<path d="M276.998 187.406H276.301V193.248H276.998V187.406Z" fill="#407BFF"/>
<path opacity="0.1" d="M276.998 170.981H276.301V181.752H276.998V170.981Z" fill="black"/>
<path opacity="0.1" d="M276.998 187.406H276.301V193.248H276.998V187.406Z" fill="black"/>
<path d="M264.088 124.272H84.1694C78.3817 124.272 73.6899 128.964 73.6899 134.752V240.068C73.6899 245.856 78.3817 250.548 84.1694 250.548H264.088C269.876 250.548 274.567 245.856 274.567 240.068V134.752C274.567 128.964 269.876 124.272 264.088 124.272Z" fill="#407BFF"/>
<path opacity="0.2" d="M264.088 124.272H84.1694C78.3817 124.272 73.6899 128.964 73.6899 134.752V240.068C73.6899 245.856 78.3817 250.548 84.1694 250.548H264.088C269.876 250.548 274.567 245.856 274.567 240.068V134.752C274.567 128.964 269.876 124.272 264.088 124.272Z" fill="black"/>
<path d="M242.05 168.244C245.497 168.244 248.804 166.874 251.242 164.436C253.68 161.998 255.05 158.692 255.05 155.244C255.05 151.796 253.68 148.49 251.242 146.052C248.804 143.614 245.497 142.244 242.05 142.244H225.269C221.821 142.244 218.514 143.614 216.076 146.052C213.638 148.49 212.269 151.796 212.269 155.244C212.269 158.692 213.638 161.998 216.076 164.436C218.514 166.874 221.821 168.244 225.269 168.244H242.05Z" fill="#407BFF"/>
<path d="M128.684 168.237H97.7191C95.2272 168.237 93.207 170.257 93.207 172.749V192.991C93.207 195.483 95.2272 197.503 97.7191 197.503H128.684C131.176 197.503 133.196 195.483 133.196 192.991V172.749C133.196 170.257 131.176 168.237 128.684 168.237Z" fill="#407BFF"/>
<path opacity="0.3" d="M128.684 168.237H97.7191C95.2272 168.237 93.207 170.257 93.207 172.749V192.991C93.207 195.483 95.2272 197.503 97.7191 197.503H128.684C131.176 197.503 133.196 195.483 133.196 192.991V172.749C133.196 170.257 131.176 168.237 128.684 168.237Z" fill="white"/>
<path d="M150.109 139.048H96.4031C94.638 139.048 93.207 140.477 93.207 142.241C93.207 144.004 94.638 145.433 96.4031 145.433H150.109C151.874 145.433 153.305 144.004 153.305 142.241C153.305 140.477 151.874 139.048 150.109 139.048Z" fill="#407BFF"/>
<path opacity="0.3" d="M150.109 139.048H96.4031C94.638 139.048 93.207 140.477 93.207 142.241C93.207 144.004 94.638 145.433 96.4031 145.433H150.109C151.874 145.433 153.305 144.004 153.305 142.241C153.305 140.477 151.874 139.048 150.109 139.048Z" fill="white"/>
<path d="M122.048 212.028H97.8932C95.3051 212.028 93.207 214.126 93.207 216.714V221.094C93.207 223.682 95.3051 225.78 97.8932 225.78H122.048C124.636 225.78 126.734 223.682 126.734 221.094V216.714C126.734 214.126 124.636 212.028 122.048 212.028Z" fill="#407BFF"/>
<path opacity="0.3" d="M122.048 212.028H97.8932C95.3051 212.028 93.207 214.126 93.207 216.714V221.094C93.207 223.682 95.3051 225.78 97.8932 225.78H122.048C124.636 225.78 126.734 223.682 126.734 221.094V216.714C126.734 214.126 124.636 212.028 122.048 212.028Z" fill="white"/>
<path d="M164.816 212.028H140.661C138.073 212.028 135.975 214.126 135.975 216.714V221.094C135.975 223.682 138.073 225.78 140.661 225.78H164.816C167.404 225.78 169.502 223.682 169.502 221.094V216.714C169.502 214.126 167.404 212.028 164.816 212.028Z" fill="#407BFF"/>
<path opacity="0.3" d="M164.816 212.028H140.661C138.073 212.028 135.975 214.126 135.975 216.714V221.094C135.975 223.682 138.073 225.78 140.661 225.78H164.816C167.404 225.78 169.502 223.682 169.502 221.094V216.714C169.502 214.126 167.404 212.028 164.816 212.028Z" fill="white"/>
<path d="M207.59 212.028H183.435C180.847 212.028 178.749 214.126 178.749 216.714V221.094C178.749 223.682 180.847 225.78 183.435 225.78H207.59C210.178 225.78 212.276 223.682 212.276 221.094V216.714C212.276 214.126 210.178 212.028 207.59 212.028Z" fill="#407BFF"/>
<path opacity="0.3" d="M207.59 212.028H183.435C180.847 212.028 178.749 214.126 178.749 216.714V221.094C178.749 223.682 180.847 225.78 183.435 225.78H207.59C210.178 225.78 212.276 223.682 212.276 221.094V216.714C212.276 214.126 210.178 212.028 207.59 212.028Z" fill="white"/>
<path d="M250.357 212.028H226.202C223.614 212.028 221.516 214.126 221.516 216.714V221.094C221.516 223.682 223.614 225.78 226.202 225.78H250.357C252.945 225.78 255.043 223.682 255.043 221.094V216.714C255.043 214.126 252.945 212.028 250.357 212.028Z" fill="#407BFF"/>
<path opacity="0.3" d="M250.357 212.028H226.202C223.614 212.028 221.516 214.126 221.516 216.714V221.094C221.516 223.682 223.614 225.78 226.202 225.78H250.357C252.945 225.78 255.043 223.682 255.043 221.094V216.714C255.043 214.126 252.945 212.028 250.357 212.028Z" fill="white"/>
<path d="M204.066 78.5808C202.416 83.2391 200.585 87.7442 198.642 92.2493C196.676 96.8306 194.42 101.282 191.888 105.577C191.547 106.127 191.192 106.677 190.823 107.227L190.551 107.638L190.182 108.146C189.931 108.466 189.695 108.745 189.486 109.016C188.608 109.994 187.678 110.924 186.7 111.802C184.841 113.521 182.947 115.081 181.032 116.62C177.189 119.67 173.262 122.525 169.195 125.233L166.765 122.218L177.001 112.129C178.693 110.451 180.371 108.759 181.938 107.067C182.711 106.224 183.463 105.361 184.082 104.567C184.235 104.372 184.368 104.177 184.486 104.01L184.632 103.773L184.834 103.411C185.106 102.931 185.391 102.464 185.656 101.97C187.787 97.966 189.667 93.6141 191.477 89.1995C193.287 84.7849 195.028 80.3355 196.699 75.9209L204.066 78.5808Z" fill="#E4897B"/>
<path d="M206.023 75.2245C207.604 79.848 198.315 93.4469 198.315 93.4469L189.444 88.5101C190.956 84.2669 192.742 80.1268 194.792 76.1158C197.897 70.239 204.29 70.1485 206.023 75.2245Z" fill="#407BFF"/>
<path opacity="0.7" d="M206.023 75.2245C207.604 79.848 198.315 93.4469 198.315 93.4469L189.444 88.5101C190.956 84.2669 192.742 80.1268 194.792 76.1158C197.897 70.239 204.29 70.1485 206.023 75.2245Z" fill="white"/>
<path opacity="0.31" d="M206.156 75.8026C204.164 74.8486 201.873 75.6494 199.457 79.4651C197.041 83.2809 194.987 89.6521 194.764 91.4694L198.322 93.44C198.322 93.44 206.894 80.8786 206.156 75.8026Z" fill="#407BFF"/>
<path d="M200.015 71.6872C200.015 71.6872 193.386 87.2775 198.162 116.307H225.771C226.112 112.066 224.162 91.3927 228.946 71.4226C225.907 70.8309 222.832 70.4401 219.741 70.2528C215.833 70.0298 211.916 70.0298 208.008 70.2528C205.311 70.5267 202.639 71.0062 200.015 71.6872V71.6872Z" fill="#407BFF"/>
<path opacity="0.7" d="M200.015 71.6872C200.015 71.6872 193.386 87.2775 198.162 116.307H225.771C226.112 112.066 224.162 91.3927 228.946 71.4226C225.907 70.8309 222.832 70.4401 219.741 70.2528C215.833 70.0298 211.916 70.0298 208.008 70.2528C205.311 70.5267 202.639 71.0062 200.015 71.6872V71.6872Z" fill="white"/>
<path d="M235.547 239.985L231.46 243.647L223.668 235.542L227.762 231.88L235.547 239.985Z" fill="#E4897B"/>
<path d="M221.53 247.609H216.37L215.702 235.653H220.861L221.53 247.609Z" fill="#E4897B"/>
<path d="M223.675 235.542L227.686 239.72L231.78 236.058L227.769 231.88L223.675 235.542Z" fill="#CE6F64"/>
<path d="M220.861 235.661H215.702L216.05 241.823H221.209L220.861 235.661Z" fill="#CE6F64"/>
<path d="M198.162 116.307C198.162 116.307 192.723 153.949 190.871 174.434C189.381 190.874 224.928 239.887 224.928 239.887L231.8 233.418C231.8 233.418 205.842 189.475 207.84 171.176C209.776 153.455 216.335 116.286 216.335 116.286L198.162 116.307Z" fill="#407BFF"/>
<path opacity="0.7" d="M198.162 116.307C198.162 116.307 192.723 153.949 190.871 174.434C189.381 190.874 224.928 239.887 224.928 239.887L231.8 233.418C231.8 233.418 205.842 189.475 207.84 171.176C209.776 153.455 216.335 116.286 216.335 116.286L198.162 116.307Z" fill="black"/>
<path opacity="0.2" d="M207.841 171.197C208.836 162.068 211.064 147.766 212.979 136.054C211.977 134.09 209.164 130.115 209.164 130.115C206.643 138.825 201.163 171.663 208.982 216.011C217.129 229.143 224.928 239.908 224.928 239.908L225.993 222.974C218.466 208.811 206.455 183.848 207.841 171.197Z" fill="black"/>
<path d="M207.98 116.307C207.98 116.307 207.492 155.752 208.328 170.535C209.24 186.717 213.836 240.333 213.836 240.333H223.291C223.291 240.333 223.006 188.026 223.563 172.011C224.183 154.604 225.784 116.307 225.784 116.307H207.98Z" fill="#407BFF"/>
<path opacity="0.7" d="M207.98 116.307C207.98 116.307 207.492 155.752 208.328 170.535C209.24 186.717 213.836 240.333 213.836 240.333H223.291C223.291 240.333 223.006 188.026 223.563 172.011C224.183 154.604 225.784 116.307 225.784 116.307H207.98Z" fill="black"/>
<path d="M216.098 247.017H221.898C221.995 247.014 222.09 247.048 222.161 247.113C222.233 247.178 222.276 247.269 222.281 247.366L222.567 251.954C222.568 252.074 222.545 252.193 222.5 252.304C222.455 252.415 222.389 252.516 222.305 252.601C222.221 252.687 222.121 252.755 222.01 252.801C221.9 252.848 221.782 252.872 221.662 252.873C219.642 252.839 218.675 252.72 216.126 252.72C214.559 252.72 207.889 252.887 205.723 252.887C203.558 252.887 203.634 250.743 204.533 250.548C208.648 249.677 213.752 248.459 215.214 247.331C215.466 247.132 215.777 247.021 216.098 247.017V247.017Z" fill="#263238"/>
<path d="M230.331 242.185L235.303 238.836C235.384 238.771 235.485 238.736 235.588 238.736C235.692 238.736 235.793 238.771 235.874 238.836L239.676 242.672C239.75 242.757 239.805 242.856 239.836 242.964C239.867 243.072 239.875 243.185 239.857 243.296C239.84 243.407 239.799 243.513 239.736 243.606C239.673 243.699 239.591 243.777 239.495 243.835C236.319 246.279 234.029 248.124 232.218 250.158C230.129 252.532 229.001 252.873 224.127 252.873C221.871 252.873 220.597 250.972 221.516 250.68C229.635 248.11 227.462 246.989 229.44 243.222C229.646 242.808 229.952 242.451 230.331 242.185Z" fill="#263238"/>
<path d="M167.935 121.571L162.553 121.759L163.681 125.978C163.681 125.978 169.307 126.48 169.808 124.781L167.935 121.571Z" fill="#E4897B"/>
<path d="M156.746 124.272L160.52 126.473L163.681 125.978L162.553 121.759L156.746 124.272Z" fill="#E4897B"/>
<path opacity="0.31" d="M222.776 76.3527C222.205 79.6393 222.964 87.4936 225.784 96.5874C226.005 88.7962 226.911 81.0395 228.493 73.4073V73.3655C226.683 73.1845 223.326 73.2681 222.776 76.3527Z" fill="#407BFF"/>
<path d="M219.037 57.0369C218.167 60.8108 217.185 67.7321 219.733 70.2667C219.733 70.2667 218.633 73.3931 211.615 73.3931C203.899 73.3931 208.001 70.2667 208.001 70.2667C212.248 69.264 212.248 66.1376 211.615 63.2061L219.037 57.0369Z" fill="#E4897B"/>
<path d="M211.419 73.3793L209.331 75.6005L210.354 77.7451L212.018 77.8217L213.439 75.7746L211.419 73.3793Z" fill="#407BFF"/>
<path d="M216.015 59.5507L211.621 63.1854C211.779 63.8718 211.877 64.5708 211.914 65.2743C213.529 65.0445 215.799 63.2759 216.029 61.5908C216.152 60.9159 216.147 60.2239 216.015 59.5507V59.5507Z" fill="#CE6F64"/>
<path d="M209.881 44.2389C207.242 45.1371 205.132 52.135 208.21 53.9872C211.287 55.8393 214.894 42.5329 209.881 44.2389Z" fill="#263238"/>
<path d="M220.687 53.082C219.114 57.9561 218.445 60.9015 215.27 62.8999C214.246 63.5582 213.061 63.924 211.844 63.9575C210.627 63.9911 209.423 63.6913 208.364 63.0904C207.305 62.4895 206.431 61.6106 205.835 60.5485C205.24 59.4865 204.946 58.2818 204.985 57.0648C205.048 52.3787 207.611 45.165 213.007 44.2598C214.17 44.0353 215.372 44.1202 216.491 44.5062C217.611 44.8922 218.61 45.5655 219.388 46.4589C220.166 47.3523 220.695 48.4344 220.923 49.5967C221.151 50.7591 221.07 51.9609 220.687 53.082V53.082Z" fill="#E4897B"/>
<path d="M224.587 44.9351C223.013 48.737 226.676 45.5618 225.729 50.0739C225.116 53.0123 219.81 60.0519 217.763 59.4113C215.716 58.7707 215.737 53.7782 218.348 50.248C219.852 48.2217 216.6 45.9239 209.296 46.1676C201.992 46.4113 197.577 42.3031 207.284 39.2881C207.284 39.2881 203.705 41.377 205.828 42.0733C208.836 43.1944 227.741 37.3175 224.587 44.9351Z" fill="#263238"/>
<path d="M223.194 46.6759C223.117 46.6759 224.83 46.2511 225.742 43.1943C225.742 43.2431 225.443 47.7482 223.194 46.6759Z" fill="#263238"/>
<path d="M209.525 39.9635C205.034 41.3561 206.893 42.9228 208.753 43.3127L213.014 41.6416C206.538 42.4981 209.525 39.9635 209.525 39.9635Z" fill="#263238"/>
<path d="M221.551 59.0355C220.617 59.9431 219.371 60.4588 218.069 60.4769C216.349 60.4769 215.98 58.8475 216.906 57.4828C217.728 56.2573 219.608 54.7811 221.126 55.4426C222.644 56.1041 222.693 57.9145 221.551 59.0355Z" fill="#E4897B"/>
<path d="M212.756 52.8104C212.652 53.2143 212.352 53.5068 212.06 53.4371C211.768 53.3675 211.663 52.9984 211.768 52.5946C211.872 52.1907 212.171 51.8983 212.464 51.9749C212.756 52.0515 212.861 52.4066 212.756 52.8104Z" fill="#263238"/>
<path d="M208.161 51.8008C208.057 52.2047 207.757 52.4971 207.465 52.4275C207.172 52.3578 207.068 51.9958 207.172 51.5919C207.277 51.188 207.569 50.8956 207.869 50.9652C208.168 51.0349 208.245 51.3969 208.161 51.8008Z" fill="#263238"/>
<path d="M209.567 52.323C208.776 53.4503 207.839 54.4687 206.782 55.3519C207.015 55.6103 207.301 55.8147 207.621 55.9506C207.941 56.0865 208.287 56.1508 208.634 56.1388L209.567 52.323Z" fill="#DE5753"/>
<path d="M210.333 57.608C210.045 57.6077 209.758 57.575 209.477 57.5106C209.446 57.5023 209.419 57.4826 209.403 57.4554C209.386 57.4282 209.38 57.3957 209.386 57.3643C209.395 57.3334 209.414 57.3069 209.441 57.29C209.469 57.2732 209.501 57.2674 209.533 57.2738C210.045 57.388 210.577 57.3847 211.089 57.2641C211.6 57.1435 212.077 56.9088 212.485 56.5775C212.508 56.555 212.539 56.5424 212.572 56.5424C212.604 56.5424 212.636 56.555 212.659 56.5775C212.682 56.6009 212.694 56.6321 212.694 56.6645C212.694 56.697 212.682 56.7282 212.659 56.7516C212.012 57.3082 211.186 57.6124 210.333 57.608V57.608Z" fill="#263238"/>
<path d="M214.581 51.6475C214.534 51.6483 214.487 51.6348 214.447 51.6087C214.408 51.5826 214.377 51.5452 214.358 51.5013C214.244 51.2219 214.064 50.9742 213.834 50.7791C213.604 50.584 213.33 50.4472 213.035 50.3802C213.003 50.376 212.972 50.3653 212.944 50.3489C212.916 50.3326 212.892 50.3108 212.872 50.2848C212.853 50.2589 212.839 50.2293 212.831 50.1979C212.823 50.1664 212.822 50.1337 212.827 50.1017C212.837 50.0376 212.872 49.98 212.924 49.941C212.976 49.902 213.041 49.8848 213.105 49.8928C213.48 49.9692 213.831 50.136 214.127 50.3787C214.423 50.6214 214.655 50.9326 214.804 51.2854C214.818 51.3145 214.825 51.3462 214.826 51.3783C214.828 51.4105 214.822 51.4426 214.81 51.4725C214.799 51.5025 214.781 51.5298 214.758 51.5527C214.736 51.5756 214.709 51.5936 214.679 51.6057C214.65 51.6266 214.616 51.6409 214.581 51.6475Z" fill="#263238"/>
<path d="M206.608 49.8024C206.552 49.8019 206.498 49.7823 206.455 49.7467C206.405 49.7046 206.373 49.6447 206.367 49.5797C206.36 49.5146 206.38 49.4496 206.42 49.3985C206.666 49.0933 206.978 48.8485 207.333 48.6831C207.688 48.5177 208.076 48.4361 208.467 48.4446C208.5 48.4472 208.531 48.4561 208.559 48.4709C208.588 48.4856 208.613 48.5059 208.634 48.5305C208.655 48.5551 208.67 48.5835 208.68 48.6142C208.69 48.6449 208.693 48.6771 208.69 48.7092C208.689 48.7416 208.68 48.7733 208.666 48.8023C208.651 48.8314 208.631 48.8571 208.606 48.878C208.582 48.8989 208.553 48.9145 208.522 48.9238C208.491 48.933 208.458 48.9358 208.426 48.932C208.113 48.9287 207.803 48.9973 207.52 49.1325C207.238 49.2677 206.99 49.4659 206.796 49.7118C206.774 49.7403 206.745 49.7632 206.713 49.7789C206.68 49.7946 206.645 49.8026 206.608 49.8024V49.8024Z" fill="#263238"/>
<path d="M230.283 74.9808C230.826 75.8234 231.278 76.5684 231.738 77.3761C232.197 78.1838 232.636 78.9637 233.068 79.7714C233.917 81.3799 234.718 83.0232 235.449 84.7013C236.983 88.1367 238.134 91.7304 238.882 95.4174L238.952 95.7726L238.986 95.9466L239.035 96.2391C239.094 96.6286 239.125 97.0219 239.126 97.4158C239.119 98.0755 239.049 98.733 238.917 99.3794C238.681 100.446 238.341 101.486 237.9 102.485C237.118 104.236 236.187 105.915 235.115 107.505C233.09 110.529 230.786 113.356 228.235 115.952L225.207 113.521C226.892 110.583 228.57 107.533 229.976 104.546C230.668 103.117 231.259 101.642 231.745 100.131C231.944 99.5012 232.079 98.8528 232.149 98.1957C232.173 97.9805 232.173 97.7633 232.149 97.5481C232.149 97.4855 232.149 97.4298 232.107 97.4228C232.065 97.4158 232.107 97.4228 232.107 97.388L232.065 97.2487L231.982 96.9632C231.542 95.4274 231.019 93.9165 230.415 92.4372C229.802 90.9263 229.12 89.4222 228.403 87.9252C227.685 86.4281 226.913 84.952 226.119 83.4758C225.729 82.7377 225.318 82.0066 224.907 81.2824L223.682 79.1935L230.283 74.9808Z" fill="#E4897B"/>
<path d="M214.275 247.909C213.927 247.943 213.579 247.847 213.3 247.637C213.221 247.55 213.166 247.444 213.139 247.329C213.112 247.215 213.115 247.096 213.147 246.982C213.162 246.906 213.196 246.835 213.246 246.776C213.296 246.716 213.36 246.67 213.432 246.641C214.066 246.391 215.521 247.393 215.688 247.505C215.709 247.517 215.725 247.537 215.733 247.559C215.742 247.582 215.743 247.607 215.737 247.63C215.733 247.653 215.723 247.675 215.707 247.693C215.69 247.71 215.669 247.722 215.646 247.728C215.197 247.836 214.737 247.896 214.275 247.909V247.909ZM213.669 246.843C213.62 246.835 213.571 246.835 213.523 246.843C213.487 246.856 213.456 246.878 213.433 246.908C213.409 246.937 213.395 246.973 213.39 247.01C213.365 247.083 213.359 247.162 213.374 247.237C213.389 247.313 213.423 247.384 213.474 247.442C213.711 247.679 214.386 247.707 215.312 247.526C214.82 247.184 214.259 246.954 213.669 246.85V246.843Z" fill="white"/>
<path d="M215.618 247.734H215.555C215.04 247.428 214.274 246.342 214.393 245.785C214.413 245.683 214.468 245.591 214.547 245.524C214.627 245.456 214.727 245.418 214.831 245.416C214.923 245.404 215.016 245.413 215.104 245.442C215.192 245.471 215.273 245.519 215.34 245.583C215.862 246.091 215.743 247.574 215.743 247.637C215.741 247.658 215.733 247.678 215.721 247.695C215.709 247.712 215.693 247.725 215.674 247.734H215.618ZM214.922 245.646H214.866C214.692 245.646 214.65 245.75 214.636 245.82C214.56 246.189 215.068 247.003 215.514 247.379C215.578 246.815 215.461 246.244 215.179 245.75C215.144 245.716 215.103 245.689 215.058 245.671C215.012 245.653 214.964 245.645 214.915 245.646H214.922Z" fill="white"/>
<path d="M226.989 244.984C226.86 244.988 226.732 244.964 226.613 244.914C226.521 244.878 226.44 244.819 226.376 244.744C226.311 244.669 226.266 244.579 226.244 244.483C226.226 244.424 226.224 244.362 226.238 244.302C226.251 244.242 226.28 244.187 226.321 244.141C226.787 243.577 229.231 243.745 229.51 243.765C229.536 243.766 229.561 243.776 229.581 243.792C229.601 243.808 229.615 243.831 229.621 243.856C229.627 243.881 229.624 243.907 229.614 243.931C229.604 243.955 229.587 243.975 229.566 243.988C228.788 244.501 227.909 244.84 226.989 244.984V244.984ZM228.465 243.967C227.609 243.967 226.711 244.051 226.509 244.295C226.497 244.313 226.491 244.335 226.491 244.357C226.491 244.379 226.497 244.401 226.509 244.42C226.52 244.48 226.547 244.537 226.586 244.584C226.625 244.631 226.675 244.668 226.732 244.692C227.122 244.852 227.999 244.587 229.106 243.995L228.465 243.967Z" fill="white"/>
<path d="M229.503 244.009C228.807 244.009 227.24 243.473 227.122 242.916C227.122 242.777 227.122 242.582 227.456 242.422C228.653 241.858 229.58 243.752 229.621 243.814C229.63 243.834 229.634 243.855 229.634 243.877C229.634 243.898 229.63 243.92 229.621 243.94C229.61 243.961 229.593 243.979 229.572 243.991C229.551 244.003 229.527 244.01 229.503 244.009V244.009ZM227.894 242.568C227.776 242.567 227.66 242.593 227.553 242.644C227.407 242.714 227.337 242.791 227.351 242.86C227.421 243.188 228.549 243.647 229.287 243.745C229.064 243.369 228.528 242.568 227.894 242.568V242.568Z" fill="white"/>
<path d="M226.585 112.393L221.474 111.495L224.113 117.449C224.113 117.449 228.799 117.449 228.59 114.998L226.585 112.393Z" fill="#E4897B"/>
<path d="M217.609 114.482L220.026 119.294L224.085 117.442L221.446 111.495L217.609 114.482Z" fill="#E4897B"/>
<path d="M232.218 233.042L224.51 240.305L222.024 237.638L230.847 229.603L232.218 233.042Z" fill="#407BFF"/>
<path opacity="0.6" d="M232.218 233.042L224.51 240.305L222.024 237.638L230.847 229.603L232.218 233.042Z" fill="white"/>
<path d="M223.668 240.333H213.453L212.889 236.747L224.162 237.304L223.668 240.333Z" fill="#407BFF"/>
<path opacity="0.6" d="M223.668 240.333H213.453L212.889 236.747L224.162 237.304L223.668 240.333Z" fill="white"/>
<path d="M228.946 71.4226C233.82 72.1189 238.812 89.0531 238.812 89.0531L228.368 94.8464C228.368 94.8464 224.127 86.7971 222.101 80.8228C219.977 74.563 223.73 70.6567 228.946 71.4226Z" fill="#407BFF"/>
<path opacity="0.7" d="M228.946 71.4226C233.82 72.1189 238.812 89.0531 238.812 89.0531L228.368 94.8464C228.368 94.8464 224.127 86.7971 222.101 80.8228C219.977 74.563 223.73 70.6567 228.946 71.4226Z" fill="white"/>
<path opacity="0.2" d="M211.419 73.3793L209.331 75.6005L210.354 77.7451L212.018 77.8217L213.439 75.7746L211.419 73.3793Z" fill="black"/>
<path d="M210.536 77.3622C210.536 77.3622 206.574 93.7741 206.42 97.186C206.205 101.879 208.168 109.894 208.168 109.894C208.168 109.894 210.953 103.23 211.524 97.0398C212.095 90.8496 211.671 80.8368 211.928 77.3622H210.536Z" fill="#407BFF"/>
<path opacity="0.2" d="M210.536 77.3622C210.536 77.3622 206.574 93.7741 206.42 97.186C206.205 101.879 208.168 109.894 208.168 109.894C208.168 109.894 210.953 103.23 211.524 97.0398C212.095 90.8496 211.671 80.8368 211.928 77.3622H210.536Z" fill="black"/>
<path d="M211.419 73.3792C212.213 74.6637 212.672 76.1262 212.756 77.6336C212.756 77.6336 221.446 74.5699 221.035 70.0787C221.035 70.0787 219.803 69.3476 219.023 68.7557C219.023 68.7557 218.731 71.5827 211.419 73.3792Z" fill="#407BFF"/>
<path opacity="0.6" d="M211.419 73.3792C212.213 74.6637 212.672 76.1262 212.756 77.6336C212.756 77.6336 221.446 74.5699 221.035 70.0787C221.035 70.0787 219.803 69.3476 219.023 68.7557C219.023 68.7557 218.731 71.5827 211.419 73.3792Z" fill="white"/>
<path d="M211.42 73.3792C210.621 74.5952 210.046 75.944 209.721 77.3621C209.721 77.3621 205.787 74.7022 206.971 70.2667C207.691 69.9762 208.434 69.7434 209.192 69.5704C209.192 69.5704 208.677 72.4392 211.42 73.3792Z" fill="#407BFF"/>
<path opacity="0.6" d="M211.42 73.3792C210.621 74.5952 210.046 75.944 209.721 77.3621C209.721 77.3621 205.787 74.7022 206.971 70.2667C207.691 69.9762 208.434 69.7434 209.192 69.5704C209.192 69.5704 208.677 72.4392 211.42 73.3792Z" fill="white"/>
</svg>
