<svg width="301" height="327" viewBox="0 0 301 327" fill="none" xmlns="http://www.w3.org/2000/svg">
<path d="M30.794 155.144L21.1169 155.343L16.2046 155.432C14.5598 155.432 12.9076 155.432 11.2628 155.468H10.9383V155.144L10.894 146.89V146.514H11.2628L21.0284 146.558C24.2885 146.558 27.5413 146.64 30.794 146.676H31.0005V146.876C31.0005 148.27 30.9342 149.664 30.9047 151.043L30.794 155.144ZM30.794 155.144L30.6908 150.969C30.6908 149.597 30.6096 148.24 30.5949 146.89L30.794 147.089C27.5413 147.126 24.2885 147.207 21.0284 147.207L11.2628 147.259L11.6316 146.89V155.144L11.2997 154.812C12.9076 154.812 14.5156 154.812 16.1309 154.812L20.9842 154.9L30.794 155.144Z" fill="#EBEBEB"/>
<path d="M19.9 165.551L10.2229 165.75L5.31059 165.839C3.66579 165.839 2.0136 165.839 0.368791 165.876H0.044256V165.551L0 157.298V156.944H0.368791L10.1344 156.988C13.3871 156.988 16.6472 157.069 19.9 157.106H20.1065V157.305C20.1065 158.699 20.0475 160.093 20.0106 161.472L19.9 165.551ZM19.9 165.551L19.7967 161.369C19.7598 159.997 19.7156 158.64 19.7008 157.29L19.9 157.489C16.6472 157.526 13.3871 157.607 10.1344 157.607L0.368791 157.681L0.737582 157.32L0.700704 165.573L0.368791 165.241C1.97672 165.241 3.58465 165.241 5.19996 165.278L10.0532 165.367L19.9 165.551Z" fill="#EBEBEB"/>
<path d="M234.359 244.649L224.682 244.849L219.77 244.937C218.125 244.937 216.473 244.937 214.828 244.974H214.504V244.649L214.459 236.396V236.02H214.828L224.594 236.064C227.854 236.064 231.107 236.145 234.359 236.182H234.566V236.381C234.566 237.775 234.5 239.169 234.463 240.549L234.359 244.649ZM234.359 244.649L234.256 240.475C234.256 239.103 234.175 237.746 234.16 236.396L234.359 236.595C231.107 236.632 227.854 236.713 224.594 236.713L214.828 236.765L215.197 236.396L215.16 244.649L214.828 244.318C216.436 244.318 218.044 244.318 219.659 244.354L224.513 244.443L234.359 244.649Z" fill="#EBEBEB"/>
<path d="M223.465 255.042L213.788 255.241L208.869 255.33C207.231 255.33 205.579 255.33 203.934 255.33H203.61V255.042L203.573 246.788V246.412H203.942L213.707 246.457C216.96 246.457 220.22 246.538 223.473 246.575H223.679V246.774C223.679 248.168 223.62 249.562 223.583 250.941L223.465 255.042ZM223.465 255.042L223.362 250.867C223.325 249.495 223.281 248.138 223.266 246.788L223.465 246.988C220.213 246.988 216.953 247.106 213.7 247.106L203.934 247.157L204.303 246.788L204.266 255.042L203.934 254.71C205.542 254.71 207.15 254.71 208.765 254.747L213.611 254.835L223.465 255.042Z" fill="#EBEBEB"/>
<path d="M300.801 165.551L291.116 165.75L286.204 165.839C284.567 165.839 282.914 165.839 281.27 165.876H280.938V165.551L280.901 157.298V156.944H281.27L291.035 156.988C294.288 156.988 297.548 157.069 300.801 157.106H301V157.305C301 158.699 300.941 160.093 300.904 161.472L300.801 165.551ZM300.801 165.551L300.698 161.376C300.698 160.005 300.609 158.647 300.602 157.298L300.801 157.497C297.548 157.534 294.288 157.615 291.035 157.615L281.27 157.659L281.638 157.298L281.594 165.551L281.27 165.219C282.878 165.219 284.486 165.219 286.093 165.256L290.947 165.345L300.801 165.551Z" fill="#EBEBEB"/>
<path d="M289.907 19.1632L280.222 19.3698L275.31 19.4509C273.673 19.4509 272.02 19.4509 270.376 19.4951H270.073V19.1632V10.9097V10.5409H270.449L280.215 10.5851C283.468 10.5851 286.72 10.6737 289.981 10.7105H290.18V10.9023C290.18 12.3037 290.113 13.6977 290.084 15.0697L289.907 19.1632ZM289.907 19.1632L289.804 14.9959C289.767 13.6166 289.715 12.2595 289.7 10.9097L289.907 11.1088C286.647 11.1088 283.394 11.2268 280.141 11.2342L270.376 11.2785L270.744 10.9097L270.7 19.1632L270.376 18.8313C271.984 18.8313 273.584 18.8313 275.199 18.8756L280.053 18.9567L289.907 19.1632Z" fill="#EBEBEB"/>
<path d="M300.801 29.5705L291.116 29.777L286.204 29.8581C284.567 29.8581 282.914 29.8581 281.27 29.9024H280.938V29.5705L280.901 21.3169V20.9481H281.27L291.035 20.9924C294.288 20.9924 297.548 21.0809 300.801 21.1178H301V21.3169C301 22.7183 300.941 24.1123 300.904 25.4843L300.801 29.5705ZM300.801 29.5705L300.698 25.4031C300.698 24.0238 300.609 22.6667 300.602 21.3169L300.801 21.5161C297.548 21.5161 294.288 21.6341 291.035 21.6414L281.27 21.6857L281.638 21.3169L281.594 29.5705L281.27 29.2385C282.878 29.2385 284.486 29.2385 286.093 29.2828L290.947 29.3639L300.801 29.5705Z" fill="#EBEBEB"/>
<path d="M30.794 19.1632L21.1169 19.3697L16.2046 19.4508C14.5598 19.4508 12.9076 19.4508 11.2628 19.4951H10.9383V19.1632L10.894 10.9022V10.5334H11.2628L21.0284 10.5777C24.2885 10.5777 27.5413 10.6662 30.794 10.7031H31.0005V10.9022C31.0005 12.3036 30.9342 13.6977 30.9047 15.0696L30.794 19.1632ZM30.794 19.1632L30.6908 14.9958C30.6908 13.6165 30.6096 12.2594 30.5949 10.9096L30.794 11.1088C27.5413 11.1088 24.2885 11.2268 21.0284 11.2342L11.2628 11.2784L11.6316 10.9096V19.1632L11.2997 18.8312C12.9076 18.8312 14.5156 18.8313 16.1309 18.8755L20.9842 18.9566L30.794 19.1632Z" fill="#EBEBEB"/>
<path d="M143.452 109.93L133.775 110.129L128.863 110.218C127.218 110.218 125.566 110.218 123.921 110.218H123.596V109.893L123.56 101.64V101.263H123.928L133.694 101.308C136.947 101.308 140.207 101.389 143.46 101.426H143.666V101.625C143.666 103.019 143.607 104.413 143.57 105.792L143.452 109.93ZM143.452 109.93L143.349 105.755C143.312 104.383 143.268 103.026 143.253 101.676L143.452 101.876C140.199 101.876 136.939 101.994 133.687 101.994L123.921 102.045L124.29 101.676V109.93L123.958 109.598C125.566 109.598 127.174 109.598 128.789 109.642L133.62 109.738L143.452 109.93Z" fill="#EBEBEB"/>
<path d="M40.2648 27.6306H1.64502V74.4745H40.2648V27.6306Z" fill="#EBEBEB"/>
<path d="M35.8539 31.9012H6.06299V70.1965H35.8539V31.9012Z" fill="white"/>
<path d="M7.22837 31.9012H6.06299V70.1965H7.22837V31.9012Z" fill="#DBDBDB"/>
<path d="M41.43 27.6306H40.2646V74.4745H41.43V27.6306Z" fill="#DBDBDB"/>
<path d="M23.0643 37.1824H16.0425V58.115H23.0643V37.1824Z" fill="#DBDBDB"/>
<path d="M32.0776 62.0536H12.6128V51.0636H32.0776V62.0536ZM13.3504 61.316H31.34V51.8012H13.3504V61.316Z" fill="#EBEBEB"/>
<path d="M40.2648 87.6108H1.64502V134.455H40.2648V87.6108Z" fill="#EBEBEB"/>
<path d="M35.8539 91.8888H6.06299V130.184H35.8539V91.8888Z" fill="white"/>
<path d="M7.22837 91.8888H6.06299V130.184H7.22837V91.8888Z" fill="#DBDBDB"/>
<path d="M41.43 87.6108H40.2646V134.455H41.43V87.6108Z" fill="#DBDBDB"/>
<path d="M24.0895 101.787H18.0708V117.004H24.0895V101.787Z" fill="#EBEBEB"/>
<path d="M30.7941 121.894H13.8887V110.668H30.7941V121.894ZM14.6263 121.156H30.0565V111.405H14.6263V121.156Z" fill="#DBDBDB"/>
<path d="M167.675 252.387H297.29L299.99 199.207H164.975L167.675 252.387Z" fill="#EBEBEB"/>
<path d="M291.146 223.547H236.956L235.945 205.108H292.333L291.146 223.547ZM237.575 222.898H290.534L291.64 205.742H236.631L237.575 222.898Z" fill="#DBDBDB"/>
<path d="M290.15 244.79H239.095L238.269 228.128H291.205L290.15 244.79ZM239.699 244.141H289.531L290.497 228.777H238.94L239.699 244.141Z" fill="#DBDBDB"/>
<path d="M269.269 216.319H260.168L259.592 211.893H269.845L269.269 216.319ZM260.743 215.662H268.694L269.1 212.52H260.337L260.743 215.662Z" fill="#DBDBDB"/>
<path d="M269.269 238.682H260.168L259.592 234.257H269.845L269.269 238.682ZM260.743 238.033H268.694L269.1 234.884H260.337L260.743 238.033Z" fill="#DBDBDB"/>
<path d="M227.404 223.547H173.214L172.203 205.108H228.591L227.404 223.547ZM173.833 222.898H226.792L227.898 205.742H172.889L173.833 222.898Z" fill="#DBDBDB"/>
<path d="M226.408 244.79H175.338L174.512 228.128H227.448L226.408 244.79ZM175.965 244.141H225.818L226.777 228.777H175.22L175.965 244.141Z" fill="#DBDBDB"/>
<path d="M205.527 216.319H196.425L195.85 211.893H206.102L205.527 216.319ZM197.001 215.662H204.952L205.358 212.52H196.595L197.001 215.662Z" fill="#DBDBDB"/>
<path d="M205.527 238.682H196.425L195.85 234.257H206.102L205.527 238.682ZM197.001 238.033H204.952L205.358 234.884H196.595L197.001 238.033Z" fill="#DBDBDB"/>
<path d="M179.299 252.387L178.48 258.184L176.843 269.823H173.642V252.387H179.299Z" fill="#EBEBEB"/>
<path d="M179.299 252.387L178.48 258.184H173.642V252.387H179.299Z" fill="#DBDBDB"/>
<path d="M285.666 252.387L286.484 258.184L288.122 269.823H291.323V252.387H285.666Z" fill="#EBEBEB"/>
<path d="M285.666 252.387L286.484 258.184H291.323V252.387H285.666Z" fill="#DBDBDB"/>
<path d="M150.585 326.057C225.811 326.057 286.794 317.55 286.794 307.056C286.794 296.563 225.811 288.056 150.585 288.056C75.3585 288.056 14.3755 296.563 14.3755 307.056C14.3755 317.55 75.3585 326.057 150.585 326.057Z" fill="#EBEBEB"/>
<path d="M291.802 86.8806L277.087 18.9566L263.486 86.8806L262.837 86.7847L277.065 15.7555L292.451 86.7773L291.802 86.8806Z" fill="#DBDBDB"/>
<path d="M287.871 154.738L277.243 115.727L267.418 154.731L266.784 154.568L277.22 113.138L288.498 154.561L287.871 154.738Z" fill="#DBDBDB"/>
<path d="M278.423 16.9872C278.423 17.2542 278.344 17.5152 278.195 17.7371C278.047 17.9591 277.836 18.1321 277.589 18.2343C277.343 18.3364 277.071 18.3632 276.81 18.3111C276.548 18.259 276.307 18.1305 276.118 17.9417C275.93 17.7529 275.801 17.5124 275.749 17.2506C275.697 16.9887 275.724 16.7174 275.826 16.4707C275.928 16.2241 276.101 16.0133 276.323 15.8649C276.545 15.7166 276.806 15.6375 277.073 15.6375C277.25 15.6365 277.426 15.6707 277.591 15.7382C277.755 15.8057 277.904 15.9051 278.03 16.0306C278.155 16.1562 278.254 16.3054 278.322 16.4696C278.389 16.6338 278.424 16.8097 278.423 16.9872V16.9872Z" fill="#A6A6A6"/>
<path d="M291.603 159.083L291.117 165.448L289.966 180.598H265.559L264.409 165.448L263.922 159.083H291.603Z" fill="#ADB9E3"/>
<path opacity="0.1" d="M291.603 159.083L291.117 165.448H264.409L263.922 159.083H291.603Z" fill="black"/>
<path d="M293.27 157.047H262.248V161.989H293.27V157.047Z" fill="#ADB9E3"/>
<path d="M294.119 156.022C294.105 156.222 294.051 156.417 293.959 156.595C293.868 156.774 293.741 156.932 293.586 157.059C293.432 157.187 293.253 157.282 293.06 157.338C292.867 157.394 292.666 157.411 292.466 157.386C292.262 157.647 291.98 157.838 291.661 157.93C291.342 158.023 291.002 158.013 290.689 157.902C290.538 158.24 290.286 158.523 289.967 158.712C289.649 158.901 289.28 158.986 288.911 158.957C289.042 159.391 289.007 159.858 288.812 160.267C288.617 160.677 288.276 160.998 287.857 161.17C287.783 161.416 287.627 161.63 287.415 161.775C287.203 161.92 286.947 161.987 286.691 161.966C286.404 161.925 286.131 161.818 285.893 161.653C285.655 161.488 285.458 161.269 285.319 161.015C285.2 161.172 285.049 161.302 284.876 161.398C284.704 161.493 284.513 161.551 284.316 161.569C284.12 161.586 283.922 161.562 283.735 161.499C283.548 161.435 283.377 161.333 283.232 161.199C283.071 161.037 282.961 160.831 282.917 160.606C282.872 160.382 282.895 160.15 282.981 159.938C282.885 159.887 282.794 159.828 282.708 159.761C282.521 159.568 282.381 159.335 282.298 159.079C282.214 158.823 282.191 158.552 282.229 158.286C281.822 158.448 281.367 158.448 280.96 158.286C280.911 158.486 280.799 158.665 280.641 158.798C280.484 158.93 280.288 159.009 280.082 159.023C280.161 159.288 280.174 159.567 280.123 159.837C280.072 160.108 279.957 160.362 279.787 160.58C279.592 160.801 279.345 160.971 279.069 161.075C278.792 161.179 278.495 161.214 278.202 161.177C278.379 162.011 278.416 162.962 277.656 163.515C277.478 163.646 277.268 163.726 277.049 163.747C276.829 163.768 276.608 163.728 276.409 163.633C276.369 163.846 276.285 164.049 276.163 164.228C276.041 164.407 275.883 164.559 275.7 164.675C275.517 164.79 275.311 164.867 275.097 164.899C274.883 164.932 274.664 164.921 274.455 164.865C274.58 165.363 274.514 165.889 274.27 166.34C274.159 166.525 274.006 166.681 273.825 166.798C273.643 166.914 273.437 166.987 273.223 167.011C273.223 167.823 272.869 168.715 271.917 168.701C271.777 168.695 271.64 168.659 271.515 168.595C271.39 168.531 271.281 168.44 271.195 168.328C271.109 168.217 271.049 168.089 271.018 167.951C270.987 167.814 270.987 167.672 271.018 167.535C270.81 167.49 270.617 167.39 270.461 167.246C270.304 167.103 270.188 166.92 270.125 166.716C270.062 166.513 270.054 166.297 270.102 166.089C270.15 165.882 270.252 165.691 270.398 165.536C270.19 165.374 270.021 165.165 269.905 164.928C269.789 164.69 269.729 164.429 269.729 164.164C269.729 163.9 269.789 163.639 269.905 163.401C270.021 163.163 270.19 162.955 270.398 162.793C270.285 162.682 270.196 162.549 270.137 162.402C270.078 162.256 270.05 162.098 270.055 161.94C270.06 161.782 270.097 161.627 270.165 161.484C270.233 161.341 270.33 161.214 270.45 161.111C270.269 160.963 270.125 160.776 270.028 160.563C269.931 160.351 269.883 160.12 269.889 159.886C269.912 159.605 270.005 159.333 270.16 159.096C270.315 158.859 270.526 158.664 270.774 158.529C270.677 158.492 270.588 158.435 270.514 158.361C270.441 158.288 270.383 158.199 270.346 158.101C270.342 158.057 270.342 158.013 270.346 157.969C270.204 158.03 270.051 158.062 269.896 158.062C269.742 158.062 269.589 158.03 269.447 157.969C269.258 157.88 269.101 157.736 268.997 157.556C268.764 157.777 268.478 157.934 268.166 158.011C267.855 158.089 267.528 158.084 267.219 157.998C267.12 158.201 266.975 158.379 266.796 158.518C266.617 158.656 266.408 158.751 266.187 158.796C265.965 158.841 265.736 158.834 265.517 158.777C265.298 158.719 265.096 158.611 264.925 158.463C264.365 158.964 263.605 159.451 262.875 158.994C262.738 158.906 262.627 158.783 262.553 158.638C262.479 158.492 262.445 158.33 262.454 158.168C262.265 158.172 262.078 158.124 261.915 158.027C261.752 157.931 261.619 157.79 261.532 157.622C261.435 157.426 261.408 157.204 261.455 156.99C261.502 156.777 261.62 156.586 261.79 156.449C261.613 156.322 261.489 156.132 261.444 155.918C261.426 155.77 261.44 155.621 261.484 155.478C261.528 155.336 261.601 155.205 261.699 155.093C261.797 154.981 261.918 154.891 262.053 154.829C262.188 154.766 262.335 154.733 262.484 154.731C262.396 154.481 262.377 154.212 262.429 153.953C262.481 153.693 262.602 153.452 262.779 153.256C263.004 153.029 263.278 152.856 263.579 152.749C263.88 152.642 264.202 152.603 264.519 152.636C264.455 152.255 264.508 151.863 264.673 151.514C264.838 151.164 265.106 150.874 265.441 150.681C265.76 150.526 266.122 150.486 266.466 150.568C266.811 150.65 267.116 150.849 267.33 151.131C267.539 150.817 267.818 150.554 268.145 150.366C268.473 150.177 268.839 150.066 269.216 150.043C269.594 150.019 269.971 150.083 270.319 150.23C270.668 150.376 270.977 150.602 271.224 150.888C271.353 150.612 271.581 150.395 271.862 150.279C272.143 150.163 272.458 150.157 272.744 150.261C273.116 150.436 273.426 150.722 273.63 151.08C273.835 151.438 273.925 151.85 273.887 152.26C274.272 152.068 274.702 151.985 275.13 152.019C275.559 152.053 275.97 152.202 276.321 152.452C276.625 152.69 276.868 152.998 277.03 153.35C277.191 153.701 277.267 154.086 277.25 154.473C277.603 154.275 278.005 154.183 278.409 154.207C278.813 154.23 279.201 154.369 279.529 154.605C280.11 153.736 280.964 153.085 281.956 152.754C282.296 152.67 282.65 152.664 282.993 152.737C283.335 152.81 283.656 152.96 283.933 153.174C284.078 152.666 284.37 152.211 284.771 151.867C285.173 151.522 285.667 151.303 286.192 151.237C286.716 151.171 287.249 151.261 287.724 151.495C288.198 151.73 288.593 152.098 288.86 152.555C289.135 152.326 289.469 152.179 289.824 152.132C290.179 152.085 290.541 152.14 290.866 152.289C291.305 152.529 291.689 152.859 291.992 153.257C292.296 153.654 292.513 154.111 292.629 154.598C293.014 154.594 293.385 154.74 293.663 155.006C293.942 155.272 294.105 155.637 294.119 156.022V156.022Z" fill="#455A64"/>
<path d="M296.257 88.6876L295.608 97.1993L294.074 117.439H261.451L259.917 97.1993L259.268 88.6876H296.257Z" fill="#ADB9E3"/>
<path opacity="0.1" d="M296.257 88.6876L295.608 97.1993H259.917L259.268 88.6876H296.257Z" fill="black"/>
<path d="M298.492 85.9659H257.033V92.5673H298.492V85.9659Z" fill="#ADB9E3"/>
<path d="M297.548 87.6108C297.815 87.9145 298 88.2805 298.088 88.675C298.176 89.0695 298.163 89.4797 298.05 89.8678C297.799 90.3945 297.446 90.8664 297.012 91.2563C296.578 91.6462 296.071 91.9464 295.52 92.1395C295.746 92.4524 295.902 92.8098 295.979 93.188C296.056 93.5661 296.052 93.9563 295.966 94.3325C295.88 94.7088 295.715 95.0624 295.481 95.3698C295.248 95.6771 294.952 95.9312 294.613 96.1151C295.601 97.2731 296.007 98.586 294.731 99.4416C294.965 99.7737 295.128 100.151 295.209 100.549C295.291 100.947 295.29 101.357 295.205 101.755C295.121 102.152 294.955 102.528 294.719 102.859C294.482 103.189 294.18 103.467 293.831 103.675C294.111 104.59 293.226 107.319 291.353 107.312C291.007 107.311 290.668 107.22 290.368 107.048C290.069 106.876 289.82 106.628 289.646 106.33C289.472 106.031 289.38 105.693 289.378 105.347C289.375 105.002 289.464 104.662 289.634 104.361C289.316 104.189 289.043 103.944 288.836 103.647C288.629 103.35 288.495 103.009 288.443 102.651C288.391 102.292 288.424 101.927 288.539 101.584C288.653 101.241 288.847 100.929 289.103 100.673C289.103 100.673 287.945 100.924 287.392 100.334C287.242 100.104 287.155 99.8388 287.138 99.5648C287.122 99.2909 287.176 99.0172 287.296 98.7704C287.066 98.4838 286.898 98.1524 286.803 97.7972C286.709 97.4421 286.689 97.0711 286.746 96.708C286.803 96.3449 286.935 95.9977 287.134 95.6885C287.333 95.3794 287.594 95.1152 287.901 94.9128C287.672 94.7054 287.49 94.4526 287.365 94.1707C287.241 93.8887 287.176 93.5837 287.176 93.2754C287.176 92.967 287.241 92.6621 287.365 92.3801C287.49 92.0982 287.672 91.8454 287.901 91.638C287.376 91.4005 286.928 91.0195 286.61 90.539C285.666 90.9889 285.098 90.5906 284.574 89.6981C284.284 90.0228 283.905 90.2548 283.484 90.365C283.063 90.4752 282.618 90.4588 282.207 90.3177C282.099 90.7006 281.904 91.0537 281.639 91.3499C281.373 91.6461 281.043 91.8775 280.675 92.0263C280.306 92.1752 279.908 92.2375 279.511 92.2085C279.114 92.1796 278.729 92.0601 278.386 91.8592C278.335 92.5641 278.079 93.2387 277.648 93.7991C277.515 93.9761 277.361 94.1089 277.213 94.2711C277.05 94.4834 276.911 94.7135 276.8 94.9571C276.582 95.3415 276.289 95.6777 275.937 95.9454C275.629 96.1954 275.24 96.3243 274.843 96.308C274.447 96.2917 274.07 96.1313 273.783 95.8569C273.635 95.6836 273.538 95.4721 273.504 95.2464C273.471 95.0208 273.501 94.7902 273.592 94.5809C273.175 94.4398 272.832 94.1392 272.637 93.745C272.442 93.3509 272.411 92.8955 272.552 92.4788C272.143 92.509 271.734 92.4145 271.38 92.2078C271.026 92.001 270.742 91.6918 270.567 91.3208C270.374 91.5702 270.127 91.7731 269.845 91.9147C269.563 92.0564 269.253 92.1332 268.937 92.1395C269.139 92.7204 269.11 93.3567 268.856 93.9168C268.602 94.477 268.143 94.9181 267.573 95.1489C267.753 95.4441 267.869 95.774 267.913 96.117C267.957 96.46 267.928 96.8084 267.828 97.1395C267.729 97.4707 267.561 97.7772 267.335 98.0391C267.109 98.301 266.831 98.5125 266.518 98.6597C266.739 99.0368 266.809 99.4835 266.715 99.9102C266.621 100.337 266.369 100.712 266.009 100.961C266.15 101.274 266.216 101.616 266.202 101.959C266.188 102.302 266.094 102.637 265.928 102.938C265.786 103.159 265.585 103.336 265.348 103.451C265.111 103.565 264.847 103.612 264.586 103.587C264.424 103.546 264.275 103.467 264.15 103.358C264.024 103.248 263.926 103.11 263.864 102.956C263.801 102.802 263.776 102.635 263.79 102.469C263.804 102.303 263.857 102.143 263.944 102.001C263.518 101.848 263.138 101.589 262.839 101.248C262.541 100.907 262.334 100.496 262.238 100.054C262.142 99.6114 262.161 99.1517 262.291 98.7182C262.422 98.2846 262.661 97.8914 262.985 97.5755C262.652 97.4845 262.344 97.3167 262.088 97.0856C261.831 96.8544 261.632 96.5664 261.506 96.2445C261.381 95.9226 261.333 95.5757 261.365 95.2318C261.398 94.8878 261.511 94.5563 261.694 94.2638C261.328 94.1901 260.987 94.0227 260.705 93.7779C260.422 93.5331 260.208 93.2192 260.084 92.867C259.959 92.5148 259.927 92.1363 259.992 91.7683C260.058 91.4003 260.217 91.0556 260.455 90.7676C260.238 90.8003 260.016 90.7776 259.809 90.7015C259.603 90.6255 259.419 90.4985 259.275 90.3324C259.114 90.1208 259.028 89.8611 259.032 89.5949C258.683 89.6718 258.318 89.6362 257.991 89.4931C257.664 89.3499 257.39 89.1067 257.21 88.7983C257.054 88.4849 257.002 88.13 257.062 87.7851C257.121 87.4402 257.29 87.1233 257.542 86.8806C257.314 86.8066 257.109 86.6756 256.946 86.5C256.784 86.3244 256.669 86.1101 256.612 85.8774C256.552 85.5935 256.588 85.2974 256.716 85.0366C256.497 85.0822 256.272 85.0823 256.054 85.0369C255.836 84.9916 255.629 84.9017 255.447 84.773C255.265 84.6443 255.111 84.4795 254.996 84.2888C254.881 84.0981 254.806 83.8856 254.776 83.6647C254.747 83.3697 254.819 83.0735 254.979 82.8244C255.14 82.5753 255.38 82.388 255.661 82.2928C255.497 81.9668 255.452 81.5935 255.536 81.2381C255.779 80.2276 256.944 79.9178 257.866 79.8071C257.75 79.4678 257.725 79.1042 257.791 78.7519C257.858 78.3996 258.015 78.0706 258.247 77.7971C258.479 77.5236 258.778 77.3149 259.114 77.1915C259.451 77.068 259.814 77.034 260.168 77.0928C260.135 76.7026 260.211 76.3109 260.387 75.9609C260.562 75.6109 260.831 75.3161 261.163 75.1087C261.509 74.9208 261.902 74.8368 262.295 74.8669C262.687 74.897 263.063 75.0399 263.376 75.2784H263.435C264.022 75.3703 264.557 75.6663 264.947 76.1143C265.337 76.5622 265.556 77.1334 265.567 77.7272C265.945 77.5219 266.368 77.4143 266.798 77.4143C267.229 77.4143 267.652 77.5219 268.03 77.7272C268.479 77.9968 268.864 78.3608 269.158 78.7938C269.452 79.2268 269.649 79.7185 269.734 80.2349C270.054 79.8993 270.448 79.6437 270.885 79.489C271.322 79.3342 271.79 79.2846 272.249 79.3443C272.709 79.4039 273.149 79.571 273.532 79.8322C273.915 80.0933 274.231 80.441 274.455 80.8471C274.805 80.4701 275.256 80.2014 275.755 80.0729C276.253 79.9444 276.778 79.9615 277.267 80.1222C277.756 80.2829 278.189 80.5804 278.514 80.9795C278.839 81.3786 279.043 81.8625 279.101 82.3739C279.962 81.662 280.987 81.1764 282.083 80.9612C283.18 80.7461 284.312 80.8083 285.378 81.1422C285.534 80.7229 285.784 80.3446 286.108 80.0359C286.432 79.7273 286.822 79.4963 287.248 79.3606C287.674 79.2249 288.126 79.1879 288.569 79.2525C289.012 79.3171 289.434 79.4815 289.804 79.7334C290.05 79.1458 290.48 78.6537 291.029 78.3306C291.578 78.0075 292.217 77.8709 292.85 77.9411C294.399 78.096 295.535 79.3425 296.169 80.6922C296.636 80.7078 297.092 80.834 297.5 81.0602C297.909 81.2865 298.258 81.6065 298.518 81.9939C298.779 82.3813 298.944 82.825 299 83.2885C299.055 83.7521 299 84.2223 298.839 84.6604C298.964 84.9371 299.03 85.2368 299.031 85.5404C299.033 85.8439 298.971 86.1445 298.85 86.4226C298.728 86.7007 298.549 86.9502 298.325 87.1548C298.101 87.3595 297.836 87.5148 297.548 87.6108Z" fill="#455A64"/>
<path d="M1.18018 269.897L38.5314 269.72L75.8825 269.654L150.585 269.528L225.287 269.654L262.638 269.713L299.99 269.897L262.638 270.074L225.287 270.14L150.585 270.266L75.8825 270.14L38.5314 270.074L1.18018 269.897Z" fill="#263238"/>
<path d="M260.92 15.6376H40.25V303.538H260.92V15.6376Z" fill="white"/>
<path d="M260.92 303.545L40.2498 303.619H40.1687V303.538L40.0654 15.6375V15.4531H40.2498L260.92 15.5343H261.023V15.6375L260.92 303.545ZM260.92 303.545L260.816 15.6375L260.92 15.7408L40.2498 15.8219L40.4342 15.6375L40.331 303.538L40.2498 303.464L260.92 303.545Z" fill="#263238"/>
<path d="M260.92 296.671H40.25V303.538H260.92V296.671Z" fill="#ADB9E3"/>
<path d="M64.1108 22.5044H48.1348V163.604H64.1108V22.5044Z" fill="#EBEBEB"/>
<path d="M253.042 155.631H237.066V296.73H253.042V155.631Z" fill="#EBEBEB"/>
<path d="M260.92 15.6376H40.25V22.5045H260.92V15.6376Z" fill="#455A64"/>
<path d="M190.695 68.2493H110.475V148.469H190.695V68.2493Z" fill="#C7C7C7"/>
<path d="M245.224 33.819H55.9458V56.0423H245.224V33.819Z" fill="#ADB9E3"/>
<path d="M92.8618 68.2493H55.9458V70.7497H92.8618V68.2493Z" fill="#455A64"/>
<path d="M92.8618 162.357H55.9458V164.858H92.8618V162.357Z" fill="#455A64"/>
<path d="M92.8618 262.263H55.9458V264.763H92.8618V262.263Z" fill="#455A64"/>
<path d="M92.8618 221.954H55.9458V224.454H92.8618V221.954Z" fill="#455A64"/>
<path d="M234.75 68.2493H197.834V70.7497H234.75V68.2493Z" fill="#455A64"/>
<path d="M55.9458 76.8126C59.8919 76.7019 63.8453 76.6503 67.7914 76.6061L79.6369 76.5397L91.4825 76.6061C95.436 76.6503 99.382 76.7019 103.335 76.8126C99.382 76.9306 95.436 76.9822 91.4825 77.0265L79.6369 77.0929L67.7914 77.0265C63.8453 76.9822 59.8624 76.9306 55.9458 76.8126Z" fill="#A6A6A6"/>
<path d="M55.9458 80.2349C59.8919 80.1243 63.8453 80.0653 67.7914 80.021L79.6369 79.962L91.4825 80.021C95.436 80.0653 99.382 80.1169 103.335 80.2349C99.382 80.353 95.436 80.4046 91.4825 80.4488L79.6369 80.5078L67.7914 80.4488C63.8453 80.3972 59.8624 80.3382 55.9458 80.2349Z" fill="#A6A6A6"/>
<path d="M55.9458 83.6426C59.8919 83.5246 63.8453 83.4729 67.7914 83.4287L79.6369 83.3623L91.4825 83.4287C95.436 83.4729 99.382 83.5246 103.335 83.6426C99.382 83.7532 95.436 83.8048 91.4825 83.8491L79.6369 83.9155L67.7914 83.8491C63.8453 83.8048 59.8624 83.7532 55.9458 83.6426Z" fill="#A6A6A6"/>
<path d="M55.9458 87.0503C59.8919 86.9396 63.8453 86.8806 67.7914 86.8364L79.6369 86.7773L91.4825 86.8364C95.436 86.8806 99.382 86.9396 103.335 87.0503C99.382 87.1683 95.436 87.2199 91.4825 87.2642L79.6369 87.3305L67.7914 87.2642C63.8453 87.2199 59.8624 87.1683 55.9458 87.0503Z" fill="#A6A6A6"/>
<path d="M55.9458 90.4652C57.9225 90.3472 59.8919 90.2956 61.8465 90.2513C63.8011 90.2071 65.7925 90.2071 67.7471 90.1849C69.7017 90.1628 71.6932 90.1849 73.6478 90.2513C75.6024 90.3177 77.6012 90.3472 79.5484 90.4652C77.5791 90.5758 75.6024 90.6349 73.6478 90.6791C71.6932 90.7234 69.7017 90.716 67.7471 90.7381C65.7925 90.7602 63.8011 90.7381 61.8465 90.6717C59.8919 90.6053 57.9225 90.5611 55.9458 90.4652Z" fill="#A6A6A6"/>
<path d="M55.9458 97.2878C59.8919 97.1698 63.8453 97.1182 67.7914 97.0739L79.6369 97.0076L91.4825 97.0739C95.436 97.1182 99.382 97.1698 103.335 97.2878C99.382 97.3985 95.436 97.4575 91.4825 97.5017L79.6369 97.5608L67.7914 97.5017C63.8453 97.4575 59.8624 97.3985 55.9458 97.2878Z" fill="#A6A6A6"/>
<path d="M55.9458 100.696C59.8919 100.585 63.8453 100.533 67.7914 100.489L79.6369 100.423L91.4825 100.489C95.436 100.533 99.382 100.585 103.335 100.696C99.382 100.814 95.436 100.865 91.4825 100.909L79.6369 100.976L67.7914 100.887C63.8453 100.887 59.8624 100.814 55.9458 100.696Z" fill="#A6A6A6"/>
<path d="M55.9458 104.111C59.8919 104 63.8453 103.941 67.7914 103.897L79.6369 103.838L91.4825 103.897C95.436 103.941 99.382 103.993 103.335 104.111C99.382 104.229 95.436 104.28 91.4825 104.324L79.6369 104.383L67.7914 104.324C63.8453 104.28 59.8624 104.221 55.9458 104.111Z" fill="#A6A6A6"/>
<path d="M55.9458 107.526C59.8919 107.408 63.8453 107.356 67.7914 107.312L79.6369 107.245L91.4825 107.312C95.436 107.356 99.382 107.408 103.335 107.526C99.382 107.636 95.436 107.688 91.4825 107.732L79.6369 107.798L67.7914 107.732C63.8453 107.688 59.8624 107.636 55.9458 107.526Z" fill="#A6A6A6"/>
<path d="M55.9458 110.933C57.9225 110.823 59.8919 110.764 61.8465 110.719C63.8011 110.675 65.7925 110.682 67.7471 110.66C69.7017 110.638 71.6932 110.66 73.6478 110.719C75.6024 110.778 77.6012 110.823 79.5484 110.933C77.5791 111.051 75.6024 111.103 73.6478 111.147C71.6932 111.191 69.7017 111.191 67.7471 111.213C65.7925 111.236 63.8011 111.213 61.8465 111.147C59.8919 111.081 57.9225 111.051 55.9458 110.933Z" fill="#A6A6A6"/>
<path d="M55.9458 117.756C59.8919 117.645 63.8453 117.594 67.7914 117.549L79.6369 117.483L91.4825 117.542C95.436 117.586 99.382 117.645 103.335 117.756C99.382 117.874 95.436 117.925 91.4825 117.97L79.6369 118.036L67.7914 117.97C63.8453 117.925 59.8624 117.852 55.9458 117.756Z" fill="#A6A6A6"/>
<path d="M55.9458 121.171C59.8919 121.053 63.8453 121.001 67.7914 120.957L79.6369 120.891L91.4825 120.957C95.436 121.001 99.382 121.053 103.335 121.171C99.382 121.281 95.436 121.34 91.4825 121.385L79.6369 121.444L67.7914 121.385C63.8453 121.34 59.8624 121.281 55.9458 121.171Z" fill="#A6A6A6"/>
<path d="M55.9458 124.578C59.8919 124.468 63.8453 124.416 67.7914 124.372L79.6369 124.306L91.4825 124.372C95.436 124.416 99.382 124.468 103.335 124.578C99.382 124.696 95.436 124.748 91.4825 124.792L79.6369 124.859L67.7914 124.792C63.8453 124.748 59.8624 124.696 55.9458 124.578Z" fill="#A6A6A6"/>
<path d="M55.9458 127.993C57.9225 127.883 59.8919 127.824 61.8465 127.78C63.8011 127.735 65.7925 127.743 67.7471 127.721C69.7017 127.698 71.6932 127.721 73.6478 127.78C75.6024 127.839 77.6012 127.875 79.5484 127.993C77.5791 128.111 75.6024 128.163 73.6478 128.207C71.6932 128.252 69.7017 128.244 67.7471 128.266C65.7925 128.289 63.8011 128.266 61.8465 128.207C59.8919 128.148 57.9225 128.104 55.9458 127.993Z" fill="#A6A6A6"/>
<path d="M55.9458 134.816C59.8919 134.705 63.8453 134.646 67.7914 134.602L79.6369 134.543L91.4825 134.602C95.436 134.646 99.382 134.705 103.335 134.816C99.382 134.934 95.436 134.986 91.4825 135.03L79.6369 135.096L67.7914 135.03C63.8453 134.986 59.8624 134.934 55.9458 134.816Z" fill="#A6A6A6"/>
<path d="M55.9458 138.231C59.8919 138.113 63.8453 138.061 67.7914 138.017L79.6369 137.951L91.4825 138.017C95.436 138.061 99.382 138.113 103.335 138.231C99.382 138.342 95.436 138.393 91.4825 138.445L79.6369 138.504L67.7914 138.438C63.8453 138.393 59.8624 138.342 55.9458 138.231Z" fill="#A6A6A6"/>
<path d="M55.9458 141.639C59.8919 141.528 63.8453 141.476 67.7914 141.432L79.6369 141.366L91.4825 141.425C95.436 141.469 99.382 141.528 103.335 141.639C99.382 141.757 95.436 141.808 91.4825 141.853L79.6369 141.919L67.7914 141.853C63.8453 141.808 59.8624 141.757 55.9458 141.639Z" fill="#A6A6A6"/>
<path d="M55.9458 145.054C59.8919 144.936 63.8453 144.884 67.7914 144.84L79.6369 144.773L91.4825 144.84C95.436 144.884 99.382 144.936 103.335 145.054C99.382 145.164 95.436 145.223 91.4825 145.268L79.6369 145.327L67.7914 145.268C63.8453 145.223 59.8624 145.142 55.9458 145.054Z" fill="#A6A6A6"/>
<path d="M55.9458 148.461C57.9225 148.351 59.8919 148.299 61.8465 148.255C63.8011 148.211 65.7925 148.211 67.7471 148.188C69.7017 148.166 71.6932 148.188 73.6478 148.255C75.6024 148.321 77.6012 148.351 79.5484 148.461C77.5791 148.579 75.6024 148.631 73.6478 148.675C71.6932 148.72 69.7017 148.72 67.7471 148.742C65.7925 148.764 63.8011 148.742 61.8465 148.675C59.8919 148.609 57.9225 148.579 55.9458 148.461Z" fill="#A6A6A6"/>
<path d="M197.834 76.8126C201.788 76.7019 205.734 76.6503 209.687 76.6061L221.533 76.5397L233.379 76.6061C237.325 76.6503 241.278 76.7019 245.224 76.8126C241.278 76.9306 237.325 76.9822 233.379 77.0265L221.533 77.0929L209.687 77.0265C205.734 76.9822 201.788 76.9306 197.834 76.8126Z" fill="#A6A6A6"/>
<path d="M197.834 80.2349C201.788 80.1243 205.734 80.0653 209.687 80.021L221.533 79.962L233.379 80.021C237.325 80.0653 241.278 80.1169 245.224 80.2349C241.278 80.353 237.325 80.4046 233.379 80.4488L221.533 80.5078L209.687 80.4488C205.734 80.3972 201.788 80.3382 197.834 80.2349Z" fill="#A6A6A6"/>
<path d="M197.834 83.6426C201.788 83.5246 205.734 83.4729 209.687 83.4287L221.533 83.3623L233.379 83.4287C237.325 83.4729 241.278 83.5246 245.224 83.6426C241.278 83.7532 237.325 83.8048 233.379 83.8491L221.533 83.9155L209.687 83.8491C205.734 83.8048 201.788 83.7532 197.834 83.6426Z" fill="#A6A6A6"/>
<path d="M197.834 87.0503C201.788 86.9396 205.734 86.8806 209.687 86.8364L221.533 86.7773L233.379 86.8364C237.325 86.8806 241.278 86.9396 245.224 87.0503C241.278 87.1683 237.325 87.2199 233.379 87.2642L221.533 87.3305L209.687 87.2642C205.734 87.2199 201.788 87.1683 197.834 87.0503Z" fill="#A6A6A6"/>
<path d="M197.834 90.4652C199.811 90.3472 201.788 90.2956 203.735 90.2513C205.682 90.2071 207.681 90.2071 209.636 90.1849C211.59 90.1628 213.582 90.1849 215.536 90.2513C217.491 90.3177 219.483 90.3472 221.437 90.4652C219.46 90.5758 217.484 90.6349 215.536 90.6791C213.589 90.7234 211.583 90.716 209.636 90.7381C207.689 90.7602 205.682 90.7381 203.735 90.6717C201.788 90.6053 199.811 90.5611 197.834 90.4652Z" fill="#A6A6A6"/>
<path d="M197.834 97.2878C201.788 97.1698 205.734 97.1182 209.687 97.0739L221.533 97.0076L233.379 97.0739C237.325 97.1182 241.278 97.1698 245.224 97.2878C241.278 97.3985 237.325 97.4575 233.379 97.5017L221.533 97.5608L209.687 97.5017C205.734 97.4575 201.788 97.3985 197.834 97.2878Z" fill="#A6A6A6"/>
<path d="M197.834 100.696C201.788 100.585 205.734 100.533 209.687 100.489L221.533 100.423L233.379 100.489C237.325 100.533 241.278 100.585 245.224 100.696C241.278 100.814 237.325 100.865 233.379 100.909L221.533 100.976L209.687 100.887C205.734 100.887 201.788 100.814 197.834 100.696Z" fill="#A6A6A6"/>
<path d="M197.834 104.111C201.788 104 205.734 103.941 209.687 103.897L221.533 103.838L233.379 103.897C237.325 103.941 241.278 103.993 245.224 104.111C241.278 104.229 237.325 104.28 233.379 104.324L221.533 104.383L209.687 104.324C205.734 104.28 201.788 104.221 197.834 104.111Z" fill="#A6A6A6"/>
<path d="M197.834 107.526C201.788 107.408 205.734 107.356 209.687 107.312L221.533 107.245L233.379 107.312C237.325 107.356 241.278 107.408 245.224 107.526C241.278 107.636 237.325 107.688 233.379 107.732L221.533 107.798L209.687 107.732C205.734 107.688 201.788 107.636 197.834 107.526Z" fill="#A6A6A6"/>
<path d="M197.834 110.933C199.811 110.823 201.788 110.764 203.735 110.719C205.682 110.675 207.681 110.682 209.636 110.66C211.59 110.638 213.582 110.66 215.536 110.719C217.491 110.778 219.483 110.823 221.437 110.933C219.46 111.051 217.484 111.103 215.536 111.147C213.589 111.191 211.583 111.191 209.636 111.213C207.689 111.236 205.682 111.213 203.735 111.147C201.788 111.081 199.811 111.051 197.834 110.933Z" fill="#A6A6A6"/>
<path d="M197.834 117.756C201.788 117.645 205.734 117.594 209.687 117.549L221.533 117.483L233.379 117.542C237.325 117.586 241.278 117.645 245.224 117.756C241.278 117.874 237.325 117.925 233.379 117.97L221.533 118.036L209.687 117.97C205.734 117.925 201.788 117.852 197.834 117.756Z" fill="#A6A6A6"/>
<path d="M197.834 121.171C201.788 121.053 205.734 121.001 209.687 120.957L221.533 120.891L233.379 120.957C237.325 121.001 241.278 121.053 245.224 121.171C241.278 121.281 237.325 121.34 233.379 121.385L221.533 121.444L209.687 121.385C205.734 121.34 201.788 121.281 197.834 121.171Z" fill="#A6A6A6"/>
<path d="M197.834 124.578C201.788 124.468 205.734 124.416 209.687 124.372L221.533 124.306L233.379 124.372C237.325 124.416 241.278 124.468 245.224 124.578C241.278 124.696 237.325 124.748 233.379 124.792L221.533 124.859L209.687 124.792C205.734 124.748 201.788 124.696 197.834 124.578Z" fill="#A6A6A6"/>
<path d="M197.834 127.993C199.811 127.883 201.788 127.824 203.735 127.78C205.682 127.735 207.681 127.743 209.636 127.721C211.59 127.698 213.582 127.721 215.536 127.78C217.491 127.839 219.483 127.875 221.437 127.993C219.46 128.111 217.484 128.163 215.536 128.207C213.589 128.252 211.583 128.244 209.636 128.266C207.689 128.289 205.682 128.266 203.735 128.207C201.788 128.148 199.811 128.104 197.834 127.993Z" fill="#A6A6A6"/>
<path d="M197.834 134.816C201.788 134.705 205.734 134.646 209.687 134.602L221.533 134.543L233.379 134.602C237.325 134.646 241.278 134.705 245.224 134.816C241.278 134.934 237.325 134.986 233.379 135.03L221.533 135.096L209.687 135.03C205.734 134.986 201.788 134.934 197.834 134.816Z" fill="#A6A6A6"/>
<path d="M197.834 138.231C201.788 138.113 205.734 138.061 209.687 138.017L221.533 137.951L233.379 138.017C237.325 138.061 241.278 138.113 245.224 138.231C241.278 138.342 237.325 138.393 233.379 138.445L221.533 138.504L209.687 138.438C205.734 138.393 201.788 138.342 197.834 138.231Z" fill="#A6A6A6"/>
<path d="M197.834 141.639C201.788 141.528 205.734 141.476 209.687 141.432L221.533 141.366L233.379 141.425C237.325 141.469 241.278 141.528 245.224 141.639C241.278 141.757 237.325 141.808 233.379 141.853L221.533 141.919L209.687 141.853C205.734 141.808 201.788 141.757 197.834 141.639Z" fill="#A6A6A6"/>
<path d="M197.834 145.054C201.788 144.936 205.734 144.884 209.687 144.84L221.533 144.773L233.379 144.84C237.325 144.884 241.278 144.936 245.224 145.054C241.278 145.164 237.325 145.223 233.379 145.268L221.533 145.327L209.687 145.268C205.734 145.223 201.788 145.142 197.834 145.054Z" fill="#A6A6A6"/>
<path d="M197.834 148.461C199.811 148.351 201.788 148.299 203.735 148.255C205.682 148.211 207.681 148.211 209.636 148.188C211.59 148.166 213.582 148.188 215.536 148.255C217.491 148.321 219.483 148.351 221.437 148.461C219.46 148.579 217.484 148.631 215.536 148.675C213.589 148.72 211.583 148.72 209.636 148.742C207.689 148.764 205.682 148.742 203.735 148.675C201.788 148.609 199.811 148.579 197.834 148.461Z" fill="#A6A6A6"/>
<path d="M141.291 173.259H66.9575V176.711H141.291V173.259Z" fill="#EBEBEB"/>
<path d="M120.698 173.259H66.9575V176.711H120.698V173.259Z" fill="#ADB9E3"/>
<path d="M141.291 182.191H66.9575V185.643H141.291V182.191Z" fill="#EBEBEB"/>
<path d="M135.125 182.191H66.9575V185.643H135.125V182.191Z" fill="#ADB9E3"/>
<path d="M141.291 191.116H66.9575V194.568H141.291V191.116Z" fill="#EBEBEB"/>
<path d="M124.887 191.116H66.9575V194.568H124.887V191.116Z" fill="#ADB9E3"/>
<path d="M141.291 200.048H66.9575V203.5H141.291V200.048Z" fill="#EBEBEB"/>
<path d="M130.84 200.048H66.9575V203.5H130.84V200.048Z" fill="#ADB9E3"/>
<path d="M141.291 208.973H66.9575V212.425H141.291V208.973Z" fill="#EBEBEB"/>
<path d="M136.866 208.973H66.9575V212.425H136.866V208.973Z" fill="#ADB9E3"/>
<path d="M61.5219 172.197H55.9458V177.773H61.5219V172.197Z" fill="#ADB9E3"/>
<path d="M61.5219 181.129H55.9458V186.705H61.5219V181.129Z" fill="#455A64"/>
<path d="M61.5219 190.054H55.9458V195.63H61.5219V190.054Z" fill="#C7C7C7"/>
<path d="M61.5219 198.986H55.9458V204.562H61.5219V198.986Z" fill="#ADB9E3"/>
<path d="M61.5219 207.918H55.9458V213.494H61.5219V207.918Z" fill="#263238"/>
<path d="M208.721 162.357H161.354V164.858H208.721V162.357Z" fill="#455A64"/>
<path d="M179.358 172.057H161.354V174.557H179.358V172.057Z" fill="#C7C7C7"/>
<path d="M179.358 193.321H161.354V195.822H179.358V193.321Z" fill="#C7C7C7"/>
<path d="M179.358 214.578H161.354V217.079H179.358V214.578Z" fill="#C7C7C7"/>
<path d="M179.358 235.843H161.354V238.343H179.358V235.843Z" fill="#C7C7C7"/>
<path d="M197.724 173.311C201.67 173.193 205.616 173.141 209.569 173.097L221.415 173.03L233.26 173.097C237.214 173.141 241.16 173.193 245.106 173.311C241.16 173.421 237.214 173.48 233.26 173.524L221.415 173.583L209.591 173.524C205.616 173.48 201.67 173.421 197.724 173.311Z" fill="#A6A6A6"/>
<path d="M197.724 176.718C201.67 176.608 205.616 176.556 209.569 176.512L221.415 176.445L233.26 176.512C237.214 176.556 241.16 176.608 245.106 176.718C241.16 176.836 237.214 176.888 233.26 176.932L221.415 176.998L209.591 176.932C205.616 176.858 201.67 176.858 197.724 176.718Z" fill="#A6A6A6"/>
<path d="M197.724 180.133C201.67 180.022 205.616 179.963 209.569 179.919L221.415 179.86L233.26 179.919C237.214 179.963 241.16 180.015 245.106 180.133C241.16 180.251 237.214 180.303 233.26 180.347L221.415 180.406L209.591 180.347C205.616 180.303 201.67 180.244 197.724 180.133Z" fill="#A6A6A6"/>
<path d="M197.724 183.548C199.391 183.43 201.058 183.378 202.724 183.334C204.391 183.29 206.058 183.29 207.733 183.268C209.407 183.246 211.067 183.268 212.733 183.334C214.4 183.401 216.067 183.43 217.742 183.548C216.067 183.659 214.4 183.71 212.733 183.755C211.067 183.799 209.4 183.799 207.733 183.821C206.066 183.843 204.391 183.821 202.724 183.755C201.058 183.688 199.391 183.659 197.724 183.548Z" fill="#A6A6A6"/>
<path d="M197.724 194.627C201.67 194.516 205.616 194.464 209.569 194.42L221.415 194.354L233.26 194.42C237.214 194.464 241.16 194.516 245.106 194.627C241.16 194.745 237.214 194.796 233.26 194.841L221.415 194.907L209.591 194.841C205.616 194.796 201.67 194.745 197.724 194.627Z" fill="#A6A6A6"/>
<path d="M197.724 198.042C201.67 197.924 205.616 197.872 209.569 197.828L221.415 197.761L233.26 197.828C237.214 197.872 241.16 197.924 245.106 198.042C241.16 198.16 237.214 198.211 233.26 198.256L221.415 198.315L209.591 198.248C205.616 198.248 201.67 198.152 197.724 198.042Z" fill="#A6A6A6"/>
<path d="M197.724 201.457C201.67 201.339 205.616 201.287 209.569 201.243L221.393 201.198L233.238 201.265C237.192 201.309 241.138 201.361 245.084 201.479C241.138 201.589 237.192 201.641 233.238 201.685L221.393 201.752L209.591 201.663C205.616 201.619 201.67 201.567 197.724 201.457Z" fill="#A6A6A6"/>
<path d="M197.724 204.886C199.391 204.776 201.058 204.717 202.724 204.673C204.391 204.628 206.058 204.636 207.733 204.614C209.407 204.591 211.067 204.614 212.733 204.673C214.4 204.732 216.067 204.776 217.742 204.886C216.067 205.004 214.4 205.056 212.733 205.1C211.067 205.145 209.4 205.145 207.733 205.167C206.066 205.189 204.391 205.167 202.724 205.1C201.058 205.034 199.391 204.982 197.724 204.886Z" fill="#A6A6A6"/>
<path d="M197.724 215.95C201.67 215.832 205.616 215.781 209.569 215.736L221.415 215.67L233.26 215.736C237.214 215.781 241.16 215.832 245.106 215.95C241.16 216.068 237.214 216.12 233.26 216.164L221.415 216.223L209.591 216.164C205.616 216.12 201.67 216.061 197.724 215.95Z" fill="#A6A6A6"/>
<path d="M197.724 219.358C201.67 219.247 205.616 219.195 209.569 219.151L221.415 219.085L233.26 219.151C237.214 219.195 241.16 219.247 245.106 219.358C241.16 219.476 237.214 219.527 233.26 219.572L221.393 219.638L209.591 219.572C205.616 219.527 201.67 219.476 197.724 219.358Z" fill="#A6A6A6"/>
<path d="M197.724 222.773C201.67 222.662 205.616 222.603 209.569 222.559L221.415 222.5L233.26 222.559C237.214 222.603 241.16 222.655 245.106 222.773C241.16 222.891 237.214 222.942 233.26 222.987L221.415 223.053L209.591 222.987C205.616 222.942 201.67 222.891 197.724 222.773Z" fill="#A6A6A6"/>
<path d="M197.724 226.188C199.391 226.07 201.058 226.018 202.724 225.974C204.391 225.93 206.058 225.93 207.733 225.907C209.407 225.885 211.067 225.907 212.733 225.974C214.4 226.04 216.067 226.07 217.742 226.188C216.067 226.298 214.4 226.35 212.733 226.394C211.067 226.439 209.4 226.439 207.733 226.461C206.066 226.483 204.391 226.461 202.724 226.394C201.058 226.328 199.391 226.276 197.724 226.188Z" fill="#A6A6A6"/>
<path d="M197.724 237.266C201.67 237.156 205.616 237.104 209.569 237.06L221.415 236.993L233.26 237.06C237.214 237.104 241.16 237.156 245.106 237.266C241.16 237.384 237.214 237.436 233.26 237.48L221.415 237.547L209.591 237.48C205.616 237.436 201.67 237.384 197.724 237.266Z" fill="#A6A6A6"/>
<path d="M197.724 240.681C201.67 240.571 205.616 240.512 209.569 240.467L221.415 240.408L233.26 240.467C237.214 240.512 241.16 240.563 245.106 240.681C241.16 240.799 237.214 240.851 233.26 240.895L221.393 240.954L209.591 240.895C205.616 240.851 201.67 240.792 197.724 240.681Z" fill="#A6A6A6"/>
<path d="M197.724 244.096C201.67 243.978 205.616 243.927 209.569 243.882L221.415 243.816L233.26 243.882C237.214 243.927 241.16 243.978 245.106 244.096C241.16 244.207 237.214 244.259 233.26 244.303L221.415 244.369L209.591 244.303C205.616 244.259 201.67 244.207 197.724 244.096Z" fill="#A6A6A6"/>
<path d="M197.724 247.504C199.391 247.393 201.058 247.334 202.724 247.29C204.391 247.246 206.058 247.253 207.733 247.231C209.407 247.209 211.067 247.231 212.733 247.29C214.4 247.349 216.067 247.393 217.742 247.504C216.067 247.622 214.4 247.674 212.733 247.718C211.067 247.762 209.4 247.762 207.733 247.784C206.066 247.806 204.391 247.784 202.724 247.718C201.058 247.651 199.391 247.622 197.724 247.504Z" fill="#A6A6A6"/>
<path d="M188.231 172.462L188.371 183.224L188.452 193.992L188.519 215.522L188.452 216.85L188.371 227.611L188.231 238.38L188.084 227.611L188.002 216.85L187.936 215.522L188.01 193.992L188.091 183.224L188.231 172.462Z" fill="#ADB9E3"/>
<path d="M189.337 173.311C189.306 173.582 189.176 173.832 188.972 174.014C188.768 174.196 188.504 174.296 188.231 174.296C187.958 174.296 187.694 174.196 187.49 174.014C187.286 173.832 187.156 173.582 187.125 173.311C187.107 173.155 187.122 172.996 187.169 172.847C187.216 172.697 187.295 172.559 187.399 172.442C187.504 172.324 187.632 172.231 187.775 172.166C187.919 172.102 188.074 172.069 188.231 172.069C188.388 172.069 188.543 172.102 188.687 172.166C188.83 172.231 188.958 172.324 189.062 172.442C189.167 172.559 189.245 172.697 189.293 172.847C189.34 172.996 189.355 173.155 189.337 173.311V173.311Z" fill="#ADB9E3"/>
<path d="M189.337 194.627C189.339 194.848 189.275 195.064 189.153 195.248C189.031 195.432 188.857 195.576 188.653 195.662C188.449 195.747 188.225 195.769 188.008 195.727C187.791 195.684 187.592 195.578 187.436 195.422C187.28 195.265 187.174 195.066 187.131 194.85C187.088 194.633 187.111 194.408 187.196 194.204C187.281 194.001 187.425 193.827 187.609 193.705C187.794 193.583 188.01 193.519 188.231 193.52C188.524 193.522 188.804 193.639 189.011 193.846C189.218 194.054 189.335 194.334 189.337 194.627V194.627Z" fill="#ADB9E3"/>
<path d="M189.337 215.95C189.306 216.222 189.176 216.472 188.972 216.654C188.768 216.835 188.504 216.936 188.231 216.936C187.958 216.936 187.694 216.835 187.49 216.654C187.286 216.472 187.156 216.222 187.125 215.95C187.107 215.794 187.122 215.636 187.169 215.486C187.216 215.337 187.295 215.198 187.399 215.081C187.504 214.964 187.632 214.87 187.775 214.806C187.919 214.742 188.074 214.708 188.231 214.708C188.388 214.708 188.543 214.742 188.687 214.806C188.83 214.87 188.958 214.964 189.062 215.081C189.167 215.198 189.245 215.337 189.293 215.486C189.34 215.636 189.355 215.794 189.337 215.95V215.95Z" fill="#ADB9E3"/>
<path d="M189.337 237.266C189.339 237.487 189.275 237.703 189.153 237.888C189.031 238.072 188.857 238.216 188.653 238.301C188.449 238.386 188.225 238.409 188.008 238.366C187.791 238.324 187.592 238.217 187.436 238.061C187.28 237.905 187.174 237.706 187.131 237.489C187.088 237.272 187.111 237.048 187.196 236.844C187.281 236.64 187.425 236.466 187.609 236.344C187.794 236.223 188.01 236.158 188.231 236.16C188.524 236.16 188.806 236.276 189.013 236.484C189.221 236.691 189.337 236.973 189.337 237.266V237.266Z" fill="#ADB9E3"/>
<path d="M72.4011 239.287C72.3995 241.282 71.6724 243.208 70.3554 244.706C69.0385 246.204 67.2216 247.171 65.2437 247.429C63.2658 247.686 61.2618 247.215 59.6057 246.103C57.9495 244.992 56.7542 243.316 56.2426 241.388C55.7311 239.46 55.9382 237.412 56.8255 235.625C57.7127 233.839 59.2195 232.436 61.0647 231.679C62.9099 230.922 64.9676 230.862 66.854 231.51C68.7403 232.158 70.3266 233.47 71.3169 235.201C72.0282 236.445 72.4019 237.854 72.4011 239.287V239.287Z" fill="#455A64"/>
<path d="M71.3019 235.201L64.1621 239.287V231.063C65.6111 231.064 67.0343 231.446 68.288 232.173C69.5416 232.899 70.5813 233.944 71.3019 235.201Z" fill="#ADB9E3"/>
<path d="M69.7749 240.213C70.2873 237.115 68.1908 234.187 65.0922 233.675C61.9936 233.162 59.0662 235.259 58.5538 238.358C58.0414 241.456 60.1379 244.384 63.2366 244.896C66.3352 245.408 69.2625 243.312 69.7749 240.213Z" fill="white"/>
<path d="M66.5297 238.019H61.7944V238.69H66.5297V238.019Z" fill="#263238"/>
<path d="M67.7102 239.877H60.6294V240.549H67.7102V239.877Z" fill="#A6A6A6"/>
<path d="M95.3842 239.287C95.3846 239.69 95.355 240.091 95.2957 240.489C94.9841 242.597 93.8671 244.502 92.1797 245.804C90.4924 247.105 88.3661 247.701 86.2481 247.467C84.1301 247.233 82.1855 246.187 80.8232 244.548C79.4609 242.909 78.7872 240.806 78.9436 238.681C79.1001 236.556 80.0746 234.574 81.6621 233.153C83.2497 231.732 85.3266 230.981 87.456 231.06C89.5855 231.138 91.6015 232.04 93.0801 233.574C94.5587 235.108 95.3847 237.156 95.3842 239.287Z" fill="#455A64"/>
<path d="M95.3841 239.287C95.3844 239.69 95.3548 240.092 95.2955 240.49L87.1821 239.287V231.063C88.2618 231.063 89.3308 231.276 90.3282 231.689C91.3256 232.103 92.2317 232.709 92.9948 233.472C93.7579 234.236 94.363 235.143 94.7755 236.141C95.188 237.138 95.3998 238.208 95.3988 239.287H95.3841Z" fill="#ADB9E3"/>
<path d="M92.7072 240.6C93.4265 237.543 91.5312 234.481 88.474 233.762C85.4168 233.043 82.3553 234.938 81.6359 237.995C80.9166 241.053 82.8119 244.114 85.8691 244.833C88.9263 245.553 91.9878 243.657 92.7072 240.6Z" fill="white"/>
<path d="M89.5351 238.019H84.7998V238.69H89.5351V238.019Z" fill="#263238"/>
<path d="M90.7077 239.877H83.627V240.549H90.7077V239.877Z" fill="#A6A6A6"/>
<path d="M118.544 239.287C118.543 241.282 117.815 243.208 116.499 244.706C115.182 246.204 113.365 247.171 111.387 247.429C109.409 247.686 107.405 247.215 105.749 246.103C104.093 244.992 102.897 243.316 102.386 241.388C101.874 239.46 102.081 237.412 102.969 235.625C103.856 233.839 105.363 232.436 107.208 231.679C109.053 230.922 111.111 230.862 112.997 231.51C114.883 232.158 116.47 233.47 117.46 235.201C118.172 236.445 118.546 237.854 118.544 239.287V239.287Z" fill="#455A64"/>
<path d="M118.544 239.287C118.545 240.949 118.042 242.573 117.1 243.942C116.158 245.312 114.823 246.364 113.271 246.958L110.32 239.287V231.063C111.4 231.063 112.469 231.276 113.466 231.689C114.464 232.103 115.37 232.709 116.133 233.472C116.896 234.236 117.501 235.143 117.914 236.141C118.326 237.138 118.538 238.208 118.537 239.287H118.544Z" fill="#ADB9E3"/>
<path d="M116.014 239.287C116.014 240.412 115.681 241.511 115.056 242.447C114.431 243.382 113.543 244.111 112.504 244.541C111.464 244.972 110.321 245.084 109.218 244.865C108.115 244.645 107.102 244.104 106.306 243.308C105.511 242.513 104.969 241.5 104.75 240.397C104.53 239.294 104.643 238.15 105.074 237.111C105.504 236.072 106.233 235.184 107.168 234.559C108.103 233.934 109.203 233.601 110.327 233.601C111.836 233.601 113.282 234.2 114.349 235.266C115.415 236.333 116.014 237.779 116.014 239.287V239.287Z" fill="white"/>
<path d="M112.695 238.019H107.96V238.69H112.695V238.019Z" fill="#263238"/>
<path d="M113.868 239.877H106.787V240.549H113.868V239.877Z" fill="#A6A6A6"/>
<path d="M141.579 239.287C141.577 241.282 140.85 243.208 139.533 244.706C138.216 246.204 136.399 247.171 134.421 247.429C132.443 247.686 130.44 247.215 128.783 246.103C127.127 244.992 125.932 243.316 125.42 241.388C124.909 239.46 125.116 237.412 126.003 235.625C126.89 233.839 128.397 232.436 130.242 231.679C132.088 230.922 134.145 230.862 136.032 231.51C137.918 232.158 139.504 233.47 140.495 235.201C141.208 236.445 141.581 237.854 141.579 239.287V239.287Z" fill="#455A64"/>
<path d="M141.579 239.287C141.578 240.857 141.128 242.393 140.281 243.715C139.435 245.037 138.228 246.088 136.802 246.745C135.377 247.402 133.794 247.638 132.239 247.423C130.684 247.209 129.223 246.553 128.029 245.535L133.362 239.287V231.063C134.442 231.063 135.511 231.276 136.508 231.689C137.505 232.103 138.412 232.709 139.175 233.472C139.938 234.236 140.543 235.143 140.955 236.141C141.368 237.138 141.58 238.208 141.579 239.287V239.287Z" fill="#ADB9E3"/>
<path d="M138.978 240.128C139.455 237.023 137.326 234.12 134.222 233.643C131.117 233.166 128.214 235.295 127.737 238.399C127.259 241.504 129.389 244.407 132.493 244.884C135.598 245.361 138.501 243.232 138.978 240.128Z" fill="white"/>
<path d="M135.73 238.019H130.995V238.69H135.73V238.019Z" fill="#263238"/>
<path d="M136.903 239.877H129.822V240.549H136.903V239.877Z" fill="#A6A6A6"/>
<path d="M148.933 162.188L149.065 173.429L149.146 184.669L149.213 207.151L149.146 229.64L149.065 240.88L148.933 252.129L148.8 240.88L148.719 229.64L148.66 207.151L148.719 184.669L148.8 173.429L148.933 162.188Z" fill="#455A64"/>
<path d="M61.0129 276.115C60.9132 276.205 60.7908 276.266 60.6589 276.292L60.4818 276.329H60.1721L59.8623 276.277C59.454 276.187 59.0678 276.017 58.7264 275.775C57.9287 275.241 57.2445 274.554 56.7128 273.755C56.4769 273.416 56.3091 273.036 56.2186 272.633C56.2186 272.53 56.2186 272.419 56.167 272.316V272.006C56.167 271.911 56.2039 271.815 56.2334 271.719C56.2629 271.623 56.3219 271.549 56.3661 271.461L56.4178 271.505C56.8382 271.933 57.266 272.353 57.6938 272.781C57.7028 272.793 57.7076 272.807 57.7076 272.821C57.7076 272.836 57.7028 272.85 57.6938 272.862C57.6597 272.968 57.654 273.081 57.6773 273.19C57.7006 273.298 57.7521 273.399 57.8266 273.482C58.1863 273.893 58.5732 274.28 58.9846 274.64C59.0671 274.714 59.1678 274.766 59.2766 274.789C59.3853 274.812 59.4983 274.806 59.6041 274.772C59.615 274.765 59.6279 274.761 59.641 274.761C59.6541 274.761 59.667 274.765 59.6779 274.772L60.976 276.071L61.0129 276.115Z" fill="#ADB9E3"/>
<path d="M61.7653 275.37L61.3153 275.82L60.0024 274.514L60.0983 274.418L60.4892 274.035C60.5085 274.009 60.5335 273.988 60.5623 273.973C60.5911 273.959 60.6229 273.951 60.6552 273.951C60.6875 273.951 60.7193 273.959 60.7481 273.973C60.7769 273.988 60.802 274.009 60.8212 274.035L61.7948 275.016C61.8261 275.035 61.8515 275.063 61.8681 275.096C61.8846 275.128 61.8918 275.165 61.8887 275.202C61.8857 275.239 61.8725 275.274 61.8507 275.303C61.8289 275.333 61.7994 275.356 61.7653 275.37V275.37Z" fill="#ADB9E3"/>
<path d="M58.4388 272.006L57.9373 272.486L56.6465 271.195L57.1038 270.73C57.1231 270.706 57.1478 270.686 57.1759 270.672C57.204 270.659 57.2348 270.652 57.2661 270.652C57.2973 270.652 57.3281 270.659 57.3562 270.672C57.3843 270.686 57.409 270.706 57.4283 270.73L58.4167 271.719C58.4572 271.754 58.4822 271.804 58.4863 271.858C58.4904 271.912 58.4734 271.965 58.4388 272.006V272.006Z" fill="#ADB9E3"/>
<path d="M61.5883 282.753L61.4482 282.886L59.2354 284.966C59.2043 285.002 59.1658 285.031 59.1225 285.05C59.0792 285.07 59.0322 285.08 58.9847 285.08C58.9371 285.08 58.8901 285.07 58.8468 285.05C58.8035 285.031 58.765 285.002 58.7339 284.966L56.5211 282.849L56.4326 282.76C56.4889 282.722 56.5565 282.704 56.6244 282.709H58.1438H61.308C61.4038 282.692 61.5023 282.708 61.5883 282.753V282.753Z" fill="#ADB9E3"/>
<path d="M61.5808 286.618C61.5184 286.637 61.4541 286.65 61.389 286.655H59.5745H56.6242C56.5417 286.656 56.4602 286.636 56.3882 286.596C56.993 286.013 57.5978 285.445 58.2026 284.87L58.5493 285.194L58.6968 285.334C58.7714 285.408 58.8721 285.45 58.9771 285.45C59.0821 285.45 59.1828 285.408 59.2574 285.334L59.7368 284.87C60.3416 285.445 60.9391 286.013 61.5439 286.574L61.5808 286.618Z" fill="#ADB9E3"/>
<path d="M58.0109 284.678C57.4282 285.253 56.8307 285.807 56.248 286.382C56.248 286.382 56.248 286.33 56.248 286.293C56.248 285.231 56.248 284.162 56.248 283.1C56.248 283.063 56.248 283.026 56.248 282.996L58.0109 284.678Z" fill="#ADB9E3"/>
<path d="M61.7727 286.367L61.1089 285.733L60.0394 284.722L59.9951 284.685C60.5852 284.11 61.1826 283.557 61.7579 282.989C61.7874 283.07 61.7948 286.279 61.7727 286.367Z" fill="#ADB9E3"/>
<path d="M148.881 272.043C148.722 272.448 148.629 272.877 148.608 273.312H147.487C147.483 273.283 147.483 273.253 147.487 273.223C147.501 273.074 147.526 272.926 147.561 272.781C147.619 272.544 147.703 272.314 147.812 272.095C147.812 272.095 147.812 272.095 147.812 272.095H148.852L148.881 272.043Z" fill="#ADB9E3"/>
<path d="M148.852 274.876H147.819C147.697 274.628 147.61 274.365 147.561 274.094C147.533 273.965 147.516 273.834 147.509 273.703V273.659H148.608V273.932C148.623 274.073 148.645 274.213 148.675 274.352C148.713 274.525 148.762 274.695 148.822 274.861L148.852 274.876Z" fill="#ADB9E3"/>
<path d="M153.181 275.2C153.091 275.332 152.992 275.457 152.886 275.576C152.758 275.724 152.615 275.858 152.458 275.975C152.305 276.089 152.142 276.19 151.971 276.277C151.806 276.359 151.633 276.425 151.455 276.476C151.316 276.521 151.173 276.55 151.027 276.565H150.961C151.275 276.349 151.552 276.082 151.78 275.776C151.904 275.6 152.015 275.415 152.112 275.222C152.112 275.222 152.112 275.222 152.112 275.222H153.166L153.181 275.2Z" fill="#ADB9E3"/>
<path d="M152.149 273.312H150.673V272.051H151.802C151.906 272.287 151.983 272.534 152.03 272.788C152.061 272.919 152.081 273.052 152.089 273.187C152.141 273.238 152.149 273.275 152.149 273.312Z" fill="#ADB9E3"/>
<path d="M152.141 273.651C152.145 273.681 152.145 273.71 152.141 273.74C152.145 273.809 152.145 273.878 152.141 273.946C152.141 274.05 152.141 274.145 152.089 274.241C152.046 274.45 151.984 274.655 151.905 274.854C151.905 274.854 151.905 274.854 151.905 274.854H150.747V273.629L152.141 273.651Z" fill="#ADB9E3"/>
<path d="M150.379 272.058V273.319H148.962C148.966 273.287 148.966 273.255 148.962 273.223V273.017C148.962 272.906 148.962 272.803 149.021 272.692C149.071 272.48 149.14 272.273 149.228 272.073C149.228 272.073 149.228 272.073 149.228 272.073H150.327L150.379 272.058Z" fill="#ADB9E3"/>
<path d="M150.378 273.666V274.876H149.25C149.161 274.669 149.095 274.454 149.051 274.234C149.051 274.123 149.051 274.005 148.999 273.895C148.947 273.784 148.999 273.747 148.999 273.673H150.4C150.4 273.673 150.378 273.651 150.378 273.666Z" fill="#ADB9E3"/>
<path d="M153.683 273.636V273.725C153.683 273.828 153.683 273.939 153.683 274.042C153.641 274.296 153.566 274.544 153.462 274.78L153.41 274.89H152.311C152.308 274.854 152.308 274.817 152.311 274.78C152.375 274.59 152.424 274.395 152.458 274.197C152.458 274.057 152.458 273.917 152.51 273.769V273.666H153.683V273.636Z" fill="#ADB9E3"/>
<path d="M153.152 271.726H152.097C151.957 271.459 151.784 271.211 151.581 270.989C151.463 270.855 151.332 270.734 151.19 270.627L150.976 270.465C151.341 270.502 151.697 270.607 152.023 270.775C152.47 270.997 152.857 271.323 153.152 271.726V271.726Z" fill="#ADB9E3"/>
<path d="M150.179 276.572C150.065 276.558 149.951 276.536 149.84 276.506C149.391 276.395 148.974 276.18 148.623 275.879C148.388 275.684 148.186 275.452 148.025 275.193H148.999C149.096 275.397 149.214 275.59 149.353 275.768C149.477 275.935 149.615 276.09 149.766 276.233C149.89 276.349 150.024 276.455 150.164 276.55L150.179 276.572Z" fill="#ADB9E3"/>
<path d="M150.165 270.421L150.017 270.524C149.85 270.655 149.695 270.801 149.553 270.959C149.358 271.17 149.192 271.405 149.058 271.66V271.711H148.041C148.285 271.355 148.6 271.054 148.967 270.827C149.334 270.599 149.745 270.451 150.172 270.391V270.391L150.165 270.421Z" fill="#ADB9E3"/>
<path d="M151.721 275.2C151.585 275.433 151.424 275.651 151.242 275.849C151.077 276.023 150.894 276.179 150.696 276.314V275.2H151.721Z" fill="#ADB9E3"/>
<path d="M150.378 275.2V276.292C149.969 276.012 149.632 275.637 149.397 275.2H150.378Z" fill="#ADB9E3"/>
<path d="M151.684 271.719H150.703V270.679C150.905 270.811 151.091 270.967 151.256 271.143C151.418 271.321 151.561 271.513 151.684 271.719Z" fill="#ADB9E3"/>
<path d="M150.378 270.716V271.726H149.434C149.664 271.319 149.988 270.973 150.378 270.716V270.716Z" fill="#ADB9E3"/>
<path d="M152.982 282.775C152.714 282.218 152.26 281.773 151.698 281.516C151.137 281.258 150.503 281.205 149.906 281.366C149.324 281.499 148.809 281.838 148.456 282.321C148.104 282.803 147.938 283.397 147.988 283.992C148.037 284.393 148.154 284.782 148.335 285.143C148.716 285.931 149.213 286.657 149.81 287.297C150.046 287.562 150.304 287.82 150.548 288.086L150.636 288.012C150.953 287.665 151.285 287.333 151.595 286.979C152.177 286.325 152.643 285.577 152.974 284.767C153.112 284.453 153.184 284.114 153.186 283.772C153.187 283.429 153.118 283.09 152.982 282.775ZM152.193 283.741C152.186 284.063 152.084 284.376 151.899 284.639C151.713 284.902 151.454 285.104 151.153 285.219C150.852 285.333 150.524 285.356 150.211 285.283C149.897 285.209 149.613 285.044 149.394 284.808C149.175 284.573 149.031 284.277 148.982 283.959C148.932 283.64 148.979 283.315 149.115 283.023C149.252 282.732 149.473 282.488 149.749 282.323C150.025 282.158 150.344 282.079 150.666 282.097C151.084 282.119 151.477 282.304 151.761 282.611C152.046 282.917 152.201 283.323 152.193 283.741Z" fill="#ADB9E3"/>
<path d="M67.5845 271.608C71.5305 271.49 75.484 271.438 79.43 271.394L91.2756 271.328L103.121 271.394C107.075 271.438 111.021 271.49 114.974 271.608C111.021 271.719 107.075 271.77 103.121 271.822L91.2756 271.881L79.43 271.815C75.484 271.77 71.5305 271.719 67.5845 271.608Z" fill="#A6A6A6"/>
<path d="M67.5845 275.016C69.5612 274.905 71.5305 274.853 73.4851 274.809C75.4397 274.765 77.4312 274.765 79.3858 274.743C81.3404 274.721 83.3319 274.743 85.2864 274.802C87.241 274.861 89.2325 274.905 91.1871 275.016C89.2104 275.134 87.241 275.185 85.2864 275.23C83.3319 275.274 81.3404 275.274 79.3858 275.296C77.4312 275.318 75.4397 275.296 73.4851 275.23C71.5305 275.163 69.5612 275.134 67.5845 275.016Z" fill="#A6A6A6"/>
<path d="M67.5845 282.967C71.5305 282.856 75.484 282.805 79.43 282.76L91.2756 282.694L103.121 282.753C107.075 282.797 111.021 282.856 114.974 282.967C111.021 283.085 107.075 283.137 103.121 283.181L91.2756 283.247L79.43 283.181C75.484 283.137 71.5305 283.07 67.5845 282.967Z" fill="#A6A6A6"/>
<path d="M67.5845 286.382C69.5612 286.264 71.5305 286.212 73.4851 286.168C75.4397 286.124 77.4312 286.131 79.3858 286.102C81.3404 286.072 83.3319 286.102 85.2864 286.168C87.241 286.234 89.2325 286.264 91.1871 286.382C89.2104 286.493 87.241 286.552 85.2864 286.596C83.3319 286.64 81.3404 286.633 79.3858 286.655C77.4312 286.677 75.4397 286.655 73.4851 286.596C71.5305 286.537 69.5612 286.493 67.5845 286.382Z" fill="#A6A6A6"/>
<path d="M162.091 271.608C166.037 271.49 169.99 271.438 173.936 271.394L185.782 271.328L197.635 271.394C201.581 271.438 205.527 271.49 209.48 271.608C205.527 271.719 201.581 271.77 197.635 271.822L185.782 271.881L173.936 271.815C169.99 271.77 166.074 271.719 162.091 271.608Z" fill="#A6A6A6"/>
<path d="M162.091 275.016C164.068 274.905 166.037 274.853 167.991 274.809C169.946 274.765 171.945 274.765 173.892 274.743C175.839 274.721 177.846 274.743 179.793 274.802C181.74 274.861 183.746 274.905 185.693 275.016C183.724 275.134 181.747 275.185 179.793 275.23C177.838 275.274 175.847 275.274 173.892 275.296C171.938 275.318 169.946 275.296 167.991 275.23C166.037 275.163 164.068 275.134 162.091 275.016Z" fill="#A6A6A6"/>
<path d="M162.091 282.967C166.037 282.856 169.99 282.805 173.936 282.76L185.782 282.694L197.635 282.753C201.581 282.797 205.527 282.856 209.48 282.967C205.527 283.085 201.581 283.137 197.635 283.181L185.782 283.247L173.936 283.181C169.99 283.137 166.074 283.07 162.091 282.967Z" fill="#A6A6A6"/>
<path d="M162.091 286.382C164.068 286.264 166.037 286.212 167.991 286.168C169.946 286.124 171.945 286.131 173.892 286.102C175.839 286.072 177.846 286.102 179.793 286.168C181.74 286.234 183.746 286.264 185.693 286.382C183.724 286.493 181.747 286.552 179.793 286.596C177.838 286.64 175.847 286.633 173.892 286.655C171.938 286.677 169.946 286.655 167.991 286.596C166.037 286.537 164.068 286.493 162.091 286.382Z" fill="#A6A6A6"/>
<path d="M198.314 315.007C196.728 315.524 151.337 315.103 149.633 313.99C148.977 313.577 148.653 306.953 148.49 298.95V298.699C148.49 297.047 150.489 269.373 150.489 269.373L180.162 269.565L177.949 293.817L177.78 298.648V299.142C177.78 299.142 195.083 307.071 196.839 308.502C198.594 309.933 199.907 314.491 198.314 315.007Z" fill="#D3766A"/>
<path d="M148.579 303.103C148.763 309.136 149.08 313.65 149.619 313.99C151.337 315.096 196.728 315.524 198.299 315C199.87 314.476 198.528 309.918 196.78 308.502C194.493 307.121 192.126 305.877 189.691 304.777C191.469 306.71 192.369 308.841 187.604 308.841C179.151 308.841 164.37 307.447 148.579 303.103Z" fill="#263238"/>
<path d="M175.781 315.133C163.463 314.963 150.526 314.572 149.626 313.99C149.08 313.65 148.763 309.136 148.579 303.103C151.529 303.921 154.479 304.63 157.319 305.249L175.781 315.133Z" fill="#37474F"/>
<path d="M177.758 298.235H148.476C148.476 298.235 153.093 221.888 152.835 220.553C152.51 218.841 150.578 211.119 148.011 201.021C147.207 197.865 146.337 194.472 145.437 190.961C142.995 181.461 140.274 171.083 137.973 162.048C134.454 148.52 131.71 138.002 131.71 138.002H159.436C159.436 138.002 162.667 148.24 166.738 161.553C173.376 183.201 182.227 212.985 183.098 220.228C184.514 231.919 177.758 298.235 177.758 298.235Z" fill="#D3766A"/>
<path d="M163.072 315.007C161.487 315.524 116.096 315.103 114.392 313.99C113.736 313.577 113.411 306.953 113.249 298.95V298.699C113.212 297.047 114.635 269.373 114.635 269.373L143.556 269.565L142.73 292.895V293.817L142.56 298.648V299.142C142.56 299.142 159.864 307.071 161.619 308.502C163.375 309.933 164.666 314.491 163.072 315.007Z" fill="#D3766A"/>
<path d="M113.337 303.103C113.521 309.136 113.838 313.65 114.384 313.99C116.095 315.096 161.486 315.524 163.065 315C164.643 314.476 163.293 309.918 161.545 308.502C159.259 307.121 156.892 305.877 154.457 304.777C156.235 306.71 157.135 308.841 152.37 308.841C143.947 308.841 129.129 307.447 113.337 303.103Z" fill="#263238"/>
<path d="M158.521 138.002C158.521 138.002 157.88 151.279 154.833 161.76C154.59 162.623 154.324 163.478 154.044 164.297C151.262 165.422 148.589 166.797 146.056 168.405C146.056 168.405 144.699 219.085 144.773 222.249C145.053 234.05 142.501 298.729 142.501 298.729L113.322 298.862C113.322 298.862 116.531 226.579 116.487 222.286C116.42 215.353 118.072 184.728 119.341 162.387C119.792 154.212 120.812 146.079 122.395 138.047L158.521 138.002Z" fill="#D3766A"/>
<path d="M159.436 138.002C159.436 138.002 181.969 207.63 183.297 216.112C184.056 220.754 184.578 225.432 184.86 230.126C184.86 230.126 165.27 239.981 151.935 239.641C138.599 239.302 114.93 234.014 114.93 234.014C114.93 234.014 118.618 164.105 118.692 163.375C118.766 162.645 113.787 154.775 121.31 137.848L159.436 138.002Z" fill="#263238"/>
<path d="M149.633 217.986C149.633 225.17 149.501 232.347 149.294 239.523H149.169L149.228 231.653C149.228 227.102 149.272 222.544 149.228 218.001C149.183 215.721 149.154 213.457 148.91 211.2L148.239 204.407L146.897 190.806L144.345 163.582L143.113 149.981L142.073 137.906L143.356 149.959L144.765 163.582L147.443 190.762L148.719 204.355L149.36 211.156C149.565 213.427 149.656 215.706 149.633 217.986V217.986ZM177.92 222.116L177.602 215.803C177.546 214.745 177.4 213.694 177.167 212.66C176.968 211.62 176.739 210.595 176.511 209.563C174.63 201.346 172.454 193.21 170.315 185.06C168.176 176.91 165.89 168.833 163.633 160.72L160.173 148.535L157.112 138.002H157.075L169.755 185.208C171.967 193.321 174.106 201.479 176.076 209.659C176.312 210.684 176.555 211.709 176.769 212.734C177.012 213.752 177.167 214.788 177.234 215.832L177.632 222.131L178.37 233.033H178.406L177.92 222.116ZM123.007 142.516C123.383 140.953 123.803 139.396 124.283 137.855H124.246C123.737 139.382 123.294 140.923 122.881 142.48C122.32 144.584 121.879 146.719 121.561 148.874C121.224 151.031 121.086 153.213 121.148 155.395C121.182 157.581 121.604 159.743 122.394 161.782L121.118 181.557L119.901 201.39L118.758 221.224L118.021 234.677H118.131L119.075 221.224L120.373 201.398L121.613 181.564L122.778 161.73V161.679V161.635C121.977 159.635 121.538 157.51 121.48 155.358C121.395 153.196 121.506 151.031 121.812 148.889C122.092 146.744 122.491 144.617 123.007 142.516V142.516ZM168.855 220.191C168.893 217.991 168.735 215.792 168.383 213.619C166.856 204.982 165.086 196.404 163.374 187.804L158.02 162.107L155.276 149.258L152.798 137.98L157.629 162.173L162.836 187.922C164.591 196.507 166.354 205.085 167.962 213.686C168.338 215.836 168.518 218.016 168.501 220.199L168.619 226.763C168.668 230.038 168.702 233.318 168.722 236.602H168.796C168.84 233.328 168.872 230.053 168.892 226.778C168.892 224.572 168.884 222.382 168.855 220.191ZM159.332 216.112C159.27 213.863 159.056 211.621 158.691 209.4L157.769 202.762L155.866 189.486L151.89 162.844L149.847 149.568L148.011 138.002L149.582 149.568L151.47 162.888L155.32 189.508L157.267 202.821L158.219 209.459C158.589 211.655 158.818 213.872 158.905 216.098C159.045 220.575 159.111 225.059 159.185 229.544L159.347 238.955H159.436C159.436 231.351 159.473 223.739 159.332 216.112V216.112ZM139.61 210.049L139.344 203.352L138.783 189.943L137.603 163.169L136.969 149.789L136.349 137.906L136.733 149.796L137.22 163.183L138.275 189.958L138.857 203.337L139.145 210.035L139.219 211.702V213.376L139.182 216.725L139.034 230.119L138.983 238.409H139.086L139.307 230.104L139.61 216.71L139.683 213.361V211.679L139.61 210.049ZM129.468 154.554C129.468 152.54 129.586 150.527 129.689 148.506C129.888 144.973 130.161 141.432 130.508 137.906C130.09 141.427 129.741 144.955 129.46 148.491C129.313 150.512 129.21 152.525 129.158 154.554C129.07 156.587 129.174 158.625 129.468 160.639L129.261 180.731L129.128 200.874L129.077 210.942C129.077 212.624 129.003 214.298 128.937 215.972L128.715 221.01L128.096 236.661H128.177L129.077 221.01L129.35 215.98C129.431 214.298 129.556 212.624 129.542 210.949L129.637 200.874L129.785 180.731L129.866 160.58V160.536C129.547 158.551 129.414 156.541 129.468 154.532V154.554Z" fill="#455A64"/>
<path d="M158.042 102.407C158.499 110.623 158.824 119.076 158.042 127.278C157.415 133.658 154.73 138.917 148.092 140.481C141.941 141.956 133.171 141.823 127.963 137.744C125.537 135.841 124.696 133.156 124.858 130.147C125.08 125.965 128.399 103.063 129.387 95.9159C129.904 91.5352 130.755 87.2004 131.932 82.9492C134.085 75.6914 139.189 74.29 139.765 74.0245C142.499 72.8247 145.589 72.7139 148.402 73.7147C149.648 74.1104 150.796 74.7642 151.772 75.6335C152.748 76.5028 153.53 77.568 154.067 78.7598C157.459 85.8406 157.607 94.7137 158.042 102.407Z" fill="#263238"/>
<path d="M138.37 75.2488C133.119 77.6976 131.872 83.436 130.596 88.5696C128.833 95.7241 127.181 102.901 125.883 110.159C125.256 113.647 124.71 117.143 124.275 120.662C123.847 124.025 123.191 127.617 123.42 130.988C123.796 136.608 128.937 139.16 133.915 139.964C133.965 139.972 134.015 139.961 134.056 139.932C134.096 139.904 134.125 139.861 134.134 139.812C134.144 139.763 134.134 139.712 134.107 139.671C134.08 139.629 134.038 139.599 133.989 139.588C131.157 139.028 128.258 138.238 126.149 136.129C123.434 133.429 123.752 129.911 124.069 126.4C124.614 120.426 125.5 114.496 126.599 108.595C127.698 102.694 129.003 96.8378 130.405 90.9962C131.732 85.4422 132.706 78.1328 138.4 75.3078C138.459 75.3078 138.429 75.2193 138.37 75.2488Z" fill="#263238"/>
<path d="M156.486 84.7563C155.49 80.4636 153.263 76.2741 148.734 75.0276C154.576 76.8937 155.999 83.2811 156.781 88.6139C157.597 94.2293 158.207 99.8694 158.61 105.534C159.001 110.977 159.281 116.465 159.171 121.923C159.06 127.824 157.991 133.333 154.509 138.187C154.443 138.29 154.576 138.408 154.657 138.312C158.086 134.388 159.222 128.974 159.495 123.907C159.741 117.199 159.544 110.483 158.905 103.801C158.374 97.4943 157.887 90.9446 156.486 84.7563Z" fill="#263238"/>
<path d="M145.835 111.059C155.873 122.742 165.012 135.074 173.332 135.31C181.246 135.532 194.722 112.836 196.322 105.962C196.868 103.594 179.218 97.9296 177.588 99.9579C174.519 103.771 169.895 114.606 168.67 114.636C167.446 114.665 158.381 108.086 147.672 102.694C141.181 99.4121 138.88 102.96 145.835 111.059Z" fill="#D3766A"/>
<path d="M195.437 108.219C196.558 106.39 200.969 97.5386 201.648 94.8021C202.326 92.0657 203.698 84.0556 201.648 83.318C199.597 82.5804 199.015 84.9038 199.015 84.9038C199.015 84.9038 199.059 81.4298 196.935 80.8766C194.81 80.3234 193.984 83.9597 193.984 83.9597C193.984 83.9597 193.77 80.3898 191.609 79.9915C189.448 79.5932 189.264 83.3844 189.264 83.3844C189.264 83.3844 189.22 80.1021 187.302 80.5299C185.001 81.0388 185.76 87.0649 184.787 90.03C184.565 90.7086 179.336 103.365 179.336 103.365L195.437 108.219Z" fill="#D3766A"/>
<path d="M189.323 83.0599C189.869 87.4854 189.323 89.5359 187.472 93.5188C187.463 93.5345 187.461 93.553 187.465 93.5703C187.47 93.5876 187.482 93.6022 187.497 93.611C187.513 93.6198 187.532 93.6221 187.549 93.6172C187.566 93.6124 187.581 93.6009 187.59 93.5852C189.802 89.8531 190.805 87.3969 189.537 83.0231C189.47 82.8092 189.293 82.846 189.323 83.0599Z" fill="#263238"/>
<path d="M193.97 83.613C194.139 88.2672 193.586 90.4873 191.934 94.8021C191.934 94.8611 192.008 94.9054 192.037 94.8464C194.014 90.7454 194.988 88.2745 194.206 83.6351C194.169 83.4286 193.962 83.3991 193.97 83.613Z" fill="#263238"/>
<path d="M198.933 85.1251C198.771 89.6465 198.27 92.0953 196.123 96.0782C196.111 96.0968 196.108 96.1193 196.112 96.1407C196.117 96.1622 196.13 96.1808 196.149 96.1926C196.168 96.2043 196.19 96.2082 196.211 96.2033C196.233 96.1985 196.252 96.1853 196.263 96.1668C198.845 92.3166 199.494 89.263 199.066 85.1399C199.037 84.8596 198.941 84.8375 198.933 85.1251Z" fill="#263238"/>
<path d="M176.932 105.217C176.932 105.217 175.751 99.744 175.766 97.2215C175.781 94.699 179.285 85.3243 181.35 85.966C184.02 86.7921 183.061 92.6042 182.227 95.3923C182.227 95.3923 188.401 97.3026 188.615 101.617C188.829 105.932 176.932 105.217 176.932 105.217Z" fill="#D3766A"/>
<path d="M182.013 86.4307C183.902 88.9458 182.559 92.5305 181.947 95.2816C181.936 95.3219 181.935 95.3641 181.944 95.4048C181.953 95.4455 181.972 95.4834 181.999 95.5153C182.025 95.5472 182.059 95.5721 182.098 95.5879C182.137 95.6037 182.178 95.61 182.22 95.6062C184.757 96.5798 188.054 98.6893 188.74 101.507C188.745 101.52 188.753 101.531 188.764 101.539C188.776 101.547 188.789 101.551 188.803 101.551C188.817 101.551 188.83 101.547 188.841 101.539C188.852 101.531 188.861 101.52 188.865 101.507C188.534 98.4164 185.473 96.0782 182.626 95.1931C183.297 92.3682 184.484 88.7172 182.035 86.4528C182.021 86.4012 181.999 86.4159 182.013 86.4307Z" fill="#263238"/>
<path d="M174.733 103.1L192.966 115.263C192.966 115.263 181.489 136.181 173.789 136.04C166.089 135.9 150.806 119.327 143.526 107.879C138.488 99.9431 143.615 100.223 149.633 103.299C155.652 106.375 168.331 113.847 168.869 113.559C169.408 113.271 174.733 103.1 174.733 103.1Z" fill="#ADB9E3"/>
<path opacity="0.1" d="M143.519 107.887C150.799 119.356 166.118 135.856 173.804 136.004C177.197 136.063 181.342 132.013 184.868 127.47C175.7 121.569 154.678 107.592 143.843 101.322C141.232 101.101 140.31 102.82 143.519 107.887Z" fill="#000102"/>
<path d="M188.807 118.906C186.196 117.254 175.737 110.055 173.583 108.396C173.435 108.278 173.472 108.152 173.642 108.256C181.6 113.021 186.387 117.048 188.873 118.803C188.939 118.847 188.873 118.951 188.807 118.906Z" fill="#263238"/>
<path d="M120.514 139.655L160.159 140.304L157.053 128.436C158.086 126.949 158.781 125.254 159.09 123.471C159.398 121.687 159.312 119.857 158.838 118.11C157.887 114.614 153.373 109.377 150.607 106.05C143.873 97.9368 138.016 101.625 136.15 103.697C129.018 111.634 120.514 139.655 120.514 139.655Z" fill="white"/>
<path d="M139.211 101.404C139.211 101.404 143.098 111.73 144.618 114.083C146.137 116.435 150.607 120.662 150.607 120.662C150.607 120.662 151.123 114.569 150.607 111.073C150.091 107.577 147.133 102.628 147.133 102.628C147.927 103.043 148.637 103.6 149.228 104.273C152.584 107.695 158.418 114.422 159.303 119.024C159.632 120.618 159.641 122.262 159.331 123.859C159.021 125.457 158.397 126.977 157.496 128.333L161.966 142.598L155.704 144.537L152.621 140.849L149.442 144.899L117.726 140.473L122.992 130.531C122.992 130.531 130.545 110.926 133.532 106.633C136.969 101.794 139.211 101.404 139.211 101.404Z" fill="#ADB9E3"/>
<path d="M142.589 129.963C143.937 129.568 145.306 129.251 146.69 129.011C147.384 128.893 148.077 128.819 148.778 128.76L149.781 128.694C150.15 128.694 150.518 128.694 150.895 128.694C150.931 128.694 150.939 128.746 150.895 128.753C150.548 128.79 150.209 128.878 149.862 128.93L148.822 129.092L146.749 129.417C145.363 129.623 143.983 129.837 142.604 130.088C142.538 130.088 142.523 129.985 142.589 129.963Z" fill="#263238"/>
<path d="M136.335 111.154C133.385 115.58 119.37 132.116 118.95 133.828C118.721 134.787 122.505 138.061 122.476 138.747C122.336 141.528 114.702 163.501 112.223 161.716C108.963 159.37 96.9996 139.891 98.5854 132.139C100.171 124.387 131.924 104.037 136.829 102.23C141.734 100.423 139.256 106.788 136.335 111.154Z" fill="#ADB9E3"/>
<path d="M131.902 118.066C130.56 119.843 129.158 121.562 127.742 123.28C126.326 124.999 124.792 126.585 123.317 128.244C122.579 129.063 121.842 129.889 121.148 130.745C120.435 131.551 119.816 132.437 119.304 133.385C119.254 133.485 119.222 133.592 119.208 133.702C119.209 133.805 119.226 133.907 119.26 134.005C119.346 134.259 119.452 134.505 119.577 134.742C119.846 135.218 120.142 135.679 120.462 136.122C121.074 137.036 121.775 137.899 122.469 138.769C121.657 138.004 120.888 137.194 120.167 136.343C119.813 135.906 119.483 135.451 119.179 134.978C119.023 134.729 118.888 134.467 118.773 134.196C118.708 134.034 118.67 133.862 118.663 133.688C118.678 133.521 118.715 133.357 118.773 133.201C119.251 132.164 119.867 131.197 120.602 130.324C121.296 129.446 122.026 128.606 122.764 127.772C124.239 126.105 125.861 124.586 127.322 122.919C128.782 121.252 130.331 119.644 131.902 118.066Z" fill="#263238"/>
<path d="M131.408 120.418C131.013 120.762 130.577 121.054 130.11 121.289C129.644 121.533 129.148 121.714 128.635 121.827C129.429 121.145 130.375 120.662 131.393 120.418H131.408Z" fill="#263238"/>
<path d="M110.055 153.882C111.279 151.043 116.693 139.596 118.065 137.206C118.153 137.036 118.286 137.058 118.212 137.206C114.738 145.88 111.493 151.205 110.165 153.927C110.129 153.993 110.018 153.993 110.055 153.882Z" fill="#263238"/>
<path d="M121.155 167.742C123.457 166.267 120.418 164.393 120.418 164.393C120.418 164.393 125.478 166.023 127.263 163.574C129.047 161.126 125.19 159.09 124.924 158.935C125.19 159.016 129.881 160.41 131.422 157.747C133.016 154.996 128.856 153.514 128.59 153.418C128.863 153.418 132.544 153.351 133.259 151.08C134.483 147.171 123.936 146.47 121.716 144.006C121.716 144.006 122.859 138.843 122.948 138.696C122.948 138.696 121.738 140.695 119.879 141.174C117.585 141.764 115.52 142.089 114.569 143.165C114.125 143.634 113.845 144.233 113.769 144.873C113.693 145.514 113.826 146.162 114.148 146.721C114.148 146.721 111.272 146.322 109.988 148.358C109.339 149.413 110.438 151.389 110.438 151.389C110.438 151.389 108.115 151.168 107.097 153.049C106.271 154.524 107.503 156.309 107.503 156.309C107.503 156.309 105.179 157.12 104.833 158.928C104.117 162.579 116.221 170.913 121.155 167.742Z" fill="#D3766A"/>
<path d="M107.628 156.612C107.62 156.605 107.61 156.601 107.6 156.602C107.589 156.603 107.58 156.607 107.573 156.615C107.566 156.623 107.562 156.633 107.563 156.644C107.564 156.654 107.569 156.664 107.576 156.671C111.005 160.54 115.53 163.275 120.55 164.511C120.713 164.548 120.838 164.305 120.668 164.231C115.975 162.338 111.582 159.771 107.628 156.612V156.612Z" fill="#263238"/>
<path d="M110.335 151.375C110.291 151.375 110.232 151.412 110.269 151.456C113.706 155.262 119.179 158.566 124.954 159.134C125.153 159.134 125.352 158.972 125.124 158.935C121.311 158.264 114.001 154.391 110.335 151.375Z" fill="#263238"/>
<path d="M128.981 153.322C123.464 152.584 118.744 150.106 114.23 146.89C114.17 146.846 114.119 146.934 114.163 146.986C115.926 149.155 119.002 150.91 121.539 152.068C123.84 153.203 126.399 153.711 128.959 153.543C129.055 153.506 129.099 153.337 128.981 153.322Z" fill="#263238"/>
<path d="M107.333 156.287C106.536 155.247 106.013 153.942 106.595 152.666C106.867 152.087 107.338 151.626 107.923 151.367C108.624 151.15 109.367 151.099 110.092 151.22C109.695 150.644 109.482 149.961 109.482 149.262C109.482 148.562 109.695 147.879 110.092 147.303C110.533 146.82 111.137 146.515 111.788 146.448C112.544 146.399 113.302 146.449 114.045 146.595C113.743 146.224 113.531 145.787 113.428 145.32C113.324 144.852 113.331 144.367 113.448 143.903C113.596 143.395 113.864 142.929 114.228 142.544C114.592 142.159 115.043 141.867 115.542 141.69C116.707 141.304 117.912 141.057 119.134 140.953C119.762 140.869 120.378 140.713 120.971 140.488C121.608 140.213 122.147 139.753 122.52 139.168C122.594 139.072 122.579 139.168 122.52 139.264C122.27 139.659 121.959 140.013 121.598 140.311C121.217 140.626 120.795 140.886 120.344 141.085C119.228 141.476 118.084 141.781 116.922 142C115.9 142.242 114.987 142.815 114.325 143.63C114.032 144.06 113.861 144.563 113.833 145.083C113.804 145.603 113.918 146.121 114.163 146.58C114.174 146.592 114.18 146.607 114.181 146.623C114.182 146.639 114.177 146.655 114.167 146.667C114.157 146.68 114.143 146.688 114.128 146.691C114.112 146.694 114.096 146.692 114.082 146.684C113.403 146.664 112.725 146.725 112.061 146.868C111.511 146.999 111.014 147.295 110.637 147.716C110.28 148.244 110.068 148.857 110.023 149.493C109.977 150.128 110.1 150.765 110.379 151.338C109.645 151.381 108.924 151.551 108.248 151.839C107.81 152.09 107.455 152.465 107.23 152.916C106.96 153.435 106.841 154.018 106.885 154.601C106.929 155.183 107.136 155.742 107.481 156.213C107.484 156.228 107.484 156.243 107.481 156.258V156.258C107.481 156.258 106.743 156.545 106.706 156.545C106.669 156.545 106.706 156.545 106.706 156.508C106.91 156.42 107.119 156.346 107.333 156.287V156.287Z" fill="#263238"/>
<path d="M140.03 102.657C140.222 103.351 143.792 107.82 147.015 107.503C148.062 107.407 147.797 101.662 147.797 101.662L147.87 101.227L148.947 95.2226L141.734 91.0331L140.701 90.4873C140.701 90.4873 140.517 92.1469 140.303 94.2195C140.303 94.3154 140.303 94.4112 140.303 94.5145C140.303 94.6178 140.303 94.7432 140.266 94.8538C140.266 95.1636 140.192 95.4807 140.163 95.7979C140.133 96.1151 140.118 96.27 140.104 96.5355C140.089 96.801 140.104 97.037 140.052 97.2731C139.919 99.0652 139.912 100.864 140.03 102.657V102.657Z" fill="#D3766A"/>
<path d="M140.333 94.249C141.006 95.8935 142.029 97.372 143.331 98.5819C144.632 99.7918 146.181 100.704 147.871 101.256L148.947 95.2521L141.734 91.0331L140.701 90.4873C140.701 90.4873 140.546 92.1469 140.333 94.249Z" fill="#263238"/>
<path d="M157.01 85.5087C159.274 95.975 153.263 98.5122 150.998 98.9991C148.955 99.4416 141.919 100.681 138.585 90.5021C135.251 80.3235 139.403 75.957 144.035 74.7031C148.667 73.4492 154.745 75.0719 157.01 85.5087Z" fill="#D3766A"/>
<path d="M153.934 84.476C153.687 84.4737 153.441 84.4565 153.196 84.4244C152.936 84.4438 152.676 84.3763 152.458 84.2326C152.399 84.1739 152.361 84.0976 152.349 84.0151C152.337 83.9325 152.352 83.8484 152.392 83.7753C152.494 83.64 152.631 83.5354 152.789 83.4729C152.946 83.4105 153.118 83.3926 153.285 83.4213C153.628 83.4237 153.959 83.5523 154.214 83.7827C154.271 83.839 154.309 83.9107 154.325 83.9889C154.341 84.0672 154.334 84.1484 154.304 84.2224C154.274 84.2964 154.223 84.36 154.157 84.4051C154.091 84.4502 154.013 84.4749 153.934 84.476Z" fill="#263238"/>
<path d="M146.764 86.6887C147 86.6149 147.231 86.5287 147.457 86.4306C147.716 86.3766 147.949 86.2392 148.121 86.0397C148.162 85.9655 148.178 85.88 148.166 85.7963C148.154 85.7125 148.115 85.6348 148.055 85.575C147.917 85.4775 147.755 85.4185 147.586 85.4043C147.418 85.39 147.249 85.4209 147.096 85.4939C146.768 85.5928 146.488 85.8078 146.307 86.0987C146.271 86.1684 146.257 86.2468 146.264 86.3246C146.272 86.4024 146.301 86.4766 146.349 86.5384C146.397 86.6002 146.461 86.6471 146.535 86.6737C146.608 86.7004 146.688 86.7056 146.764 86.6887V86.6887Z" fill="#263238"/>
<path d="M148.586 87.9647C148.586 87.9647 148.535 88.009 148.542 88.0385C148.682 88.7761 148.726 89.5948 148.122 89.9414C148.122 89.9414 148.122 89.9931 148.122 89.9857C148.903 89.7349 148.837 88.6212 148.586 87.9647Z" fill="#263238"/>
<path d="M147.819 87.3231C146.646 87.4264 146.949 89.7645 148.033 89.6613C149.117 89.558 148.8 87.2346 147.819 87.3231Z" fill="#263238"/>
<path d="M147.377 87.5001C147.185 87.6624 147.015 87.9205 146.779 87.9795C146.543 88.0385 146.248 87.8246 146.042 87.6107C146.042 87.6107 145.997 87.6107 146.005 87.6476C146.056 88.0902 146.285 88.5327 146.742 88.5327C147.2 88.5327 147.48 88.1049 147.48 87.6402C147.539 87.5517 147.45 87.4411 147.377 87.5001Z" fill="#263238"/>
<path d="M152.798 86.9543C152.798 86.9543 152.857 86.9543 152.864 87.006C152.96 87.7436 153.196 88.5401 153.889 88.6655C153.889 88.6655 153.889 88.6655 153.889 88.7098C153.078 88.7319 152.798 87.655 152.798 86.9543Z" fill="#263238"/>
<path d="M153.307 86.0914C154.45 85.8037 154.937 88.105 153.882 88.3705C152.827 88.636 152.355 86.3274 153.307 86.0914Z" fill="#263238"/>
<path d="M153.823 86.1355C154.029 86.2166 154.258 86.401 154.479 86.3642C154.7 86.3273 154.863 86.0396 154.973 85.7667C154.973 85.7667 155.01 85.7667 155.018 85.7667C155.121 86.2019 155.077 86.6887 154.671 86.8657C154.265 87.0427 153.933 86.7035 153.742 86.2904C153.705 86.2462 153.734 86.1355 153.823 86.1355Z" fill="#263238"/>
<path d="M149.906 93.8654C150.091 94.0203 150.282 94.2416 150.548 94.2416C150.809 94.2104 151.06 94.125 151.285 93.9908C151.285 93.9908 151.337 93.9908 151.285 93.9908C151.193 94.143 151.062 94.2673 150.905 94.3505C150.747 94.4336 150.571 94.4725 150.393 94.4629C150.24 94.4407 150.098 94.3711 149.987 94.2639C149.876 94.1567 149.801 94.0174 149.773 93.8654C149.847 93.8581 149.847 93.8433 149.906 93.8654Z" fill="#263238"/>
<path d="M152.562 90.8267C152.562 90.8267 152.857 91.8888 152.931 92.3977C152.931 92.442 152.82 92.4862 152.643 92.5157C152.217 92.6561 151.76 92.6766 151.323 92.5752C150.886 92.4737 150.486 92.2541 150.165 91.9404C150.121 91.8962 150.165 91.8371 150.231 91.8593C150.941 92.211 151.745 92.3248 152.525 92.1838C152.525 92.0363 151.957 90.3841 152.031 90.3694C152.432 90.3512 152.834 90.3859 153.226 90.4726C152.665 88.2599 151.751 86.1356 151.227 83.9155C151.22 83.8989 151.22 83.8802 151.227 83.8636C151.234 83.847 151.247 83.8339 151.264 83.827C151.28 83.8202 151.299 83.8202 151.316 83.8271C151.332 83.834 151.345 83.8473 151.352 83.8639C152.4 86.1002 153.223 88.4351 153.808 90.834C153.875 91.1217 152.798 90.8857 152.562 90.8267Z" fill="#263238"/>
<path d="M152.569 92.3387C152.347 92.7944 152.009 93.1835 151.588 93.4672C151.356 93.6173 151.083 93.692 150.806 93.6811C150.202 93.6811 150.069 93.1205 150.069 92.6485C150.077 92.3986 150.117 92.1509 150.187 91.9109C150.915 92.3054 151.75 92.4554 152.569 92.3387V92.3387Z" fill="#263238"/>
<path d="M151.588 93.4672C151.356 93.6173 151.083 93.692 150.806 93.6811C150.202 93.6811 150.069 93.1205 150.069 92.6485C150.377 92.5917 150.696 92.6419 150.972 92.7908C151.249 92.9396 151.466 93.1782 151.588 93.4672V93.4672Z" fill="#FF9ABB"/>
<path d="M138.658 91.0773C139.319 90.6957 139.871 90.1493 140.259 89.4914C140.646 88.8336 140.857 88.0866 140.871 87.3231C142.682 86.3778 144.21 84.9675 145.296 83.2369C145.245 83.4581 144.824 85.0882 144.559 85.9143C151.278 84.2031 153.048 78.863 153.048 78.863C154.424 79.9753 155.533 81.3817 156.294 82.9787C156.294 82.9787 156.072 78.804 153.742 76.1487C152.984 75.2218 151.992 74.5138 150.869 74.0976C149.747 73.6815 148.533 73.5722 147.354 73.781C145.66 73.4987 143.922 73.6746 142.319 74.2907C140.715 74.9067 139.306 75.9404 138.238 77.2846C134.129 82.3739 138.658 91.0773 138.658 91.0773Z" fill="#263238"/>
<path d="M149.737 84.4539C148.68 85.1121 147.532 85.6092 146.329 85.9291C146.329 85.9291 146.329 85.9291 146.329 85.9291C148.207 85.2827 149.867 84.1257 151.123 82.5879C151.655 81.9303 152.104 81.2093 152.458 80.4415C152.879 79.6143 153.129 78.7116 153.196 77.7862C153.196 77.7198 153.299 77.7272 153.299 77.7862C153.331 78.7048 153.209 79.6222 152.938 80.5005C152.628 81.3583 152.166 82.153 151.573 82.846C151.039 83.4591 150.421 83.9931 149.737 84.4318" fill="#263238"/>
<path d="M140.524 89.9857C140.524 89.9857 137.788 86.969 136.386 87.9869C134.985 89.0048 137.345 93.5925 139.189 94.0203C139.422 94.0931 139.668 94.1178 139.911 94.0929C140.155 94.0679 140.39 93.9939 140.604 93.8753C140.818 93.7568 141.005 93.596 141.155 93.4029C141.305 93.2097 141.414 92.9882 141.476 92.7517L140.524 89.9857Z" fill="#D3766A"/>
<path d="M137.095 89.285C137.095 89.285 137.095 89.285 137.095 89.3293C137.698 89.5421 138.25 89.8782 138.716 90.3164C139.182 90.7545 139.552 91.285 139.802 91.874C139.713 91.7595 139.602 91.6655 139.474 91.5983C139.346 91.531 139.205 91.4923 139.061 91.4846C138.916 91.4769 138.772 91.5004 138.638 91.5536C138.503 91.6068 138.382 91.6884 138.282 91.7928C138.282 91.7928 138.282 91.8666 138.326 91.8518C138.535 91.7552 138.769 91.726 138.995 91.7683C139.221 91.8106 139.428 91.9223 139.588 92.0879C139.868 92.3604 140.116 92.6649 140.325 92.9951C140.399 93.0983 140.591 92.9951 140.532 92.8918C140.318 91.2986 138.784 89.226 137.095 89.285Z" fill="#263238"/>
<path d="M139.042 101.625C138.643 104.376 138.193 107.112 137.729 109.856L137.589 109.628C139.204 110.048 140.804 110.513 142.42 110.955L142.685 111.029L142.567 111.287C142.088 112.349 141.616 113.411 141.092 114.459L141.026 114.164C142.73 115.639 144.455 117.114 146.137 118.589C147.819 120.064 149.515 121.591 151.175 123.133C149.39 121.739 147.642 120.315 145.901 118.87C144.16 117.424 142.435 115.963 140.701 114.518L140.561 114.392L140.635 114.223C141.107 113.161 141.608 112.106 142.11 111.059L142.257 111.39C140.657 110.918 139.049 110.468 137.456 109.982L137.279 109.923V109.753C137.876 107.076 138.429 104.354 139.042 101.625Z" fill="#263238"/>
<path d="M147.974 103.262C148.867 104.192 149.494 104.855 150.364 105.814C151.234 106.773 152.119 107.71 152.968 108.683L153.137 108.883L152.909 109.023L151.234 110.063L151.286 109.687C151.972 110.38 152.673 111.066 153.344 111.767L153.432 111.862V111.988C153.086 113.854 152.768 115.727 152.392 117.593C152.016 119.46 151.655 121.326 151.227 123.177C151.456 121.289 151.736 119.408 152.023 117.527C152.311 115.646 152.636 113.78 152.938 111.899L153.012 112.121C152.311 111.435 151.64 110.727 150.961 110.026L150.747 109.812L151.006 109.657L152.702 108.639L152.643 108.978C151.802 108.005 150.991 107.002 150.165 106.028C149.339 105.055 148.771 104.28 147.974 103.262Z" fill="#263238"/>
<path d="M151.205 123.177C151.441 124.084 151.684 124.991 151.898 125.906C152.112 126.821 152.326 127.728 152.525 128.642C152.591 130.686 152.613 132.721 152.643 134.757C152.672 136.793 152.643 138.836 152.643 140.879C152.525 138.843 152.436 136.8 152.37 134.764C152.304 132.729 152.252 130.693 152.23 128.65C152.038 127.735 151.854 126.813 151.691 125.891C151.529 124.969 151.323 124.106 151.205 123.177Z" fill="#263238"/>
<path d="M150.666 125.611C150.67 125.737 150.638 125.861 150.573 125.969C150.509 126.077 150.415 126.164 150.302 126.22C150.189 126.276 150.063 126.298 149.938 126.285C149.813 126.271 149.694 126.221 149.596 126.142C149.517 126.079 149.452 125.998 149.408 125.906C149.363 125.814 149.34 125.713 149.34 125.611C149.34 125.509 149.363 125.408 149.408 125.316C149.452 125.224 149.517 125.144 149.596 125.08C149.694 125.001 149.813 124.951 149.938 124.937C150.063 124.924 150.189 124.946 150.302 125.002C150.415 125.058 150.509 125.145 150.573 125.253C150.638 125.361 150.67 125.485 150.666 125.611ZM150.666 125.611C150.664 125.543 150.646 125.476 150.614 125.416C150.582 125.356 150.537 125.304 150.482 125.264C150.431 125.229 150.373 125.205 150.311 125.194C150.25 125.184 150.187 125.188 150.128 125.205C150.046 125.237 149.976 125.293 149.927 125.365C149.879 125.438 149.853 125.524 149.855 125.611C149.85 125.699 149.874 125.786 149.923 125.86C149.972 125.933 150.044 125.988 150.128 126.017C150.187 126.034 150.249 126.038 150.31 126.029C150.371 126.02 150.43 125.998 150.482 125.965C150.536 125.923 150.581 125.87 150.613 125.809C150.645 125.747 150.663 125.68 150.666 125.611V125.611Z" fill="#263238"/>
<path d="M151.463 131.512C151.464 131.667 151.411 131.817 151.312 131.937C151.214 132.057 151.077 132.139 150.924 132.168C150.832 132.187 150.737 132.186 150.645 132.164C150.553 132.142 150.467 132.101 150.393 132.043C150.313 131.979 150.249 131.898 150.205 131.806C150.16 131.715 150.137 131.614 150.137 131.512C150.137 131.41 150.16 131.309 150.205 131.217C150.249 131.125 150.313 131.044 150.393 130.981C150.491 130.901 150.61 130.852 150.735 130.838C150.86 130.824 150.986 130.847 151.099 130.903C151.211 130.959 151.306 131.046 151.37 131.154C151.435 131.262 151.467 131.386 151.463 131.512V131.512ZM151.463 131.512C151.46 131.443 151.442 131.375 151.41 131.314C151.378 131.253 151.333 131.2 151.278 131.158C151.226 131.124 151.168 131.103 151.107 131.094C151.046 131.085 150.984 131.089 150.924 131.106C150.843 131.138 150.772 131.193 150.723 131.266C150.673 131.338 150.647 131.424 150.647 131.512C150.647 131.599 150.673 131.685 150.723 131.757C150.772 131.83 150.843 131.886 150.924 131.917C150.984 131.934 151.046 131.938 151.107 131.93C151.168 131.921 151.226 131.899 151.278 131.866C151.333 131.824 151.378 131.77 151.41 131.709C151.442 131.648 151.46 131.581 151.463 131.512V131.512Z" fill="#263238"/>
<path d="M151.736 136.911C151.736 137.065 151.684 137.215 151.587 137.336C151.491 137.457 151.356 137.541 151.205 137.575C151.111 137.591 151.014 137.587 150.922 137.564C150.829 137.541 150.742 137.5 150.666 137.442C150.588 137.377 150.524 137.296 150.481 137.205C150.437 137.113 150.415 137.012 150.415 136.911C150.415 136.809 150.437 136.709 150.481 136.617C150.524 136.525 150.588 136.444 150.666 136.38C150.742 136.322 150.829 136.28 150.922 136.257C151.014 136.234 151.111 136.231 151.205 136.247C151.356 136.281 151.491 136.365 151.587 136.485C151.684 136.606 151.736 136.756 151.736 136.911V136.911ZM151.736 136.911C151.736 136.842 151.719 136.775 151.687 136.715C151.654 136.654 151.608 136.602 151.551 136.564C151.502 136.528 151.445 136.504 151.384 136.495C151.324 136.486 151.262 136.492 151.205 136.512C151.122 136.542 151.051 136.595 151.001 136.667C150.951 136.738 150.924 136.823 150.924 136.911C150.921 136.999 150.947 137.087 150.997 137.16C151.048 137.233 151.121 137.288 151.205 137.316C151.263 137.333 151.324 137.337 151.384 137.328C151.444 137.32 151.501 137.298 151.551 137.265C151.607 137.224 151.652 137.17 151.684 137.109C151.716 137.048 151.734 136.98 151.736 136.911V136.911Z" fill="#263238"/>
</svg>
